<?xml version="1.0" encoding="utf-8"?>
<!-- Generator: Adobe Illustrator 25.2.0, SVG Export Plug-In . SVG Version: 6.00 Build 0)  -->
<svg version="1.1" id="Layer_1" xmlns="http://www.w3.org/2000/svg" xmlns:xlink="http://www.w3.org/1999/xlink" x="0px" y="0px"
	 viewBox="0 0 262.7 37.8" style="enable-background:new 0 0 262.7 37.8;" xml:space="preserve">
<style type="text/css">
	.st0{fill:#00354E;}
	.st1{fill:#005578;}
	.st2{fill:#0088C2;}
</style>
<g>
	<g id="Logo">
		<g id="Logo_ARM_1_">
			<polygon class="st0" points="10.3,31.4 18.1,31.4 21.5,37.8 6.2,37.8 			"/>
			<polygon class="st1" points="7.4,37.8 15.9,22.4 11.9,15.5 0,37.8 			"/>
			<polygon class="st2" points="20.3,0 41.1,37.8 33.6,37.8 16.4,7.3 			"/>
			<polygon class="st2" points="15.7,8.6 11.9,15.5 24.6,37.8 32.2,37.8 			"/>
		</g>
	</g>
	<g>
		<path d="M52.4,19.2L51,22.7h-2.7l6.8-15.5h2.7l6.8,15.5h-2.8l-1.5-3.5H52.4z M56.3,10l-2.9,6.9h5.8L56.3,10z"/>
		<path d="M73.5,18c-0.2,0-0.5,0-0.7,0h-3.7v4.7h-2.6V7.2h6.3c4,0,6.2,1.9,6.2,5.3c0,2.5-1.1,4.2-3.2,5l3.5,5.2h-3L73.5,18z
			 M72.8,15.7c2.4,0,3.8-1,3.8-3.1c0-2-1.4-3-3.8-3h-3.7v6.1H72.8z"/>
		<path d="M96.4,22.7l0-11.5l-4.9,9.9h-1.7l-4.9-9.9v11.5h-2.5V7.2h3.1l5.1,10.3l5.1-10.3h3.1v15.5H96.4z"/>
		<path d="M117.8,8.6l-0.8,1.7c-1.4-0.9-3-1.3-4.3-1.3c-2,0-3.3,0.8-3.3,2.1c0,4,8.7,1.9,8.7,7.5c0,2.6-2.3,4.2-5.6,4.2
			c-2.3,0-4.5-1-5.9-2.4l0.8-1.6c1.4,1.4,3.4,2.2,5.1,2.2c2.2,0,3.6-0.9,3.6-2.4c0-4.1-8.7-1.9-8.7-7.4c0-2.4,2.1-4,5.3-4
			C114.7,7.2,116.5,7.7,117.8,8.6z"/>
		<path d="M132.2,16.9c0,3.5-2.5,5.9-5.9,5.9c-3.4,0-5.9-2.4-5.9-5.9c0-3.5,2.5-5.8,5.9-5.8C129.7,11,132.2,13.4,132.2,16.9z
			 M122.1,16.9c0,2.6,1.7,4.3,4.2,4.3c2.4,0,4.2-1.8,4.2-4.3c0-2.5-1.7-4.3-4.2-4.3C123.9,12.6,122.1,14.3,122.1,16.9z"/>
		<path d="M137.2,9.9v1.5h3.3v1.4h-3.3v9.9h-1.7v-9.9H134v-1.4h1.5v-1.3c0-2.5,1.8-3.9,3.7-3.9c0.9,0,1.8,0.3,2.5,0.8L141,8.4
			c-0.5-0.4-1.2-0.6-1.8-0.6C138.1,7.8,137.2,8.6,137.2,9.9z"/>
		<path d="M148.4,21.9c-0.8,0.6-1.7,0.9-2.6,0.9c-1.7,0-3-1-3-3.3v-6.6h-1.7v-1.4h1.7V8.4h1.7v3.1l3.7,0v1.4h-3.7v6.3
			c0,1.4,0.6,1.9,1.5,1.9c0.6,0,1.2-0.2,1.9-0.6L148.4,21.9z"/>
		<path d="M162,22.7l-3.4-9.4l-3.4,9.4h-1.8L149,11.1h1.8l3.4,9.8l3.4-9.8h1.8l3.4,9.8l3.4-9.8h1.8l-4.3,11.6H162z"/>
		<path d="M177,20.9c-0.9,1.3-2.4,1.9-4.3,1.9c-2.4,0-4-1.5-4-3.6c0-2,1.6-3.3,4.3-3.3h3.8v-0.7c0-1.7-1.1-2.7-3.1-2.7
			c-1.3,0-2.5,0.5-3.7,1.3l-0.7-1.3c1.5-1,2.8-1.6,4.7-1.6c2.9,0,4.5,1.5,4.5,4l0,7.7H177V20.9z M177,18.7v-1.4h-3.6
			c-1.9,0-3,0.6-3,1.9s1,2.1,2.7,2.1C175.1,21.3,176.6,20.3,177,18.7z"/>
		<path d="M184.3,13.6c0.8-1.7,2.2-2.6,4.2-2.6v1.7c-2.5,0-4,1.5-4.2,3.8v6.2h-1.7V11.1h1.7V13.6z"/>
		<path d="M200.8,17.5h-9.5c0.3,2.3,2,3.7,4.2,3.7c1.4,0,2.7-0.5,3.6-1.5l0.9,1c-1.1,1.2-2.7,1.9-4.7,1.9c-3.4,0-5.8-2.4-5.8-5.9
			s2.4-5.9,5.8-5.9C199.1,11,200.9,13.6,200.8,17.5z M199.2,16.1c-0.1-2.2-1.6-3.6-3.9-3.6c-2.2,0-3.8,1.4-4.1,3.6H199.2z"/>
		<path d="M222.2,9.4l-1.1,1.3c-1.2-1.2-2.9-1.9-4.6-1.9c-3.5,0-6.3,2.7-6.3,6.1c0,3.4,2.8,6.1,6.3,6.1c1.7,0,3.4-0.7,4.6-1.9
			l1.1,1.2c-1.5,1.4-3.6,2.4-5.7,2.4c-4.5,0-8-3.5-8-7.8c0-4.3,3.6-7.7,8.1-7.7C218.7,7.2,220.8,8.1,222.2,9.4z"/>
		<path d="M235.4,16.9c0,3.5-2.5,5.9-5.9,5.9c-3.4,0-5.9-2.4-5.9-5.9c0-3.5,2.5-5.8,5.9-5.8C233,11,235.4,13.4,235.4,16.9z
			 M225.4,16.9c0,2.6,1.7,4.3,4.2,4.3c2.4,0,4.2-1.8,4.2-4.3c0-2.5-1.7-4.3-4.2-4.3C227.1,12.6,225.4,14.3,225.4,16.9z"/>
		<path d="M240.2,13.6c0.8-1.7,2.2-2.6,4.2-2.6v1.7c-2.5,0-4,1.5-4.2,3.8v6.2h-1.7V11.1h1.7V13.6z"/>
		<path d="M258.6,16.9c0,3.4-2.3,5.8-5.5,5.8c-2.1,0-3.7-0.9-4.5-2.6V27h-1.7V11.1h1.7v2.5c0.9-1.6,2.5-2.6,4.5-2.6
			C256.3,11,258.6,13.4,258.6,16.9z M256.8,16.9c0-2.5-1.7-4.3-4.2-4.3c-2.5,0-4.2,1.8-4.2,4.3c0,2.5,1.7,4.3,4.2,4.3
			C255.1,21.2,256.8,19.4,256.8,16.9z"/>
		<path d="M262.7,21.7c0,0.7-0.5,1.1-1.1,1.1c-0.6,0-1.1-0.5-1.1-1.1c0-0.7,0.5-1.1,1.1-1.1C262.3,20.6,262.7,21.1,262.7,21.7z"/>
		<path d="M49.4,37.7v-9.6h1.1v9.6H49.4z"/>
		<path d="M56.3,29.2v8.5h-1.1v-8.5h-3.1v-1.1h7.4v1.1H56.3z"/>
		<path d="M70.6,29l-0.5,1c-0.9-0.6-1.9-0.8-2.6-0.8c-1.2,0-2,0.5-2,1.3c0,2.5,5.4,1.2,5.4,4.7c0,1.6-1.4,2.6-3.5,2.6
			c-1.4,0-2.8-0.6-3.7-1.5l0.5-1c0.9,0.9,2.1,1.4,3.2,1.4c1.4,0,2.2-0.6,2.2-1.5c0-2.5-5.4-1.2-5.4-4.6c0-1.5,1.3-2.5,3.3-2.5
			C68.7,28.1,69.8,28.5,70.6,29z"/>
		<path d="M79.2,34.5h-5.9c0.2,1.4,1.2,2.3,2.6,2.3c0.9,0,1.7-0.3,2.2-0.9l0.6,0.6c-0.7,0.8-1.7,1.2-2.9,1.2c-2.1,0-3.6-1.5-3.6-3.6
			c0-2.1,1.5-3.6,3.6-3.6C78.1,30.5,79.3,32.1,79.2,34.5z M78.2,33.7c-0.1-1.4-1-2.3-2.4-2.3c-1.4,0-2.4,0.9-2.5,2.3H78.2z"/>
		<path d="M82.1,32.1c0.5-1.1,1.4-1.6,2.6-1.6v1.1c-1.5,0-2.5,0.9-2.6,2.3v3.8H81v-7.2h1.1V32.1z"/>
		<path d="M88.1,37.7l-2.9-7.2h1.1l2.3,6.1l2.3-6.1h1.1l-2.8,7.2H88.1z"/>
		<path d="M94.5,28.4c0,0.4-0.3,0.7-0.7,0.7s-0.7-0.3-0.7-0.7c0-0.4,0.3-0.7,0.7-0.7S94.5,28,94.5,28.4z M93.3,37.7v-7.2h1.1v7.2
			H93.3z"/>
		<path d="M102.6,31.6l-0.6,0.8c-0.5-0.5-1.3-0.8-2.1-0.8c-1.5,0-2.6,1.1-2.6,2.7c0,1.6,1.1,2.7,2.6,2.7c0.9,0,1.7-0.3,2.2-0.9
			l0.6,0.7c-0.6,0.8-1.6,1.2-2.9,1.2c-2.1,0-3.6-1.5-3.6-3.6c0-2.1,1.5-3.6,3.6-3.6C101,30.5,101.9,30.9,102.6,31.6z"/>
		<path d="M110.5,34.5h-5.9c0.2,1.4,1.2,2.3,2.6,2.3c0.9,0,1.7-0.3,2.2-0.9l0.6,0.6c-0.7,0.8-1.7,1.2-2.9,1.2
			c-2.1,0-3.6-1.5-3.6-3.6c0-2.1,1.5-3.6,3.6-3.6C109.5,30.5,110.6,32.1,110.5,34.5z M109.6,33.7c-0.1-1.4-1-2.3-2.4-2.3
			c-1.4,0-2.4,0.9-2.5,2.3H109.6z"/>
		<path d="M116.6,31.1l-0.4,0.8c-0.6-0.4-1.3-0.6-2-0.6c-0.8,0-1.4,0.3-1.4,1c0,1.6,4,0.8,4,3.4c0,1.4-1.3,2.1-2.6,2.1
			c-1,0-2.1-0.4-2.8-1l0.4-0.8c0.6,0.6,1.5,0.9,2.4,0.9c0.8,0,1.5-0.3,1.5-1c0-1.7-4-0.8-4-3.4c0-1.4,1.2-2,2.5-2
			C115.1,30.5,116,30.7,116.6,31.1z"/>
		<path d="M123.6,29.8v0.9h2.1v0.9h-2.1v6.1h-1.1v-6.1h-0.9v-0.9h0.9v-0.8c0-1.6,1.1-2.4,2.3-2.4c0.5,0,1.1,0.2,1.5,0.5l-0.4,0.9
			c-0.3-0.2-0.7-0.4-1.1-0.4C124.2,28.5,123.6,29,123.6,29.8z"/>
		<path d="M133.2,34.1c0,2.2-1.5,3.7-3.7,3.7c-2.1,0-3.7-1.5-3.7-3.7c0-2.1,1.5-3.6,3.7-3.6C131.7,30.5,133.2,32,133.2,34.1z
			 M127,34.1c0,1.6,1.1,2.7,2.6,2.7c1.5,0,2.6-1.1,2.6-2.7c0-1.6-1.1-2.7-2.6-2.7C128,31.5,127,32.5,127,34.1z"/>
		<path d="M136.1,32.1c0.5-1.1,1.4-1.6,2.6-1.6v1.1c-1.5,0-2.5,0.9-2.6,2.3v3.8h-1.1v-7.2h1.1V32.1z"/>
		<path d="M151.7,33v3.5c-0.9,0.8-2.3,1.3-3.6,1.3c-2.8,0-5-2.1-5-4.8s2.2-4.8,5.1-4.8c1.3,0,2.6,0.5,3.5,1.3l-0.6,0.8
			c-0.8-0.7-1.8-1.1-2.9-1.1c-2.2,0-3.9,1.7-3.9,3.8c0,2.1,1.8,3.8,4,3.8c0.9,0,1.8-0.3,2.5-0.8V33H151.7z"/>
		<path d="M154.3,37.7V27.6h1.1v10.2H154.3z"/>
		<path d="M164.6,34.1c0,2.2-1.5,3.7-3.7,3.7c-2.1,0-3.7-1.5-3.7-3.7c0-2.1,1.5-3.6,3.7-3.6C163.1,30.5,164.6,32,164.6,34.1z
			 M158.4,34.1c0,1.6,1.1,2.7,2.6,2.7c1.5,0,2.6-1.1,2.6-2.7c0-1.6-1.1-2.7-2.6-2.7C159.5,31.5,158.4,32.5,158.4,34.1z"/>
		<path d="M173.9,34.1c0,2.1-1.4,3.6-3.4,3.6c-1.3,0-2.3-0.6-2.8-1.6v1.5h-1.1V27.6h1.1v4.5c0.5-1,1.5-1.6,2.8-1.6
			C172.5,30.5,173.9,32,173.9,34.1z M172.8,34.1c0-1.5-1.1-2.7-2.6-2.7c-1.5,0-2.6,1.1-2.6,2.7c0,1.6,1.1,2.7,2.6,2.7
			C171.7,36.8,172.8,35.7,172.8,34.1z"/>
		<path d="M180.2,36.6c-0.6,0.8-1.5,1.2-2.6,1.2c-1.5,0-2.5-1-2.5-2.2c0-1.3,1-2.1,2.7-2.1h2.4v-0.4c0-1.1-0.7-1.7-1.9-1.7
			c-0.8,0-1.5,0.3-2.3,0.8l-0.5-0.8c0.9-0.6,1.7-1,2.9-1c1.8,0,2.8,0.9,2.8,2.5l0,4.8h-1V36.6z M180.2,35.2v-0.9H178
			c-1.2,0-1.8,0.4-1.8,1.2c0,0.8,0.6,1.3,1.7,1.3C179,36.8,179.9,36.2,180.2,35.2z"/>
		<path d="M183.7,37.7V27.6h1.1v10.2H183.7z"/>
		<path d="M195.4,28.1c1.9,0,3.1,0.9,3.1,2.4c0,1.1-0.6,1.9-1.8,2.2c1.4,0.2,2.2,1.1,2.2,2.4c0,1.6-1.3,2.6-3.5,2.6h-4.1v-9.6H195.4
			z M192.5,32.3h2.9c1.3,0,2-0.6,2-1.6c0-1-0.8-1.5-2-1.5h-2.9V32.3z M192.5,36.7h2.9c1.6,0,2.5-0.6,2.5-1.7c0-1-0.9-1.7-2.5-1.7
			h-2.9V36.7z"/>
		<path d="M207.3,37.7h-1.1v-1.6c-0.5,1.1-1.4,1.7-2.7,1.7c-1.7,0-2.7-1.1-2.7-2.8v-4.5h1.1v4.2c0,1.3,0.8,2,2,2
			c1.5,0,2.4-1.1,2.4-2.6v-3.5h1.1V37.7z"/>
		<path d="M214.1,31.1l-0.4,0.8c-0.6-0.4-1.3-0.6-2-0.6c-0.8,0-1.4,0.3-1.4,1c0,1.6,4,0.8,4,3.4c0,1.4-1.3,2.1-2.6,2.1
			c-1,0-2.1-0.4-2.8-1l0.4-0.8c0.6,0.6,1.5,0.9,2.4,0.9s1.5-0.3,1.5-1c0-1.7-4-0.8-4-3.4c0-1.4,1.2-2,2.5-2
			C212.7,30.5,213.5,30.7,214.1,31.1z"/>
		<path d="M217.3,28.4c0,0.4-0.3,0.7-0.7,0.7c-0.4,0-0.7-0.3-0.7-0.7c0-0.4,0.3-0.7,0.7-0.7C217,27.7,217.3,28,217.3,28.4z
			 M216.1,37.7v-7.2h1.1v7.2H216.1z"/>
		<path d="M226.3,33.3v4.5h-1.1v-4.2c0-1.3-0.8-2-2-2c-1.4,0-2.3,0.9-2.4,2.3v3.9h-1.1v-7.2h1.1v1.6c0.5-1.1,1.5-1.6,2.8-1.6
			C225.3,30.5,226.3,31.5,226.3,33.3z"/>
		<path d="M234.9,34.5H229c0.2,1.4,1.2,2.3,2.6,2.3c0.9,0,1.7-0.3,2.2-0.9l0.6,0.6c-0.7,0.8-1.7,1.2-2.9,1.2c-2.1,0-3.6-1.5-3.6-3.6
			c0-2.1,1.5-3.6,3.6-3.6C233.9,30.5,235,32.1,234.9,34.5z M234,33.7c-0.1-1.4-1-2.3-2.4-2.3c-1.4,0-2.4,0.9-2.5,2.3H234z"/>
		<path d="M241,31.1l-0.4,0.8c-0.6-0.4-1.3-0.6-2-0.6c-0.8,0-1.4,0.3-1.4,1c0,1.6,4,0.8,4,3.4c0,1.4-1.3,2.1-2.6,2.1
			c-1,0-2.1-0.4-2.8-1l0.4-0.8c0.6,0.6,1.5,0.9,2.4,0.9c0.8,0,1.5-0.3,1.5-1c0-1.7-4-0.8-4-3.4c0-1.4,1.2-2,2.5-2
			C239.6,30.5,240.4,30.7,241,31.1z"/>
		<path d="M247.2,31.1l-0.4,0.8c-0.6-0.4-1.3-0.6-2-0.6c-0.8,0-1.4,0.3-1.4,1c0,1.6,4,0.8,4,3.4c0,1.4-1.3,2.1-2.6,2.1
			c-1,0-2.1-0.4-2.8-1l0.4-0.8c0.6,0.6,1.5,0.9,2.4,0.9c0.8,0,1.5-0.3,1.5-1c0-1.7-4-0.8-4-3.4c0-1.4,1.2-2,2.5-2
			C245.8,30.5,246.6,30.7,247.2,31.1z"/>
		<path d="M255.4,34.5h-5.9c0.2,1.4,1.2,2.3,2.6,2.3c0.9,0,1.7-0.3,2.2-0.9l0.6,0.6c-0.7,0.8-1.7,1.2-2.9,1.2
			c-2.1,0-3.6-1.5-3.6-3.6c0-2.1,1.5-3.6,3.6-3.6C254.4,30.5,255.5,32.1,255.4,34.5z M254.4,33.7c-0.1-1.4-1-2.3-2.4-2.3
			c-1.4,0-2.4,0.9-2.5,2.3H254.4z"/>
		<path d="M261.4,31.1L261,32c-0.6-0.4-1.3-0.6-2-0.6c-0.8,0-1.4,0.3-1.4,1c0,1.6,4,0.8,4,3.4c0,1.4-1.3,2.1-2.6,2.1
			c-1,0-2.1-0.4-2.8-1l0.4-0.8c0.6,0.6,1.5,0.9,2.4,0.9c0.8,0,1.5-0.3,1.5-1c0-1.7-4-0.8-4-3.4c0-1.4,1.2-2,2.5-2
			C260,30.5,260.8,30.7,261.4,31.1z"/>
	</g>
</g>
</svg>
