<?xml version="1.0" encoding="utf-8"?>
<!-- Generator: Adobe Illustrator 25.2.0, SVG Export Plug-In . SVG Version: 6.00 Build 0)  -->
<svg version="1.1" id="Layer_1" xmlns="http://www.w3.org/2000/svg" xmlns:xlink="http://www.w3.org/1999/xlink" x="0px" y="0px"
	 viewBox="0 0 262.7 37.8" style="enable-background:new 0 0 262.7 37.8;" xml:space="preserve">
<style type="text/css">
	.st0{fill:#00354E;}
	.st1{fill:#005578;}
	.st2{fill:#0088C2;}
</style>
<g>
	<g id="Logo">
		<g id="Logo_ARM_1_">
			<polygon class="st0" points="10.3,31.4 18.1,31.4 21.5,37.8 6.2,37.8 			"/>
			<polygon class="st1" points="7.4,37.8 15.9,22.4 11.9,15.5 0,37.8 			"/>
			<polygon class="st2" points="20.3,0 41.1,37.8 33.6,37.8 16.4,7.3 			"/>
			<polygon class="st2" points="15.7,8.6 11.9,15.5 24.6,37.8 32.2,37.8 			"/>
		</g>
	</g>
	<g>
		<path d="M48.4,21.7L47,25.3h-2.8l6.9-15.8h2.8l6.9,15.8H58l-1.5-3.6H48.4z M52.4,12.4l-3,7h5.9L52.4,12.4z"/>
		<path d="M69.9,20.5c-0.2,0-0.5,0-0.7,0h-3.8v4.8h-2.6V9.5h6.4c4.1,0,6.3,1.9,6.3,5.4c0,2.5-1.1,4.3-3.3,5.1l3.6,5.3h-3.1
			L69.9,20.5z M69.2,18.2c2.4,0,3.9-1,3.9-3.2c0-2-1.4-3.1-3.9-3.1h-3.8v6.2C65.4,18.2,69.2,18.2,69.2,18.2z"/>
		<path d="M93.2,25.3V13.6l-5,10.1h-1.7l-5-10.1v11.7H79V9.5h3.2L87.3,20l5.2-10.5h3.2v15.8H93.2z"/>
		<path d="M115,10.9l-0.8,1.7c-1.4-0.9-3.1-1.3-4.4-1.3c-2,0-3.4,0.8-3.4,2.1c0,4.1,8.9,1.9,8.9,7.6c0,2.6-2.3,4.3-5.7,4.3
			c-2.3,0-4.6-1-6-2.4l0.8-1.6c1.4,1.4,3.5,2.2,5.2,2.2c2.2,0,3.7-0.9,3.7-2.4c0-4.2-8.9-1.9-8.9-7.5c0-2.4,2.1-4.1,5.4-4.1
			C111.9,9.5,113.7,10,115,10.9z"/>
		<path d="M129.7,19.4c0,3.6-2.5,6-6,6c-3.5,0-6-2.4-6-6s2.5-5.9,6-5.9C127.2,13.4,129.7,15.8,129.7,19.4z M119.4,19.4
			c0,2.6,1.7,4.4,4.3,4.4c2.4,0,4.3-1.8,4.3-4.4s-1.7-4.4-4.3-4.4C121.3,15,119.4,16.8,119.4,19.4z"/>
		<path d="M134.8,12.3v1.5h3.4v1.4h-3.4v10.1h-1.7V15.2h-1.5v-1.4h1.5v-1.3c0-2.5,1.8-4,3.8-4c0.9,0,1.8,0.3,2.5,0.8l-0.7,1.4
			c-0.5-0.4-1.2-0.6-1.8-0.6C135.7,10.1,134.8,10.9,134.8,12.3z"/>
		<path d="M146.2,24.5c-0.8,0.6-1.7,0.9-2.6,0.9c-1.7,0-3.1-1-3.1-3.4v-6.7h-1.7v-1.4h1.7v-3.2h1.7v3.2h3.8v1.4h-3.8v6.4
			c0,1.4,0.6,1.9,1.5,1.9c0.6,0,1.2-0.2,1.9-0.6L146.2,24.5z"/>
		<path d="M160.1,25.3l-3.5-9.6l-3.5,9.6h-1.8l-4.5-11.8h1.8l3.5,10l3.5-10h1.8l3.5,10l3.5-10h1.8l-4.4,11.8H160.1z"/>
		<path d="M175.4,23.5c-0.9,1.3-2.4,1.9-4.4,1.9c-2.4,0-4.1-1.5-4.1-3.7c0-2,1.6-3.4,4.4-3.4h3.9v-0.7c0-1.7-1.1-2.8-3.2-2.8
			c-1.3,0-2.5,0.5-3.8,1.3l-0.7-1.3c1.5-1,2.9-1.6,4.8-1.6c3,0,4.6,1.5,4.6,4.1v7.8h-1.5V23.5z M175.4,21.2v-1.4h-3.7
			c-1.9,0-3.1,0.6-3.1,1.9c0,1.3,1,2.1,2.8,2.1C173.4,23.9,175,22.9,175.4,21.2z"/>
		<path d="M182.8,16c0.8-1.7,2.2-2.6,4.3-2.6v1.7c-2.5,0-4.1,1.5-4.3,3.9v6.3h-1.7V13.5h1.7V16z"/>
		<path d="M199.6,20h-9.7c0.3,2.3,2,3.8,4.3,3.8c1.4,0,2.8-0.5,3.7-1.5l0.9,1c-1.1,1.2-2.8,1.9-4.8,1.9c-3.5,0-5.9-2.4-5.9-6
			s2.4-6,5.9-6C197.9,13.4,199.7,16,199.6,20z M198,18.6c-0.1-2.2-1.6-3.7-4-3.7c-2.2,0-3.9,1.4-4.2,3.7H198z"/>
		<path d="M221.4,11.8l-1.1,1.3c-1.2-1.2-3-1.9-4.7-1.9c-3.6,0-6.4,2.8-6.4,6.2s2.9,6.2,6.4,6.2c1.7,0,3.5-0.7,4.7-1.9l1.1,1.2
			c-1.5,1.4-3.7,2.4-5.8,2.4c-4.6,0-8.2-3.6-8.2-7.9s3.7-7.8,8.3-7.8C217.9,9.5,220,10.4,221.4,11.8z"/>
		<path d="M234.9,19.4c0,3.6-2.5,6-6,6s-6-2.4-6-6s2.5-5.9,6-5.9C232.4,13.4,234.9,15.8,234.9,19.4z M224.7,19.4
			c0,2.6,1.7,4.4,4.3,4.4c2.4,0,4.3-1.8,4.3-4.4S231.5,15,229,15C226.4,15,224.7,16.8,224.7,19.4z"/>
		<path d="M239.8,16c0.8-1.7,2.2-2.6,4.3-2.6v1.7c-2.5,0-4.1,1.5-4.3,3.9v6.3H238V13.5h1.7V16z"/>
		<path d="M258.5,19.4c0,3.5-2.3,5.9-5.6,5.9c-2.1,0-3.8-0.9-4.6-2.6v7h-1.7V13.5h1.7V16c0.9-1.6,2.5-2.6,4.6-2.6
			C256.2,13.4,258.5,15.8,258.5,19.4z M256.7,19.4c0-2.5-1.7-4.4-4.3-4.4c-2.5,0-4.3,1.8-4.3,4.4s1.7,4.4,4.3,4.4
			C255,23.8,256.7,22,256.7,19.4z"/>
		<path d="M262.7,24.3c0,0.7-0.5,1.1-1.1,1.1s-1.1-0.5-1.1-1.1c0-0.7,0.5-1.1,1.1-1.1C262.3,23.2,262.7,23.7,262.7,24.3z"/>
	</g>
</g>
</svg>
