<?xml version="1.0" encoding="utf-8"?>
<!-- Generator: Adobe Illustrator 25.2.0, SVG Export Plug-In . SVG Version: 6.00 Build 0)  -->
<svg version="1.1" id="Layer_1" xmlns="http://www.w3.org/2000/svg" xmlns:xlink="http://www.w3.org/1999/xlink" x="0px" y="0px"
	 viewBox="0 0 214.5 239.2" style="enable-background:new 0 0 214.5 239.2;" xml:space="preserve">
<style type="text/css">
	.st0{fill:#00354E;}
	.st1{fill:#005578;}
	.st2{fill:#0088C2;}
</style>
<g>
	<g id="Logo">
		<g id="Logo_ARM_1_">
			<polygon class="st0" points="52.5,160.7 93,160.7 110.3,193.6 31.7,193.6 			"/>
			<polygon class="st1" points="38.2,193.6 81.2,114.8 61.2,79.5 0,193.6 			"/>
			<polygon class="st2" points="104.1,0 210.5,193.6 171.9,193.6 84.1,37.2 			"/>
			<polygon class="st2" points="80.5,43.9 61.2,79.5 125.8,193.6 164.7,193.6 			"/>
		</g>
	</g>
	<g>
		<path d="M4.2,220.6l-1.5,3.5H0l6.8-15.5h2.7l6.8,15.5h-2.8l-1.5-3.5H4.2z M8.1,211.4l-2.9,6.9H11L8.1,211.4z"/>
		<path d="M25.3,219.4c-0.2,0-0.5,0-0.7,0h-3.7v4.7h-2.6v-15.5h6.3c4,0,6.2,1.9,6.2,5.3c0,2.5-1.1,4.2-3.2,5l3.5,5.2h-3L25.3,219.4z
			 M24.6,217.1c2.4,0,3.8-1,3.8-3.1c0-2-1.4-3-3.8-3h-3.7v6.1H24.6z"/>
		<path d="M48.2,224.1v-11.5l-4.9,9.9h-1.7l-4.9-9.9v11.5h-2.5v-15.5h3.1l5.1,10.3l5.1-10.3h3.1v15.5H48.2z"/>
		<path d="M69.6,210l-0.8,1.7c-1.4-0.9-3-1.3-4.3-1.3c-2,0-3.3,0.8-3.3,2.1c0,4,8.7,1.9,8.7,7.5c0,2.6-2.3,4.2-5.6,4.2
			c-2.3,0-4.5-1-5.9-2.4l0.8-1.6c1.4,1.4,3.4,2.2,5.1,2.2c2.2,0,3.6-0.9,3.6-2.4c0-4.1-8.7-1.9-8.7-7.4c0-2.4,2.1-4,5.3-4
			C66.5,208.5,68.3,209.1,69.6,210z"/>
		<path d="M83.9,218.2c0,3.5-2.5,5.9-5.9,5.9s-5.9-2.4-5.9-5.9s2.5-5.8,5.9-5.8C81.5,212.4,83.9,214.8,83.9,218.2z M73.9,218.3
			c0,2.6,1.7,4.3,4.2,4.3c2.4,0,4.2-1.8,4.2-4.3s-1.7-4.3-4.2-4.3S73.9,215.7,73.9,218.3z"/>
		<path d="M88.9,211.3v1.5h3.3v1.4h-3.3v9.9h-1.7v-9.9h-1.5v-1.4h1.5v-1.3c0-2.5,1.8-3.9,3.7-3.9c0.9,0,1.8,0.3,2.5,0.8l-0.7,1.4
			c-0.5-0.4-1.2-0.6-1.8-0.6C89.9,209.2,88.9,209.9,88.9,211.3z"/>
		<path d="M100.2,223.3c-0.8,0.6-1.7,0.9-2.6,0.9c-1.7,0-3-1-3-3.3v-6.6h-1.7v-1.4h1.7v-3.1h1.7v3.1h3.7v1.4h-3.7v6.3
			c0,1.4,0.6,1.9,1.5,1.9c0.6,0,1.2-0.2,1.9-0.6L100.2,223.3z"/>
		<path d="M113.7,224.1l-3.4-9.4l-3.4,9.4h-1.8l-4.3-11.6h1.8l3.4,9.8l3.4-9.8h1.8l3.4,9.8l3.4-9.8h1.8l-4.3,11.6H113.7z"/>
		<path d="M128.8,222.3c-0.9,1.3-2.4,1.9-4.3,1.9c-2.4,0-4-1.5-4-3.6c0-2,1.6-3.3,4.3-3.3h3.8v-0.7c0-1.7-1.1-2.7-3.1-2.7
			c-1.3,0-2.5,0.5-3.7,1.3l-0.7-1.3c1.5-1,2.8-1.6,4.7-1.6c2.9,0,4.5,1.5,4.5,4v7.7h-1.7v-1.7H128.8z M128.7,220v-1.4h-3.6
			c-1.9,0-3,0.6-3,1.9s1,2.1,2.7,2.1C126.8,222.6,128.3,221.7,128.7,220z"/>
		<path d="M136,215c0.8-1.7,2.2-2.6,4.2-2.6v1.7c-2.5,0-4,1.5-4.2,3.8v6.2h-1.7v-11.6h1.7V215z"/>
		<path d="M152.5,218.9H143c0.3,2.3,2,3.7,4.2,3.7c1.4,0,2.7-0.5,3.6-1.5l0.9,1c-1.1,1.2-2.7,1.9-4.7,1.9c-3.4,0-5.8-2.4-5.8-5.9
			s2.4-5.9,5.8-5.9C150.8,212.4,152.7,215,152.5,218.9z M151,217.5c-0.1-2.2-1.6-3.6-3.9-3.6c-2.2,0-3.8,1.4-4.1,3.6H151z"/>
		<path d="M174,210.8l-1.1,1.3c-1.2-1.2-2.9-1.9-4.6-1.9c-3.5,0-6.3,2.7-6.3,6.1c0,3.4,2.8,6.1,6.3,6.1c1.7,0,3.4-0.7,4.6-1.9
			l1.1,1.2c-1.5,1.4-3.6,2.4-5.7,2.4c-4.5,0-8-3.5-8-7.8s3.6-7.7,8.1-7.7C170.5,208.6,172.5,209.4,174,210.8z"/>
		<path d="M187.2,218.2c0,3.5-2.5,5.9-5.9,5.9s-5.9-2.4-5.9-5.9s2.5-5.8,5.9-5.8S187.2,214.8,187.2,218.2z M177.1,218.3
			c0,2.6,1.7,4.3,4.2,4.3c2.4,0,4.2-1.8,4.2-4.3s-1.7-4.3-4.2-4.3C178.9,214,177.1,215.7,177.1,218.3z"/>
		<path d="M191.9,215c0.8-1.7,2.2-2.6,4.2-2.6v1.7c-2.5,0-4,1.5-4.2,3.8v6.2h-1.7v-11.6h1.7V215z"/>
		<path d="M210.3,218.3c0,3.4-2.3,5.8-5.5,5.8c-2.1,0-3.7-0.9-4.5-2.6v6.8h-1.7v-15.9h1.7v2.5c0.9-1.6,2.5-2.6,4.5-2.6
			C208,212.4,210.3,214.8,210.3,218.3z M208.6,218.2c0-2.5-1.7-4.3-4.2-4.3s-4.2,1.8-4.2,4.3s1.7,4.3,4.2,4.3
			C206.8,222.6,208.6,220.7,208.6,218.2z"/>
		<path d="M214.5,223.1c0,0.7-0.5,1.1-1.1,1.1s-1.1-0.5-1.1-1.1c0-0.7,0.5-1.1,1.1-1.1C214,221.9,214.5,222.4,214.5,223.1z"/>
	</g>
</g>
</svg>
