<?xml version="1.0" encoding="utf-8"?>
<!-- Generator: Adobe Illustrator 25.2.0, SVG Export Plug-In . SVG Version: 6.00 Build 0)  -->
<svg version="1.1" id="Layer_1" xmlns="http://www.w3.org/2000/svg" xmlns:xlink="http://www.w3.org/1999/xlink" x="0px" y="0px"
	 viewBox="0 0 587 379" style="enable-background:new 0 0 587 379;" xml:space="preserve">
<style type="text/css">
	.st0{fill:#ECECEC;}
	.st1{fill:#F5F5F5;}
	.st2{fill:#E1E1E1;}
	.st3{fill:#1A2E35;}
	.st4{fill:#C17560;}
	.st5{fill:#FFBF9D;}
	.st6{fill:#FF9A6C;}
	.st7{fill:#7C4236;}
	.st8{fill:#375A64;}
	.st9{opacity:0.3;}
	.st10{fill:#FF735D;}
	.st11{fill:#FFFFFF;}
	.st12{opacity:0.2;}
</style>
<g>
	<path class="st0" d="M185.4,41.8c-1.8,0.4-3.4,1.2-4.8,2.3c-0.5,0.4-1,0.7-1.6,0.9l-6.2-25.5c-0.5-1.9-2.4-3-4.2-2.6l-26.5,6.5
		l0.7,3c0.2,0.7,0.5,1.3,0.9,1.9c0.8,1.2,1.5,2.5,1.8,4c1.6,6.4-2.5,12.8-9,14.1c-5.7,1.2-11.5-2.3-13.3-7.8c-0.6-2-0.7-3.9-0.3-5.8
		c0.2-0.8,0.2-1.7,0-2.5l-0.5-2.1l-26.9,6.5c-2.3,0.6-3.7,2.9-3.1,5.2l5.8,23.6l-1.8,0.4c-0.2,0.1-0.4,0.1-0.6,0.1
		C93,63.1,90,62.8,87,63.6c-7.6,1.9-12.2,9.5-10.3,17.1c1.9,7.6,9.5,12.2,17.1,10.3c2.5-0.6,4.6-1.8,6.4-3.5
		c0.3-0.2,0.7-0.3,1.1-0.4l2.3-0.6l6.5,26.4c0.6,2.3,2.9,3.7,5.2,3.1l73.3-18c1.9-0.5,3-2.4,2.6-4.2L184.4,67c0.5,0,1,0.1,1.4,0.2
		c2.5,0.5,5.2,0.3,7.9-0.8c5.2-2.3,8.4-7.9,7.6-13.6C200.3,45,192.8,40,185.4,41.8z"/>
	<path class="st0" d="M511.8,182.6c1.1,0.5,2.2,0.7,3.3,0.8c0.4,0,0.8,0.1,1.1,0.2l-7,15c-0.5,1.1,0,2.4,1.1,2.9l15.6,7.2l0.8-1.8
		c0.2-0.4,0.3-0.9,0.3-1.3c0-0.9,0.3-1.8,0.7-2.7c1.7-3.7,6.3-5.3,10-3.4c3.3,1.7,4.8,5.7,3.5,9.1c-0.5,1.2-1.2,2.2-2.1,3
		c-0.4,0.3-0.7,0.8-1,1.2l-0.6,1.2l15.8,7.4c1.4,0.6,3,0,3.6-1.3l6.5-13.9l1.1,0.5c0.1,0.1,0.2,0.1,0.4,0.2c0.9,1.6,2.3,2.9,4,3.8
		c4.5,2.1,9.7,0.1,11.8-4.3c2.1-4.5,0.1-9.7-4.3-11.8c-1.5-0.7-3-0.9-4.5-0.8c-0.2-0.1-0.5-0.1-0.7-0.2l-1.4-0.6l7.2-15.5
		c0.6-1.4,0-3-1.3-3.6l-43.1-20c-1.1-0.5-2.4,0-2.9,1.1l-7.3,15.8c-0.2-0.2-0.4-0.4-0.6-0.6c-1-1.3-2.4-2.2-4.2-2.7
		c-3.5-0.9-7.2,0.6-9.1,3.7C505.7,175.1,507.5,180.5,511.8,182.6z"/>
	<path class="st1" d="M538.2,350.4c0.7-0.6,1.2-1.3,1.6-2.1c0.1-0.3,0.3-0.5,0.5-0.8l8.5,9.7c0.6,0.7,1.7,0.8,2.4,0.2l10.1-8.9
		l-1-1.2c-0.2-0.3-0.5-0.5-0.8-0.6c-0.6-0.3-1.2-0.8-1.7-1.3c-2.1-2.4-1.8-6.2,0.7-8.2c2.2-1.8,5.6-1.6,7.6,0.4
		c0.7,0.7,1.2,1.6,1.5,2.5c0.1,0.4,0.3,0.8,0.6,1.1l0.7,0.8l10.3-9c0.9-0.8,1-2.1,0.2-3l-7.9-9l0.7-0.6c0.1-0.1,0.2-0.1,0.2-0.2
		c1.4-0.1,2.8-0.7,4-1.7c2.9-2.5,3.2-6.9,0.7-9.8c-2.5-2.9-6.9-3.2-9.8-0.7c-0.9,0.8-1.6,1.9-2,3c-0.1,0.2-0.2,0.3-0.4,0.4l-0.9,0.8
		l-8.8-10.1c-0.8-0.9-2.1-1-3-0.2l-28.1,24.6c-0.7,0.6-0.8,1.7-0.2,2.4l9,10.3c-0.2,0.1-0.4,0.2-0.7,0.3c-1.2,0.3-2.4,1-3.3,2.1
		c-1.8,2.2-1.9,5.4-0.3,7.7C530.9,352.4,535.4,352.8,538.2,350.4z"/>
	<path class="st1" d="M438.2,59.9c-1.4-0.4-2.8-0.5-4.2-0.3c-0.5,0.1-1,0.1-1.4,0l5.5-19.9c0.4-1.5-0.5-3-1.9-3.4l-20.7-5.8
		l-0.7,2.4c-0.2,0.5-0.2,1.1-0.1,1.7c0.1,1.1,0.1,2.3-0.3,3.5c-1.4,5-6.6,7.8-11.6,6.3c-4.4-1.4-7.1-6-6.2-10.5c0.3-1.6,1-3,2-4.1
		c0.4-0.5,0.8-1.1,0.9-1.7l0.5-1.6l-21-5.9c-1.8-0.5-3.7,0.6-4.2,2.4l-5.1,18.5l-1.4-0.4c-0.2,0-0.3-0.1-0.5-0.2
		c-1.4-1.8-3.4-3.2-5.7-3.8c-5.9-1.6-12.1,1.8-13.7,7.7c-1.6,5.9,1.8,12.1,7.7,13.7c1.9,0.5,3.9,0.5,5.7,0.1c0.3,0,0.6,0.1,0.9,0.1
		l1.8,0.5l-5.7,20.6c-0.5,1.8,0.6,3.7,2.4,4.2l57.3,15.9c1.5,0.4,3-0.5,3.4-1.9l5.8-21c0.3,0.2,0.6,0.4,0.9,0.7
		c1.5,1.3,3.5,2.3,5.7,2.5c4.5,0.5,8.8-2.2,10.5-6.4C447.2,67.9,444,61.6,438.2,59.9z"/>
	<path class="st1" d="M9.2,274.4c1.3,0.5,2.6,0.7,3.9,0.6c0.5,0,0.9,0,1.3,0.1l-6.8,18.2c-0.5,1.3,0.2,2.8,1.5,3.3l18.9,7l0.8-2.1
		c0.2-0.5,0.3-1,0.3-1.6c0-1.1,0.1-2.2,0.5-3.2c1.7-4.5,6.8-6.8,11.4-4.9c4,1.7,6.1,6.2,4.9,10.3c-0.4,1.5-1.2,2.7-2.2,3.7
		c-0.4,0.4-0.8,1-1,1.5l-0.6,1.5l19.2,7.2c1.6,0.6,3.5-0.2,4.1-1.9l6.3-16.9l1.3,0.5c0.1,0.1,0.3,0.1,0.4,0.2c1.2,1.8,2.9,3.2,5.1,4
		c5.4,2,11.4-0.7,13.4-6.1c2-5.4-0.7-11.4-6.1-13.4c-1.8-0.7-3.6-0.8-5.3-0.5c-0.3,0-0.6-0.1-0.8-0.2l-1.7-0.6l7-18.8
		c0.6-1.6-0.2-3.5-1.9-4.1l-52.4-19.5c-1.3-0.5-2.8,0.2-3.3,1.5l-7.1,19.2c-0.3-0.2-0.6-0.4-0.8-0.7c-1.3-1.4-3.1-2.4-5.1-2.8
		c-4.1-0.8-8.4,1.3-10.3,5.1C1.4,266.3,3.9,272.5,9.2,274.4z"/>
	<g>
		<g>
			<path class="st2" d="M283,233.7c4.7-0.3,8.7,0.9,12.6,2.8c1.7,0.8,3.8,1.4,5.7,1.4l5.1-0.1l0.1-56.9c0-5.4-4.4-9.7-9.8-9.7
				l-54.1,0.2v-1.2c0-2.3,0.6-4.5,1.6-6.6c2.6-5.4,3.7-11.7,2.6-18.3c-2.2-13.1-13.2-23.4-26.5-24.8c-18.3-2-33.8,12.2-33.8,30
				c0,4.3,0.9,8.4,2.6,12.2c0.9,1.9,1.4,4,1.4,6.1l0.3,2.6h-3.3h-61.9c-5.4,0-9.8,4.4-9.8,9.7v55.6h-4.6c-2.2,0-4.3-0.6-6.2-1.5
				c-5.1-2.5-11.3-3.5-17.6-2.4c-12.4,2.1-22.1,12.5-23.5,25.1c-1.9,17.3,11.6,32,28.4,32c4.1,0,8-0.9,11.5-2.4
				c1.8-0.8,3.8-1.3,5.8-1.3h6l0.1,68c0,4.4,3.6,7.9,8,7.9h174.4c4.4,0,7.8-5.5,7.8-9.9v-61.8h-7.1c-1.6,0-3.2,0.3-4.8,0.9
				c-3,1.2-6.4,1.9-9.8,1.9c-14.9,0-27-12.3-26.4-27.3C258.3,252.7,269.7,234.7,283,233.7z"/>
			<g>
				<path class="st3" d="M283,233.7c0,0-0.2,0-0.5,0.1c-0.3,0-0.8,0.1-1.4,0.2c-1.2,0.2-3,0.7-5.1,1.8c-4.3,2.2-9.8,7.1-14,15.4
					c-2,4.1-3.9,9.1-4.1,14.8c-0.1,2.8,0.3,5.8,1.2,8.7c0.9,2.9,2.4,5.8,4.5,8.4c2.1,2.6,4.7,4.9,7.9,6.6c3.1,1.7,6.7,2.8,10.5,3.2
					c3.8,0.4,7.8-0.2,11.5-1.6c1.9-0.8,4-1.2,6-1.1c2.1,0,4.2,0,6.3,0l0.1,0v0.1c0,9.8,0,20.2,0,31.1c0,5.5,0,11.1,0,16.9
					c0,2.9,0,5.8,0,8.8c0,1.5,0,3,0,4.5c0,0.7,0,1.5-0.2,2.3c-0.1,0.7-0.3,1.5-0.6,2.2c-0.5,1.4-1.4,2.8-2.4,3.9
					c-1.1,1.1-2.5,2-4,2.3c-0.8,0.1-1.6,0.1-2.3,0.1c-0.8,0-1.6,0-2.3,0c-1.6,0-3.1,0-4.7,0c-6.3,0-12.7,0-19.3,0
					c-13.1,0-26.7,0-40.7,0c-28,0-57.8,0-89,0c-3.9,0-7.8,0-11.8,0c-2,0-3.9,0-5.9,0c-2-0.2-4-1.2-5.3-2.7c-1.4-1.5-2.1-3.6-2-5.6
					c0-2,0-4,0-6c0-4,0-8.1,0-12.1c0-16.2-0.1-32.8-0.1-49.6l0.2,0.2c-1.2,0-2.5,0-3.7,0c-1.2,0-2.5-0.1-3.7,0.1
					c-1.2,0.1-2.4,0.5-3.6,0.9c-1.1,0.5-2.3,1-3.5,1.4c-4.9,1.6-10.2,1.8-15.3,0.6c-5-1.2-9.9-3.8-13.6-7.6c-1.9-1.8-3.5-4-4.8-6.3
					c-0.6-1.2-1.3-2.3-1.7-3.6c-0.2-0.6-0.5-1.2-0.7-1.9l-0.5-1.9c-1.5-6.3-1-13.2,1.8-19.1c2.7-5.9,7.4-10.8,13.1-13.7
					c2.8-1.5,5.9-2.4,9.1-2.9c3.2-0.4,6.4-0.4,9.5,0.2c1.6,0.3,3.1,0.7,4.6,1.2c0.7,0.3,1.5,0.6,2.2,0.9c0.7,0.3,1.4,0.7,2.1,0.9
					c2.9,1.1,6.1,0.7,9.2,0.8l-0.2,0.2c0-12,0-23.9,0-35.6c0-5.9,0-11.7,0-17.4c0-1.4-0.1-2.9,0.2-4.3c0.3-1.4,0.9-2.8,1.7-4
					c1.7-2.4,4.5-3.9,7.4-4.1c22.7,0,44.7,0,65.8,0l-0.2,0.2c-0.1-0.9-0.2-1.7-0.3-2.6l0,0l0,0c0-1.6-0.3-3.1-0.8-4.6
					c-0.2-0.7-0.6-1.4-0.9-2.2c-0.3-0.7-0.6-1.5-0.8-2.2c-1-3-1.5-6.1-1.5-9.2l0.1-2.3c0-0.4,0-0.8,0.1-1.2l0.2-1.1
					c0.1-0.8,0.2-1.5,0.4-2.3l0.6-2.2c0.1-0.4,0.2-0.7,0.4-1.1l0.4-1.1c0.3-0.7,0.5-1.4,0.9-2.1l1.1-2l1.3-1.9
					c1.8-2.4,3.8-4.7,6.2-6.5l0.9-0.7l0.9-0.6c0.6-0.4,1.2-0.8,1.9-1.2c1.3-0.7,2.6-1.4,4-1.9c2.7-1.1,5.6-1.7,8.5-2
					c1.4-0.1,2.9-0.2,4.3-0.1c0.7,0,1.4,0.1,2.1,0.1c0.7,0.1,1.4,0.2,2.1,0.3c5.6,1.1,10.8,3.7,14.8,7.4c4.1,3.7,7.1,8.4,8.6,13.5
					c1.6,5.1,1.7,10.5,0.6,15.4c-0.6,2.5-1.5,4.9-2.6,7.1c-0.5,1.1-0.9,2.3-1.1,3.5c-0.2,1.2-0.2,2.4-0.2,3.6l-0.2-0.2
					c14.7,0,28.4-0.1,41.1-0.1c3.2,0,6.3,0,9.4,0c0.8,0,1.5,0,2.3,0c0.8,0,1.5,0,2.3,0c1.5,0.1,3,0.7,4.2,1.4c2.6,1.5,4.2,4.2,4.6,7
					c0.2,1.4,0.1,2.8,0.1,4.1c0,1.4,0,2.7,0,4c0,21.3-0.1,38.2-0.1,50l0,0.1l-0.1,0c-2.1,0-4,0.1-5.8,0.1c-1.8-0.1-3.4-0.6-4.8-1.3
					c-2.7-1.3-5.1-2.1-7.1-2.5c-1.9-0.4-3.4-0.5-4.4-0.5c-0.5,0-0.9,0-1.1,0C283.1,233.7,283,233.7,283,233.7s0.5-0.1,1.5-0.1
					c1,0,2.5,0,4.4,0.4c2,0.4,4.3,1.2,7.1,2.5c1.4,0.6,3,1.1,4.8,1.2c1.8,0,3.7-0.1,5.8-0.1l-0.1,0.1c0-11.9,0-28.8,0-50
					c0-1.3,0-2.7,0-4c0-1.4,0.1-2.8-0.1-4.1c-0.4-2.7-2-5.4-4.5-6.8c-1.2-0.8-2.6-1.2-4.1-1.4c-0.7-0.1-1.5,0-2.2,0
					c-0.8,0-1.5,0-2.3,0c-3.1,0-6.2,0-9.4,0c-12.7,0.1-26.5,0.1-41.1,0.2l-0.2,0l0-0.2c0-1.2,0-2.5,0.2-3.7c0.2-1.2,0.6-2.4,1.1-3.6
					c1.1-2.2,2-4.6,2.5-7.1c1.1-4.9,1-10.3-0.6-15.3c-1.5-5-4.5-9.7-8.5-13.4c-4-3.7-9.1-6.2-14.7-7.3c-0.7-0.1-1.4-0.2-2.1-0.3
					c-0.7-0.1-1.4-0.1-2.1-0.1c-1.4-0.1-2.8,0-4.3,0.1c-2.8,0.3-5.7,0.9-8.4,2c-1.4,0.5-2.6,1.2-3.9,1.9c-0.6,0.4-1.2,0.8-1.8,1.2
					l-0.9,0.6l-0.9,0.7c-2.4,1.8-4.3,4-6.1,6.4l-1.2,1.9l-1,2c-0.4,0.7-0.6,1.4-0.9,2.1l-0.4,1.1c-0.1,0.3-0.3,0.7-0.4,1.1l-0.6,2.2
					c-0.2,0.7-0.3,1.5-0.4,2.2l-0.2,1.1c-0.1,0.4-0.1,0.8-0.1,1.1l-0.1,2.3c0,3.1,0.5,6.2,1.4,9.1c0.2,0.7,0.5,1.5,0.8,2.2
					c0.3,0.7,0.6,1.4,0.9,2.2c0.5,1.5,0.8,3.1,0.8,4.7l0,0c0.1,0.8,0.2,1.7,0.3,2.6l0,0.2l-0.2,0c-21.1,0-43.1,0-65.8,0
					c-2.8,0.2-5.5,1.6-7.1,3.9c-0.8,1.1-1.4,2.4-1.6,3.8c-0.3,1.4-0.1,2.8-0.2,4.3c0,5.8,0,11.6,0,17.4c0,11.7,0,23.6,0,35.6v0.2
					l-0.2,0c-1.5,0-3.1,0-4.7,0c-1.6,0-3.2-0.3-4.6-0.8c-0.7-0.3-1.5-0.6-2.2-0.9c-0.7-0.3-1.4-0.6-2.2-0.9c-1.5-0.5-3-0.9-4.5-1.2
					c-3.1-0.6-6.2-0.6-9.3-0.2c-3.1,0.5-6.1,1.4-8.9,2.8c-5.6,2.9-10.3,7.7-12.9,13.5c-2.7,5.8-3.2,12.5-1.7,18.8l0.5,1.9
					c0.2,0.6,0.5,1.2,0.7,1.8c0.4,1.2,1.1,2.4,1.7,3.5c1.3,2.2,2.9,4.4,4.8,6.2c3.6,3.7,8.4,6.2,13.4,7.5c5,1.2,10.3,1,15-0.5
					c1.2-0.4,2.3-0.9,3.5-1.4c1.2-0.5,2.4-0.8,3.7-0.9c1.3-0.1,2.5-0.1,3.8-0.1c1.2,0,2.5,0,3.7,0h0.2l0,0.2
					c0,16.8,0.1,33.4,0.1,49.6c0,4.1,0,8.1,0,12.1c0,2,0,4,0,6c0,2,0.6,3.9,1.9,5.4c1.3,1.5,3.1,2.4,5,2.6c1.9,0.1,3.9,0,5.9,0
					c3.9,0,7.9,0,11.8,0c31.2,0,61,0,89,0c14,0,27.6,0,40.7,0c6.5,0,13,0,19.3,0c1.6,0,3.1,0,4.7,0c0.8,0,1.6,0,2.3,0
					c0.8,0,1.6,0,2.3-0.1c1.5-0.2,2.8-1.1,3.8-2.2c1-1.1,1.8-2.4,2.4-3.8c0.3-0.7,0.5-1.4,0.6-2.1c0.1-0.7,0.2-1.5,0.1-2.2
					c0-1.5,0-3,0-4.5c0-3,0-5.9,0-8.8c0-5.8,0-11.4,0-16.9c0-11,0-21.4,0-31.1l0.1,0.1c-2.1,0-4.2,0-6.3,0c-2.1-0.1-4.1,0.3-6,1.1
					c-3.8,1.4-7.8,2-11.6,1.6c-3.8-0.3-7.4-1.5-10.6-3.2c-3.2-1.7-5.8-4.1-7.9-6.7c-2.1-2.6-3.6-5.6-4.5-8.5c-0.9-3-1.3-6-1.2-8.8
					c0.3-5.7,2.1-10.7,4.2-14.8c4.2-8.3,9.9-13.3,14.1-15.4c2.1-1.1,3.9-1.6,5.1-1.8c0.6-0.1,1.1-0.2,1.4-0.2
					C282.8,233.7,283,233.7,283,233.7z"/>
			</g>
		</g>
		<g>
			<path class="st1" d="M511.4,236.1c-4.2,0-8.2,0.9-11.9,2.5c-1.3,0.6-2.6,1-4,1.2V180c0-4.4-3.6-8-8-8h-62.2v7.1
				c0,1.6,0.3,3.2,0.9,4.8c1.2,3,1.9,6.4,1.9,9.8c0,14.9-12.4,27-27.5,26.4c-13.3-0.5-24.3-11.3-25.3-24.5c-0.3-4.7,0.6-9.1,2.4-13
				c0.8-1.7,1.3-3.6,1.3-5.6V172l-63-0.2c-5.4,0-9.8,4.4-9.8,9.8l-0.1,55.4H302c-0.5,0-1,0-1.5,0c-5.3-3.9-11.9-6.2-19-6.2
				c-17.8,0-32.2,14.4-32.2,32.2c0,17.8,14.4,32.2,32.2,32.2c5.8,0,11.3-1.5,16-4.2c0.9-0.2,1.7-0.3,2.6-0.3h5.5v61.9
				c0,5.4,4.4,9.8,9.8,9.8h172.1c4.4,0,8-3.6,8-8v-63c1.1,0.3,2.1,0.6,3.1,1.1c5.3,2.6,11.4,3.6,17.8,2.5
				c12.8-2.2,22.8-12.9,24.2-25.9C542.6,251.2,528.8,236.1,511.4,236.1z"/>
			<g>
				<path class="st3" d="M511.4,236.1c0,0,0.6,0,1.9,0.1c0.6,0,1.4,0,2.3,0.2c0.5,0.1,0.9,0.2,1.5,0.2c0.5,0.1,1.1,0.2,1.7,0.4
					c0.6,0.2,1.2,0.3,1.9,0.5c0.6,0.2,1.3,0.5,2,0.8c0.3,0.1,0.7,0.3,1.1,0.4c0.4,0.2,0.7,0.4,1.1,0.6c0.7,0.4,1.5,0.7,2.3,1.3
					c3,1.9,6.2,4.7,8.9,8.6c2.6,3.9,4.7,8.9,5,14.7c0,0.7,0.1,1.4,0.1,2.2c0,0.7-0.1,1.5-0.1,2.2c0,0.4,0,0.8-0.1,1.1
					c-0.1,0.4-0.1,0.8-0.2,1.1c-0.1,0.4-0.1,0.8-0.2,1.1c-0.1,0.4-0.2,0.8-0.3,1.1c-0.7,3-2,6.1-3.8,9c-1.8,2.9-4.2,5.5-7,7.8
					c-2.9,2.2-6.3,4-10,5c-0.9,0.3-1.9,0.4-2.9,0.7c-1,0.2-2,0.3-2.9,0.4c-2,0.2-4,0.1-6.1-0.2c-2-0.3-4.1-0.8-6.1-1.5
					c-2-0.7-3.8-1.9-5.9-2.3l0.2-0.1c0,9.7,0,19.9,0,30.8c0,5.4,0,11,0,16.6c0,2.8,0,5.7,0,8.6c0,1.5,0,2.9,0,4.4c0,0.7,0,1.5,0,2.2
					c0,0.4,0,0.7,0,1.1c-0.1,0.4-0.1,0.8-0.2,1.1c-0.7,3-3.2,5.5-6.2,6.1c-0.8,0.1-1.6,0.2-2.3,0.2c-0.8,0-1.5,0-2.3,0
					c-1.5,0-3.1,0-4.6,0c-6.2,0-12.5,0-18.9,0c-12.9,0-26.2,0-40,0c-27.5,0-56.8,0-87.3,0c-3.8,0-7.7,0-11.5,0c-1.9,0-3.9,0-5.8,0
					c-1,0-2,0-2.9-0.2c-1-0.2-1.9-0.6-2.8-1c-1.7-1-3.2-2.5-4.1-4.3c-0.5-0.9-0.8-1.9-0.9-2.8c-0.2-1-0.1-2-0.1-3
					c0-3.9,0-7.9,0-11.9c0-15.9,0-32.2,0-48.7l0.2,0.2c-1.3,0-2.6,0-4,0c-0.7,0-1.4,0-2.1,0c-0.7,0-1.4,0.1-2,0.3l0.1,0
					c-4,2.3-8.4,3.7-13.1,4.1c-4.6,0.4-9.4-0.2-13.9-1.8c-4.5-1.6-8.6-4.2-12.1-7.7c-3.4-3.5-6-7.7-7.6-12.3
					c-1.1-3.3-1.7-6.8-1.8-10.3c0-3.5,0.5-6.9,1.6-10.2c1-3.3,2.7-6.4,4.7-9.2c1-1.4,2.2-2.7,3.3-3.9l1.9-1.7c0.6-0.6,1.4-1,2-1.6
					c2.8-2,5.9-3.5,9.1-4.6c3.3-1,6.6-1.5,10-1.5c6.8,0,13.4,2.3,18.8,6.2l-0.1,0c1.9,0.1,3.8,0,5.8,0l-0.2,0.2
					c0-11.8,0-23.5,0-35.1c0-5.8,0-11.5,0-17.2l0-2.1c0-0.7,0-1.4,0.1-2.1c0.2-1.4,0.6-2.8,1.4-4.1c1.5-2.5,4-4.3,6.9-4.7
					c1.4-0.2,2.8-0.1,4.2-0.1c1.4,0,2.8,0,4.2,0c2.8,0,5.5,0,8.3,0c5.5,0,10.9,0,16.3,0.1c10.8,0,21.4,0.1,31.7,0.1l0.2,0v0.2
					c0,1.5,0,3,0,4.4c0,1.5-0.2,3-0.6,4.4c-0.2,0.7-0.5,1.4-0.8,2.1c-0.3,0.7-0.6,1.3-0.8,2c-0.5,1.4-0.9,2.8-1.1,4.2
					c-1,5.7-0.1,11.6,2.5,16.5c1.3,2.5,2.9,4.8,4.9,6.7c2,1.9,4.2,3.5,6.6,4.8c4.8,2.5,10.4,3.3,15.6,2.5c5.2-0.8,10.1-3.1,13.8-6.6
					c1.8-1.8,3.5-3.7,4.8-5.9c1.3-2.2,2.3-4.5,2.9-6.9c1.3-4.8,1.1-9.8-0.3-14.3c-0.3-1.1-0.9-2.2-1.2-3.4c-0.3-1.2-0.5-2.4-0.5-3.5
					c0-2.3,0-4.7,0-7v-0.2l0.2,0c16.4,0,31.6,0,45.5,0c3.5,0,6.9,0,10.2,0c1.7,0,3.3,0,4.9,0c0.8,0,1.6,0,2.4,0.1
					c0.8,0.1,1.6,0.3,2.3,0.6c1.5,0.7,2.7,1.7,3.6,3.1c0.9,1.3,1.3,2.9,1.3,4.4c0,3,0,5.9,0,8.8c0,22.7,0,40-0.1,51l-0.1-0.1
					c2.8-0.4,4.9-1.7,6.9-2.3c2-0.6,3.6-0.9,5-1.1c1.3-0.2,2.3-0.2,3-0.2C511.1,236.1,511.4,236.1,511.4,236.1s-0.3,0-1,0
					c-0.7,0-1.7,0.1-3,0.3c-1.3,0.2-3,0.5-5,1.1c-2,0.5-4.1,1.9-6.9,2.3l-0.1,0l0-0.1c0-11,0-28.3-0.1-51c0-2.8,0-5.8,0-8.8
					c0-1.5-0.4-3-1.2-4.3c-0.8-1.3-2-2.3-3.5-3c-0.7-0.3-1.5-0.5-2.3-0.6c-0.8-0.1-1.6-0.1-2.4-0.1c-1.6,0-3.3,0-4.9,0
					c-3.3,0-6.7,0-10.2,0c-14,0-29.2,0-45.5,0l0.2-0.2c0,2.3,0,4.6,0,7c0,1.2,0.2,2.3,0.5,3.5c0.3,1.1,0.9,2.2,1.2,3.4
					c1.4,4.6,1.6,9.7,0.3,14.5c-0.6,2.4-1.6,4.8-2.9,7c-1.3,2.2-3,4.2-4.8,5.9c-3.8,3.5-8.7,5.9-14,6.7c-5.3,0.8-10.9,0-15.8-2.6
					c-2.5-1.3-4.7-2.9-6.7-4.8c-2-2-3.7-4.3-5-6.8c-2.6-5-3.6-11-2.6-16.7c0.2-1.4,0.6-2.9,1.1-4.2c0.3-0.7,0.5-1.4,0.8-2
					c0.3-0.7,0.6-1.3,0.8-2c0.4-1.4,0.6-2.8,0.6-4.3c0-1.5,0-3,0-4.4l0.2,0.2c-10.4,0-20.9-0.1-31.7-0.1c-5.4,0-10.8,0-16.3,0
					c-2.7,0-5.5,0-8.3,0c-1.4,0-2.8,0-4.2,0c-1.4,0-2.8-0.1-4.1,0.1c-2.7,0.4-5.2,2.1-6.6,4.5c-0.7,1.2-1.2,2.5-1.3,3.9
					c-0.1,0.7-0.1,1.4-0.1,2.1l0,2.1c0,5.7,0,11.4,0,17.2c0,11.5,0,23.2,0,35.1l0,0.2l-0.2,0c-1.9,0-3.8,0-5.8,0l-0.1,0l-0.1,0
					c-5.3-3.9-11.9-6.1-18.6-6.1c-3.3,0-6.7,0.5-9.9,1.5c-3.2,1-6.2,2.6-9,4.5c-0.7,0.5-1.4,1-2,1.5l-1.9,1.7
					c-1.2,1.2-2.3,2.5-3.3,3.9c-2,2.7-3.6,5.8-4.6,9c-1,3.3-1.5,6.7-1.5,10.1c0,3.4,0.7,6.9,1.7,10.1c1.6,4.5,4.2,8.7,7.5,12.1
					c3.4,3.4,7.5,6,11.9,7.6c4.4,1.6,9.2,2.2,13.7,1.8c4.6-0.4,9-1.9,12.9-4.1l0,0l0,0c0.7-0.1,1.4-0.2,2.1-0.3c0.7,0,1.4,0,2.1,0
					c1.4,0,2.7,0,4,0l0.2,0v0.2c0,16.5,0,32.7,0,48.7c0,4,0,7.9,0,11.9c0,1,0,2,0.1,2.9c0.2,0.9,0.4,1.9,0.9,2.7
					c0.9,1.7,2.3,3.1,3.9,4.1c0.8,0.5,1.7,0.8,2.7,1c0.9,0.2,1.9,0.2,2.9,0.2c1.9,0,3.9,0,5.8,0c3.9,0,7.7,0,11.5,0
					c30.6,0,59.8,0,87.3,0c13.8,0,27.1,0,40,0c6.4,0,12.8,0,18.9,0c1.5,0,3.1,0,4.6,0c0.8,0,1.5,0,2.3,0c0.8,0,1.5,0,2.2-0.2
					c2.9-0.6,5.4-3,6-5.8c0.2-0.7,0.2-1.4,0.2-2.2c0-0.7,0-1.5,0-2.2c0-1.5,0-2.9,0-4.4c0-2.9,0-5.8,0-8.6c0-5.7,0-11.2,0-16.6
					c0-10.8,0-21.1,0-30.8l0-0.2l0.2,0c2.1,0.5,4,1.7,5.9,2.3c2,0.7,4,1.2,6,1.5c2,0.3,4,0.3,6,0.2c1-0.1,2-0.2,2.9-0.3
					c0.9-0.2,1.9-0.4,2.8-0.6c3.7-1,7.1-2.8,9.9-5c2.9-2.2,5.2-4.9,7-7.7c1.8-2.8,3-5.9,3.8-8.9c0.1-0.4,0.2-0.8,0.3-1.1
					c0.1-0.4,0.1-0.8,0.2-1.1c0.1-0.4,0.1-0.8,0.2-1.1c0.1-0.4,0.1-0.8,0.1-1.1c0-0.7,0.1-1.5,0.1-2.2c0-0.7-0.1-1.5-0.1-2.2
					c-0.3-5.7-2.4-10.7-5-14.6c-2.6-3.9-5.8-6.7-8.8-8.6c-0.7-0.5-1.5-0.9-2.2-1.3c-0.4-0.2-0.7-0.4-1.1-0.6
					c-0.4-0.2-0.7-0.3-1.1-0.4c-0.7-0.3-1.4-0.6-2-0.8c-0.7-0.2-1.3-0.4-1.9-0.5c-0.6-0.2-1.1-0.3-1.7-0.4c-0.5-0.1-1-0.2-1.5-0.2
					c-0.9-0.2-1.7-0.2-2.3-0.2C512,236.1,511.4,236.1,511.4,236.1z"/>
			</g>
		</g>
	</g>
	<g>
		<path class="st4" d="M301.6,247.1c0,0,2.8-1.5,5.3-0.9c2.5,0.5,11.6,6.5,11.6,6.5l7.3-1.4l4.3,20.6l-28.5,11.8V247.1z"/>
		<path class="st5" d="M280.6,254.3c0,0,6.5-0.8,8.9-2c2.4-1.2,8-6.2,9.2-6.1c1.2,0.1,5.5,0.9,5.5,0.9l-1.7,5.2
			c0,0,8.5,5.2,11.1,7.1c2.5,1.9,10.5,10.4,10.9,12.5c0.4,2.1-0.3,4.5-1.3,5.4c-1,0.8-4.6-0.8-4.6-0.8s0.5,1.9-0.8,3.7
			c-1.4,1.8-4.5,1.2-4.5,1.2s-0.3,3-1.7,3.5c-1.5,0.5-4.7-1.1-4.7-1.1s-1,2.5-2.2,2.8c-1.2,0.3-4.5-1.7-4.5-1.7s-14.5-10.4-17.8-12
			s-4.3-1.6-4.3-1.6L280.6,254.3z"/>
		<g>
			<path class="st6" d="M306.6,283.8c-0.1,0-0.1-0.3-0.3-0.6c-0.2-0.4-0.4-0.9-0.7-1.5c-0.6-1.1-1.2-2-1.1-2.1
				c0.1-0.1,0.8,0.7,1.5,1.9c0.3,0.6,0.6,1.1,0.6,1.6C306.8,283.5,306.7,283.8,306.6,283.8z"/>
		</g>
		<g>
			<path class="st6" d="M312.7,282c-0.1,0.1-0.8-1.2-1.8-2.7c-1-1.5-2.1-2.5-2-2.6c0.1-0.1,1.3,0.8,2.3,2.4
				C312.2,280.6,312.8,282,312.7,282z"/>
		</g>
		<g>
			<path class="st6" d="M318.5,276.8c-0.1,0-0.5-1.5-1.5-3.2c-1-1.7-2.2-2.8-2.1-2.9c0.1-0.1,1.4,0.9,2.4,2.7
				C318.4,275.1,318.6,276.8,318.5,276.8z"/>
		</g>
		<g>
			<path class="st6" d="M314.3,265.4c0.1,0,0.4,1.1,0.5,2.4c0.1,1.4-0.2,2.5-0.3,2.5c-0.1,0-0.1-1.1-0.2-2.5
				C314.3,266.6,314.1,265.5,314.3,265.4z"/>
		</g>
		<path class="st4" d="M293.1,257.3c0,0,2.3-7.3,3.1-8.2c0.8-0.9,8.4-2.9,8.4-2.9l2.4,6.1l-1.7,1.8l-3.6-0.2
			C301.6,253.8,299.4,259.8,293.1,257.3z"/>
		<path class="st4" d="M279.2,271.6c0,0-1,0.8,0,2.7c1,1.9,3.9,0.5,4.8,0c0,0-1.4,3.2,0.4,4.2c1.7,1,3.8,0.7,3.8,0.7
			s-0.1,1.9,2.4,3.2c2.5,1.3,3.1,0,3.1,0s0.3,3.2,3.1,3.5c2.8,0.3,3.8-0.7,3.8-0.7l-1.3-1.9c0,0,1.6-3.3,0.4-4.8
			c-1.3-1.5-3.4-1.3-3.4-1.3s0.6-3-1.1-3.8c-3-1.5-4.3,1.3-4.3,1.3s-0.2-3.2-2.5-3.2c-2.4,0.1-3.6,1.5-3.6,1.5L279.2,271.6z"/>
		<g>
			<path class="st7" d="M290.8,274.8c0.1,0.1-0.3,1.2-1.1,2.4c-0.7,1.3-1.5,2.2-1.6,2.1c-0.1-0.1,0.5-1.1,1.2-2.3
				C290.1,275.8,290.7,274.7,290.8,274.8z"/>
		</g>
		<g>
			<path class="st7" d="M296.3,277.7c0.1,0-0.4,1.2-1.2,2.5c-0.9,1.3-1.8,2.1-1.9,2.1c-0.1-0.1,0.7-1.1,1.5-2.3
				C295.5,278.7,296.1,277.6,296.3,277.7z"/>
		</g>
	</g>
	<g>
		<g>
			<g>
				<path class="st3" d="M240,312h-13.8l-3.5,50.1h13.8c2.4-7.6,8.2-47.4,8.2-47.4L240,312z"/>
			</g>
			<path class="st3" d="M161.9,312c0,0-8.8,20.7-7.9,29.1c0.9,8.4,5.8,21.1,5.8,21.1h68.3c0,0,1.9-7,3.4-17.3
				c1.5-10.3,5.4-32.8,5.4-32.8H161.9z"/>
		</g>
		<g>
			<g>
				<g>
					<path class="st3" d="M252.1,112.3c-2.3-2.9-5.2-5.7-5.7-9.4c-0.5-3.4,0.9-7.1-0.6-10.1c-1.9-3.8-7.2-4.5-9.5-8
						c-1.1-1.7-1.4-3.8-2.5-5.5c-1.9-2.9-5.8-3.8-9.2-3.6c-3.5,0.2-6.8,1.3-10.3,1.3c-4.8,0.1-9.6-1.7-14.2-0.5
						c-5.1,1.3-8.4,5.5-11.9,9.7l-4.5,4.8c-0.9,0.8-1.9,1.6-2.9,2.2c-1.8,1.1-3.9,1.8-5.5,3.2c-3.4,3-3.5,9.1,0,12.1
						c-3.7,1-6.5,4.7-6.5,8.5c0,2.1,0.8,4.1,1.3,6.2c0.5,2,0.8,4.3-0.1,6.2c-0.9,1.9-3.5,3.1-5.3,2c0.5,2.8,2.4,5.2,4.8,6.5
						c-1,1-2.5,1.5-3.9,1.5c3.4,9.2,13.6,14.5,23.4,15c9.8,0.5,19.4-2.8,28.6-6l26.7-5.6c2.3-0.4,3.4-3.2,3.5-5.6
						c0.1-2.4-0.4-4.9,0.5-7.1c1.3-3,4.9-4.4,6.3-7.4C256.4,119.2,254.4,115.3,252.1,112.3z"/>
				</g>
			</g>
			<g>
				<g>
					<g>
						<g>
							<g>
								<g>
									<g>
										<g>
											<g>
												<g>
													<path class="st3" d="M188.5,133.5c-1.6-6.1-3.2-12.2-3.8-18.4c-0.6-6.2,0-12.7,2.4-18.5c0.4-0.9,3.5-6.7,4.4-6.6
														c0.7,0.1-1.4,5.6-1,6.2c3,5.8,3.5,12.5,2.7,19C192.4,121.6,190.7,127.4,188.5,133.5"/>
												</g>
											</g>
										</g>
									</g>
								</g>
							</g>
							<g>
								<path class="st5" d="M189.1,109.5c0.3-15.7,9.7-28.7,25.4-27.9l1.4,0.2c14.6,1.5,25.5,14,25.2,28.7
									c-0.3,13.6-0.9,28.7-1.7,35.9c-1.8,15-17,15.7-17,15.7c0,0-0.4,24.8-0.4,24.8l-35.7-24.8L189.1,109.5z"/>
							</g>
							<g>
								<g>
									<g>
										<g>
											<g>
												<g>
													<g>
														<g>
															<path class="st6" d="M222.4,162.1c0,0-9.5-0.4-18.9-7.8c0,0,3.5,12.7,18.6,12.9L222.4,162.1z"/>
														</g>
													</g>
												</g>
											</g>
										</g>
									</g>
								</g>
							</g>
							<g>
								<g>
									<g>
										<g>
											<g>
												<g>
													<g>
														<g>
															<g>
																<g>
																	<g>
																		<g>
																			<g>
																				<g>
																					<path class="st3" d="M236,122c-0.1,1.1-1.1,2-2.3,1.9c-1.2-0.1-2.1-1-2-2.2c0.1-1.1,1.1-2,2.3-1.9
																						C235.1,119.9,236,120.9,236,122z"/>
																				</g>
																			</g>
																		</g>
																	</g>
																</g>
															</g>
														</g>
													</g>
												</g>
											</g>
										</g>
									</g>
								</g>
							</g>
							<g>
								<g>
									<g>
										<g>
											<g>
												<g>
													<g>
														<g>
															<g>
																<g>
																	<g>
																		<g>
																			<g>
																				<g>
																					<g>
																						<path class="st3" d="M237.3,116.3c-0.3,0.3-1.8-1.1-4.1-1.4c-2.3-0.3-4.1,0.7-4.3,0.4c-0.1-0.1,0.2-0.6,1-1.1
																							c0.8-0.5,2.1-0.8,3.5-0.7c1.4,0.2,2.6,0.8,3.2,1.4C237.2,115.7,237.4,116.2,237.3,116.3z"/>
																					</g>
																				</g>
																			</g>
																		</g>
																	</g>
																</g>
															</g>
														</g>
													</g>
												</g>
											</g>
										</g>
									</g>
								</g>
							</g>
							<g>
								<g>
									<g>
										<g>
											<g>
												<g>
													<g>
														<g>
															<g>
																<g>
																	<g>
																		<g>
																			<g>
																				<g>
																					<path class="st3" d="M215.1,122c-0.1,1.1-1.1,2-2.3,1.9c-1.2-0.1-2.1-1-2-2.2c0.1-1.1,1.1-2,2.3-1.9
																						C214.3,119.9,215.2,120.9,215.1,122z"/>
																				</g>
																			</g>
																		</g>
																	</g>
																</g>
															</g>
														</g>
													</g>
												</g>
											</g>
										</g>
									</g>
								</g>
							</g>
							<g>
								<g>
									<g>
										<g>
											<g>
												<g>
													<g>
														<g>
															<g>
																<g>
																	<g>
																		<g>
																			<g>
																				<g>
																					<g>
																						<path class="st3" d="M214.6,114.9c-0.3,0.3-1.8-1.1-4.1-1.4c-2.3-0.3-4.1,0.7-4.3,0.4c-0.1-0.1,0.2-0.6,1-1.1
																							c0.8-0.5,2.1-0.8,3.5-0.7c1.4,0.2,2.6,0.8,3.2,1.4C214.6,114.2,214.7,114.7,214.6,114.9z"/>
																					</g>
																				</g>
																			</g>
																		</g>
																	</g>
																</g>
															</g>
														</g>
													</g>
												</g>
											</g>
										</g>
									</g>
								</g>
							</g>
							<g>
								<g>
									<g>
										<g>
											<g>
												<g>
													<g>
														<g>
															<g>
																<g>
																	<g>
																		<g>
																			<g>
																				<g>
																					<path class="st3" d="M221,133.5c0-0.1,1.5-0.2,3.8-0.3c0.6,0,1.2-0.1,1.3-0.4c0.2-0.4,0-1.1-0.2-1.8
																						c-0.4-1.5-0.8-3-1.3-4.7c-1.7-6.6-2.9-12.1-2.7-12.1c0.3-0.1,1.9,5.3,3.6,11.9c0.4,1.6,0.8,3.2,1.2,4.7
																						c0.2,0.7,0.5,1.5,0.1,2.3c-0.2,0.4-0.7,0.7-1.1,0.8c-0.4,0.1-0.7,0-1,0C222.5,133.7,221,133.6,221,133.5z"/>
																				</g>
																			</g>
																		</g>
																	</g>
																</g>
															</g>
														</g>
													</g>
												</g>
											</g>
										</g>
									</g>
								</g>
							</g>
							<g>
								<g>
									<g>
										<g>
											<g>
												<g>
													<g>
														<g>
															<g>
																<g>
																	<g>
																		<g>
																			<g>
																				<g>
																					<path class="st3" d="M214,134.3c0.4,0,0.1,2.5,2.1,4.5c2,2,4.7,2,4.6,2.4c0,0.2-0.6,0.4-1.8,0.3
																						c-1.1-0.1-2.7-0.6-3.9-1.8c-1.2-1.2-1.6-2.7-1.6-3.8C213.5,134.9,213.9,134.3,214,134.3z"/>
																				</g>
																			</g>
																		</g>
																	</g>
																</g>
															</g>
														</g>
													</g>
												</g>
											</g>
										</g>
									</g>
								</g>
							</g>
							<g>
								<g>
									<g>
										<g>
											<g>
												<g>
													<g>
														<g>
															<g>
																<g>
																	<path class="st3" d="M215.5,105.5c-0.3,0.6-2.6,0.1-5.3,0.1c-2.7,0-5,0.5-5.3-0.1c-0.1-0.3,0.3-0.8,1.3-1.4
																		c0.9-0.5,2.4-0.9,4-1c1.6,0,3.1,0.4,4,0.9C215.1,104.6,215.6,105.2,215.5,105.5z"/>
																</g>
															</g>
														</g>
													</g>
												</g>
											</g>
										</g>
									</g>
								</g>
							</g>
							<g>
								<g>
									<g>
										<g>
											<g>
												<g>
													<g>
														<g>
															<g>
																<g>
																	<path class="st3" d="M237.1,108.5c-0.5,0.5-2-0.2-3.9-0.5c-1.9-0.3-3.6,0-3.9-0.6c-0.1-0.3,0.2-0.8,0.9-1.2
																		c0.7-0.4,2-0.7,3.3-0.5c1.3,0.2,2.4,0.8,3,1.4C237.2,107.7,237.4,108.3,237.1,108.5z"/>
																</g>
															</g>
														</g>
													</g>
												</g>
											</g>
										</g>
									</g>
								</g>
							</g>
							<g>
								<g>
									<g>
										<g>
											<g>
												<g>
													<path class="st5" d="M189.2,120.8c-0.2-0.1-10-4.1-10.7,6.2c-0.8,10.3,9.7,8.9,9.8,8.6
														C188.2,135.3,189.2,120.8,189.2,120.8z"/>
												</g>
											</g>
										</g>
									</g>
								</g>
							</g>
							<g>
								<g>
									<g>
										<g>
											<g>
												<g>
													<g>
														<path class="st6" d="M185.3,131.4c0,0-0.2,0.1-0.5,0.2c-0.3,0.1-0.8,0.2-1.3-0.1c-1.1-0.5-1.8-2.3-1.8-4.1
															c0-0.9,0.3-1.8,0.7-2.5c0.4-0.7,0.9-1.2,1.5-1.3c0.6-0.1,0.9,0.3,1,0.6c0.1,0.3,0,0.5,0.1,0.5c0,0,0.2-0.2,0.2-0.6
															c0-0.2-0.1-0.5-0.4-0.7c-0.2-0.2-0.6-0.3-1-0.3c-0.8,0-1.6,0.7-2,1.5c-0.5,0.8-0.8,1.8-0.8,2.8
															c-0.1,2.1,0.8,4.1,2.3,4.6c0.7,0.2,1.3,0.1,1.7-0.2C185.3,131.7,185.4,131.5,185.3,131.4z"/>
													</g>
												</g>
											</g>
										</g>
									</g>
								</g>
							</g>
							<g>
								<g>
									<g>
										<g>
											<g>
												<g>
													<path class="st3" d="M235.6,92.9c1.7-0.8-2.9-6.5-6.9-8.7c-6-3.2-15.4-5.5-21.2-4.3c-7,1.5-12.9,4.6-16.8,10.6
														c-3.9,6-5.6,13.2-5.9,20.4c-0.1,2.2,0,4.5,1,6.4c1.3,2.4,4,4,3.6,7.1c-0.1,1.1,0.1,2.3,0.9,3.2
														c1.8,2.1,4.2,0.4,5.4-1.4c2.5-3.9,3.1-8.7,3.6-13.3c0.4-3.3,0.7-6.6,0-9.8c-0.4-1.7-1.1-3.4-1.4-5.2
														c-0.3-1.8-0.1-3.7,1.1-5.1c0.2-0.2,0.5-0.5,0.9-0.8c3.1-2.4,7.2-2.9,10.8-1.3c5.7,2.4,15.4,6.1,18.1,4.3
														c3.9-2.6,4.9-4.4,4.9-4.4L235.6,92.9z"/>
												</g>
											</g>
										</g>
									</g>
								</g>
							</g>
						</g>
					</g>
					<g>
						<g>
							<g>
								<g>
									<g>
										<g>
											<path class="st3" d="M208.1,78.6c5.8-1.5,12.2-1,17.3,2.1c2.7,1.6,5.1,4.1,5.8,7.2c0.7,3.1-0.9,6.8-3.9,7.8l-0.2,0.1
												c-4.5,1.2-7.3,0.4-11.6-1.4c-3.6-1.5-6.7-4-10.4-5.5c-3.8-1.6-8.2-2-12.2-1.1C197.2,83.6,202.4,80.1,208.1,78.6z"/>
										</g>
									</g>
								</g>
							</g>
						</g>
					</g>
				</g>
			</g>
			<g>
				<path class="st8" d="M210.7,76.8c0,0,0.4,0,1,0.1c0.7,0.1,1.6,0.3,2.8,0.8c1.1,0.4,2.5,1.1,3.8,2c1.3,0.9,2.7,2.1,3.8,3.6
					c1.1,1.5,1.7,3.2,2.1,4.8c0.4,1.6,0.5,3,0.6,4.2c0.1,1.2,0.1,2.2,0.1,2.9c0,0.7,0,1-0.1,1c0,0-0.1-0.4-0.1-1
					c0-0.7-0.1-1.6-0.2-2.8c-0.1-1.2-0.3-2.6-0.7-4.1c-0.4-1.5-1-3.2-2-4.7c-1-1.5-2.4-2.6-3.7-3.5c-1.3-0.9-2.6-1.6-3.7-2
					C212.2,77.1,210.7,76.9,210.7,76.8z"/>
			</g>
			<g>
				<path class="st8" d="M220.2,76.2c0,0,0.3,0.1,0.9,0.2c0.3,0.1,0.6,0.2,1,0.4c0.4,0.2,0.8,0.4,1.3,0.7c1.8,1.1,4.1,3.2,5.3,6.3
					c0.3,0.7,0.5,1.5,0.8,2.3c0.1,0.8,0.3,1.5,0.3,2.2c0.1,0.7,0,1.4,0,2c-0.1,0.6-0.1,1.2-0.2,1.7c-0.1,0.5-0.2,1-0.4,1.4
					c-0.2,0.4-0.3,0.7-0.4,1c-0.3,0.5-0.5,0.8-0.5,0.8c-0.1,0,0.6-1.2,1-3.2c0.1-0.5,0.1-1.1,0.2-1.7c0-0.6,0-1.3-0.1-2
					c0-0.7-0.2-1.4-0.4-2.1c-0.2-0.7-0.4-1.5-0.7-2.2c-1.2-3-3.4-5.1-5.1-6.2c-0.4-0.3-0.9-0.5-1.2-0.7c-0.4-0.2-0.7-0.3-1-0.4
					C220.5,76.4,220.2,76.3,220.2,76.2z"/>
			</g>
		</g>
		<g>
			<path class="st8" d="M226.9,184.4c0,1.4,7.1,32.5,9.8,40.2c2.7,7.6,11.3,84.3,10.2,89.7c-1.1,5.5-4.1,5.2-4.1,5.2
				s-69.4-4.4-76.8-3.7c-7.5,0.7-10.6,0.4-12.4-8.1c-1.8-8.5,0.1-52.8-1.5-63.5c-1.6-10.7-1.6-15.9-2.2-31.8
				c-0.5-13.8,2.6-24.8,9.2-32.8c6.6-8,21.1-16,21.1-16l5.1-7.5l36.4,19.3l0.8-4.4l2.2,6.8L226.9,184.4z"/>
			<g class="st9">
				<path d="M242.6,279.2c-0.6-1.5-2.6-1.9-4.2-2.1c-15.4-1.7-31.5-5.6-42.7-16.2c-4.4-4.2-7.9-9.2-11.2-14.3
					c-7.3-11.1-14.2-22.4-21.1-33.8l-5.3,2c3.3,16,6.5,27.6,11.8,40.8c5.3,13.1,9.5,25.9,23,30.2c8.7,2.8,25.3,0.6,34.5-0.1
					c3.8-0.3,7.7-0.7,11.3-1.8c1.1-0.3,2.2-0.8,3.1-1.6C242.5,281.5,243,280.3,242.6,279.2z"/>
			</g>
			<g>
				<path class="st8" d="M156.1,210.6c0.4,0.7,31.3,66.6,45,69.3c13.8,2.7,56.6,3.3,65,1.8c8.4-1.6,16.5-3.1,16.5-3.1
					s6.1-14.4,0.5-26.6l-11.5,0.4c0,0-32-1.7-36.5-3c-4.5-1.2-8.4-5.5-12.5-5.2l-24.3-56.6c0,0-15.8-14.7-27.1-10.2
					C159.9,181.9,152.8,204.7,156.1,210.6z"/>
				<g>
					<path class="st3" d="M272.5,280.9c0,0,0.1-0.4,0.2-1.1c0.2-0.7,0.4-1.7,0.6-3c0.2-1.3,0.5-2.8,0.6-4.5c0.1-1.7,0.2-3.6,0.1-5.6
						c-0.2-3.9-0.9-7.5-1.6-10c-0.3-1.2-0.7-2.3-0.9-2.9c-0.2-0.7-0.3-1.1-0.3-1.1c0,0,0.2,0.4,0.5,1c0.3,0.7,0.6,1.7,1,2.9
						c0.8,2.5,1.5,6,1.7,10c0.1,2,0,3.9-0.2,5.6c-0.2,1.7-0.4,3.3-0.7,4.5c-0.3,1.3-0.6,2.3-0.8,3
						C272.7,280.6,272.6,281,272.5,280.9z"/>
				</g>
				<g>
					<path class="st3" d="M198.3,187.6c0,0,0.2,0.3,0.5,1c0.3,0.7,0.7,1.7,1.3,3c1.1,2.6,2.8,6.4,4.9,11.3
						c4.2,9.8,10.4,24,17.8,41.3l-0.2-0.1c1.9-0.1,3.7,0.7,5.4,1.7c1.7,0.9,3.3,2,5.1,2.8c1.8,0.9,3.8,1.1,5.8,1.3
						c2,0.2,4.1,0.4,6.2,0.6c8.4,0.7,17.3,1.2,26.6,1.8l0,0c3.6-0.1,7.5-0.2,11.5-0.4l0.1,0l0.1,0.1c1.8,4.1,2.5,8.6,2.3,13.2
						c-0.2,4.6-1.1,9.2-2.8,13.6l0,0.1l-0.1,0c-2.3,0.4-4.8,0.9-7.3,1.4c-2.7,0.5-5.4,1-8,1.5c-2.7,0.5-5.4,0.7-8,0.8
						c-5.3,0.2-10.6,0.3-15.7,0.2c-5.2,0-10.2-0.1-15.2-0.3c-5-0.2-9.8-0.4-14.5-0.8c-2.4-0.2-4.7-0.4-7-0.6
						c-2.3-0.3-4.5-0.5-6.8-1.1c-1.1-0.4-2-1-2.9-1.7c-0.9-0.7-1.7-1.4-2.5-2.2c-1.6-1.5-3-3.2-4.3-4.8c-5.2-6.6-9.3-13.4-13-19.5
						c-7.2-12.4-12.5-22.7-16-29.9c-1.8-3.6-3.1-6.4-4-8.3c-0.9-1.9-1.4-2.9-1.4-2.9s0.1,0.2,0.4,0.7c0.2,0.5,0.6,1.2,1.1,2.1
						c0.9,1.9,2.3,4.7,4.1,8.2c3.6,7.1,8.9,17.5,16.2,29.8c3.7,6.1,7.8,12.8,13,19.4c1.3,1.6,2.7,3.3,4.3,4.8
						c0.8,0.8,1.6,1.5,2.5,2.1c0.9,0.7,1.8,1.3,2.8,1.6c2.1,0.6,4.4,0.8,6.7,1.1c2.3,0.2,4.6,0.5,7,0.6c4.7,0.4,9.6,0.6,14.5,0.8
						c4.9,0.2,10,0.3,15.2,0.3c5.1,0,10.4,0,15.7-0.2c2.7-0.1,5.3-0.3,8-0.8c2.7-0.5,5.3-1,8-1.5c2.5-0.5,5-0.9,7.3-1.4l-0.2,0.1
						c1.7-4.3,2.6-8.9,2.8-13.4c0.2-4.5-0.5-9-2.3-13l0.2,0.1c-4,0.1-7.9,0.2-11.5,0.4l0,0l0,0c-9.3-0.5-18.2-1.1-26.6-1.8
						c-2.1-0.2-4.2-0.4-6.2-0.6c-1-0.1-2-0.2-3-0.4c-1-0.2-2-0.5-2.9-1c-1.8-0.8-3.4-1.9-5.1-2.8c-1.6-0.9-3.4-1.7-5.2-1.6l-0.1,0
						l0-0.1c-7.4-17.3-13.5-31.5-17.7-41.3c-2.1-4.9-3.7-8.8-4.8-11.4c-0.5-1.3-1-2.3-1.3-3C198.5,187.9,198.3,187.6,198.3,187.6z"
						/>
				</g>
				<g>
					<path class="st3" d="M195.1,183.1c0,0-0.4-0.4-1.2-1.1c-0.8-0.7-1.9-1.7-3.5-2.7c-1.6-1-3.6-1.9-6-2.6c-2.4-0.7-5.1-1-7.9-0.7
						c-2.8,0.3-5.4,1.1-7.6,2.3c-2.2,1.1-4,2.4-5.4,3.7c-1.4,1.3-2.3,2.5-2.9,3.3c-0.6,0.8-0.9,1.3-1,1.3c0,0,0.1-0.1,0.2-0.4
						c0.1-0.2,0.3-0.6,0.6-1c0.6-0.9,1.5-2.1,2.9-3.4c1.3-1.3,3.2-2.7,5.4-3.9c2.2-1.2,4.9-2,7.8-2.3c2.9-0.3,5.7,0.1,8.1,0.7
						c2.4,0.7,4.5,1.7,6,2.7c1.6,1,2.7,2,3.5,2.8c0.4,0.4,0.6,0.7,0.8,0.9C195,183,195.1,183.1,195.1,183.1z"/>
				</g>
				<g>
					<path class="st3" d="M222.6,244.2c0.1,0-0.6,2.2-1.6,4.8c-1,2.6-1.9,4.7-2,4.6c-0.1,0,0.6-2.2,1.6-4.8
						C221.6,246.3,222.5,244.2,222.6,244.2z"/>
				</g>
			</g>
			<g>
				<path class="st3" d="M278.5,255.1c0,0,0.1-0.1,0.3,0c0.2,0.1,0.5,0.3,0.6,0.6c0.2,0.3,0.3,0.8,0,1.3c-0.3,0.4-0.8,0.8-1.5,0.7
					c-0.6-0.1-1-0.7-1.1-1.2c-0.1-0.5,0.1-1,0.4-1.2c0.3-0.3,0.6-0.3,0.8-0.3c0.2,0,0.3,0.1,0.3,0.1c0,0.1-0.5,0-0.9,0.4
					c-0.2,0.2-0.3,0.6-0.2,0.9c0.1,0.4,0.4,0.8,0.8,0.8c0.4,0.1,0.8-0.2,1.1-0.5c0.2-0.3,0.2-0.7,0.1-1
					C278.9,255.2,278.5,255.2,278.5,255.1z"/>
			</g>
			<g>
				<path class="st3" d="M222.5,177.6c0,0-0.3-0.1-0.8-0.4c-0.6-0.3-1.3-0.8-2.3-1.3l0.2-0.1c-0.5,2.3-0.9,5.7-1.7,9.7l-0.1,0.3
					l-0.2-0.1c-3.4-2.1-7.4-4.6-11.8-7.2c-3.2-1.9-6.2-3.9-9-5.6c-2.8-1.7-5.3-3.1-7.5-4.3c-2.1-1.2-3.8-2.1-5.1-2.8
					c-0.6-0.3-1-0.6-1.4-0.8c-0.3-0.2-0.5-0.3-0.5-0.3c0,0,0.2,0.1,0.5,0.2c0.4,0.2,0.8,0.4,1.4,0.7c1.2,0.6,3,1.5,5.2,2.7
					c2.2,1.2,4.7,2.6,7.5,4.2c2.8,1.7,5.8,3.6,9,5.5c4.3,2.6,8.4,5.1,11.7,7.2l-0.3,0.1c0.8-4,1.3-7.4,1.8-9.7l0-0.2l0.1,0.1
					c0.9,0.6,1.7,1.1,2.2,1.4C222.2,177.4,222.5,177.6,222.5,177.6z"/>
			</g>
			<g class="st9">
				<path d="M187.5,167.3c6.3,4.7,12.7,9.4,19,14.2c4.2,3.1,8.5,6.3,13.4,7.9c-0.1-4.4-0.2-8.8-0.3-13.2l-1.9,9.3L187.5,167.3z"/>
			</g>
		</g>
	</g>
	<g>
		<g>
			<g>
				<g>
					<g>
						<g>
							<path class="st3" d="M383.1,101.2c-3.3,0.4-6.8-1.9-7.5-5.2c-0.8-3.2,1.2-6.9,4.4-8c-2.1-2.1-2.7-5.5-1.4-8.2
								c1.3-2.6,4.4-4.3,7.3-3.9c0.1-2.9,1.8-5.7,4.3-7.2c2.5-1.4,5.8-1.4,8.4,0c3.2-2.8,8.4-3,11.7-0.5c2.8-0.6,5.9,0.9,7.3,3.4
								c1.4,2.5,0.9,5.9-1.1,8"/>
						</g>
					</g>
					<g>
						<g>
							<g>
								<g>
									<g>
										<path class="st4" d="M382.1,102.2c0.9-15,13.2-26.8,28.3-27.1l1.5,0c16.1,0.6,24.6,14.7,23.6,30.8l1,57.5l0,0l-39.2,14.1
											l-0.3-20.7c0,0-15.6-2.1-16.1-17.6C380.5,131.6,381.3,116.2,382.1,102.2z"/>
									</g>
								</g>
							</g>
							<g>
								<g>
									<g>
										<g>
											<g>
												<path class="st7" d="M396.7,156.7c0,0,9.9,0.4,20.2-6.4c0,0-4.6,11.3-20,10.2L396.7,156.7z"/>
											</g>
										</g>
									</g>
								</g>
							</g>
							<g>
								<g>
									<g>
										<g>
											<g>
												<g>
													<g>
														<g>
															<path class="st3" d="M386.5,116.2c0,1.2,1,2.1,2.2,2.2c1.2,0,2.2-0.9,2.2-2c0-1.2-1-2.2-2.2-2.2
																C387.5,114.1,386.5,115,386.5,116.2z"/>
														</g>
													</g>
												</g>
											</g>
										</g>
									</g>
								</g>
							</g>
							<g>
								<g>
									<g>
										<g>
											<g>
												<g>
													<g>
														<g>
															<g>
																<path class="st3" d="M385.6,109.7c0.3,0.3,1.9-1,4.3-1c2.4-0.1,4.2,1.1,4.4,0.8c0.1-0.1-0.2-0.6-0.9-1.2
																	c-0.8-0.5-2-1-3.5-1c-1.5,0-2.7,0.6-3.4,1.2C385.7,109.1,385.5,109.6,385.6,109.7z"/>
															</g>
														</g>
													</g>
												</g>
											</g>
										</g>
									</g>
								</g>
							</g>
							<g>
								<g>
									<g>
										<g>
											<g>
												<g>
													<g>
														<g>
															<path class="st3" d="M408.2,116.2c0,1.2,1,2.1,2.2,2.2c1.2,0,2.2-0.9,2.2-2c0-1.2-1-2.2-2.2-2.2
																C409.2,114.1,408.2,115,408.2,116.2z"/>
														</g>
													</g>
												</g>
											</g>
										</g>
									</g>
								</g>
							</g>
							<g>
								<g>
									<g>
										<g>
											<g>
												<g>
													<g>
														<g>
															<g>
																<path class="st3" d="M409,109.7c0.3,0.3,1.9-1,4.3-1c2.4-0.1,4.2,1.1,4.4,0.8c0.1-0.1-0.2-0.6-0.9-1.2
																	c-0.8-0.5-2-1-3.5-1c-1.5,0-2.7,0.6-3.4,1.2C409.1,109,408.9,109.5,409,109.7z"/>
															</g>
														</g>
													</g>
												</g>
											</g>
										</g>
									</g>
								</g>
							</g>
							<g>
								<g>
									<g>
										<g>
											<g>
												<g>
													<g>
														<g>
															<path class="st3" d="M400.8,127.5c0-0.1-1.5-0.4-3.9-0.6c-0.6,0-1.2-0.2-1.3-0.6c-0.2-0.4,0.1-1.1,0.4-1.8
																c0.5-1.5,1.1-3,1.7-4.7c2.4-6.6,4.1-12.1,3.8-12.2c-0.3-0.1-2.4,5.2-4.8,11.9c-0.6,1.6-1.1,3.2-1.6,4.7
																c-0.2,0.7-0.6,1.5-0.3,2.4c0.2,0.5,0.6,0.8,1,0.9c0.4,0.1,0.7,0.1,1,0.1C399.3,127.7,400.8,127.7,400.8,127.5z"/>
														</g>
													</g>
												</g>
											</g>
										</g>
									</g>
								</g>
							</g>
							<g>
								<g>
									<g>
										<g>
											<path class="st3" d="M408.2,101.6c0.3,0.6,2.4-0.1,4.9-0.2c2.5-0.2,4.6,0.2,4.9-0.4c0.1-0.3-0.4-0.8-1.3-1.3
												c-0.9-0.5-2.3-0.8-3.8-0.7c-1.5,0.1-2.8,0.6-3.6,1.2C408.4,100.7,408,101.3,408.2,101.6z"/>
										</g>
									</g>
								</g>
							</g>
							<g>
								<g>
									<g>
										<g>
											<path class="st3" d="M385.2,101.3c0.5,0.5,2.5-0.1,4.8-0.1c2.4-0.1,4.4,0.3,4.8-0.3c0.2-0.3-0.1-0.8-1-1.3
												c-0.9-0.5-2.3-0.9-3.9-0.8c-1.6,0.1-3,0.6-3.8,1.2C385.2,100.5,384.9,101,385.2,101.3z"/>
										</g>
									</g>
								</g>
							</g>
							<g>
								<g>
									<g>
										<path class="st3" d="M383.5,95.1c0,0,3.9-9.8,8.5-12.2c5.6-2.9,8.2,3.3,13.5,1.7c5.4-1.6,10.7-4.4,16.3-0.3
											c6.1,4.4,3.4,7.7,3.9,14.6c2.1,27.9,7.3,35.6,8.5,22.5c0.1-1.4,4.1-2.7,4.6-8.8c0.6-7.9,0.7-17.5-1.2-23
											c-1.6-4.7-4.3-7.9-9.2-11.4c-7.7-5.5-18.2-5.4-25.3-4.6C396.1,74.5,382.6,82.9,383.5,95.1z"/>
									</g>
								</g>
							</g>
							<g>
								<g>
									<g>
										<path class="st4" d="M433.3,120.9c0-2.4,2.1-4.3,4.5-4.1c2.9,0.2,6.1,1.8,6.1,7.8c-0.1,10.6-10.7,8.3-10.8,8
											C433.1,132.4,433.2,125.4,433.3,120.9z"/>
									</g>
								</g>
							</g>
							<g>
								<g>
									<g>
										<path class="st7" d="M435.4,128.6c0,0,0.2,0.1,0.5,0.3c0.3,0.1,0.8,0.2,1.4,0c1.1-0.4,2.1-2.2,2.2-4.1
											c0-1-0.2-1.9-0.5-2.7c-0.3-0.8-0.8-1.3-1.4-1.4c-0.6-0.1-1,0.2-1.1,0.5c-0.1,0.3-0.1,0.5-0.1,0.5c0,0-0.2-0.2-0.1-0.6
											c0-0.2,0.2-0.5,0.4-0.7c0.3-0.2,0.6-0.3,1-0.3c0.8,0.1,1.5,0.8,1.9,1.7c0.4,0.8,0.6,1.9,0.6,3c-0.1,2.1-1.2,4.1-2.7,4.5
											c-0.7,0.2-1.4,0-1.7-0.3C435.4,128.9,435.4,128.6,435.4,128.6z"/>
									</g>
								</g>
							</g>
						</g>
						<g>
							<g>
								<path class="st3" d="M432.7,100.4c-1.4,1-2.8,2-4.4,2.2c-1.7,0.2-3.6-0.7-3.9-2.4c-0.1-0.7,0-1.6-0.5-2.2
									c-0.6-0.7-1.7-0.4-2.5-0.3c-3.1,0.4-6.3-1.7-7.1-4.7c-0.8,1.2-2.6,1.2-3.8,0.4c-1.2-0.7-2-2-2.9-3c-1-1-2.3-2-3.7-1.7
									c-0.8,0.1-1.5,0.6-2.3,0.6c-1.4-0.1-2.1-1.7-2.3-3.1c-0.2-1.4-0.4-3-1.6-3.7c-1.1-0.7-2.5-0.2-3.8,0
									c-1.3,0.2-2.9-0.1-3.3-1.3c-0.2-0.7,0.1-1.4,0.4-1.9c1.6-2.6,5.2-3.9,8-2.8c1-3.5,4.2-6.3,7.8-6.8c3.6-0.5,7.4,1.4,9.2,4.6
									c2.2-2.1,5.4-3,8.4-2.4c3,0.6,5.6,2.7,6.8,5.5c2.6-0.7,5.5,0.2,7.2,2.3c1.7,2.1,2,5.2,0.7,7.5c1.9,1,3.6,2.9,3.7,5.1
									c0.1,2.2-2,4.4-4.1,3.9c0.9,1.7,0.2,4-1.4,5c-1.6,1-4,0.5-5.1-1.1"/>
							</g>
						</g>
						<g>
							<g>
								<g>
									<path class="st8" d="M398.2,79.6c0,0,0,0.1,0,0.2c0,0.1,0,0.3,0.1,0.6c0.1,0.5,0.3,1.2,0.8,2c0.5,0.8,1.3,1.7,2.4,2.5
										c1.1,0.7,2.7,1.3,4.4,1.1l-0.2-0.2c-0.3,0.9-0.2,2,0.3,2.9c0.4,0.9,1.1,1.8,1.9,2.6c0.4,0.4,0.7,0.8,1.2,1.2
										c0.5,0.3,1.1,0.5,1.7,0.6c1.2,0.1,2.5-0.3,3.4-1.3l-0.4-0.1c0.3,2.1,1.6,4.2,3.5,5.4c1,0.7,2.3,1.1,3.5,1.1
										c1.2,0,2.4-0.4,3.4-0.8l-0.3-0.1c0.6,1.3,1.5,2.4,2.6,3.2c1.1,0.8,2.5,1.3,3.7,0.9c2.5-0.6,4.1-2.7,4.4-4.7l-0.2,0.1
										c1.3,0.7,2.6,0.7,3.7,0.5c1.1-0.2,1.9-0.7,2.5-1.2c0.6-0.5,0.9-1,1.2-1.3c0.2-0.4,0.3-0.5,0.3-0.6c-0.1,0-0.3,0.8-1.5,1.7
										c-0.6,0.4-1.4,0.9-2.5,1.1c-1,0.2-2.3,0.1-3.4-0.5l-0.2-0.1l0,0.2c-0.3,1.8-1.9,3.8-4.2,4.3c-1.1,0.3-2.4-0.1-3.4-0.9
										c-1-0.8-1.9-1.8-2.4-3.1l-0.1-0.2l-0.2,0.1c-1,0.4-2.1,0.8-3.3,0.8c-1.1,0-2.3-0.3-3.2-1c-1.8-1.2-3-3.1-3.3-5.1l-0.1-0.5
										l-0.3,0.4c-0.7,0.9-1.9,1.3-3,1.1c-0.5-0.1-1.1-0.2-1.5-0.5c-0.4-0.3-0.8-0.7-1.1-1.1c-0.7-0.8-1.4-1.6-1.8-2.5
										c-0.4-0.9-0.5-1.8-0.3-2.6l0.1-0.3l-0.3,0c-1.6,0.1-3.1-0.3-4.2-1c-1.1-0.7-1.9-1.6-2.4-2.3
										C398.2,80.7,398.2,79.5,398.2,79.6z"/>
								</g>
							</g>
						</g>
					</g>
				</g>
			</g>
			<g>
				<g>
					<g>
						<g>
							<g>
								<g>
									<g>
										<g>
											<g>
												<g>
													<g>
														<g>
															<g>
																<g>
																	<path class="st3" d="M409,128.3c-0.4,0,0.1,2.5-1.8,4.7c-1.8,2.2-4.5,2.3-4.5,2.7c0,0.2,0.7,0.4,1.8,0.2
																		c1.1-0.2,2.7-0.8,3.8-2.1c1.1-1.3,1.4-2.9,1.3-3.9C409.5,128.9,409.1,128.3,409,128.3z"/>
																</g>
															</g>
														</g>
													</g>
												</g>
											</g>
										</g>
									</g>
								</g>
							</g>
						</g>
					</g>
				</g>
			</g>
		</g>
		<g>
			<g>
				<path class="st10" d="M322.4,248.9c1.3-0.5,45.7-5.9,45.7-5.9l18-15.2l-1.7,44.1l-56.7,5.5L322.4,248.9z"/>
				<path class="st9" d="M378.1,234.6c-0.5,0.3-5,4.2-5,4.2l1.4,34L378.1,234.6z"/>
			</g>
			<g>
				<path class="st3" d="M453.8,314.5h-75c0,0,4,21.2,5.4,30.9c1.5,9.7,3.6,16.7,3.6,16.7h67.9c0,0,5.1-12.3,6-20.2
					C462.6,334,453.8,314.5,453.8,314.5z"/>
				<path class="st3" d="M373.2,317.1c0,0-2.1,24.1,0,45h26v-19.3L373.2,317.1z"/>
				<path class="st0" d="M387.6,198.9l8.1-17.7l1-10.9c0,0,15.5-9.7,22.8-13.4c7.3-3.7,17.3-7,17.3-7v10.3L387.6,198.9z"/>
				<path class="st10" d="M455.2,289.2c0,0,4.4-59,4.7-63.4c0,0,2.6-31.5-3-43.5c-5.6-12-18.1-22.5-18.1-22.5l-1.2-6.3l-24.5,15.4
					l-11.3,9.8c0,0-6.4,6.8-10.7,13.3c-3.2,4.4-6.8,10.2-8.4,17.3c-0.6,2.6-7.3,34-7.5,55.9c0,0-1,19.1-2.1,29.9
					c-1.4,13.4-3.4,43.9-3,62l79.2-2.4c19.6-3,16.1-4.9,16.1-4.9L455.2,289.2z"/>
				<g>
					<path class="st3" d="M436.8,160.1c0,0-0.2,0.1-0.5,0.3c-0.4,0.2-0.9,0.4-1.6,0.7c-0.7,0.3-1.5,0.8-2.5,1.3
						c-0.9,0.6-2.1,1.2-3.2,2c-4.8,3.2-11,8.6-17.4,16.1l0,0.1l-0.1,0c-2.4,0.4-5,0.9-7.6,1.4l0.2-0.2c-0.1,3.5-0.2,7.2-0.4,11.1
						l0,0.1l-0.1,0.1c-3.8,3.6-7.7,7.7-11.2,12.3c-1.4,1.9-2.7,3.8-3.8,5.8l-0.4,0.7l-0.3,0.8c-0.2,0.5-0.4,1-0.6,1.6
						c-0.3,1.1-0.7,2.1-0.9,3.2c-1.2,4.3-2.1,8.5-3,12.4c-1.8,8-3.3,15.2-4.6,21.2c-2.5,12.1-3.9,19.6-3.9,19.6s0-0.5,0.2-1.4
						c0.1-0.9,0.4-2.2,0.7-3.9c0.6-3.4,1.5-8.3,2.7-14.4c1.2-6.1,2.7-13.3,4.5-21.3c0.9-4,1.9-8.2,3-12.5c0.3-1.1,0.6-2.2,1-3.2
						c0.2-0.5,0.4-1.1,0.6-1.6l0.3-0.8l0.4-0.8c1.1-2,2.4-4,3.9-5.8c3.5-4.6,7.4-8.7,11.2-12.3l-0.1,0.1c0.1-3.8,0.3-7.5,0.4-11.1
						l0-0.2l0.2,0c2.6-0.5,5.2-0.9,7.6-1.4l-0.1,0.1c6.4-7.5,12.8-12.9,17.6-16c1.2-0.8,2.3-1.4,3.3-2c1-0.5,1.9-0.9,2.6-1.2
						c0.7-0.3,1.3-0.5,1.6-0.6C436.6,160.2,436.8,160.1,436.8,160.1z"/>
				</g>
				<g>
					<path class="st10" d="M410.2,206.7l1,78.7l-12,76.6h31.6c0,0,14.4-58.2,17.7-70.4c3.2-11.9,8.1-71.6,8.5-74.6
						c0.2-1.2,3.6-21.8-6.5-31.5"/>
					<g>
						<path class="st3" d="M450.5,185.5c0,0,0.2,0.2,0.7,0.7c0.4,0.4,1,1.1,1.7,2.1c1.4,2,3,5.2,3.9,9.7c0.9,4.5,1.3,10.1,0.6,16.6
							c-0.5,3.2-0.7,6.7-1.1,10.3c-0.3,3.7-0.7,7.5-1.1,11.6c-0.8,8.1-1.6,17.1-2.6,26.6c-0.5,4.8-1.1,9.7-1.8,14.8
							c-0.7,5.1-1.4,10.3-2.8,15.6c-5.3,21-11.1,44.2-17.2,68.5l0,0.2h-0.2c-1.1,0-2.2,0-3.4,0c-9.6,0-19,0-28.2,0h-0.3l0-0.2
							c4.4-28.3,8.5-54.4,12-76.6l0,0c-0.3-23.8-0.5-43.5-0.6-57.2c-0.1-6.9-0.1-12.2-0.1-15.9c0-1.8,0-3.2,0-4.2c0-0.9,0-1.4,0-1.4
							s0,0.5,0,1.4c0,1,0,2.3,0.1,4.2c0.1,3.7,0.1,9,0.2,15.9c0.2,13.7,0.4,33.4,0.8,57.2l0,0l0,0c-3.5,22.3-7.5,48.4-11.9,76.6
							l-0.2-0.2c9.2,0,18.6,0,28.2,0c1.2,0,2.3,0,3.4,0l-0.2,0.2c6.1-24.3,11.9-47.5,17.2-68.5c1.4-5.2,2.1-10.5,2.8-15.5
							c0.7-5.1,1.2-10,1.8-14.8c1-9.6,1.9-18.5,2.7-26.6c0.4-4.1,0.7-7.9,1.1-11.6c0.4-3.7,0.6-7.1,1.1-10.3
							c0.7-6.4,0.4-12.1-0.5-16.5c-0.9-4.5-2.5-7.7-3.9-9.7c-0.7-1-1.3-1.7-1.7-2.1C450.7,185.8,450.5,185.5,450.5,185.5z"/>
					</g>
				</g>
				<g>
					<path class="st3" d="M426.9,293.2c0,0.1-1-0.2-2.4-0.7c-1.5-0.5-3.5-1.3-5.7-2.3c-2.2-1-4.1-2-5.5-2.7
						c-1.4-0.8-2.2-1.3-2.2-1.3c0-0.1,0.9,0.4,2.3,1.1c1.4,0.7,3.4,1.6,5.5,2.6c2.2,1,4.2,1.8,5.6,2.4
						C426,292.8,426.9,293.1,426.9,293.2z"/>
				</g>
				<g>
					<path class="st3" d="M372.8,298.4c0,0,0-0.1,0-0.2c0-0.2,0-0.4,0-0.6c0-0.6,0.1-1.3,0.1-2.3c0.1-2,0.3-4.9,0.5-8.5
						c0.5-7.2,1.2-17.1,2.1-28c1-10.9,2.1-20.8,3-28c0.5-3.6,0.8-6.5,1.1-8.4c0.1-1,0.3-1.7,0.3-2.3c0-0.2,0.1-0.4,0.1-0.6
						c0-0.1,0-0.2,0-0.2s0,0.1,0,0.2c0,0.2,0,0.4-0.1,0.6c-0.1,0.6-0.2,1.3-0.3,2.3c-0.2,2-0.6,4.9-1,8.5c-0.8,7.1-1.9,17-2.9,28
						c-1,10.9-1.7,20.9-2.3,28c-0.3,3.6-0.5,6.5-0.7,8.5c-0.1,1-0.2,1.7-0.2,2.3c0,0.2,0,0.4-0.1,0.6
						C372.9,298.3,372.8,298.4,372.8,298.4z"/>
				</g>
				<g>
					<path class="st3" d="M436.8,175.6c-0.1,0-0.9-3-3-6.3c-2-3.3-4.5-5.3-4.4-5.4c0,0,0.7,0.4,1.6,1.3c0.9,0.9,2.1,2.2,3.1,3.9
						c1,1.7,1.7,3.3,2.1,4.5C436.7,174.8,436.9,175.6,436.8,175.6z"/>
				</g>
				<g>
					<path class="st3" d="M381.1,273.4c0,0,0.1,0.2,0.1,0.6c0,0.4-0.2,0.9-0.7,1.4c-0.5,0.5-1.4,0.8-2.3,0.5
						c-0.4-0.1-0.9-0.4-1.2-0.8c-0.3-0.4-0.5-0.9-0.5-1.5c0-0.7,0.2-1.3,0.6-1.8c0.2-0.3,0.4-0.5,0.7-0.6c0.3-0.1,0.5-0.2,0.8-0.2
						l0,0l0,0c0.6,0,1.1,0.1,1.5,0.4c0.4,0.3,0.6,0.7,0.7,1C381.1,273,381.1,273.4,381.1,273.4c-0.1,0-0.1-0.4-0.3-0.9
						c-0.1-0.3-0.3-0.6-0.7-0.8c-0.3-0.2-0.8-0.3-1.3-0.3l0.1,0c-0.2,0.1-0.5,0.2-0.7,0.3c-0.2,0.1-0.4,0.3-0.6,0.5
						c-0.3,0.4-0.5,1-0.5,1.6c0,0.9,0.6,1.7,1.3,1.9c0.7,0.3,1.5,0,1.9-0.4c0.5-0.4,0.7-0.9,0.7-1.2
						C381,273.6,381,273.4,381.1,273.4z"/>
				</g>
				<g>
					<path class="st3" d="M379.9,301.2c0,0,0.1,0.2,0.1,0.6c0,0.4-0.2,0.9-0.7,1.4c-0.5,0.5-1.4,0.8-2.3,0.5
						c-0.4-0.1-0.9-0.4-1.2-0.8c-0.3-0.4-0.5-0.9-0.5-1.5c0-0.7,0.2-1.3,0.6-1.8c0.2-0.3,0.4-0.5,0.7-0.6c0.3-0.1,0.5-0.2,0.8-0.2
						l0,0l0,0c0.6,0,1.1,0.1,1.5,0.4c0.4,0.3,0.6,0.7,0.7,1C380,300.8,379.9,301.2,379.9,301.2c-0.1,0-0.1-0.4-0.3-0.9
						c-0.1-0.3-0.3-0.6-0.7-0.8c-0.3-0.2-0.8-0.3-1.3-0.3l0.1,0c-0.2,0.1-0.5,0.2-0.7,0.3c-0.2,0.1-0.4,0.3-0.6,0.5
						c-0.3,0.4-0.5,1-0.5,1.6c0,0.9,0.6,1.7,1.3,1.9c0.7,0.3,1.5,0,1.9-0.4c0.5-0.4,0.7-0.9,0.7-1.2
						C379.9,301.4,379.9,301.2,379.9,301.2z"/>
				</g>
			</g>
			<g>
				<path class="st3" d="M447,180.9c0,0.1-1.1-0.6-2.9-1.3c-0.9-0.4-2-0.7-3.3-0.9c-1.3-0.2-2.7-0.4-4.2-0.4c-1.5,0-2.9,0.2-4.2,0.5
					c-1.3,0.3-2.4,0.7-3.3,1c-1.8,0.8-2.8,1.5-2.9,1.4c0,0,0.2-0.2,0.7-0.5c0.2-0.2,0.5-0.3,0.9-0.5c0.4-0.2,0.7-0.4,1.2-0.6
					c0.9-0.4,2-0.8,3.3-1.1c1.3-0.3,2.7-0.5,4.3-0.5c1.5,0,3,0.2,4.3,0.4c1.3,0.3,2.4,0.7,3.4,1.1c0.5,0.2,0.9,0.4,1.2,0.6
					c0.4,0.2,0.7,0.4,0.9,0.5C446.7,180.7,447,180.9,447,180.9z"/>
			</g>
			<g class="st9">
				<path d="M377.8,254.5c3.4-5,4.7-9.7,6.5-15.4c2.7-8.6,3.5-18.2,7.7-26.1c2.5-4.7,5.5-9.4,9.8-12.4c4.3-2.9,4.9-6.6,4.8-16.6
					c3,0,6.3-2.3,6.6-2.7c2.1-2.2,3.6-5.8,3.7-7c-2.1,2.3-5.7,6.2-5.7,6.2s-7.7,1.4-7.6,1.4c-0.2,3.8-0.2,7.2-0.4,11.1
					c0,0-14.8,15.7-16,18.9C386.2,214.8,377.8,254.5,377.8,254.5z"/>
			</g>
			<g class="st9">
				<path d="M432.7,352.6c18.8-35.5,24.6-82.2,23.5-126.7c0,0-5.4,54.1-7.2,63.4C447.2,298.4,432.7,352.6,432.7,352.6z"/>
			</g>
			<g>
				<path class="st3" d="M435.6,154.4c0,0-0.1,0.1-0.4,0.3c-0.3,0.2-0.7,0.5-1.3,0.8c-1.1,0.8-2.7,1.8-4.6,3.1
					c-4,2.6-9.4,6.1-15.4,9.9c-2.3,1.5-4.6,2.9-6.6,4.2l0,0c-0.7,0.6-1.4,1.1-2.1,1.6c-0.7,0.5-1.3,1-1.9,1.6
					c-1.2,1.1-2.2,2.2-3.1,3.2l-0.2,0.2l-0.1-0.2c-1-2.3-1.8-4.2-2.4-5.6c-0.3-0.6-0.5-1.1-0.6-1.5c-0.1-0.4-0.2-0.5-0.2-0.5
					c0,0,0.1,0.2,0.3,0.5c0.2,0.4,0.4,0.9,0.7,1.5c0.6,1.4,1.5,3.2,2.6,5.5l-0.3,0c0.9-1,1.9-2.1,3.1-3.3c0.6-0.6,1.2-1.2,1.9-1.7
					c0.7-0.5,1.4-1.1,2.1-1.7l0,0l0,0c2.1-1.3,4.3-2.8,6.6-4.3c6-3.8,11.5-7.3,15.5-9.8c2-1.2,3.6-2.2,4.7-2.9
					c0.5-0.3,1-0.6,1.3-0.8C435.4,154.5,435.6,154.4,435.6,154.4z"/>
			</g>
		</g>
	</g>
	<g>
		<g>
			<g>
				<path class="st3" d="M40.7,117.9c-0.1,0.1-3.7-6.1-8-13.8c-4.3-7.7-7.7-14-7.6-14c0.1-0.1,3.7,6.1,8,13.8
					C37.4,111.6,40.8,117.8,40.7,117.9z"/>
			</g>
			<g>
				<path class="st3" d="M52.7,91.2c0.1,0-0.1,4.7-0.4,10.6c-0.3,5.8-0.7,10.6-0.8,10.6c-0.1,0,0.1-4.7,0.4-10.6
					C52.3,95.9,52.6,91.2,52.7,91.2z"/>
			</g>
			<g>
				<path class="st3" d="M32.1,124.5c0,0.1-4.1-1.2-9-2.8c-4.9-1.7-8.9-3.1-8.9-3.2c0-0.1,4.1,1.2,9,2.8
					C28.1,122.9,32.1,124.4,32.1,124.5z"/>
			</g>
		</g>
		<g>
			<g>
				<g>
					<g>
						<g>
							<path class="st10" d="M92.4,136.4c-7.4-16.9-27.2-24.7-44.1-17.2c-16.9,7.4-24.7,27.2-17.2,44.1c5.4,12.3,17.2,19.7,29.8,20
								c1.6,3.6,3.4,7.7,3.4,7.7l26.9-11.8c0,0-1.7-4.4-3.4-8.3C95.4,161.5,97.6,148.3,92.4,136.4z"/>
						</g>
					</g>
				</g>
			</g>
		</g>
		<g>
			<path class="st11" d="M87.1,181c0,0-0.1-0.1-0.2-0.4c-0.1-0.2-0.3-0.6-0.6-1.1c-0.5-0.9-1.3-2.3-2.3-4.1
				c-1.9-3.6-4.7-8.9-7.7-15.5c-0.8-1.7-1.5-3.4-2.3-5.3c-0.4-0.9-0.8-1.9-1.2-2.8c-0.4-1-0.8-2-0.9-3.1c0-0.5,0-1.1,0.2-1.6
				c0.2-0.5,0.6-1,1.2-1.2c0.6-0.2,1.2-0.1,1.7,0.2c0.5,0.3,0.9,0.7,1.2,1.3c0.6,1.1,0.4,2.4-0.1,3.5c-0.5,1.1-1.4,2-2.5,2.6
				c-1.1,0.6-2.3,0.9-3.6,0.8c-1.3-0.1-2.5-0.6-3.5-1.4c-1-0.8-1.9-1.8-2.4-3c-0.3-0.6-0.5-1.2-0.6-1.9c-0.1-0.7,0-1.4,0.4-2
				c0.2-0.3,0.5-0.5,0.9-0.6c0.3-0.1,0.7-0.1,1-0.1c0.7,0.1,1.3,0.5,1.8,1c0.5,0.5,0.9,1.1,1.2,1.7c0.3,0.6,0.6,1.2,0.9,1.9
				c0.5,1.3,0.9,2.6,1,4c0.1,1.4,0,2.8-0.7,4.1c-0.3,0.6-0.7,1.2-1.3,1.7c-0.5,0.5-1.1,0.9-1.8,1.1c-0.7,0.2-1.4,0.2-2.1,0.1
				c-0.7-0.1-1.3-0.4-1.9-0.8c-1.2-0.8-2.1-1.8-3-2.8c-0.4-0.5-0.8-1.1-1.2-1.6c-0.4-0.5-0.8-1.1-1-1.7c-0.3-0.6-0.5-1.3-0.3-2
				c0.1-0.3,0.2-0.7,0.4-0.9c0.2-0.3,0.5-0.5,0.9-0.5c0.3-0.1,0.7,0,1,0.1c0.3,0.1,0.6,0.3,0.8,0.5c0.5,0.4,0.9,0.9,1.3,1.5
				c1.4,2.1,2.3,4.6,2.1,7.1c-0.1,1.2-0.5,2.4-1.2,3.4c-0.7,1-1.6,1.8-2.8,2.1c-1.1,0.4-2.4,0.2-3.4-0.3c-1-0.5-1.9-1.3-2.4-2.2
				c-0.3-0.5-0.5-1-0.5-1.5c-0.1-0.5,0-1.1,0.3-1.6c0.2-0.2,0.4-0.4,0.6-0.5c0.3-0.1,0.6-0.1,0.8,0c0.5,0.2,0.9,0.5,1.2,0.9
				c0.7,0.8,1,1.7,1.5,2.5c0.4,0.9,0.8,1.7,1.3,2.5c3.3,6.6,5.8,11.9,7.5,15.6c0.8,1.9,1.5,3.3,1.9,4.3c0.2,0.5,0.4,0.9,0.5,1.1
				c0.1,0.3,0.2,0.4,0.2,0.4s-0.1-0.1-0.2-0.4c-0.1-0.3-0.3-0.6-0.5-1.1c-0.4-1-1.1-2.4-1.9-4.3c-1.7-3.7-4.3-9.1-7.6-15.6
				c-0.4-0.8-0.8-1.7-1.3-2.5c-0.4-0.8-0.8-1.8-1.5-2.5c-0.3-0.4-0.7-0.7-1.2-0.9c-0.4-0.2-1,0-1.2,0.4c-0.3,0.4-0.3,0.9-0.3,1.5
				c0.1,0.5,0.2,1,0.5,1.5c0.5,0.9,1.4,1.7,2.3,2.1c1,0.5,2.2,0.6,3.2,0.3c1.1-0.3,2-1.1,2.7-2.1c0.7-1,1.1-2.1,1.2-3.3
				c0.2-2.4-0.6-4.9-2-6.9c-0.3-0.5-0.7-1-1.2-1.4c-0.5-0.4-1.1-0.7-1.7-0.6c-0.6,0.1-1,0.7-1.1,1.3c-0.1,0.6,0,1.3,0.3,1.8
				c0.3,0.6,0.6,1.1,1,1.7c0.4,0.5,0.8,1.1,1.2,1.6c0.8,1,1.8,2,2.9,2.7c0.6,0.4,1.2,0.6,1.8,0.8c0.7,0.1,1.3,0.1,2-0.1
				c1.3-0.4,2.3-1.4,2.9-2.7c0.6-1.2,0.8-2.6,0.7-4c-0.1-1.4-0.5-2.7-1-3.9c-0.5-1.2-1.1-2.5-2-3.4c-0.5-0.5-1-0.8-1.7-0.9
				c-0.6-0.1-1.3,0.1-1.7,0.6c-0.4,0.5-0.5,1.2-0.4,1.8c0.1,0.6,0.3,1.2,0.5,1.8c0.5,1.2,1.4,2.2,2.3,2.9c1,0.8,2.2,1.3,3.4,1.4
				c1.2,0.1,2.4-0.2,3.5-0.8c1-0.6,1.9-1.5,2.4-2.5c0.5-1,0.6-2.3,0.1-3.3c-0.3-0.5-0.7-0.9-1.1-1.2c-0.5-0.3-1-0.4-1.5-0.2
				c-0.5,0.2-0.9,0.6-1.1,1.1c-0.2,0.5-0.3,1-0.2,1.5c0.1,1.1,0.5,2,0.9,3c0.4,1,0.8,1.9,1.2,2.8c0.8,1.8,1.5,3.6,2.3,5.3
				c3,6.7,5.7,12,7.6,15.6c1,1.8,1.7,3.2,2.3,4.1c0.3,0.5,0.5,0.8,0.6,1.1C87,180.9,87.1,181,87.1,181z"/>
		</g>
		<g>
			<path class="st3" d="M63.5,181c0,0-0.1,0-0.4,0c-0.3,0-0.7,0.1-1.2,0c-1,0-2.5,0-4.3-0.3c-1.8-0.2-4-0.7-6.3-1.5
				c-2.3-0.8-4.7-2-7.1-3.5c-2.3-1.6-4.3-3.4-5.9-5.2c-1.6-1.8-2.9-3.6-3.8-5.2c-0.9-1.6-1.5-3-1.9-3.9c-0.2-0.5-0.3-0.9-0.4-1.1
				c-0.1-0.3-0.1-0.4-0.1-0.4c0,0,0.1,0.1,0.2,0.4c0.1,0.2,0.2,0.6,0.4,1.1c0.4,0.9,1,2.3,2,3.9c0.9,1.6,2.2,3.4,3.8,5.2
				c1.6,1.8,3.6,3.6,5.9,5.2c2.3,1.5,4.7,2.7,7,3.5c2.3,0.8,4.4,1.3,6.2,1.5c1.8,0.3,3.3,0.3,4.3,0.3c0.5,0,0.9,0,1.2,0
				C63.3,180.9,63.5,181,63.5,181z"/>
		</g>
		<g>
			<path class="st3" d="M30.8,153.5c0.1,0,0.3,0.7,0.4,1.7c0.2,0.9,0.2,1.7,0.2,1.7c-0.1,0-0.3-0.7-0.4-1.7
				C30.8,154.3,30.7,153.5,30.8,153.5z"/>
		</g>
		<g>
			<path class="st3" d="M92.1,145c0,0,0-0.1-0.1-0.3c-0.1-0.3-0.1-0.6-0.2-1c0-0.2-0.1-0.5-0.2-0.7c-0.1-0.3-0.2-0.5-0.2-0.8
				c-0.2-0.6-0.3-1.3-0.6-2c-0.1-0.4-0.3-0.8-0.4-1.2c-0.2-0.4-0.4-0.8-0.5-1.2c-0.4-0.9-0.8-1.7-1.3-2.6c-1-1.8-2.3-3.7-3.9-5.5
				c-1.6-1.8-3.3-3.3-5-4.6c-0.9-0.6-1.7-1.2-2.5-1.6c-0.4-0.2-0.8-0.5-1.2-0.7c-0.4-0.2-0.8-0.4-1.1-0.6c-0.7-0.4-1.4-0.6-1.9-0.9
				c-0.3-0.1-0.6-0.2-0.8-0.3c-0.3-0.1-0.5-0.2-0.7-0.2c-0.4-0.1-0.7-0.3-1-0.3c-0.2-0.1-0.3-0.1-0.3-0.1c0,0,0.1,0,0.3,0.1
				c0.2,0.1,0.6,0.2,1,0.3c0.2,0.1,0.4,0.1,0.7,0.2c0.3,0.1,0.5,0.2,0.8,0.3c0.6,0.2,1.3,0.5,2,0.8c0.4,0.2,0.7,0.4,1.1,0.5
				c0.4,0.2,0.8,0.4,1.2,0.7c0.8,0.4,1.6,1,2.5,1.6c1.7,1.3,3.4,2.8,5.1,4.6c1.6,1.8,2.9,3.7,4,5.6c0.5,0.9,1,1.8,1.3,2.7
				c0.2,0.4,0.4,0.8,0.5,1.2c0.1,0.4,0.3,0.8,0.4,1.2c0.3,0.7,0.4,1.4,0.6,2.1c0.1,0.3,0.2,0.6,0.2,0.9c0,0.3,0.1,0.5,0.1,0.7
				c0.1,0.4,0.1,0.8,0.2,1C92.1,144.9,92.1,145,92.1,145z"/>
		</g>
		<g class="st12">
			<path class="st11" d="M50.9,128.3c-1.1-1.1-2.9-1.4-4.8-1.1c-2.7,0.3-5.2,1.8-6.9,4c-5,6.4-6.9,12.2-6,20.6
				c0.3,2.9,1.8,7.2,4.1,9.1c1.2,1,2.7,1.5,4.2,1.3c3.9-0.5,5.2-5.1,4.8-8.8c-0.3-3.4-1.4-7-0.3-10.2c0.9-2.7,3.2-4.7,4.7-7
				C52.2,133.8,52.9,130.3,50.9,128.3z"/>
		</g>
		<g class="st12">
			<path class="st11" d="M62.7,121.7c-2-1.5-5.2-1-6.5,0.4c-1.1,1.3-1.6,3-1.2,4.6c0.4,1.9,2.1,3.5,4.1,3.8c2,0.3,4.1-0.9,4.8-2.7
				C64.7,126.1,64.3,122.9,62.7,121.7z"/>
		</g>
		<g>
			<g id="_x32_gGvdE.tif_1_">
				<path class="st3" d="M78.5,203.4c0,0,1.4,0.2,2.4,0.8c0.5,0.3,1.2,0.3,1.7,0.1l5.4-2.4c0.6-0.3,1-0.8,1.2-1.5
					c0.1-0.8,0.5-1.8,1.2-2.3L78.5,203.4z"/>
			</g>
			<path class="st2" d="M66.1,190.9c0,0.1,5,8,6.9,11c0.8,1.2,2.1,2.1,3.6,2.1c0.5,0,1.1-0.1,1.7-0.3c2.3-1,11.8-5.2,11.8-5.2
				s3.1-1.4,2.7-4.1c-0.4-2.9-3.5-13.7-3.5-13.7L66.1,190.9z"/>
			<g>
				<path class="st2" d="M93.1,192.9L72.5,202c-0.3,0.1-0.7,0-0.8-0.3l0-0.1c-0.1-0.3,0-0.7,0.3-0.8l20.6-9.1c0.3-0.1,0.7,0,0.8,0.3
					l0,0.1C93.5,192.3,93.4,192.7,93.1,192.9z"/>
				<g>
					<path class="st3" d="M93.1,192.9c0,0,0.2-0.1,0.3-0.4c0.1-0.1,0.1-0.4-0.1-0.6c-0.1-0.2-0.4-0.4-0.7-0.3
						c-1.1,0.5-2.8,1.2-4.8,2.1c-4.1,1.8-9.7,4.3-15.9,7.1c-0.2,0.1-0.3,0.2-0.3,0.4c0,0.1,0,0.2,0,0.3c0,0.1,0.1,0.2,0.1,0.2
						c0.1,0.1,0.3,0.2,0.5,0.2c0.2,0,0.4-0.1,0.5-0.2c0.8-0.3,1.5-0.7,2.2-1c1.5-0.6,2.9-1.3,4.2-1.9c2.7-1.2,5.1-2.2,7.2-3.1
						c2-0.9,3.7-1.6,4.8-2.1c0.6-0.2,1-0.4,1.3-0.6c0.1-0.1,0.3-0.1,0.3-0.1C93,192.9,93.1,192.9,93.1,192.9c0,0,0,0-0.1,0.1
						c-0.1,0-0.2,0.1-0.3,0.2c-0.3,0.1-0.7,0.3-1.3,0.6c-1.1,0.5-2.8,1.3-4.8,2.2c-2,0.9-4.5,2-7.1,3.2c-1.3,0.6-2.8,1.2-4.2,1.9
						c-0.7,0.3-1.5,0.7-2.2,1l-0.3,0.1c-0.1,0-0.2,0.1-0.3,0.1c-0.2,0-0.5-0.1-0.7-0.3c-0.1-0.1-0.1-0.2-0.2-0.3c0-0.1,0-0.2,0-0.4
						c0-0.2,0.2-0.5,0.4-0.6c6.2-2.7,11.8-5.2,15.9-7c2-0.9,3.7-1.6,4.8-2.1c0.3-0.1,0.6,0.1,0.7,0.4c0.1,0.2,0.1,0.5,0,0.6
						C93.3,192.8,93,192.9,93.1,192.9z"/>
				</g>
			</g>
			<g>
				<path class="st2" d="M92.3,190l-21.5,9.5c-0.3,0.1-0.7,0-0.8-0.3l0-0.1c-0.1-0.3,0-0.7,0.3-0.8l21.5-9.5c0.3-0.1,0.7,0,0.8,0.3
					l0,0.1C92.8,189.5,92.6,189.9,92.3,190z"/>
				<g>
					<path class="st3" d="M92.3,190c0,0,0.2-0.1,0.3-0.4c0.1-0.2,0-0.4-0.1-0.6c-0.1-0.2-0.4-0.4-0.7-0.3c-1.2,0.5-2.9,1.3-5,2.2
						c-4.2,1.9-10.1,4.5-16.5,7.3c-0.2,0.1-0.3,0.2-0.3,0.4c0,0.1,0,0.2,0,0.3c0,0.1,0.1,0.2,0.1,0.2c0.1,0.1,0.3,0.2,0.5,0.1
						c0.2-0.1,0.4-0.2,0.6-0.2c0.8-0.3,1.6-0.7,2.3-1c1.5-0.7,3-1.3,4.4-1.9c2.8-1.2,5.3-2.3,7.4-3.3c2.1-0.9,3.8-1.7,5-2.2
						c0.6-0.2,1-0.4,1.4-0.6c0.1-0.1,0.3-0.1,0.4-0.1C92.3,190,92.3,190,92.3,190c0,0,0,0-0.1,0.1c-0.1,0-0.2,0.1-0.3,0.2
						c-0.3,0.1-0.8,0.4-1.4,0.6c-1.2,0.5-2.9,1.3-5,2.2c-2.1,0.9-4.6,2.1-7.4,3.3c-1.4,0.6-2.9,1.3-4.4,1.9c-0.8,0.3-1.5,0.7-2.3,1
						c-0.2,0.1-0.4,0.2-0.6,0.3c-0.2,0.1-0.5,0-0.7-0.2c-0.1-0.1-0.2-0.2-0.2-0.3c0-0.1-0.1-0.2,0-0.4c0-0.3,0.2-0.5,0.4-0.6
						c6.4-2.8,12.3-5.4,16.5-7.3c2.1-0.9,3.8-1.7,5-2.2c0.3-0.1,0.7,0.1,0.8,0.3c0.1,0.2,0.1,0.5,0.1,0.6
						C92.5,190,92.3,190,92.3,190z"/>
				</g>
			</g>
			<g>
				<path class="st2" d="M91.4,187.2l-22,9.8c-0.3,0.1-0.7,0-0.8-0.3l0-0.1c-0.1-0.3,0-0.7,0.3-0.8l22-9.8c0.3-0.1,0.7,0,0.8,0.3
					l0,0.1C91.9,186.7,91.8,187.1,91.4,187.2z"/>
				<g>
					<path class="st3" d="M91.4,187.2c0,0,0.2-0.1,0.3-0.4c0.1-0.2,0-0.4-0.1-0.6c-0.1-0.2-0.4-0.3-0.7-0.2c-1.2,0.5-3,1.3-5.1,2.3
						c-4.3,1.9-10.3,4.6-16.9,7.5c-0.2,0.1-0.3,0.2-0.3,0.4c0,0.1,0,0.2,0,0.3c0,0.1,0.1,0.2,0.2,0.2c0.1,0.1,0.3,0.2,0.5,0.1
						c0.2-0.1,0.4-0.2,0.6-0.3c0.8-0.4,1.6-0.7,2.4-1.1c1.6-0.7,3.1-1.4,4.5-2c2.9-1.3,5.4-2.4,7.6-3.3c2.2-0.9,3.9-1.7,5.1-2.2
						c0.6-0.3,1.1-0.5,1.4-0.6c0.2-0.1,0.3-0.1,0.4-0.2C91.4,187.2,91.4,187.2,91.4,187.2c0,0,0,0-0.1,0.1c-0.1,0-0.2,0.1-0.4,0.2
						c-0.3,0.2-0.8,0.4-1.4,0.6c-1.2,0.5-3,1.3-5.1,2.3c-2.2,1-4.7,2.1-7.6,3.4c-1.4,0.6-2.9,1.3-4.5,2c-0.8,0.3-1.6,0.7-2.4,1.1
						c-0.2,0.1-0.4,0.2-0.6,0.3c-0.2,0.1-0.5,0-0.7-0.2c-0.1-0.1-0.2-0.2-0.2-0.3c-0.1-0.1-0.1-0.3-0.1-0.4c0-0.3,0.2-0.5,0.4-0.6
						c6.6-2.9,12.6-5.5,16.9-7.5c2.2-0.9,3.9-1.7,5.1-2.2c0.3-0.1,0.7,0,0.8,0.3c0.1,0.2,0.2,0.5,0.1,0.6
						C91.7,187.2,91.4,187.2,91.4,187.2z"/>
				</g>
			</g>
			<g>
				<path class="st2" d="M90.7,184.4l-22.9,10.1c-0.3,0.1-0.7,0-0.8-0.3l0-0.1c-0.1-0.3,0-0.7,0.3-0.8l22.9-10.1
					c0.3-0.1,0.7,0,0.8,0.3l0,0.1C91.2,183.8,91,184.2,90.7,184.4z"/>
				<g>
					<path class="st3" d="M90.7,184.4c0,0,0.2-0.1,0.3-0.4c0.1-0.2,0-0.4-0.1-0.6c-0.1-0.2-0.5-0.3-0.8-0.2
						c-1.3,0.6-3.1,1.4-5.3,2.4c-4.5,2-10.7,4.8-17.5,7.8c-0.2,0.1-0.3,0.3-0.3,0.5c0,0.2,0.1,0.4,0.2,0.5c0.2,0.1,0.4,0.1,0.5,0.1
						c0.2-0.1,0.4-0.2,0.6-0.3c0.8-0.4,1.7-0.7,2.5-1.1c1.6-0.7,3.2-1.4,4.7-2.1c3-1.3,5.6-2.5,7.9-3.5c2.2-1,4.1-1.8,5.3-2.3
						c0.6-0.3,1.1-0.5,1.5-0.6c0.2-0.1,0.3-0.1,0.4-0.2C90.7,184.4,90.7,184.4,90.7,184.4c0,0,0,0-0.1,0.1c-0.1,0-0.2,0.1-0.4,0.2
						c-0.3,0.2-0.8,0.4-1.4,0.7c-1.3,0.6-3.1,1.4-5.3,2.4c-2.2,1-4.9,2.2-7.9,3.5c-1.5,0.7-3,1.4-4.7,2.1c-0.8,0.4-1.6,0.7-2.5,1.1
						c-0.2,0.1-0.4,0.2-0.6,0.3c-0.2,0.1-0.6,0.1-0.8-0.1c-0.1-0.1-0.2-0.2-0.2-0.3c-0.1-0.1-0.1-0.3-0.1-0.4c0-0.3,0.2-0.5,0.4-0.6
						c6.8-3,13-5.8,17.5-7.7c2.2-1,4.1-1.8,5.3-2.3c0.3-0.2,0.7,0,0.9,0.2c0.2,0.2,0.2,0.5,0.1,0.7c-0.1,0.2-0.2,0.3-0.2,0.3
						C90.8,184.4,90.7,184.4,90.7,184.4z"/>
				</g>
			</g>
			<path class="st10" d="M59.9,184.9c0.1,0.2,2.9,5.2,4.3,7.7c0.5,0.9,1.4,1.6,2.5,1.7l1.5,0.3l22.9-10l0.9-1.3
				c0.6-0.9,0.7-2,0.4-3.1l-2.8-8.3L59.9,184.9z"/>
			<g class="st9">
				<path d="M73.2,201.6c2.4-0.5,4.6-1.4,7.1-2.5c1.9-0.9,3.9-1.7,6-2.6c1.5-0.7,2.9-1.4,4.5-2.2c0.8-0.4,1.5-1,1.6-1.2L73.2,201.6z
					"/>
			</g>
			<g class="st9">
				<path d="M71.2,199.3c2.6-0.5,5-1.5,7.6-2.7c2.1-0.9,4.2-1.8,6.5-2.8c1.7-0.8,3.2-1.5,4.8-2.3c0.8-0.4,1.7-1,1.8-1.2L71.2,199.3z
					"/>
			</g>
			<g class="st9">
				<path d="M70.1,196.6c2.6-0.5,5-1.5,7.6-2.7c2.1-0.9,4.2-1.8,6.5-2.8c1.7-0.8,3.2-1.5,4.8-2.3c0.8-0.4,1.7-1,1.8-1.2L70.1,196.6z
					"/>
			</g>
			<g class="st9">
				<path d="M68.9,194c2.6-0.5,5-1.5,7.6-2.7c2.1-0.9,4.2-1.8,6.5-2.8c1.7-0.8,3.2-1.5,4.8-2.3c0.8-0.4,1.7-1,1.8-1.2L68.9,194z"/>
			</g>
			<path class="st9" d="M59.9,184.9c0.1,0.2,2.9,5.2,4.3,7.7c0.5,0.9,1.4,1.6,2.5,1.7l1.5,0.3l22.9-10l0.9-1.3
				c0.6-0.9,0.7-2,0.4-3.1l-2.8-8.3L59.9,184.9z"/>
			<g>
				<path class="st3" d="M92.2,181.6c0,0.1-6.1,2.8-13.6,6.1c-7.5,3.3-13.7,6-13.7,5.9c0-0.1,6.1-2.8,13.6-6.1
					C86.1,184.2,92.2,181.5,92.2,181.6z"/>
			</g>
			<g>
				<path class="st3" d="M89.3,171.8c0,0.1-6.6,3.1-14.8,6.7c-8.2,3.6-14.8,6.5-14.9,6.5c0-0.1,6.6-3.1,14.8-6.7
					C82.6,174.6,89.2,171.8,89.3,171.8z"/>
			</g>
		</g>
	</g>
	<g>
		<g>
			<g>
				<g>
					<g>
						<g>
							<g>
								<g>
									<path class="st11" d="M358.2,115.6l-10.5-1.2c-4.2,4.3-9.7,7.5-15.9,9.1c-18.1,4.4-36.3-6.6-40.7-24.7
										c-4.4-18.1,6.6-36.3,24.7-40.7c18.1-4.4,36.3,6.6,40.7,24.7c1.9,7.5,1,15.1-1.9,21.7l0,0L358.2,115.6z"/>
								</g>
							</g>
							<g>
								<g>
									<g>
										<path class="st3" d="M358.2,115.6c0,0-0.1-0.3-0.3-0.7c-0.2-0.5-0.4-1.2-0.7-2.2c-0.6-1.9-1.6-4.7-2.8-8.3l0.2,0l0,0
											c0,0-0.1,0.1-0.1,0c0,0,0-0.1,0-0.1c1.8-4,3.3-9.7,2.7-16.4c-0.1-1.7-0.4-3.4-0.8-5.1c-0.5-1.7-1-3.5-1.8-5.3
											c-1.5-3.5-3.7-7-6.7-10c-2.9-3.1-6.6-5.7-10.9-7.5c-4.2-1.8-9-2.8-14-2.7c-9.9,0.1-20.3,5.2-26.5,14.1
											c-3.2,4.5-5.3,9.7-5.9,15c-0.7,5.3-0.1,10.6,1.5,15.3c1.6,4.8,4.3,9,7.6,12.3c3.3,3.4,7.1,5.9,11.1,7.6
											c4,1.7,8.1,2.5,11.9,2.6c0.5,0,1,0,1.4,0c0.5,0,0.9,0,1.4,0c0.9-0.1,1.8-0.2,2.7-0.2c1.8-0.4,3.5-0.6,5.1-1.1
											c6.5-1.9,11.1-5.4,14.2-8.5c0,0,0.1,0,0.1,0c3.4,0.4,6,0.7,7.8,1c0.9,0.1,1.5,0.2,2,0.3
											C357.9,115.6,358.2,115.6,358.2,115.6s-0.2,0-0.7-0.1c-0.5,0-1.1-0.1-2-0.2c-1.8-0.2-4.4-0.5-7.8-0.9l0.1,0
											c-3,3.1-7.7,6.7-14.2,8.6c-1.6,0.5-3.4,0.8-5.1,1.2c-0.9,0.1-1.8,0.2-2.8,0.3c-0.5,0.1-0.9,0.1-1.4,0.1c-0.5,0-1,0-1.5,0
											c-3.9-0.1-8-0.9-12.1-2.6c-4-1.7-7.9-4.2-11.3-7.6c-3.3-3.4-6.1-7.6-7.7-12.5c-1.7-4.8-2.3-10.2-1.6-15.5
											c0.6-5.4,2.8-10.6,6-15.2c0.4-0.6,0.8-1.1,1.2-1.6l1.3-1.6l1.4-1.4c0.5-0.5,0.9-1,1.5-1.4c0.5-0.4,1-0.9,1.6-1.3
											c0.5-0.4,1.1-0.8,1.6-1.2c0.6-0.4,1.1-0.8,1.7-1.1c0.6-0.3,1.2-0.6,1.7-0.9c4.7-2.4,9.8-3.7,14.8-3.8
											c5-0.1,9.9,0.9,14.2,2.8c4.3,1.9,8,4.5,11,7.6c3,3.1,5.2,6.6,6.7,10.2c0.8,1.8,1.3,3.6,1.8,5.3c0.4,1.8,0.7,3.5,0.8,5.2
											c0.5,6.8-1,12.4-2.8,16.5l-0.2-0.1l0,0c0,0,0.1-0.1,0.1,0c0,0,0,0,0,0.1c1.2,3.7,2.1,6.5,2.7,8.4c0.3,0.9,0.5,1.6,0.7,2.1
											C358.1,115.4,358.2,115.6,358.2,115.6z"/>
									</g>
								</g>
							</g>
						</g>
					</g>
				</g>
			</g>
		</g>
		<g>
			<g>
				<g>
					<g>
						<polygon class="st3" points="308.2,91.5 312.2,87.1 320.8,93.9 333.5,79.4 337.6,83.4 320.6,102.2 						"/>
					</g>
				</g>
			</g>
		</g>
		<g>
			<path class="st1" d="M265.7,118.6c1.5-0.2,3.8-0.5,6.7-0.8c0,0,0.1,0,0.1,0c2.6,2.6,6.6,5.6,12.1,7.3c1.4,0.4,2.9,0.7,4.4,1
				c0.8,0.1,1.6,0.1,2.4,0.2c0.4,0.1,0.8,0.1,1.2,0c0.4,0,0.8,0,1.2,0c3.3-0.1,6.8-0.8,10.2-2.2c0.9-0.4,1.7-0.8,2.6-1.2
				c-0.3-0.1-0.5-0.2-0.8-0.3c-3.9-1.6-7.8-4.1-11-7.5c-3.3-3.3-6-7.5-7.6-12.2c-1.6-4.7-2.2-10-1.6-15.2c0.6-5.3,2.7-10.4,5.8-14.9
				c0.4-0.6,0.8-1.1,1.2-1.6l1.3-1.5l0.5-0.6c-0.3,0-0.6,0-0.9,0c-4.2-0.1-8.3,0.8-12,2.3c-3.6,1.6-6.8,3.8-9.3,6.4
				c-2.5,2.6-4.4,5.6-5.7,8.6c-0.7,1.5-1.1,3-1.5,4.5c-0.4,1.5-0.6,3-0.7,4.4c-0.5,5.7,0.8,10.6,2.3,14c0,0,0,0.1,0,0.1
				c-1,3.1-1.8,5.4-2.4,7.1c-0.3,0.8-0.5,1.4-0.6,1.8c-0.1,0.4-0.2,0.6-0.2,0.6s0.2,0,0.6-0.1C264.4,118.7,265,118.6,265.7,118.6z"
				/>
			<g>
				<path class="st3" d="M265.7,118.6c0,0-0.2,0-0.6,0.1c-0.4,0.1-1,0.1-1.7,0.3l-0.1,0l0-0.1c0.6-2,1.7-5.2,3.2-9.6l0,0
					c0,0,0,0.1,0,0l-0.1-0.1l-0.1-0.3c-0.1-0.2-0.2-0.4-0.2-0.6c-0.2-0.4-0.3-0.8-0.4-1.2c-0.3-0.8-0.5-1.7-0.8-2.5
					c-0.4-1.8-0.8-3.7-0.8-5.8c-0.1-2.1,0-4.3,0.5-6.6c0.2-1.1,0.6-2.3,0.9-3.4c0.3-1.2,0.8-2.3,1.3-3.4c2.1-4.6,5.7-8.9,10.5-12
					c4.8-3.1,10.9-4.9,17.2-4.6l0.5,0l-0.3,0.3c-0.2,0.2-0.4,0.4-0.5,0.6l0,0c-3.9,4.3-6.8,9.8-8,15.9c-1.6,8.3,0.1,16.8,4.1,23.4
					c4,6.6,10.1,11.3,16.3,13.7l0.4,0.2l-0.4,0.2c-1.5,0.7-3,1.5-4.5,2c-1.5,0.5-3.1,0.9-4.6,1.1c-3,0.5-6,0.4-8.6,0.1l0,0l0,0
					c-1-0.2-1.9-0.4-2.8-0.6c-0.9-0.2-1.8-0.5-2.7-0.8c-1.7-0.6-3.2-1.3-4.6-2.1c-2.8-1.5-4.8-3.3-6.4-4.9c0-0.1-0.2,0-0.3,0
					c-0.1,0-0.3,0-0.4,0c-0.3,0-0.5,0.1-0.8,0.1c-0.5,0.1-0.9,0.1-1.4,0.2c-0.8,0.1-1.5,0.2-2.1,0.2c-0.6,0.1-1,0.1-1.3,0.1
					C265.9,118.5,265.7,118.6,265.7,118.6s0.1,0,0.4-0.1c0.3,0,0.7-0.1,1.3-0.2c0.6-0.1,1.3-0.2,2.1-0.3c0.4-0.1,0.9-0.1,1.4-0.2
					c0.2,0,0.5-0.1,0.8-0.1c0.1,0,0.3,0,0.4-0.1l0.2,0c0,0,0,0,0.1,0c0,0,0.1,0,0.1,0l0,0c1.6,1.5,3.7,3.3,6.4,4.8
					c2.7,1.5,6.1,2.8,10,3.3l0,0c1.3,0.1,2.7,0.3,4.1,0.2c1.4,0,2.9-0.1,4.4-0.4c1.5-0.2,3-0.6,4.5-1.1c1.5-0.5,3-1.2,4.5-2l0,0.3
					c-6.3-2.4-12.5-7.1-16.6-13.8c-4.1-6.7-5.8-15.3-4.2-23.7c1.2-6.1,4.2-11.7,8.1-16.1l0,0l0,0c0.2-0.2,0.4-0.4,0.5-0.5l0.1,0.4
					c-6.2-0.4-12.2,1.4-17,4.5c-4.8,3.1-8.3,7.4-10.4,11.9c-0.5,1.1-1,2.2-1.3,3.4c-0.3,1.1-0.7,2.3-0.9,3.4
					c-0.4,2.2-0.6,4.4-0.5,6.5c0.1,2.1,0.4,4,0.8,5.8c0.2,0.9,0.5,1.7,0.7,2.5c0.1,0.4,0.3,0.8,0.4,1.2c0.1,0.2,0.2,0.4,0.2,0.6
					l0.1,0.3l0.1,0.1c0,0,0.1,0.2,0,0.3l0,0c-1.5,4.3-2.6,7.6-3.3,9.5l-0.1-0.1c0.8-0.1,1.3-0.2,1.7-0.2
					C265.5,118.6,265.7,118.6,265.7,118.6z"/>
			</g>
		</g>
	</g>
	<g>
		<path class="st8" d="M547.3,123.6h-9c-2.5,0-4.4-2-4.4-4.4V63.5c0-2.5,2-4.4,4.4-4.4h9c2.5,0,4.4,2,4.4,4.4v55.7
			C551.7,121.6,549.7,123.6,547.3,123.6z"/>
		<g>
			<g>
				<path class="st8" d="M490.9,126.4h-8.7c-2.5,0-4.6-2.1-4.6-4.6v-20.1c0-2.5,2.1-4.6,4.6-4.6h8.7c2.5,0,4.6,2.1,4.6,4.6v20.1
					C495.6,124.3,493.5,126.4,490.9,126.4z"/>
			</g>
			<g>
				<path class="st8" d="M518.3,126.4h-8.1c-2.7,0-4.9-2.2-4.9-4.9V86c0-2.7,2.2-4.9,4.9-4.9h8.1c2.7,0,4.9,2.2,4.9,4.9v35.4
					C523.2,124.2,521,126.4,518.3,126.4z"/>
			</g>
			<g>
				<g>
					<path class="st3" d="M545.1,37.7c0,0-0.1,0.2-0.4,0.6c-0.3,0.4-0.8,0.9-1.3,1.6c-1.2,1.4-2.9,3.4-5.1,5.8
						c-4.4,5-10.5,11.9-17.6,19.8l-0.2,0.2l-0.2-0.2c-3.5-2.3-7.2-4.7-11-7.2l0.5-0.1c-0.1,0.2-0.3,0.3-0.4,0.5
						C500.2,69.4,492,79,486,86l-0.2,0.2l-0.2-0.1c-3.6-2.7-6.6-4.9-8.7-6.5c-1-0.7-1.8-1.3-2.4-1.8c-0.5-0.4-0.8-0.6-0.8-0.7
						c0,0,0.3,0.2,0.9,0.5c0.6,0.4,1.4,1,2.4,1.7c2.2,1.5,5.2,3.7,8.9,6.3l-0.3,0c6-7.1,14.1-16.7,23.1-27.4
						c0.1-0.2,0.3-0.3,0.4-0.5l0.2-0.2l0.3,0.2c3.8,2.5,7.5,4.9,11,7.2l-0.4,0.1c7.1-7.9,13.3-14.7,17.8-19.6
						c2.2-2.4,3.9-4.3,5.2-5.7c0.6-0.6,1-1.1,1.4-1.5C544.9,37.8,545.1,37.7,545.1,37.7z"/>
				</g>
			</g>
			<g>
				<g>
					<path class="st3" d="M545.6,51.3c-0.1,0-0.2-1.6-0.2-4.1c-0.1-2.6-0.1-6.1-0.1-10l0.4,0.4c-0.1,0-0.2,0-0.4,0.1
						c-3.9,0.7-7.5,1.2-10.1,1.6c-2.6,0.4-4.2,0.5-4.2,0.4c0-0.1,1.6-0.4,4.1-0.9c2.6-0.5,6.1-1.1,10.1-1.8c0.1,0,0.2,0,0.4-0.1
						l0.4-0.1l0,0.4c0,3.9,0,7.4-0.1,10C545.8,49.7,545.7,51.3,545.6,51.3z"/>
				</g>
			</g>
		</g>
	</g>
</g>
</svg>
