<?xml version="1.0" encoding="utf-8"?>
<!-- Generator: Adobe Illustrator 25.2.0, SVG Export Plug-In . SVG Version: 6.00 Build 0)  -->
<svg version="1.1" id="Layer_1" xmlns="http://www.w3.org/2000/svg" xmlns:xlink="http://www.w3.org/1999/xlink" x="0px" y="0px"
	 viewBox="0 0 680 699" style="enable-background:new 0 0 680 699;" xml:space="preserve">
<style type="text/css">
	.st0{fill:#ECECEC;}
	.st1{fill:#FFFFFF;}
	.st2{fill:#2B454E;}
	.st3{fill:#FFC800;}
	.st4{fill:#DCDCDC;}
	.st5{fill:#A8A8A8;}
	.st6{fill:#1A2E35;}
	.st7{fill:#375A64;}
	.st8{fill:#ED776A;}
	.st9{fill:#C36358;}
	.st10{fill:#FF99BC;}
</style>
<g>
	<g>
		<path class="st0" d="M657.5,406.3l-13.1,0.3l-6.7,0.1c-2.2,0-4.5,0-6.7,0.1l-0.4,0l0-0.4l-0.1-11.2l0-0.5l0.5,0l13.2,0.1
			c4.4,0,8.8,0.1,13.2,0.2l0.3,0l0,0.3c0,1.9-0.1,3.8-0.1,5.7L657.5,406.3z M657.5,406.3l-0.1-5.7c0-1.9-0.1-3.7-0.1-5.5l0.3,0.3
			c-4.4,0.1-8.8,0.2-13.2,0.2l-13.2,0.1l0.5-0.5l-0.1,11.2l-0.4-0.4c2.2,0,4.4,0,6.5,0.1l6.6,0.1L657.5,406.3z"/>
		<path class="st0" d="M642.7,420.4l-13.1,0.3l-6.7,0.1c-2.2,0-4.5,0-6.7,0.1l-0.4,0l0-0.4l-0.1-11.2l0-0.5l0.5,0l13.2,0.1
			c4.4,0,8.8,0.1,13.2,0.2l0.3,0l0,0.3c0,1.9-0.1,3.8-0.1,5.7L642.7,420.4z M642.7,420.4l-0.1-5.7c0-1.9-0.1-3.7-0.1-5.5l0.3,0.3
			c-4.4,0.1-8.8,0.2-13.2,0.2l-13.2,0.1l0.5-0.5l-0.1,11.2l-0.4-0.4c2.2,0,4.4,0,6.5,0.1l6.6,0.1L642.7,420.4z"/>
		<path class="st0" d="M672.3,420.4l-13.1,0.3l-6.7,0.1c-2.2,0-4.5,0-6.7,0.1l-0.4,0l0-0.4l-0.1-11.2l0-0.5l0.5,0l13.2,0.1
			c4.4,0,8.8,0.1,13.2,0.2l0.3,0l0,0.3c0,1.9-0.1,3.8-0.1,5.7L672.3,420.4z M672.3,420.4l-0.1-5.7c0-1.9-0.1-3.7-0.1-5.5l0.3,0.3
			c-4.4,0.1-8.8,0.2-13.2,0.2l-13.2,0.1l0.5-0.5l-0.1,11.2l-0.4-0.4c2.2,0,4.4,0,6.5,0.1l6.6,0.1L672.3,420.4z"/>
		<path class="st0" d="M279.9,273.1l-13.1,0.3l-6.7,0.1c-2.2,0-4.5,0-6.7,0.1l-0.4,0l0-0.4l-0.1-11.2l0-0.5l0.5,0l13.2,0.1
			c4.4,0,8.8,0.1,13.2,0.2l0.3,0l0,0.3c0,1.9-0.1,3.8-0.1,5.7L279.9,273.1z M279.9,273.1l-0.1-5.7c0-1.9-0.1-3.7-0.1-5.5l0.3,0.3
			c-4.4,0.1-8.8,0.2-13.2,0.2l-13.2,0.1l0.5-0.5l-0.1,11.2l-0.4-0.4c2.2,0,4.4,0,6.5,0.1l6.6,0.1L279.9,273.1z"/>
		<path class="st0" d="M265.1,287.2l-13.1,0.3l-6.7,0.1c-2.2,0-4.5,0-6.7,0.1l-0.4,0l0-0.4l-0.1-11.2l0-0.5l0.5,0l13.2,0.1
			c4.4,0,8.8,0.1,13.2,0.2l0.3,0l0,0.3c0,1.9-0.1,3.8-0.1,5.7L265.1,287.2z M265.1,287.2l-0.1-5.7c0-1.9-0.1-3.7-0.1-5.5l0.3,0.3
			c-4.4,0.1-8.8,0.2-13.2,0.2l-13.2,0.1l0.5-0.5l-0.1,11.2l-0.4-0.4c2.2,0,4.4,0,6.5,0.1l6.6,0.1L265.1,287.2z"/>
		<path class="st0" d="M294.7,287.2l-13.1,0.3l-6.7,0.1c-2.2,0-4.5,0-6.7,0.1l-0.4,0l0-0.4l-0.1-11.2l0-0.5l0.5,0l13.2,0.1
			c4.4,0,8.8,0.1,13.2,0.2l0.3,0l0,0.3c0,1.9-0.1,3.8-0.1,5.7L294.7,287.2z M294.7,287.2l-0.1-5.7c0-1.9-0.1-3.7-0.1-5.5l0.3,0.3
			c-4.4,0.1-8.8,0.2-13.2,0.2l-13.2,0.1l0.5-0.5l-0.1,11.2l-0.4-0.4c2.2,0,4.4,0,6.5,0.1l6.6,0.1L294.7,287.2z"/>
		<path class="st0" d="M64,347.1l-13.1,0.3l-6.7,0.1c-2.2,0-4.5,0-6.7,0.1l-0.4,0l0-0.4L37,336l0-0.5l0.5,0l13.2,0.1
			c4.4,0,8.8,0.1,13.2,0.2l0.3,0l0,0.3c0,1.9-0.1,3.8-0.1,5.7L64,347.1z M64,347.1l-0.1-5.7c0-1.9-0.1-3.7-0.1-5.5l0.3,0.3
			c-4.4,0.1-8.8,0.2-13.2,0.2l-13.2,0.1L38,336L38,347.1l-0.4-0.4c2.2,0,4.4,0,6.5,0.1l6.6,0.1L64,347.1z"/>
		<path class="st0" d="M503,273.1l-13.1,0.3l-6.7,0.1c-2.2,0-4.5,0-6.7,0.1l-0.4,0l0-0.4l-0.1-11.2l0-0.5l0.5,0l13.2,0.1
			c4.4,0,8.8,0.1,13.2,0.2l0.3,0l0,0.3c0,1.9-0.1,3.8-0.1,5.7L503,273.1z M503,273.1l-0.1-5.7c0-1.9-0.1-3.7-0.1-5.5l0.3,0.3
			c-4.4,0.1-8.8,0.2-13.2,0.2l-13.2,0.1l0.5-0.5l-0.1,11.2l-0.4-0.4c2.2,0,4.4,0,6.5,0.1l6.6,0.1L503,273.1z"/>
		<path class="st0" d="M656,164.4l-13.1,0.3l-6.7,0.1c-2.2,0-4.5,0-6.7,0.1l-0.4,0l0-0.4l-0.1-11.2l0-0.5l0.5,0l13.2,0.1
			c4.4,0,8.8,0.1,13.2,0.2l0.3,0l0,0.3c0,1.9-0.1,3.8-0.1,5.7L656,164.4z M656,164.4l-0.1-5.7c0-1.9-0.1-3.7-0.1-5.5l0.3,0.3
			c-4.4,0.1-8.8,0.2-13.2,0.2l-13.2,0.1l0.5-0.5l-0.1,11.2l-0.4-0.4c2.2,0,4.4,0,6.5,0.1l6.6,0.1L656,164.4z"/>
		<path class="st0" d="M670.7,178.5l-13.1,0.3l-6.7,0.1c-2.2,0-4.5,0-6.7,0.1l-0.4,0l0-0.4l-0.1-11.2l0-0.5l0.5,0l13.2,0.1
			c4.4,0,8.8,0.1,13.2,0.2l0.3,0l0,0.3c0,1.9-0.1,3.8-0.1,5.7L670.7,178.5z M670.7,178.5l-0.1-5.7c0-1.9-0.1-3.7-0.1-5.5l0.3,0.3
			c-4.4,0.1-8.8,0.2-13.2,0.2l-13.2,0.1l0.5-0.5l-0.1,11.2l-0.4-0.4c2.2,0,4.4,0,6.5,0.1l6.6,0.1L670.7,178.5z"/>
		<path class="st0" d="M34.5,164.4l-13.1,0.3l-6.7,0.1c-2.2,0-4.5,0-6.7,0.1l-0.4,0l0-0.4l-0.1-11.2l0-0.5l0.5,0l13.2,0.1
			c4.4,0,8.8,0.1,13.2,0.2l0.3,0l0,0.3c0,1.9-0.1,3.8-0.1,5.7L34.5,164.4z M34.5,164.4l-0.1-5.7c0-1.9-0.1-3.7-0.1-5.5l0.3,0.3
			c-4.4,0.1-8.8,0.2-13.2,0.2L8,153.7l0.5-0.5l-0.1,11.2L8,164c2.2,0,4.4,0,6.5,0.1l6.6,0.1L34.5,164.4z"/>
	</g>
	<g>
		<g>
			<g>
				<rect x="143.6" y="155.3" class="st1" width="118.5" height="79.9"/>
				<path class="st0" d="M262.6,235.6H143.1v-80.9h119.5V235.6z M144.1,234.6h117.5v-78.9H144.1V234.6z"/>
			</g>
		</g>
		<g>
			<path class="st2" d="M155,161.3c0,1.5-1.2,2.7-2.7,2.7c-1.5,0-2.7-1.2-2.7-2.7c0-1.5,1.2-2.7,2.7-2.7
				C153.8,158.6,155,159.8,155,161.3z"/>
			<path class="st0" d="M166.2,161.3c0,1.5-1.2,2.7-2.7,2.7c-1.5,0-2.7-1.2-2.7-2.7c0-1.5,1.2-2.7,2.7-2.7
				C164.9,158.6,166.2,159.8,166.2,161.3z"/>
			<path class="st3" d="M177.3,161.3c0,1.5-1.2,2.7-2.7,2.7c-1.5,0-2.7-1.2-2.7-2.7c0-1.5,1.2-2.7,2.7-2.7
				C176.1,158.6,177.3,159.8,177.3,161.3z"/>
		</g>
		<rect x="143.6" y="166.8" class="st0" width="118.5" height="1"/>
	</g>
	<g>
		<path class="st0" d="M165.1,260.6c0-1.2,0.2-4.6,0.2-6c0-6.1-2.2-8.8-7.8-9c-2.7-0.2-4.2-1.7-4.2-4c0-2.2,1.6-3.8,4.2-4
			c5.7-0.2,7.8-2.9,7.8-9.1c0-1.4-0.2-4.7-0.2-6c0-8.1,3.4-13.2,16.3-16.1c2.6-0.6,4.6,1,4.6,3.4c0,2-1.3,3.1-2.3,3.4
			c-8.1,2.5-9.2,5.1-9.2,10.7c0,1.7,0.2,4.4,0.2,6.2c0,6.5-3.2,9.7-8.7,11.4c5.6,1.8,8.7,4.9,8.7,11.4c0,1.7-0.2,4.5-0.2,6.2
			c0,5.7,1.2,8.2,9.2,10.7c1,0.3,2.3,1.4,2.3,3.4c0,2.4-2,4-4.6,3.4C168.5,273.9,165.1,268.8,165.1,260.6z"/>
		<path class="st0" d="M213.9,222.6c0,1.2-0.2,4.6-0.2,6c0,6.2,2.2,8.8,7.9,9.1c2.6,0.2,4.2,1.7,4.2,4c0,2.2-1.6,3.8-4.2,4
			c-5.7,0.2-7.9,2.9-7.9,9c0,1.4,0.2,4.7,0.2,6c0,8.2-3.4,13.3-16.3,16.2c-2.6,0.6-4.6-1-4.6-3.4c0-2,1.3-3.1,2.4-3.4
			c8-2.5,9.2-5.1,9.2-10.7c0-1.7-0.2-4.4-0.2-6.2c0-6.5,3.2-9.7,8.7-11.4c-5.6-1.8-8.7-4.9-8.7-11.4c0-1.7,0.2-4.5,0.2-6.2
			c0-5.7-1.2-8.2-9.2-10.7c-1.1-0.3-2.4-1.4-2.4-3.4c0-2.4,2-4,4.6-3.4C210.5,209.3,213.9,214.5,213.9,222.6z"/>
	</g>
	<g>
		<path class="st0" d="M579.7,312.8c1.3,1.4,1.3,3.5,0,4.8c-0.7,0.6-1.5,1-2.4,1c-0.9,0-1.8-0.3-2.5-1l-15.1-15.3
			c-0.2-0.1-0.2-0.2-0.3-0.3c-0.1-0.1-0.2-0.1-0.2-0.1c-0.1-0.2-0.1-0.3-0.2-0.4c-0.1-0.1-0.2-0.2-0.2-0.2c-0.1-0.1-0.1-0.3-0.1-0.3
			c0-0.2-0.1-0.2-0.1-0.3c0-0.2,0-0.3,0-0.4c0-0.1-0.1-0.2-0.1-0.3c0-0.1,0.1-0.2,0.1-0.3c0-0.1,0-0.3,0-0.4c0-0.1,0.1-0.2,0.1-0.2
			c0.1-0.2,0.1-0.3,0.1-0.4c0-0.1,0.1-0.1,0.1-0.1c0.1-0.2,0.2-0.4,0.3-0.5c0,0,0-0.1,0.1-0.1c0.1-0.1,0.2-0.3,0.3-0.4l15.1-15.3
			c1.3-1.3,3.6-1.3,4.8,0c1.3,1.3,1.3,3.5,0,4.8L566.9,300L579.7,312.8z"/>
		<path class="st0" d="M593.4,314.6l13.2-31.4c0.6-1.5,2.4-2.2,3.9-1.6c1.5,0.6,2.2,2.4,1.5,3.8l-13.2,31.4
			c-0.5,1.1-1.6,1.8-2.7,1.8c-0.3,0-0.8-0.1-1.1-0.2C593.5,317.8,592.8,316.1,593.4,314.6z"/>
		<path class="st0" d="M638.1,301.9C638.1,301.9,638.1,302,638.1,301.9c-0.2,0.2-0.3,0.3-0.4,0.4l-15.1,15.3c-0.6,0.6-1.6,1-2.4,1
			c-0.9,0-1.7-0.3-2.4-1c-1.3-1.3-1.3-3.4,0-4.8l12.8-12.9l-12.8-12.9c-1.3-1.3-1.3-3.5,0-4.8c1.3-1.3,3.5-1.3,4.8,0l15.1,15.3
			c0.2,0.1,0.3,0.3,0.4,0.4c0.1,0,0.1,0.1,0.1,0.1c0.1,0.2,0.2,0.3,0.3,0.5c0,0.1,0.1,0.1,0.1,0.1c0.1,0.2,0.1,0.3,0.2,0.5
			c0,0.1,0.1,0.1,0.1,0.2c0,0.1,0,0.3,0,0.4c0,0.1,0.1,0.2,0.1,0.3c0,0.1-0.1,0.2-0.1,0.3c0,0.2,0,0.3,0,0.4c0,0.1-0.1,0.1-0.1,0.1
			c-0.1,0.2-0.1,0.4-0.2,0.5c0,0.1-0.1,0.1-0.1,0.2C638.3,301.5,638.2,301.7,638.1,301.9z"/>
	</g>
	<path class="st0" d="M551.6,235.4c0,6.8-5.3,12.4-11.9,12.9v0h-73.1c-8.4,0-15.2-6.8-15.2-15.2c0-7.9,6-14.4,13.8-15.1
		c0.4-13.7,11.7-24.7,25.5-24.7c11,0,20.4,7,24,16.7c2-1,4.3-1.6,6.8-1.6c8.1,0,14.7,6.3,15.1,14.2c0.7-0.1,1.4-0.2,2.1-0.2
		C545.8,222.5,551.6,228.2,551.6,235.4z"/>
	<g>
		<path class="st0" d="M623,411.1l8.3-13.4l-4.1-2.6c-1.2-0.7-1.8-2.1-1.7-3.5c0.1-0.8,0.1-1.5,0.1-2.3c0-1.4,0.7-2.8,2-3.4l4.2-2.3
			l-7.4-13.9l-4.2,2.3c-1.2,0.7-2.7,0.6-3.8-0.2c-0.7-0.5-1.4-0.9-2.1-1.3c-1.2-0.7-1.9-2-1.9-3.4l0.2-4.8l-15.7-0.5l-0.1,4.8
			c0,1.4-0.9,2.6-2.1,3.2c-0.4,0.2-0.7,0.4-1.1,0.5c-0.4,0.2-0.7,0.4-1.1,0.6c-1.2,0.7-2.7,0.7-3.9,0l-4.1-2.6l-8.3,13.4l4.1,2.6
			c1.2,0.7,1.8,2.1,1.7,3.5c-0.1,0.8-0.1,1.5-0.1,2.3c0,1.4-0.7,2.8-2,3.4l-4.2,2.3l7.4,13.9l4.2-2.3c1.3-0.7,2.8-0.5,3.9,0.3
			c0.6,0.4,1.3,0.8,1.9,1.2c1.2,0.7,2,2,2,3.4l-0.1,4.9l15.7,0.5l0.1-4.8c0-1.4,0.9-2.6,2.2-3.2c0.4-0.2,0.7-0.3,1-0.5
			c0.3-0.2,0.7-0.4,1-0.6c1.2-0.7,2.7-0.8,3.9,0L623,411.1z M611.1,400.3c-6.9,4.9-16.5,2-19.6-5.9c-2.1-5.4-0.2-11.7,4.5-15
			c6.9-4.9,16.5-2,19.6,5.9C617.7,390.7,615.8,396.9,611.1,400.3z"/>
		<path class="st0" d="M536.2,442.9l9.5-5.5l-1.7-2.9c-0.5-0.9-0.4-1.9,0.1-2.7c0.3-0.5,0.6-0.9,0.8-1.4c0.4-0.9,1.3-1.4,2.3-1.4
			h3.4v-11h-3.4c-1,0-1.9-0.6-2.3-1.4c-0.2-0.5-0.5-1-0.8-1.4c-0.5-0.8-0.6-1.9-0.1-2.7l1.7-2.9l-9.5-5.5l-1.7,2.9
			c-0.5,0.9-1.4,1.3-2.4,1.3c-0.3,0-0.5,0-0.8,0s-0.5,0-0.8,0c-1,0.1-1.9-0.4-2.4-1.3l-1.7-2.9l-9.5,5.5l1.7,2.9
			c0.5,0.9,0.4,1.9-0.1,2.7c-0.3,0.5-0.6,0.9-0.8,1.4c-0.4,0.9-1.3,1.4-2.3,1.4h-3.4v11h3.4c1,0,1.9,0.6,2.3,1.4
			c0.2,0.5,0.5,1,0.8,1.4c0.5,0.8,0.6,1.9,0.1,2.7l-1.7,2.9l9.5,5.5l1.7-2.9c0.5-0.9,1.4-1.3,2.4-1.3c0.3,0,0.5,0,0.8,0
			c0.3,0,0.5,0,0.8,0c1-0.1,1.9,0.4,2.4,1.3L536.2,442.9z M531.2,432.3c-5,0-9-4-9-9c0-5,4-9,9-9c5,0,9,4,9,9
			C540.3,428.3,536.2,432.3,531.2,432.3z"/>
		<path class="st0" d="M51.4,204.9c0.9,0.5,1.3,1.4,1.3,2.4c0,0.3,0,0.5,0,0.8c0,0.3,0,0.5,0,0.8c0.1,1-0.4,1.9-1.3,2.4l-2.9,1.7
			l5.5,9.5l2.9-1.7c0.9-0.5,1.9-0.4,2.7,0.1c0.5,0.3,0.9,0.6,1.4,0.8c0.9,0.4,1.4,1.3,1.4,2.3v3.4h11v-3.4c0-1,0.6-1.9,1.4-2.3
			c0.5-0.2,1-0.5,1.4-0.8c0.8-0.5,1.9-0.6,2.7-0.1l2.9,1.7l5.5-9.5l-2.9-1.7c-0.9-0.5-1.3-1.4-1.3-2.4c0-0.3,0-0.5,0-0.8
			c0-0.3,0-0.5,0-0.8c-0.1-1,0.4-1.9,1.3-2.4l2.9-1.7l-5.5-9.5l-2.9,1.7c-0.9,0.5-1.9,0.4-2.7-0.1c-0.5-0.3-0.9-0.6-1.4-0.8
			c-0.9-0.4-1.4-1.3-1.4-2.3v-3.4h-11v3.4c0,1-0.6,1.9-1.4,2.3c-0.5,0.2-1,0.5-1.4,0.8c-0.8,0.5-1.9,0.6-2.7,0.1l-2.9-1.7l-5.5,9.5
			L51.4,204.9z M68.1,199.1c5,0,9,4,9,9c0,5-4,9-9,9c-5,0-9-4-9-9C59,203.1,63.1,199.1,68.1,199.1z"/>
	</g>
	<g>
		<polygon class="st4" points="347.4,520.8 459.3,520.8 437,390.9 353.3,390.9 		"/>
		<polygon class="st5" points="347.4,520.8 357.2,520.8 362.7,390.9 353.3,390.9 		"/>
	</g>
	<g>
		<polygon class="st4" points="335,520.8 223.1,520.8 245.4,390.9 329.1,390.9 		"/>
		<polygon class="st5" points="335,520.8 325.2,520.8 319.7,390.9 329.1,390.9 		"/>
	</g>
	<g>
		<g>
			<g>
				<rect x="496.2" y="317.5" class="st1" width="103.1" height="65.8"/>
				<path class="st0" d="M600,383.9H495.6v-67.1H600V383.9z M496.9,382.6h101.8v-64.5H496.9V382.6z"/>
			</g>
			<g>
				<rect x="496.2" y="317.5" class="st3" width="103.1" height="12.4"/>
				<path class="st0" d="M600,330.6H495.6v-13.7H600V330.6z M496.9,329.3h101.8v-11.1H496.9V329.3z"/>
			</g>
		</g>
		<g>
			<path class="st5" d="M507.9,323.8c0,1.7-1.4,3.1-3.1,3.1c-1.7,0-3.1-1.4-3.1-3.1s1.4-3.1,3.1-3.1
				C506.5,320.7,507.9,322.1,507.9,323.8z"/>
			<path class="st0" d="M520.7,323.8c0,1.7-1.4,3.1-3.1,3.1c-1.7,0-3.1-1.4-3.1-3.1s1.4-3.1,3.1-3.1
				C519.3,320.7,520.7,322.1,520.7,323.8z"/>
			<path class="st1" d="M533.5,323.8c0,1.7-1.4,3.1-3.1,3.1c-1.7,0-3.1-1.4-3.1-3.1s1.4-3.1,3.1-3.1
				C532.1,320.7,533.5,322.1,533.5,323.8z"/>
		</g>
		<g>
			<path class="st0" d="M514,354.5c0-6.9,5.8-12.4,12.7-12.5c3,0,5.8,1,8,2.7c0.8,0.7,1,1.9,0.3,2.8c-0.7,0.9-2,1-2.8,0.4
				c-1.5-1.2-3.4-1.9-5.6-1.9c-2.4,0-4.6,1-6.2,2.5c-1.6,1.6-2.5,3.7-2.5,6c0,2.4,1,4.5,2.5,6c1.6,1.5,3.8,2.5,6.2,2.5
				c2.1,0,4-0.7,5.6-1.9c0.8-0.6,2.1-0.5,2.8,0.4c0.6,0.9,0.5,2.1-0.3,2.8c-2.2,1.7-5,2.7-8,2.7C519.8,367,514.1,361.4,514,354.5z"
				/>
			<path class="st0" d="M541.1,360.9c0.6-0.8,1.8-0.9,2.5-0.2c1.5,1.2,4.2,2.7,6.6,2.7c1.7,0,3.3-0.5,4.3-1.3c1-0.8,1.5-1.6,1.5-2.5
				c0-0.5-0.1-0.8-0.3-1.1c-0.2-0.3-0.5-0.7-1-1c-1-0.7-2.7-1.2-4.7-1.6h-0.1c-1.6-0.3-3.2-0.7-4.5-1.4c-1.3-0.6-2.5-1.5-3.2-2.7
				c-0.5-0.8-0.8-1.8-0.8-2.8c0-2.1,1.2-3.9,2.8-5.1c1.6-1.2,3.7-1.8,6-1.8c3.3,0,5.8,1.6,7.6,2.8c0.8,0.6,1,1.7,0.5,2.5
				c-0.5,0.8-1.6,1.1-2.5,0.5c-1.8-1.2-3.5-2.2-5.6-2.2c-1.6,0-2.9,0.5-3.9,1.2c-0.9,0.7-1.3,1.5-1.3,2.2c0,0.4,0.1,0.7,0.2,1
				c0.2,0.3,0.5,0.6,0.9,0.9c0.9,0.6,2.5,1.2,4.3,1.5h0.1c1.8,0.3,3.4,0.8,4.8,1.5c1.4,0.7,2.7,1.6,3.5,2.9c0.5,0.8,0.8,1.9,0.8,2.9
				c0,2.2-1.2,4.1-3,5.4c-1.7,1.2-3.9,2-6.4,2c-3.7,0-6.9-1.9-8.9-3.5C540.6,362.8,540.5,361.7,541.1,360.9z"/>
			<path class="st0" d="M563.8,360.9c0.6-0.8,1.8-0.9,2.5-0.2c1.5,1.2,4.2,2.7,6.6,2.7c1.7,0,3.3-0.5,4.3-1.3c1-0.8,1.5-1.6,1.5-2.5
				c0-0.5-0.1-0.8-0.3-1.1c-0.2-0.3-0.5-0.7-1-1c-1-0.7-2.7-1.2-4.7-1.6h-0.1c-1.6-0.3-3.2-0.7-4.5-1.4c-1.3-0.6-2.5-1.5-3.2-2.7
				c-0.5-0.8-0.8-1.8-0.8-2.8c0-2.1,1.2-3.9,2.8-5.1c1.6-1.2,3.7-1.8,6-1.8c3.3,0,5.8,1.6,7.6,2.8c0.8,0.6,1,1.7,0.5,2.5
				c-0.5,0.8-1.6,1.1-2.5,0.5c-1.8-1.2-3.5-2.2-5.6-2.2c-1.6,0-2.9,0.5-3.9,1.2c-0.9,0.7-1.3,1.5-1.3,2.2c0,0.4,0.1,0.7,0.2,1
				c0.2,0.3,0.5,0.6,0.9,0.9c0.9,0.6,2.5,1.2,4.3,1.5h0.1c1.8,0.3,3.4,0.8,4.8,1.5c1.4,0.7,2.7,1.6,3.5,2.9c0.5,0.8,0.8,1.9,0.8,2.9
				c0,2.2-1.2,4.1-3,5.4c-1.7,1.2-3.9,2-6.4,2c-3.7,0-6.9-1.9-8.9-3.5C563.3,362.8,563.2,361.7,563.8,360.9z"/>
		</g>
	</g>
	<g>
		<g>
			<g>
				<rect x="62" y="324.1" class="st1" width="103.1" height="65.8"/>
				<path class="st0" d="M165.7,390.5H61.3v-67.1h104.4V390.5z M62.6,389.2h101.8v-64.5H62.6V389.2z"/>
			</g>
			<g>
				<rect x="62" y="324.1" class="st3" width="103.1" height="12.4"/>
				<path class="st0" d="M165.7,337.2H61.3v-13.7h104.4V337.2z M62.6,335.9h101.8v-11.1H62.6V335.9z"/>
			</g>
		</g>
		<g>
			<path class="st5" d="M73.6,330.4c0,1.7-1.4,3.1-3.1,3.1c-1.7,0-3.1-1.4-3.1-3.1c0-1.7,1.4-3.1,3.1-3.1
				C72.2,327.3,73.6,328.7,73.6,330.4z"/>
			<path class="st0" d="M86.4,330.4c0,1.7-1.4,3.1-3.1,3.1c-1.7,0-3.1-1.4-3.1-3.1c0-1.7,1.4-3.1,3.1-3.1
				C85,327.3,86.4,328.7,86.4,330.4z"/>
			<path class="st1" d="M99.2,330.4c0,1.7-1.4,3.1-3.1,3.1c-1.7,0-3.1-1.4-3.1-3.1c0-1.7,1.4-3.1,3.1-3.1
				C97.8,327.3,99.2,328.7,99.2,330.4z"/>
		</g>
		<g>
			<path class="st0" d="M81.2,361.1c0-6.9,5.8-12.4,12.7-12.5c3,0,5.8,1,8,2.7c0.8,0.7,1,1.9,0.3,2.8c-0.7,0.9-2,1-2.8,0.4
				c-1.5-1.2-3.4-1.9-5.6-1.9c-2.4,0-4.6,1-6.2,2.5c-1.6,1.6-2.5,3.7-2.5,6c0,2.4,1,4.5,2.5,6c1.6,1.5,3.8,2.5,6.2,2.5
				c2.1,0,4-0.7,5.6-1.9c0.8-0.6,2.1-0.5,2.8,0.4c0.6,0.9,0.5,2.1-0.3,2.8c-2.2,1.7-5,2.7-8,2.7C87,373.6,81.2,368,81.2,361.1z"/>
			<path class="st0" d="M114.4,363.3h-4.9c-1,0-1.9-0.8-1.9-1.9c0-1,0.9-1.9,1.9-1.9h4.9v-4.8c0-1.1,0.9-2,2-2c1.1,0,2,0.9,2,2v4.8
				h4.9c1,0,1.9,0.9,1.9,1.9c0,1.1-0.9,1.9-1.9,1.9h-4.9v4.8c0,1.1-0.9,2-2,2c-1.1,0-2-0.9-2-2V363.3z"/>
			<path class="st0" d="M135.9,363.3H131c-1,0-1.9-0.8-1.9-1.9c0-1,0.9-1.9,1.9-1.9h4.9v-4.8c0-1.1,0.9-2,2-2c1.1,0,2,0.9,2,2v4.8
				h4.9c1,0,1.9,0.9,1.9,1.9c0,1.1-0.9,1.9-1.9,1.9h-4.9v4.8c0,1.1-0.9,2-2,2c-1.1,0-2-0.9-2-2V363.3z"/>
		</g>
	</g>
	<g>
		<g>
			<g>
				<rect x="228.5" y="166" class="st6" width="223.8" height="141.2"/>
				<path class="st0" d="M452.9,307.9H227.8V165.4h225.1V307.9z M229.1,306.6h222.5V166.7H229.1V306.6z"/>
			</g>
			<g>
				<rect x="228.5" y="166" class="st3" width="223.8" height="12.4"/>
				<path class="st0" d="M452.9,179.1H227.8v-13.7h225.1V179.1z M229.1,177.8h222.5v-11.1H229.1V177.8z"/>
			</g>
		</g>
		<g>
			<path class="st5" d="M240.2,172.3c0,1.7-1.4,3.1-3.1,3.1c-1.7,0-3.1-1.4-3.1-3.1c0-1.7,1.4-3.1,3.1-3.1
				C238.7,169.2,240.2,170.6,240.2,172.3z"/>
			<path class="st0" d="M252.9,172.3c0,1.7-1.4,3.1-3.1,3.1c-1.7,0-3.1-1.4-3.1-3.1c0-1.7,1.4-3.1,3.1-3.1
				C251.5,169.2,252.9,170.6,252.9,172.3z"/>
			<path class="st1" d="M265.7,172.3c0,1.7-1.4,3.1-3.1,3.1c-1.7,0-3.1-1.4-3.1-3.1c0-1.7,1.4-3.1,3.1-3.1
				C264.3,169.2,265.7,170.6,265.7,172.3z"/>
		</g>
		<g>
			<rect x="241.8" y="203.2" class="st0" width="6.6" height="2.4"/>
			<rect x="253.3" y="203.2" class="st0" width="107.4" height="2.4"/>
			<rect x="364.8" y="203.2" class="st3" width="12.6" height="2.4"/>
			<rect x="385" y="235.7" class="st0" width="12.6" height="2.4"/>
			<rect x="380.2" y="203.2" class="st5" width="42.6" height="2.4"/>
			<rect x="248.5" y="209.7" class="st0" width="6.6" height="2.4"/>
			<rect x="259.8" y="209.7" class="st5" width="50.1" height="2.4"/>
			<rect x="363.1" y="235.7" class="st5" width="18.9" height="2.4"/>
			<rect x="253.3" y="229.2" class="st5" width="47.8" height="2.4"/>
			<rect x="259.8" y="216.2" class="st3" width="33.5" height="2.4"/>
			<rect x="373.2" y="222.7" class="st5" width="33.5" height="2.4"/>
			<rect x="297.1" y="216.2" class="st5" width="84.7" height="2.4"/>
			<rect x="253.3" y="235.7" class="st3" width="105.4" height="2.4"/>
			<rect x="378.8" y="209.7" class="st3" width="55.4" height="2.4"/>
			<rect x="313" y="209.7" class="st0" width="63" height="2.4"/>
			<rect x="405" y="216.2" class="st0" width="21.5" height="2.4"/>
			<rect x="248.5" y="216.2" class="st0" width="6.6" height="2.4"/>
			<rect x="241.8" y="222.7" class="st5" width="6.6" height="2.4"/>
			<rect x="253.3" y="222.7" class="st0" width="39.3" height="2.4"/>
			<rect x="259.8" y="242.2" class="st0" width="39.3" height="2.4"/>
			<rect x="364.2" y="248.7" class="st3" width="50.6" height="2.4"/>
			<rect x="302.3" y="242.2" class="st3" width="70.5" height="2.4"/>
			<rect x="295.3" y="248.7" class="st0" width="65.4" height="2.4"/>
			<rect x="259.8" y="248.7" class="st5" width="11.4" height="2.4"/>
			<rect x="303.8" y="229.2" class="st0" width="73.6" height="2.4"/>
			<rect x="380.2" y="229.2" class="st3" width="47.8" height="2.4"/>
			<rect x="296.6" y="222.7" class="st3" width="73.5" height="2.4"/>
			<rect x="241.8" y="229.2" class="st0" width="6.6" height="2.4"/>
			<rect x="241.8" y="235.7" class="st0" width="6.6" height="2.4"/>
			<rect x="248.5" y="242.2" class="st5" width="6.6" height="2.4"/>
			<rect x="248.5" y="248.7" class="st0" width="6.6" height="2.4"/>
			<rect x="241.8" y="254.2" class="st0" width="6.6" height="2.4"/>
			<rect x="253.3" y="254.2" class="st0" width="78" height="2.4"/>
			<rect x="248.5" y="260.7" class="st0" width="6.6" height="2.4"/>
			<rect x="259.8" y="260.7" class="st5" width="50.1" height="2.4"/>
			<rect x="253.3" y="280.2" class="st5" width="47.8" height="2.4"/>
			<rect x="259.8" y="267.2" class="st3" width="33.5" height="2.4"/>
			<rect x="297.1" y="267.2" class="st5" width="84.7" height="2.4"/>
			<rect x="253.3" y="286.7" class="st3" width="105.4" height="2.4"/>
			<rect x="378.8" y="260.7" class="st3" width="55.4" height="2.4"/>
			<rect x="313" y="260.7" class="st0" width="63" height="2.4"/>
			<rect x="405" y="267.2" class="st0" width="21.5" height="2.4"/>
			<rect x="248.5" y="267.2" class="st0" width="6.6" height="2.4"/>
			<rect x="241.8" y="273.7" class="st5" width="6.6" height="2.4"/>
			<rect x="253.3" y="273.7" class="st0" width="39.3" height="2.4"/>
			<rect x="303.8" y="280.2" class="st0" width="73.6" height="2.4"/>
			<rect x="296.6" y="273.7" class="st3" width="73.5" height="2.4"/>
			<rect x="241.8" y="280.2" class="st0" width="6.6" height="2.4"/>
			<g>
				<path class="st3" d="M245.9,196.8c0.2,0.2,0.2,0.6,0,0.8c-0.1,0.1-0.3,0.2-0.4,0.2c-0.2,0-0.3-0.1-0.4-0.2l-2.6-2.6
					c0,0,0,0,0-0.1c0,0,0,0,0,0c0,0,0,0,0-0.1c0,0,0,0,0,0c0,0,0,0,0-0.1c0,0,0,0,0,0c0,0,0,0,0-0.1c0,0,0,0,0-0.1c0,0,0,0,0,0
					c0,0,0,0,0-0.1c0,0,0,0,0,0c0,0,0,0,0-0.1c0,0,0,0,0,0c0,0,0-0.1,0-0.1c0,0,0,0,0,0c0,0,0,0,0.1-0.1l2.6-2.6
					c0.2-0.2,0.6-0.2,0.8,0c0.2,0.2,0.2,0.6,0,0.8l-2.2,2.2L245.9,196.8z"/>
				<path class="st3" d="M248.3,197.1l2.2-5.3c0.1-0.3,0.4-0.4,0.7-0.3c0.2,0.1,0.4,0.4,0.3,0.6l-2.2,5.3c-0.1,0.2-0.3,0.3-0.5,0.3
					c-0.1,0-0.1,0-0.2,0C248.3,197.7,248.1,197.4,248.3,197.1z"/>
				<path class="st3" d="M255.8,195C255.8,195,255.8,195,255.8,195C255.8,195,255.8,195,255.8,195l-2.6,2.7
					c-0.1,0.1-0.3,0.2-0.4,0.2c-0.2,0-0.3-0.1-0.4-0.2c-0.2-0.2-0.2-0.6,0-0.8l2.2-2.2l-2.2-2.2c-0.2-0.2-0.2-0.6,0-0.8
					c0.2-0.2,0.6-0.2,0.8,0l2.6,2.6c0,0,0,0,0.1,0.1c0,0,0,0,0,0c0,0,0,0.1,0,0.1c0,0,0,0,0,0c0,0,0,0,0,0.1c0,0,0,0,0,0
					c0,0,0,0,0,0.1c0,0,0,0,0,0c0,0,0,0,0,0c0,0,0,0,0,0.1c0,0,0,0,0,0c0,0,0,0.1,0,0.1C255.9,194.9,255.9,194.9,255.8,195
					C255.9,194.9,255.8,194.9,255.8,195z"/>
			</g>
		</g>
	</g>
	<g>
		<rect x="441.6" y="271.6" class="st7" width="70.2" height="26"/>
		<g>
			<path class="st1" d="M451.8,290v-11.5c0-0.6,0.5-1.1,1.1-1.1c0.6,0,1.1,0.5,1.1,1.1v4.7h5.1v-4.7c0-0.6,0.5-1.1,1.1-1.1
				c0.6,0,1.1,0.5,1.1,1.1V290c0,0.6-0.5,1.1-1.1,1.1c-0.6,0-1.1-0.5-1.1-1.1v-4.7H454v4.7c0,0.6-0.5,1.1-1.1,1.1
				C452.3,291,451.8,290.6,451.8,290z"/>
			<path class="st1" d="M474,279.5h-3.1V290c0,0.6-0.5,1.1-1.1,1.1c-0.6,0-1.1-0.5-1.1-1.1v-10.4h-3.1c-0.6,0-1.1-0.5-1.1-1.1
				c0-0.6,0.5-1.1,1.1-1.1h8.3c0.6,0,1.1,0.5,1.1,1.1C475.1,279,474.6,279.5,474,279.5z"/>
			<path class="st1" d="M490.1,278.4V290c0,0.6-0.5,1.1-1.1,1.1c-0.6,0-1.1-0.5-1.1-1.1v-8.2l-2.8,3.9c-0.2,0.3-0.5,0.4-0.9,0.4h0h0
				c-0.4,0-0.7-0.2-0.9-0.4l-2.8-3.9v8.2c0,0.6-0.5,1.1-1.1,1.1c-0.6,0-1.1-0.5-1.1-1.1v-11.5c0-0.6,0.5-1.1,1.1-1.1c0,0,0,0,0.1,0
				c0.3,0,0.7,0.2,0.9,0.4l3.9,5.4l3.9-5.4c0.2-0.3,0.5-0.4,0.9-0.4c0,0,0,0,0,0C489.6,277.4,490.1,277.9,490.1,278.4z"/>
			<path class="st1" d="M494.8,290v-11.5c0-0.6,0.5-1.1,1.1-1.1c0.6,0,1.1,0.5,1.1,1.1v10.4h5.3c0.6,0,1.1,0.5,1.1,1.1
				c0,0.6-0.5,1.1-1.1,1.1h-6.3c0,0,0,0,0,0c0,0,0,0,0,0C495.3,291,494.8,290.6,494.8,290z"/>
		</g>
	</g>
	<g>
		<rect x="137.5" y="280.5" class="st7" width="57.9" height="26"/>
		<g>
			<path class="st1" d="M154.7,294.7h-2.4v4.2c0,0.6-0.5,1.1-1.1,1.1c-0.6,0-1.1-0.5-1.1-1.1v-11.5c0-0.6,0.5-1.1,1.1-1.1h0h3.5
				c2.3,0,4.2,1.9,4.2,4.2C158.9,292.8,157,294.7,154.7,294.7z M152.3,292.5h2.4c1.1,0,2-0.9,2-2c0-1.1-0.9-2-2-2h-2.4V292.5z"/>
			<path class="st1" d="M161.5,298.9v-11.5c0-0.6,0.5-1.1,1.1-1.1c0.6,0,1.1,0.5,1.1,1.1v4.7h5.1v-4.7c0-0.6,0.5-1.1,1.1-1.1
				c0.6,0,1.1,0.5,1.1,1.1v11.5c0,0.6-0.5,1.1-1.1,1.1c-0.6,0-1.1-0.5-1.1-1.1v-4.7h-5.1v4.7c0,0.6-0.5,1.1-1.1,1.1
				C162,300,161.5,299.5,161.5,298.9z"/>
			<path class="st1" d="M180,294.7h-2.4v4.2c0,0.6-0.5,1.1-1.1,1.1c-0.6,0-1.1-0.5-1.1-1.1v-11.5c0-0.6,0.5-1.1,1.1-1.1h0h3.5
				c2.3,0,4.2,1.9,4.2,4.2C184.2,292.8,182.3,294.7,180,294.7z M177.6,292.5h2.4c1.1,0,2-0.9,2-2c0-1.1-0.9-2-2-2h-2.4V292.5z"/>
		</g>
	</g>
	<g>
		<polygon class="st6" points="568,394.4 572.4,405 568,406.8 563.6,396.1 556.3,401.8 556.3,371.9 577.2,393 		"/>
		<g>
			<path class="st6" d="M556.3,368.6c-0.2-0.5-0.3-1-0.3-1.5c0-0.5,0.1-1,0.3-1.5c0.2,0.5,0.3,1,0.3,1.5
				C556.6,367.6,556.5,368.1,556.3,368.6z"/>
			<path class="st6" d="M553.7,369.7c-0.5-0.2-0.9-0.5-1.2-0.9c-0.3-0.4-0.7-0.7-0.9-1.2c0.5,0.2,0.9,0.5,1.2,0.9
				C553.2,368.8,553.5,369.2,553.7,369.7z"/>
			<path class="st6" d="M552.6,372.3c-0.5,0.2-1,0.3-1.5,0.3c-0.5,0-1-0.1-1.5-0.3c0.5-0.2,1-0.3,1.5-0.3
				C551.6,372,552.1,372.1,552.6,372.3z"/>
			<path class="st6" d="M553.7,374.9c-0.2,0.5-0.5,0.9-0.9,1.2c-0.4,0.3-0.7,0.7-1.2,0.9c0.2-0.5,0.5-0.9,0.9-1.2
				C552.8,375.4,553.2,375.1,553.7,374.9z"/>
			<path class="st6" d="M560,372.3c0.5-0.2,1-0.3,1.5-0.3c0.5,0,1,0.1,1.5,0.3c-0.5,0.2-1,0.3-1.5,0.3
				C561,372.5,560.5,372.5,560,372.3z"/>
			<path class="st6" d="M558.9,369.7c0.2-0.5,0.5-0.9,0.9-1.2c0.4-0.3,0.7-0.7,1.2-0.9c-0.2,0.5-0.5,0.9-0.9,1.2
				C559.8,369.2,559.4,369.5,558.9,369.7z"/>
		</g>
	</g>
	<g>
		<g>
			<path class="st6" d="M409.5,330.9c-13.8,11.8-9.9,29-15.7,38.4c-3.5,5.7-15,11.7-17.2,18.3c-3.7,10.8,5.4,14.7,3.4,20.6
				c-2.9,8.3-14,7.7-16.1,21.3c-2,13.6,13,28.1,48.5,32c35.6,3.9,55.1-9.1,56.4-20.6c1.3-11.6-10.6-15.4-11.4-24
				c-0.5-5.5,6.8-9.4,7.2-19.5c0.4-10.1-9.5-13.4-10.9-22.1c-1.4-8.7,3.1-29.6-9.5-40.2C431.4,324.3,416.2,325.1,409.5,330.9z"/>
			<path class="st6" d="M411,331.2c-3.9,2.8-6.9,6.3-9.1,10.5c-2.3,4.4-3.8,9.2-5.1,14c-0.7,2.8-1.4,5.8-2.8,8.4
				c-1.2,2.3-2.9,4.2-4.8,5.9c-3.8,3.5-8.4,6.1-11.9,10c-3.3,3.7-5.8,8.7-4.5,13.7c0.7,2.7,2.5,5,3.6,7.5c1.1,2.4,1.5,5.4-0.6,7.5
				c-1.8,1.7-4.4,2.5-6.4,3.9c-2,1.4-3.8,3.1-5.2,5c-2.9,4-4.2,8.8-3.3,13.7c2.1,11.1,12.5,17.4,22.1,21.3c1.3,0.6,2.7,1.1,4,1.6
				c0.2,0.1,0.4-0.2,0.2-0.3c-9.6-4.3-20.8-9.4-24.5-20.1c-1.7-4.8-1.1-10,1.7-14.3c1.3-2.1,3.1-3.9,5.1-5.3
				c1.9-1.4,4.2-2.3,6.1-3.7c2-1.4,3.1-3.4,3-5.8c-0.1-2.6-1.4-4.9-2.6-7.1c-1.3-2.3-2.5-4.7-2.3-7.4c0.2-2.6,1.4-5,2.8-7.1
				c3-4.2,7.4-7,11.4-10.2c4-3.2,7.2-7,8.7-12c0.7-2.5,1.2-5.1,1.8-7.7c0.6-2.4,1.3-4.7,2.1-7c1.7-4.5,4.1-9,7.5-12.4
				c0.9-0.9,1.9-1.7,2.9-2.4C411.3,331.3,411.2,331.1,411,331.2z"/>
			<path class="st6" d="M470.3,432.3c-0.4-1.9-1.3-3.7-2.5-5.2c-1.2-1.6-2.7-2.9-4.1-4.3c-1.3-1.4-2.5-2.9-2.9-4.8
				c-0.5-2.3,0.5-4.5,1.6-6.4c1.1-2.1,2.4-4,3.2-6.2c0.8-2.1,1.2-4.4,1.4-6.6c0.3-4.7-1.1-9.2-3.6-13.2c-1.2-2-2.6-3.9-3.8-5.8
				c-1.4-2.2-2.4-4.5-3.2-6.9c-1.6-5.4-1.9-11-3.3-16.4c-1.3-5.6-3.3-11-5.8-16.1c-0.1-0.1-0.2,0-0.2,0.1c2.2,4.7,3.9,9.6,5,14.6
				c1.1,4.8,1.6,9.6,2.4,14.4c0.4,2.4,0.9,4.7,1.8,6.9c0.8,2.1,1.9,4,3.1,5.9c2.4,3.9,4.9,7.8,5.5,12.4c0.7,4.6-0.1,9.2-2.3,13.3
				c-1.9,3.5-4.5,7.4-2.9,11.6c1.4,3.5,4.7,5.6,6.9,8.5c2.4,3.2,3.2,7.3,2.4,11.2c-1.9,10-11.9,14.9-21.2,15.4c-0.3,0-0.3,0.5,0,0.5
				c8.1-0.1,17-3.7,20.8-11.3C470.6,440.3,471.2,436.2,470.3,432.3z"/>
		</g>
		<g>
			<g>
				<path class="st8" d="M421.8,420.7c9,35.8,17.9,63.1,28.1,69.8c8.2,5.4,19.8,9.2,31.7,11.9c13.9,3.1,28.4,4.7,38.5,5.5
					c4,0.3,7.3,0.5,9.7,0.7c5.8,0.4,15.4-38.1,11.2-42.8c-1-1.1-4.8-1.9-10.2-2.6c-18.1-2.3-53.8-2.8-56-4.8
					c-2.2-2.1-20.4-27.6-36-47.6C428,396.9,416.8,400.9,421.8,420.7z"/>
				<g>
					<path class="st8" d="M518,504.7c0.7,0.3,11,4.8,17.3,6.4c4.7,1.2,18.4,4.2,20.2-0.8c1.2-3.4-6.6-6.2-12.1-8.2
						c-2.9-1.1-6.5-3.9-5.7-5.8c1.3-3.3,8.8-0.3,13.7,2.3c9.5,5.1,22.3,14.4,27.8,9.4c2.1-1.9-0.5-5-4.3-8.1
						c6.1,3.5,12.5,6.3,14.9,4.3c1.4-1.1,1.4-2.6,0.5-4.3c1.9,0.5,3.5,0.4,4.6-0.9c1.9-2.1,0.8-5-1.4-8c0.7-0.1,1.3-0.5,1.7-1.2
						c3.9-6.4-17.2-23.5-24.4-24.9c-21-4.2-43-1.6-43-1.6C519.9,470.2,518,504.7,518,504.7z"/>
					<g>
						<path class="st6" d="M547.8,484.2c4.9,0.6,9.9,2.2,14.1,4.8c5,3.2,9,7.6,13.6,11.2c0.1,0.1,0,0.3-0.2,0.2
							c-2.2-1.9-4.6-3.5-6.8-5.3c-2.2-1.7-4.4-3.6-6.7-5.1C557.6,487.1,552.9,485.1,547.8,484.2
							C547.8,484.3,547.8,484.2,547.8,484.2z"/>
						<path class="st6" d="M551.4,475.3c5.5,1.3,11.2,2.6,16.3,5c5.7,2.6,10.2,7.1,14.6,11.4c2.7,2.6,5.3,5.2,7.8,7.9
							c0.1,0.1,0,0.3-0.2,0.2c-4.5-4.4-9.1-8.7-13.9-12.9c-4.5-3.9-9.4-6.8-15.1-8.7C557.9,477,554.6,476.2,551.4,475.3
							C551.3,475.3,551.3,475.3,551.4,475.3z"/>
						<path class="st6" d="M556.9,467.3c5.3,0.9,10,1.7,14.8,4.3c6.4,3.5,12.6,9.7,14.8,11.8c2.4,2.4,4.8,4.9,7.1,7.4
							c0.1,0.1-0.1,0.3-0.2,0.2c-5.2-5.5-10.9-10.7-16.8-15.4c-2.8-2.3-5.9-4.2-9.3-5.6C564,468.8,560.4,468.1,556.9,467.3
							C556.9,467.4,556.9,467.3,556.9,467.3z"/>
					</g>
				</g>
			</g>
			<g>
				<g>
					<path class="st3" d="M428.4,456.8l32.1-19c0,0-13.7-22.2-25.4-32.6c-11.7-10.5-16.5-2.3-14.7,12.9
						C422.2,433.3,428.4,456.8,428.4,456.8z"/>
				</g>
				<g>
					<g>
						<g>
							<g>
								<path class="st6" d="M455.4,433c-5.2,2.6-18.9,10.2-27.2,16.3c0,0,0.1,0.3,0.1,0.2c7.7-4,22.3-13.2,27.2-16.2
									C455.7,433.3,455.5,433,455.4,433z"/>
							</g>
						</g>
					</g>
				</g>
				<path class="st6" d="M457.9,439.4l-29.5,17.4c0,0-6.2-23.4-8-38.6c-1.1-9.8,0.4-16.7,4.8-17.6L457.9,439.4z"/>
			</g>
		</g>
		<g>
			<path class="st3" d="M459.4,520.7H353.1c0,0,23.1-89.1,44.4-114.2c0.5-0.6,1-1.1,1.5-1.6c0.1-0.1,0.2-0.2,0.3-0.3
				c1.8-1.9,3.8-3.4,5.7-4.4c0.4-0.2,0.7-0.4,1.1-0.6c8.2-3.8,16.9-0.6,23.2,4.7c2,1.7,24.5,31,26.5,42.2c1.7,9.9-4.9,20.5-4.9,20.5
				L459.4,520.7z"/>
			<g>
				<path class="st6" d="M435,463.1c-4.5,0.5-9,1.2-13.4,2.3c-2.2,0.6-4.3,1.3-6.5,2c-1.1,0.4-2.1,0.7-3.2,1
					c-1.1,0.3-2.3,0.6-3.5,0.7c-0.1,0-0.1,0.2,0,0.2c1.1,0,2.2,0,3.3-0.1c1.1-0.1,2.1-0.4,3.2-0.6c2.2-0.6,4.4-1.2,6.6-1.8
					c4.5-1.2,8.9-2.4,13.5-3.2C435.3,463.4,435.2,463.1,435,463.1z"/>
				<path class="st6" d="M446.2,467c-3.7-0.3-7.5-0.5-11.2-0.4c-1.9,0-3.7,0.2-5.6,0.4c-0.9,0.1-1.8,0.2-2.7,0.3
					c-1,0.1-1.9,0.4-2.9,0.5c-0.1,0-0.1,0.2,0,0.2c0.9-0.1,1.9,0,2.8,0c0.9,0,1.9-0.1,2.8-0.1c1.9-0.1,3.7-0.1,5.6-0.2
					c3.7-0.2,7.5-0.3,11.2-0.3C446.4,467.3,446.4,467,446.2,467z"/>
			</g>
		</g>
		<g>
			<g>
				<path class="st8" d="M391.5,411.6c-20,28.2-46,77-32.6,86c21.9,14.8,82.3,18.7,96.1,19.1c6,0.1,14.1-39.5,9.7-44.1
					c-4.4-4.6-67.6-2.1-68.4-6c-0.5-2.2,7.3-22.1,11.2-46.1C412,393,397.2,403.7,391.5,411.6z"/>
				<g>
					<path class="st8" d="M454.1,470.4c0,0,18-1.9,29.9-2.5c6.6-0.4,18,0,23,2c7.4,2.9,36.7,19.9,32.8,27.1
						c-3.6,6.5-26.9-11.3-26.9-11.3s25.1,15.9,19.3,22.9c-5.8,7-29.4-16.5-29.4-16.5s25.4,16.9,18.3,23.2c-5.4,4.8-28-15.4-28-15.4
						s21.8,14.6,16.5,19.8c-5.9,5.7-27.9-11.6-27.9-11.6c-15.7,10.8-27.6,9.6-35.9,7.7C443.8,515.3,454.1,470.4,454.1,470.4z"/>
					<g>
						<path class="st6" d="M504.5,479.6c3,1.8,6.1,3.5,8.9,5.5c2.9,2,5.6,4.1,8.3,6.4c6.5,5.6,9.7,10.1,9.5,9.8
							c-5.4-6.1-15.5-13.5-18.3-15.5c-2.8-2-5.6-4.2-8.4-6.2C504.4,479.7,504.5,479.6,504.5,479.6z"/>
						<path class="st6" d="M497.1,489.8c3.8,2.4,7.6,4.7,11.2,7.2c3.6,2.6,8.6,6.3,12,9.1c0.3,0.2,0.1,0.7-0.2,0.5
							c-3.6-2.7-8.8-6.3-12.4-8.9C504.2,495.1,500.7,492.4,497.1,489.8C496.9,489.8,497,489.8,497.1,489.8z"/>
						<path class="st6" d="M489.1,497.4c5.9,3.4,11.2,7.9,16.3,12.4c0.3,0.2,0,0.3-0.3,0.1c-5.3-4.2-9.5-7.6-16.1-12.2
							C488.9,497.5,488.9,497.3,489.1,497.4z"/>
						<path class="st6" d="M451.5,470.1c8.2-0.8,32.4-3.2,40.7-3.4c7.3-0.1,13.5,0.9,19.9,4.3c13.9,7.4,23.3,16.8,25.7,19.6
							c1.4,1.7,3.6,4.5,2.1,6.6c-1.8,2.7-9.6,1-18.3-5.5c-0.3-0.2-0.1-0.4,0.2-0.2c12.1,8,16.5,6.6,17.5,4.9c0.7-1.1-0.2-2.8-1-4
							c-1.2-1.8-2.9-3.5-4.5-4.9c-5.5-5-12-9.5-18.4-13.3c-7.4-4.4-15-6.5-23.6-6.4c-8.5,0.1-31.7,2.5-40.2,2.5
							C451.3,470.4,451.4,470.1,451.5,470.1z"/>
						<path class="st6" d="M533.2,504.8c-0.7-2.2-2.5-4.1-3.9-5.8c-1.8-2.1-3.8-4.2-5.9-6c-0.1-0.1-0.2,0-0.1,0.1
							c1.9,1.9,3.7,3.7,5.3,5.8c0.9,1.1,1.7,2.3,2.4,3.5c0.7,1.2,1.5,2.5,1.4,3.9c-0.3,2.7-3.7,3-5.8,2.5c-1.4-0.3-2.7-0.9-3.9-1.5
							c-1.3-0.6-3.8-2.2-4.9-3c-0.1-0.1-0.5,0-0.3,0.1c3.3,2.6,9.5,8,13.9,5.3C533,508.8,533.8,506.8,533.2,504.8z"/>
					</g>
				</g>
			</g>
			<g>
				<g>
					<path class="st3" d="M366.6,440.9l35.1,12.6c0,0,8.3-24.7,8.9-40.4c0.6-15.7-8.8-14.1-19.3-3
						C380.7,421.2,366.6,440.9,366.6,440.9z"/>
				</g>
				<g>
					<g>
						<g>
							<g>
								<path class="st6" d="M402.2,446.6c-5.3-2.3-19.9-8-29.9-10.5c-0.1,0-0.1,0.2-0.1,0.2c8,3.3,24.4,8.8,29.9,10.6
									C402.1,447,402.3,446.7,402.2,446.6z"/>
							</g>
						</g>
					</g>
					<path class="st6" d="M408.9,433.3C409,433.3,408.9,433.2,408.9,433.3c-0.7,1.2-1.3,2.4-1.8,3.7c0.6-2.7,1.2-5.5,1.6-8.3
						c0-0.1-0.1-0.1-0.2,0c-2.4,8.1-4.9,16.1-7.1,24.3c-0.9,0-1.8-0.1-2.7-0.2c-0.2,0-0.2,0.2,0,0.2c1,0.2,1.9,0.5,2.9,0.9
						c0.2,0.1,0.5,0.1,0.6-0.2c1.7-4.6,3.1-9.4,4.3-14.2c0.4-0.7,0.7-1.5,1-2.2C408.1,436,408.6,434.7,408.9,433.3z"/>
				</g>
			</g>
		</g>
		<g>
			<path class="st1" d="M415.3,396.3c-8,1.5-8,10.3-5.8,16.7s7.3,14.1,11.5,14.3c4.2,0.2,6-10.2,6-10.2s5.3,7.1,8.6,5.1
				c3.3-2-1.7-14.5-5.8-18.6C423.9,397.6,419.6,395.5,415.3,396.3z"/>
			<g>
				<g>
					<path class="st8" d="M410.6,400.8c0.2,1.9,7.2,15.1,15.7,15.9c2.8,0.3,4.8-14.7,4.8-14.7l0.4-1.1l5.7-15l-16.5-14.3l-2.4-1.9
						c0,0-1.3,4.2-2.8,9.5c-0.1,0.2-0.1,0.5-0.2,0.7c-0.1,0.3-0.2,0.6-0.3,0.9c-0.2,0.8-0.5,1.6-0.7,2.4c-0.2,0.6-0.3,1.2-0.5,1.8
						c-0.2,0.6-0.3,1.3-0.5,1.9C411.6,393.3,410.5,400,410.6,400.8z"/>
					<path class="st6" d="M415.5,379.1c2.7,13,11.8,19.4,16.1,21.7l5.7-15l-16.5-14.3l-2.4-1.9C418.3,369.7,417,373.9,415.5,379.1z"
						/>
				</g>
				<g>
					<path class="st8" d="M461.8,364.2c-1.4,28.1-18.4,30.4-24.5,30.1c-5.5-0.3-24.2-2-25.6-30.1c-1.5-28.1,12.1-36.3,24.7-36.3
						C449,327.9,463.3,336.1,461.8,364.2z"/>
					<g>
						<path class="st6" d="M458.1,359.1c-0.7-0.1-1.2-0.3-1.9-0.5c-0.7-0.2-1.3-0.3-1.8-0.9c-0.3-0.3-0.2-0.9,0.1-1.2
							c0.7-0.7,1.6-0.6,2.5-0.4c0.9,0.2,1.6,0.7,2.2,1.5C459.8,358.3,459,359.3,458.1,359.1z"/>
						<path class="st6" d="M440.2,357.9c0.7,0,1.3-0.2,1.9-0.3c0.7-0.1,1.3-0.1,1.9-0.6c0.3-0.3,0.3-0.9,0.1-1.2
							c-0.6-0.8-1.5-0.9-2.4-0.8c-1,0.1-1.7,0.4-2.4,1.1C438.6,356.8,439.3,358,440.2,357.9z"/>
						<g>
							<g>
								<path class="st6" d="M443,364.9c0-0.1-0.2,0.1-0.2,0.2c0,1.9-0.4,4.1-2.2,4.7c-0.1,0-0.1,0.1,0,0.1
									C442.8,369.6,443.3,366.7,443,364.9z"/>
								<path class="st6" d="M441.4,362.8c-3.1-0.4-3.6,5.8-0.8,6.1C443.4,369.3,444,363.1,441.4,362.8z"/>
							</g>
							<path class="st6" d="M440.2,363c-0.6,0.3-1.2,0.9-1.8,0.9c-0.8,0-1.3-0.7-1.7-1.4c0-0.1-0.1,0-0.1,0.1
								c-0.1,1.2,0.2,2.4,1.5,2.7c1.1,0.3,2.1-0.7,2.5-1.9C440.6,363.2,440.4,362.9,440.2,363z"/>
						</g>
						<g>
							<g>
								<path class="st6" d="M453.5,365.4c0-0.1,0.1,0.1,0.1,0.2c-0.2,1.9-0.2,4.1,1.5,4.9c0.1,0,0,0.1,0,0.1
									C453,370.1,452.9,367.2,453.5,365.4z"/>
								<path class="st6" d="M455.4,363.6c3.1,0.1,2.7,6.2-0.1,6.2C452.4,369.7,452.8,363.5,455.4,363.6z"/>
							</g>
							<path class="st6" d="M456.6,364.1c0.5,0.4,0.9,1,1.5,1.1c0.7,0.1,1.2-0.6,1.7-1.2c0-0.1,0.1,0,0.1,0.1c0,1.2-0.5,2.4-1.6,2.5
								c-1,0.1-1.7-0.9-2-2.1C456.3,364.2,456.4,363.9,456.6,364.1z"/>
						</g>
						<path class="st6" d="M441.6,379.6c0.4,0.5,0.8,1.2,1.4,1.3c0.7,0.1,1.5,0,2.1-0.2c0.1,0,0.1,0.1,0.1,0.1
							c-0.6,0.7-1.7,1-2.5,0.7c-0.8-0.3-1.2-1.1-1.3-1.9C441.4,379.5,441.5,379.5,441.6,379.6z"/>
						<g>
							<path class="st6" d="M449.7,374.2c0,0,0.2,2.9,0.1,4.2c0,0.1-5,0.8-6.9-2.7c-0.1-0.1,0.1-0.3,0.2-0.2
								c1.7,1.4,3.6,1.9,5.7,2.1c0.1-0.4-0.5-4.9-0.2-4.9c0.7,0,2.2,0.6,3,0.9c-0.2-6-1.3-12-1.4-17.9c0-0.2,0.3-0.3,0.4-0.1
								c1.6,6.1,2,13.1,2.4,19.3C452.9,375.7,450.2,374.5,449.7,374.2z"/>
						</g>
					</g>
					<path class="st6" d="M413.7,365.3c6.9,0.7,11.6-20.1,12.2-22.7c-0.3,1.6-1.6,10.3-1,10.7c0.2,0.1,0.9,0,2.2-0.1l0,0
						c0.1-1,0.4-2,0.7-3.1c0.1-0.5,0,1.1,0.1,3c0.4-0.1,0.8-0.1,1.3-0.2c0.2-1.9,0.6-4.2,1.5-6.5c0.3-0.8,0,2.9,0.4,6.2
						c4.9-0.7,11.9-1.4,18.3-0.8c1.7,0.2,3.2,0.4,4.5,0.6c0.3-2.6,0.4-5.3,0.5-4.7c0.3,1.7,0.4,3.5,0.4,4.9c0.7,0.1,1.3,0.3,1.9,0.4
						c0.7-3.6-0.3-9.6,0.2-8.6c1.8,3.7,2.2,7.4,2.3,9.4c2.4,0.8,3,1.4,3.2,0.7c0.3-1.1,0.2-11.4-6.7-19.9
						c-7.5-9.2-24.3-13.5-35.5-2.3c0,0-8.6,4.1-11,12.3C406.8,352.8,409.7,364.9,413.7,365.3z"/>
					<g>
						<g>
							<path class="st8" d="M416.2,364.5c0,0-4.9-9.5-9.1-7.9c-4.2,1.6-1.4,14.9,3,17.2c4.4,2.4,6.7-1.7,6.7-1.7L416.2,364.5z"/>
							<path class="st6" d="M408,360.3c-0.1,0-0.1,0.1,0,0.1c3.1,1.8,4.4,5,5.1,8.3c-0.8-1.3-2-2.2-3.8-1.3c-0.1,0,0,0.2,0.1,0.2
								c1.4-0.1,2.3,0.3,3,1.5c0.5,0.8,0.8,1.9,1.2,2.8c0.1,0.3,0.7,0.2,0.6-0.1c0,0,0-0.1,0-0.1C414.8,367.6,412.4,361.4,408,360.3
								z"/>
						</g>
					</g>
				</g>
			</g>
		</g>
	</g>
	<g>
		<g>
			<g>
				<g>
					<path class="st9" d="M254,408.9c-7.1,31-21.6,70.3-32.7,78.3c-9,6.4-56.2,17.7-58.8,17.9c-6.5,0.7-19.4-45.3-12.6-47.2
						c8.5-2.4,48.9-3.6,51.2-6c2.4-2.5,17.1-22.4,33.7-45.5C246.3,390.5,258.4,389.6,254,408.9z"/>
					<g>
						<path class="st9" d="M167.7,502.5c-0.8,0.4-11.8,5.9-18.6,7.9c-5.1,1.5-19.8,5.3-22-0.1c-1.5-3.7,6.9-7,12.8-9.4
							c3.1-1.3,6.9-4.5,6-6.5c-1.6-3.5-9.6,0-14.8,3.1c-10.2,5.9-23.7,16.5-29.9,11.4c-2.3-1.9,0.4-5.5,4.4-9
							c-6.5,4.1-13.4,7.4-16,5.3c-1.5-1.2-1.6-2.8-0.8-4.6c-2,0.6-3.8,0.5-5-0.8c-2.1-2.2-1.1-5.4,1.2-8.8c-0.7-0.1-1.4-0.5-1.9-1.3
							c-4.4-6.8,17.8-26.3,25.5-28.1c22.7-5.4,46.8-3.4,46.8-3.4C164.3,465.3,167.8,502.5,167.7,502.5z"/>
						<g>
							<path class="st6" d="M134.4,481.7c-5.3,0.8-10.6,2.8-15.1,5.8c-5.7,3.8-9.6,8.2-14.4,12.7c-0.1,0.1,0.1,0.3,0.2,0.2
								c2.3-2.1,11.8-10.1,14.3-11.9C123.9,485.1,128.9,482.8,134.4,481.7C134.5,481.8,134.5,481.7,134.4,481.7z"/>
							<path class="st6" d="M130.2,472.1c-6,1.6-12.1,3.3-17.6,6.1c-6,3.1-10.8,8.1-15.4,12.9c-2.8,2.9-5.5,5.9-8.2,8.9
								c-0.1,0.1,0.1,0.3,0.2,0.2c4.7-5,9.6-9.9,14.6-14.6c4.7-4.4,10-7.8,16-10.1c3.4-1.3,6.9-2.3,10.4-3.4
								C130.3,472.1,130.3,472,130.2,472.1z"/>
							<path class="st6" d="M123.8,463.7c-5.8,1.2-10.8,2.2-16,5.3c-6.8,4.1-13.3,11-15.6,13.5c-2.5,2.7-5,5.5-7.4,8.3
								c-0.1,0.1,0.1,0.3,0.2,0.2c5.5-6.2,11.4-12.1,17.7-17.5c3-2.6,6.2-4.8,9.9-6.4C116.2,465.5,120,464.6,123.8,463.7
								C123.9,463.7,123.9,463.6,123.8,463.7z"/>
						</g>
					</g>
				</g>
				<g>
					<path class="st5" d="M201.5,447.4l43.5-1.8c0,0,7.9-21.5,10.8-40.7c2.9-19.1-13.4-12.3-29.5,8.3
						C210.1,433.8,201.5,447.4,201.5,447.4z"/>
					<path class="st6" d="M246.4,436.1c-9.4-0.2-18.8,0.2-28.2,0.8c-2.7,0.2-5.3,0.4-8,0.7c-0.1,0-0.1,0.1,0,0.1
						c4.7,0,9.4-0.2,14.1-0.3c4.7-0.1,9.4-0.3,14.1-0.6c2.7-0.2,5.3-0.3,8-0.5C246.5,436.2,246.5,436.1,246.4,436.1z"/>
					<path class="st4" d="M232.7,408c-0.2,0.2-0.4,0.3-0.7,0.3c-0.5,0.1-1-0.1-1.3-0.4c0,0,0,0-0.1-0.1c-0.2,0.2-0.3,0.4-0.5,0.5
						c0,0,0,0,0,0c0.5,0.5,1.3,0.7,2,0.4c0.3-0.1,0.6-0.4,0.8-0.6c0.2-0.2,0.4-0.5,0.5-0.8C233.2,407.7,232.9,407.8,232.7,408z
						 M242.2,441.9c-0.1-0.3-0.1-0.6-0.2-0.9c-0.1,0.3-0.1,0.6-0.2,0.9c0,0.3-0.1,0.5-0.2,0.7c-0.2,0.4-0.7,0.7-1.2,0.7
						c-0.7,0-1.4,0.4-1.7,1.1c-0.1,0.3-0.1,0.7-0.1,1c0,0.1,0,0.2,0.1,0.3l0.2,0c0-0.1,0-0.2,0.1-0.3c0-0.3,0.1-0.5,0.2-0.7
						c0.3-0.4,0.7-0.6,1.2-0.6c0.7,0,1.4-0.5,1.7-1.2C242.3,442.6,242.3,442.2,242.2,441.9z M230.5,424.5c-0.1-0.3-0.1-0.6-0.2-0.9
						c-0.1,0.3-0.1,0.6-0.2,0.9c0,0.3-0.1,0.5-0.2,0.7c-0.3,0.4-0.7,0.7-1.2,0.7c-0.7,0-1.4,0.4-1.7,1.1c-0.1,0.3-0.2,0.7-0.1,1
						c0.1,0.3,0.1,0.6,0.2,0.9c0.1-0.3,0.1-0.6,0.2-0.9c0-0.3,0.1-0.5,0.2-0.7c0.3-0.4,0.7-0.7,1.2-0.6c0.7,0,1.4-0.5,1.6-1.2
						C230.6,425.1,230.6,424.7,230.5,424.5z M222.7,442.1c-0.2,0.2-0.4,0.3-0.7,0.4c-0.5,0.1-1,0-1.3-0.3c-0.5-0.5-1.3-0.7-2-0.4
						c-0.3,0.1-0.6,0.4-0.8,0.6c-0.2,0.3-0.4,0.5-0.5,0.8c0.3-0.2,0.5-0.3,0.7-0.5c0.2-0.2,0.4-0.3,0.7-0.3c0.5-0.1,1,0,1.3,0.4
						c0.5,0.5,1.4,0.7,2,0.3c0.3-0.1,0.6-0.4,0.7-0.6c0.2-0.3,0.4-0.5,0.5-0.8C223.2,441.7,223,441.9,222.7,442.1z M246.2,428.9
						c-0.2,0.2-0.4,0.3-0.7,0.4c-0.5,0.1-1,0-1.3-0.3c-0.5-0.5-1.3-0.7-2-0.4c-0.3,0.1-0.6,0.4-0.8,0.6c-0.2,0.2-0.3,0.5-0.5,0.7
						c0.3-0.1,0.5-0.3,0.8-0.5c0.2-0.2,0.4-0.3,0.7-0.3c0.5-0.1,1,0,1.3,0.4c0.5,0.5,1.4,0.7,2,0.3c0.3-0.1,0.6-0.4,0.7-0.6
						c0.2-0.2,0.4-0.5,0.5-0.8C246.7,428.5,246.4,428.7,246.2,428.9z M248.6,414.7c-0.3,0-0.5-0.1-0.7-0.2c-0.4-0.3-0.7-0.7-0.6-1.2
						c0-0.7-0.5-1.4-1.2-1.7c-0.3-0.1-0.7-0.1-1-0.1c-0.3,0.1-0.6,0.1-0.9,0.2c0.3,0.1,0.6,0.1,0.9,0.2c0.3,0,0.5,0.1,0.7,0.2
						c0.4,0.2,0.7,0.7,0.7,1.2c0,0.7,0.4,1.4,1.1,1.7c0.3,0.1,0.7,0.1,1,0.1c0.3-0.1,0.6-0.1,0.9-0.2
						C249.2,414.8,248.9,414.8,248.6,414.7z M213.5,433.9c-0.3,0-0.5-0.1-0.7-0.2c-0.4-0.3-0.6-0.7-0.6-1.2c0-0.1,0-0.3-0.1-0.4
						c-0.2,0.3-0.4,0.6-0.6,0.9v0c0.1,0.6,0.5,1.1,1.1,1.3c0.3,0.1,0.7,0.2,1,0.1c0.3-0.1,0.6-0.1,0.9-0.2
						C214,434,213.8,434,213.5,433.9z M246.7,394.7c0,0.1,0,0.3,0.1,0.4c0.1,0.3,0.1,0.7-0.1,1c-0.2,0.7-0.9,1.2-1.7,1.2
						c-0.5,0-0.9,0.2-1.2,0.6c-0.1,0.2-0.2,0.4-0.2,0.7c-0.1,0.3-0.1,0.6-0.2,0.9c-0.1-0.3-0.1-0.6-0.2-0.9c-0.1-0.3,0-0.7,0.1-1
						c0.2-0.7,1-1.1,1.7-1.1c0.5,0,0.9-0.3,1.2-0.7c0.1-0.2,0.2-0.4,0.2-0.7c0-0.1,0-0.2,0.1-0.3L246.7,394.7z"/>
				</g>
			</g>
			<g>
				<path class="st5" d="M212.5,520.8h111c1.2-2.2-17-99.4-54.4-126.8c-8.3-6.1-23-2.2-27.1,3.7
					C221.3,427.4,212.5,520.8,212.5,520.8z"/>
				<path class="st4" d="M259.5,438.3c0.3-0.1,0.6-0.1,0.9-0.2c0.3-0.1,0.7-0.1,1,0.1c0.7,0.2,1.2,0.9,1.2,1.7
					c0,0.5,0.2,0.9,0.6,1.2c0.2,0.1,0.4,0.2,0.7,0.2c0.3,0.1,0.6,0.1,0.9,0.2c-0.3,0.1-0.6,0.1-0.9,0.2c-0.3,0.1-0.7,0-1-0.1
					c-0.7-0.3-1.1-1-1.1-1.7c0-0.5-0.3-0.9-0.7-1.2c-0.2-0.1-0.4-0.2-0.7-0.2C260.1,438.4,259.8,438.4,259.5,438.3z M276.7,497
					c0.3,0,0.5,0.1,0.7,0.2c0.4,0.3,0.7,0.7,0.7,1.2c0,0.7,0.4,1.4,1.1,1.7c0.3,0.1,0.7,0.1,1,0.1c0.3-0.1,0.6-0.1,0.9-0.2
					c-0.3-0.1-0.6-0.1-0.9-0.2c-0.3,0-0.5-0.1-0.7-0.2c-0.4-0.3-0.6-0.7-0.6-1.2c0-0.7-0.5-1.4-1.2-1.7c-0.3-0.1-0.7-0.1-1-0.1
					c-0.3,0.1-0.6,0.1-0.9,0.2C276.2,496.9,276.4,496.9,276.7,497z M297.1,441.7c0.3,0,0.5,0.1,0.7,0.2c0.4,0.3,0.7,0.7,0.7,1.2
					c0,0.7,0.4,1.4,1.1,1.7c0.3,0.1,0.7,0.1,1,0.1c0.3-0.1,0.6-0.1,0.9-0.2c-0.3-0.1-0.6-0.1-0.9-0.2c-0.3,0-0.5-0.1-0.7-0.2
					c-0.4-0.3-0.6-0.7-0.6-1.2c0-0.7-0.5-1.4-1.2-1.7c-0.3-0.1-0.7-0.1-1-0.1c-0.3,0.1-0.6,0.1-0.9,0.2
					C296.5,441.6,296.8,441.6,297.1,441.7z M245.1,411.9c0.3,0,0.5,0.1,0.7,0.2c0.4,0.3,0.7,0.7,0.7,1.2c0,0.7,0.4,1.4,1.1,1.7
					c0.3,0.1,0.7,0.1,1,0.1c0.3-0.1,0.6-0.1,0.9-0.2c-0.3-0.1-0.6-0.1-0.9-0.2c-0.3,0-0.5-0.1-0.7-0.2c-0.4-0.3-0.6-0.7-0.6-1.2
					c0-0.7-0.5-1.4-1.2-1.7c-0.3-0.1-0.7-0.1-1-0.1c-0.3,0.1-0.6,0.1-0.9,0.2C244.5,411.8,244.8,411.9,245.1,411.9z M277.1,411.3
					c0.3,0,0.5,0.1,0.7,0.2c0.4,0.3,0.7,0.7,0.7,1.2c0,0.7,0.4,1.4,1.1,1.7c0.3,0.1,0.7,0.1,1,0.1c0.3-0.1,0.6-0.1,0.9-0.2
					c-0.3-0.1-0.6-0.1-0.9-0.2c-0.3,0-0.5-0.1-0.7-0.2c-0.4-0.3-0.6-0.7-0.6-1.2c0-0.7-0.5-1.4-1.2-1.7c-0.3-0.1-0.7-0.1-1-0.1
					c-0.3,0.1-0.6,0.1-0.9,0.2C276.5,411.2,276.8,411.2,277.1,411.3z M237.2,463c0.3,0,0.5,0.1,0.7,0.2c0.4,0.3,0.7,0.7,0.7,1.2
					c0,0.7,0.4,1.4,1.1,1.7c0.3,0.1,0.7,0.1,1,0.1c0.3-0.1,0.6-0.1,0.9-0.2c-0.3-0.1-0.6-0.1-0.9-0.2c-0.3,0-0.5-0.1-0.7-0.2
					c-0.4-0.3-0.6-0.7-0.6-1.2c0-0.7-0.5-1.4-1.2-1.7c-0.3-0.1-0.7-0.1-1-0.1c-0.3,0.1-0.6,0.1-0.9,0.2
					C236.6,462.9,236.9,462.9,237.2,463z M272.1,516.6c0.3,0,0.5,0.1,0.7,0.2c0.4,0.3,0.7,0.7,0.7,1.2c0,0.7,0.4,1.4,1.1,1.7
					c0.3,0.1,0.7,0.1,1,0.1c0.3-0.1,0.6-0.1,0.9-0.2c-0.3-0.1-0.6-0.1-0.9-0.2c-0.3,0-0.5-0.1-0.7-0.2c-0.4-0.3-0.6-0.7-0.6-1.2
					c0-0.7-0.5-1.4-1.2-1.7c-0.3-0.1-0.7-0.1-1-0.1c-0.3,0.1-0.6,0.1-0.9,0.2C271.5,516.5,271.8,516.5,272.1,516.6z M254.9,487.8
					c0.3,0,0.5,0.1,0.7,0.2c0.4,0.3,0.7,0.7,0.7,1.2c0,0.7,0.4,1.4,1.1,1.7c0.3,0.1,0.7,0.1,1,0.1c0.3-0.1,0.6-0.1,0.9-0.2
					c-0.3-0.1-0.6-0.1-0.9-0.2c-0.3,0-0.5-0.1-0.7-0.2c-0.4-0.3-0.6-0.7-0.6-1.2c0-0.7-0.5-1.4-1.2-1.7c-0.3-0.1-0.7-0.1-1-0.1
					c-0.3,0.1-0.6,0.1-0.9,0.2C254.3,487.7,254.6,487.7,254.9,487.8z M215.6,517.3c-0.3,0-0.5-0.1-0.7-0.2c-0.4-0.3-0.6-0.7-0.6-1.2
					c0-0.7-0.4-1.3-1.1-1.6c0,0.2-0.1,0.5-0.1,0.7c0.2,0.2,0.4,0.6,0.4,0.9c0,0.7,0.5,1.4,1.1,1.7c0.3,0.1,0.7,0.2,1,0.1
					c0.3-0.1,0.6-0.1,0.9-0.2C216.1,517.4,215.9,517.3,215.6,517.3z M223.1,493c0.3,0,0.5,0.1,0.7,0.2c0.4,0.3,0.7,0.7,0.7,1.2
					c0,0.7,0.4,1.4,1.1,1.7c0.3,0.1,0.7,0.1,1,0.1c0.3-0.1,0.6-0.1,0.9-0.2c-0.3-0.1-0.6-0.1-0.9-0.2c-0.3,0-0.5-0.1-0.7-0.2
					c-0.4-0.3-0.6-0.7-0.6-1.2c0-0.7-0.5-1.4-1.2-1.7c-0.3-0.1-0.7-0.1-1-0.1c-0.3,0.1-0.6,0.1-0.9,0.2
					C222.5,492.9,222.8,492.9,223.1,493z M269.6,463.7c0.3,0,0.5,0.1,0.7,0.2c0.4,0.3,0.7,0.7,0.7,1.2c0,0.7,0.4,1.4,1.1,1.7
					c0.3,0.1,0.7,0.1,1,0.1c0.3-0.1,0.6-0.1,0.9-0.2c-0.3-0.1-0.6-0.1-0.9-0.2c-0.3,0-0.5-0.1-0.7-0.2c-0.4-0.3-0.6-0.7-0.6-1.2
					c0-0.7-0.5-1.4-1.2-1.7c-0.3-0.1-0.7-0.1-1-0.1c-0.3,0.1-0.6,0.1-0.9,0.2C269,463.6,269.3,463.6,269.6,463.7z M310.3,503.1
					c0.3,0,0.5,0.1,0.7,0.2c0.4,0.3,0.7,0.7,0.7,1.2c0,0.7,0.4,1.4,1.1,1.7c0.3,0.1,0.7,0.1,1,0.1c0.3-0.1,0.6-0.1,0.9-0.2
					c-0.3-0.1-0.6-0.1-0.9-0.2c-0.3,0-0.5-0.1-0.7-0.2c-0.4-0.3-0.6-0.7-0.6-1.2c0-0.7-0.5-1.4-1.2-1.7c-0.3-0.1-0.7-0.1-1-0.1
					c-0.3,0.1-0.6,0.1-0.9,0.2C309.7,503,310,503.1,310.3,503.1z M294.1,479c0.3,0,0.5,0.1,0.7,0.2c0.4,0.3,0.7,0.7,0.7,1.2
					c0,0.7,0.4,1.4,1.1,1.7c0.3,0.1,0.7,0.1,1,0.1c0.3-0.1,0.6-0.1,0.9-0.2c-0.3-0.1-0.6-0.1-0.9-0.2c-0.3,0-0.5-0.1-0.7-0.2
					c-0.4-0.3-0.6-0.7-0.6-1.2c0-0.7-0.5-1.4-1.2-1.7c-0.3-0.1-0.7-0.1-1-0.1c-0.3,0.1-0.6,0.1-0.9,0.2
					C293.5,478.9,293.8,479,294.1,479z M246.2,428.9c-0.2,0.2-0.4,0.3-0.7,0.4c-0.5,0.1-1,0-1.3-0.3c-0.5-0.5-1.3-0.7-2-0.4
					c-0.3,0.1-0.6,0.4-0.8,0.6c-0.2,0.3-0.3,0.5-0.5,0.8c0.3-0.2,0.5-0.3,0.8-0.5c0.2-0.2,0.4-0.3,0.7-0.3c0.5-0.1,1,0,1.3,0.4
					c0.5,0.5,1.4,0.7,2,0.3c0.3-0.1,0.6-0.4,0.7-0.6c0.2-0.3,0.4-0.5,0.5-0.8C246.7,428.5,246.4,428.7,246.2,428.9z M294,463.3
					c-0.2,0.2-0.4,0.3-0.7,0.4c-0.5,0.1-1,0-1.3-0.3c-0.5-0.5-1.3-0.7-2-0.4c-0.3,0.1-0.6,0.4-0.8,0.6c-0.2,0.3-0.3,0.5-0.5,0.8
					c0.3-0.2,0.5-0.3,0.8-0.5c0.2-0.2,0.4-0.3,0.7-0.3c0.5-0.1,1,0,1.3,0.4c0.5,0.5,1.4,0.7,2,0.3c0.3-0.1,0.6-0.4,0.7-0.6
					c0.2-0.3,0.3-0.5,0.5-0.8C294.5,462.9,294.2,463.1,294,463.3z M264.1,399.2c-0.2,0.2-0.4,0.3-0.7,0.4c-0.5,0.1-1,0-1.3-0.3
					c-0.5-0.5-1.3-0.7-2-0.4c-0.3,0.1-0.6,0.4-0.8,0.6c-0.2,0.3-0.3,0.5-0.5,0.8c0.3-0.2,0.5-0.3,0.8-0.5c0.2-0.2,0.4-0.3,0.7-0.3
					c0.5-0.1,1,0,1.3,0.4c0.5,0.5,1.4,0.7,2,0.3c0.3-0.1,0.6-0.4,0.7-0.6c0.2-0.3,0.4-0.5,0.5-0.8
					C264.6,398.9,264.4,399,264.1,399.2z M263.6,418.2c0,0.3-0.1,0.5-0.2,0.7c-0.3,0.4-0.7,0.7-1.2,0.7c-0.7,0-1.4,0.4-1.7,1.1
					c-0.1,0.3-0.1,0.7-0.1,1c0.1,0.3,0.1,0.6,0.2,0.9c0.1-0.3,0.1-0.6,0.2-0.9c0-0.3,0.1-0.5,0.2-0.7c0.3-0.4,0.7-0.6,1.2-0.6
					c0.7,0,1.4-0.5,1.7-1.2c0.1-0.3,0.1-0.7,0.1-1c-0.1-0.3-0.1-0.6-0.2-0.9C263.6,417.6,263.6,417.9,263.6,418.2z M256.5,470.2
					c0,0.3-0.1,0.5-0.2,0.7c-0.3,0.4-0.7,0.7-1.2,0.7c-0.7,0-1.4,0.4-1.7,1.1c-0.1,0.3-0.1,0.7-0.1,1c0.1,0.3,0.1,0.6,0.2,0.9
					c0.1-0.3,0.1-0.6,0.2-0.9c0-0.3,0.1-0.5,0.2-0.7c0.3-0.4,0.7-0.6,1.2-0.6c0.7,0,1.4-0.5,1.7-1.2c0.1-0.3,0.1-0.7,0.1-1
					c-0.1-0.3-0.1-0.6-0.2-0.9C256.6,469.6,256.6,469.9,256.5,470.2z M293.4,424.9c0,0-0.1,0-0.1,0c-0.7,0-1.4,0.4-1.7,1.1
					c-0.1,0.3-0.1,0.7-0.1,1c0.1,0.3,0.1,0.6,0.2,0.9c0.1-0.3,0.1-0.6,0.2-0.9c0-0.3,0.1-0.5,0.2-0.7c0.3-0.4,0.7-0.6,1.2-0.6
					c0.2,0,0.3,0,0.5-0.1C293.6,425.3,293.5,425.1,293.4,424.9z M293.1,508.8c0,0.3-0.1,0.5-0.2,0.7c-0.3,0.4-0.7,0.7-1.2,0.7
					c-0.7,0-1.4,0.4-1.7,1.1c-0.1,0.3-0.1,0.7-0.1,1c0.1,0.3,0.1,0.6,0.2,0.9c0.1-0.3,0.1-0.6,0.2-0.9c0-0.3,0.1-0.5,0.2-0.7
					c0.3-0.4,0.7-0.6,1.2-0.6c0.7,0,1.4-0.5,1.7-1.2c0.1-0.3,0.1-0.7,0.1-1c-0.1-0.3-0.1-0.6-0.2-0.9
					C293.2,508.2,293.2,508.5,293.1,508.8z M309,461.7C309,461.7,309,461.8,309,461.7c-0.3,0.5-0.7,0.8-1.2,0.7
					c-0.7,0-1.4,0.5-1.7,1.1c-0.1,0.3-0.2,0.7-0.1,1c0.1,0.3,0.1,0.6,0.2,0.9c0.1-0.3,0.1-0.6,0.2-0.9c0-0.3,0.1-0.5,0.2-0.7
					c0.3-0.4,0.7-0.6,1.2-0.6c0.6,0,1.1-0.3,1.4-0.7c0,0,0,0,0,0C309.2,462.2,309.1,462,309,461.7z M227.9,472
					c0,0.3-0.1,0.5-0.2,0.7c-0.3,0.4-0.7,0.7-1.2,0.7c-0.7,0-1.4,0.4-1.7,1.1c-0.1,0.3-0.1,0.7-0.1,1c0.1,0.3,0.1,0.6,0.2,0.9
					c0.1-0.3,0.1-0.6,0.2-0.9c0-0.3,0.1-0.5,0.2-0.7c0.3-0.4,0.7-0.6,1.2-0.6c0.7,0,1.4-0.5,1.7-1.2c0.1-0.3,0.1-0.7,0.1-1
					c-0.1-0.3-0.1-0.6-0.2-0.9C228,471.4,227.9,471.7,227.9,472z M229.8,425.4c-0.2,0.5-0.3,1-0.5,1.5c0.2-0.2,0.3-0.4,0.4-0.6
					C229.9,426.1,229.8,425.7,229.8,425.4z M246.5,395.1c0,0.3-0.1,0.5-0.2,0.7c-0.3,0.4-0.7,0.7-1.2,0.7c-0.7,0-1.4,0.4-1.7,1.1
					c-0.1,0.3-0.1,0.7-0.1,1c0.1,0.3,0.1,0.6,0.2,0.9c0.1-0.3,0.1-0.6,0.2-0.9c0-0.3,0.1-0.5,0.2-0.7c0.3-0.4,0.7-0.6,1.2-0.6
					c0.7,0,1.4-0.5,1.7-1.2c0.1-0.3,0.1-0.7,0.1-1c-0.1-0.3-0.1-0.6-0.2-0.9C246.5,394.5,246.5,394.8,246.5,395.1z M241.9,441.9
					c0,0.3-0.1,0.5-0.2,0.7c-0.3,0.4-0.7,0.7-1.2,0.7c-0.7,0-1.4,0.4-1.7,1.1c-0.1,0.3-0.1,0.7-0.1,1c0.1,0.3,0.1,0.6,0.2,0.9
					c0.1-0.3,0.1-0.6,0.2-0.9c0-0.3,0.1-0.5,0.2-0.7c0.3-0.4,0.7-0.6,1.2-0.6c0.7,0,1.4-0.5,1.7-1.2c0.1-0.3,0.1-0.7,0.1-1
					c-0.1-0.3-0.1-0.6-0.2-0.9C242,441.3,241.9,441.6,241.9,441.9z M282.9,448.2c0,0.3-0.1,0.5-0.2,0.7c-0.3,0.4-0.7,0.7-1.2,0.7
					c-0.7,0-1.4,0.4-1.7,1.1c-0.1,0.3-0.1,0.7-0.1,1c0.1,0.3,0.1,0.6,0.2,0.9c0.1-0.3,0.1-0.6,0.2-0.9c0-0.3,0.1-0.5,0.2-0.7
					c0.3-0.4,0.7-0.6,1.2-0.6c0.7,0,1.4-0.5,1.7-1.2c0.1-0.3,0.1-0.7,0.1-1c-0.1-0.3-0.1-0.6-0.2-0.9
					C283,447.6,283,447.9,282.9,448.2z M245,500.9c0,0.3-0.1,0.5-0.2,0.7c-0.3,0.4-0.7,0.7-1.2,0.7c-0.7,0-1.4,0.4-1.7,1.1
					c-0.1,0.3-0.1,0.7-0.1,1c0.1,0.3,0.1,0.6,0.2,0.9c0.1-0.3,0.1-0.6,0.2-0.9c0-0.3,0.1-0.5,0.2-0.7c0.3-0.4,0.7-0.6,1.2-0.6
					c0.7,0,1.4-0.5,1.7-1.2c0.1-0.3,0.1-0.7,0.1-1c-0.1-0.3-0.1-0.6-0.2-0.9C245.1,500.3,245.1,500.6,245,500.9z M276.8,432
					c0.2-0.2,0.4-0.3,0.7-0.4c0.5-0.1,1,0,1.3,0.3c0.5,0.5,1.3,0.7,2,0.4c0.3-0.1,0.6-0.4,0.8-0.6c0.2-0.3,0.3-0.5,0.5-0.8
					c-0.3,0.2-0.5,0.3-0.8,0.5c-0.2,0.2-0.4,0.3-0.7,0.3c-0.5,0.1-1,0-1.3-0.4c-0.5-0.5-1.4-0.7-2-0.3c-0.3,0.1-0.6,0.4-0.7,0.6
					c-0.2,0.3-0.3,0.5-0.5,0.8C276.3,432.3,276.5,432.1,276.8,432z M252.9,453.6c0.2-0.2,0.4-0.3,0.7-0.4c0.5-0.1,1,0,1.3,0.3
					c0.5,0.5,1.3,0.7,2,0.4c0.3-0.1,0.6-0.4,0.8-0.6c0.2-0.3,0.3-0.5,0.5-0.8c-0.3,0.2-0.5,0.3-0.8,0.5c-0.2,0.2-0.4,0.3-0.7,0.3
					c-0.5,0.1-1,0-1.3-0.4c-0.5-0.5-1.4-0.7-2-0.3c-0.3,0.1-0.6,0.4-0.7,0.6c-0.2,0.3-0.3,0.5-0.5,0.8
					C252.4,454,252.6,453.8,252.9,453.6z M236.7,485.6c0.2-0.2,0.4-0.3,0.7-0.4c0.5-0.1,1,0,1.3,0.3c0.5,0.5,1.3,0.7,2,0.4
					c0.3-0.1,0.6-0.4,0.8-0.6c0.2-0.3,0.3-0.5,0.5-0.8c-0.3,0.2-0.5,0.3-0.8,0.5c-0.2,0.2-0.4,0.3-0.7,0.3c-0.5,0.1-1,0-1.3-0.4
					c-0.5-0.5-1.4-0.7-2-0.3c-0.3,0.1-0.6,0.4-0.7,0.6c-0.2,0.3-0.3,0.5-0.5,0.8C236.2,485.9,236.4,485.7,236.7,485.6z M243.7,518.7
					c0.2-0.2,0.4-0.3,0.7-0.4c0.5-0.1,1,0,1.3,0.3c0.5,0.5,1.3,0.7,2,0.4c0.3-0.1,0.6-0.4,0.8-0.6c0.2-0.3,0.3-0.5,0.5-0.8
					c-0.3,0.2-0.5,0.3-0.8,0.5c-0.2,0.2-0.4,0.3-0.7,0.3c-0.5,0.1-1,0-1.3-0.4c-0.5-0.5-1.4-0.7-2-0.3c-0.3,0.1-0.6,0.4-0.7,0.6
					c-0.2,0.3-0.3,0.5-0.5,0.8C243.2,519.1,243.4,518.9,243.7,518.7z M275,482.3c0.2-0.2,0.4-0.3,0.7-0.4c0.5-0.1,1,0,1.3,0.3
					c0.5,0.5,1.3,0.7,2,0.4c0.3-0.1,0.6-0.4,0.8-0.6c0.2-0.3,0.3-0.5,0.5-0.8c-0.3,0.2-0.5,0.3-0.8,0.5c-0.2,0.2-0.4,0.3-0.7,0.3
					c-0.5,0.1-1,0-1.3-0.4c-0.5-0.5-1.4-0.7-2-0.3c-0.3,0.1-0.6,0.4-0.7,0.6c-0.2,0.3-0.4,0.5-0.5,0.8
					C274.5,482.6,274.8,482.4,275,482.3z M296.6,495.5c0.2-0.2,0.4-0.3,0.7-0.4c0.5-0.1,1,0,1.3,0.3c0.5,0.5,1.3,0.7,2,0.4
					c0.3-0.1,0.6-0.4,0.8-0.6c0.2-0.3,0.3-0.5,0.5-0.8c-0.3,0.2-0.5,0.3-0.8,0.5c-0.2,0.2-0.4,0.3-0.7,0.3c-0.5,0.1-1,0-1.3-0.4
					c-0.5-0.5-1.4-0.7-2-0.3c-0.3,0.1-0.6,0.4-0.7,0.6c-0.2,0.3-0.4,0.5-0.5,0.8C296.1,495.8,296.4,495.7,296.6,495.5z M260.3,505.5
					c0.2-0.2,0.4-0.3,0.7-0.4c0.5-0.1,1,0,1.3,0.3c0.5,0.5,1.3,0.7,2,0.4c0.3-0.1,0.6-0.4,0.8-0.6c0.2-0.3,0.3-0.5,0.5-0.8
					c-0.3,0.2-0.5,0.3-0.8,0.5c-0.2,0.2-0.4,0.3-0.7,0.3c-0.5,0.1-1,0-1.3-0.4c-0.5-0.5-1.4-0.7-2-0.3c-0.3,0.1-0.6,0.4-0.7,0.6
					c-0.2,0.3-0.3,0.5-0.5,0.8C259.8,505.9,260.1,505.7,260.3,505.5z M307.1,518.7c0.2-0.2,0.4-0.3,0.7-0.4c0.5-0.1,1,0,1.3,0.3
					c0.5,0.5,1.3,0.7,2,0.4c0.3-0.1,0.6-0.4,0.8-0.6c0.2-0.3,0.3-0.5,0.5-0.8c-0.3,0.2-0.5,0.3-0.8,0.5c-0.2,0.2-0.4,0.3-0.7,0.3
					c-0.5,0.1-1,0-1.3-0.4c-0.5-0.5-1.4-0.7-2-0.3c-0.3,0.1-0.6,0.4-0.7,0.6c-0.2,0.3-0.4,0.5-0.5,0.8
					C306.7,519.1,306.9,518.9,307.1,518.7z M315.5,482.8c-0.2-0.1-0.4-0.2-0.6-0.4c-0.5-0.5-1.4-0.7-2-0.3c-0.3,0.1-0.6,0.4-0.7,0.6
					c-0.2,0.2-0.4,0.5-0.5,0.7c0.3-0.1,0.5-0.3,0.7-0.5c0.2-0.2,0.4-0.3,0.7-0.4c0.5-0.1,1,0,1.3,0.3c0.3,0.3,0.8,0.5,1.3,0.5
					C315.6,483.3,315.6,483.1,315.5,482.8z M226.9,510.1c0.2-0.2,0.4-0.3,0.7-0.4c0.5-0.1,1,0,1.3,0.3c0.5,0.5,1.3,0.7,2,0.4
					c0.3-0.1,0.6-0.4,0.8-0.6c0.2-0.3,0.3-0.5,0.5-0.8c-0.3,0.2-0.5,0.3-0.8,0.5c-0.2,0.2-0.4,0.3-0.7,0.3c-0.5,0.1-1,0-1.3-0.4
					c-0.5-0.5-1.4-0.7-2-0.3c-0.3,0.1-0.6,0.4-0.7,0.6c-0.2,0.3-0.3,0.5-0.5,0.8C226.4,510.4,226.6,510.3,226.9,510.1z M224.2,454.4
					c0.2-0.2,0.4-0.3,0.7-0.4c0.5-0.1,1,0,1.3,0.3c0.5,0.5,1.3,0.7,2,0.4c0.3-0.1,0.6-0.4,0.8-0.6c0.2-0.3,0.3-0.5,0.5-0.8
					c-0.3,0.2-0.5,0.3-0.8,0.5c-0.2,0.2-0.4,0.3-0.7,0.3c-0.5,0.1-1,0-1.3-0.4c-0.5-0.5-1.4-0.7-2-0.3c-0.3,0.1-0.6,0.4-0.7,0.6
					c-0.2,0.3-0.4,0.5-0.5,0.8C223.7,454.7,224,454.6,224.2,454.4z"/>
				<path class="st6" d="M230.1,423.6c-1,3.7-2,7.4-3,11.1c0.1-1.6,0.3-3.2,0.5-4.8c0-0.1-0.1-0.1-0.2,0c-0.4,2-0.6,4-0.7,6.1
					c-1.1,4.5-2.2,8.9-3.2,13.4c-1.9,8.6-3.6,17.3-5,26c-0.8,4.9-1.4,9.9-2.2,14.8c0,0.1,0.1,0.1,0.1,0c0.8-4.4,1.8-8.7,2.7-13
					c0.9-4.3,1.9-8.6,2.7-12.9c1.8-8.7,3.7-17.3,5.5-25.9c1-4.9,1.9-9.8,2.9-14.6C230.5,423.5,230.1,423.4,230.1,423.6z"/>
			</g>
			<g>
				<g>
					<path class="st9" d="M283.2,403.6c17.9,19.2,60.5,91.2,46.7,104.5c-13.9,13.4-90.5-4.6-112-14.9c-6.4-3.1,17.9-43,25.5-43.9
						c6.3-0.8,38.3,13.9,39.2,12c1-2.1-6.2-15.5-13.9-43.3C259.8,385.9,275.3,395.1,283.2,403.6z"/>
					<g>
						<path class="st9" d="M211.5,436.4c-15.6-2.2-19.9-0.3-32.1-9.1c-8-5.8-15.1-3.2-10.5,6c7.5,15,27,22,34.4,22.5L211.5,436.4z"
							/>
						<g>
							<path class="st9" d="M252.9,451.4c0,0-17.5-9.7-33.9-13.7c-11.3-2.7-36.6-5.9-60.8,19c-5.7,5.9-9.7,18.4,3.2,12.2
								c9.2-4.4,13.6-10,19.4-11.6c0,0-3.2,16.5,3,22c2.7,2.5,10.4,9,17.1,13.3c0,0,1.3-1.2,2.8-3c0,0,6.2,4.6,18,3.5L252.9,451.4z"
								/>
						</g>
						<g>
							<path class="st9" d="M207.8,436.8c-5.4,2.8-16.8,9-24.3,17.3c-8.4,9.2-22,29.2-15.2,35.3c5,4.5,10.9-2.7,10.9-2.7
								s-3.9,9.4,1.5,12.5c4.9,2.8,9.2-3,9.2-3s-1.4,6.1,3.9,7.9c6.4,2.1,8.2-11.1,16.5-14.5C212.2,488.8,207.8,436.8,207.8,436.8z"
								/>
							<g>
								<g>
									<path class="st6" d="M194.7,461.3c-4.7,3.5-13.2,14.1-15.6,25.1c-0.1,0.2,0.1,0.4,0.2,0.2
										C184.5,475.1,191.6,465.4,194.7,461.3C194.8,461.4,194.8,461.3,194.7,461.3z"/>
								</g>
								<g>
									<path class="st6" d="M203.7,470.1c-3.7,3.4-12,14.8-14,26c0,0.3,0.1,0.4,0.2,0.2C194.8,484,200.8,474.3,203.7,470.1
										C203.9,470.1,203.8,470,203.7,470.1z"/>
								</g>
							</g>
						</g>
					</g>
					<path class="st6" d="M180.8,457.1c-5.1,1.5-8.4,4-12.7,7c-2.1,1.5-4.3,2.9-6.5,4.1c-2.1,1.1-5.1,2.8-7.3,1.1
						c-1.2-1-1.2-2.7-0.9-4.1c0.3-1.6,0.9-3.1,1.8-4.4c0-0.1-0.1-0.2-0.1-0.1c-0.9,1.2-1.6,2.4-2.1,3.8c-0.5,1.2-0.8,2.7-0.5,4
						c0.7,2.8,4,3.2,6.4,2.4c1.4-0.5,2.7-1.2,4-1.9c1.2-0.7,2.4-1.5,3.6-2.3c2.4-1.6,4.7-3.4,7.1-5.1c2.6-1.8,4.4-2.7,7.3-4.2
						C181,457.2,180.9,457.1,180.8,457.1z"/>
					<path class="st6" d="M170.2,475c1.3-2.9,8.4-14.9,10.7-17.7c0.1-0.1,0-0.2-0.1-0.1c-4,3.7-10.3,13.7-11.8,16.9
						c-1.5,3.2-3.2,7.2-3.2,10.7c0,5.3,3.5,6.3,4.8,6.6c1.6,0.3,3.1,0,4.5-0.7c1.6-0.8,3.1-2.5,4.1-3.8c0.1-0.1,0-0.2-0.1-0.1
						c-1.8,2.1-4.9,4.2-7.8,3.8c-1.3-0.2-2.5-0.7-3.3-1.8c-0.9-1.2-1-2.8-0.8-4.3C167.6,481.1,168.8,478,170.2,475z"/>
					<path class="st6" d="M189.7,496.1c-0.7,0.6-2.3,2.8-4.7,3.3c-1.8,0.3-3.6,0.2-5-1.1c-1.3-1.3-1.8-3-1.9-4.8
						c0-1,0.8-5.4,1.1-6.7c0-0.1-0.1-0.1-0.1-0.1c-0.8,2.3-1.6,4.9-1.6,7.2c0,1.9,0.6,4,2,5.3c1.5,1.4,3.6,1.9,5.5,1.2
						c0.9-0.4,3.9-2.3,4.8-4.2C189.9,496.1,189.7,496.1,189.7,496.1z"/>
					<path class="st6" d="M209.8,488.6c-0.8,0.5-1.6,1.2-2.2,1.9c-0.7,0.7-1.5,1.5-2.2,2.2c-1.4,1.5-2.6,3.3-3.7,5
						c-1.1,1.8-2.1,3.8-3.8,5.1c-1.7,1.2-4.1,1.4-5.8,0.1c-0.9-0.7-1.5-1.6-1.8-2.7c-0.3-1.1-0.5-2.5-0.3-3.6c0-0.1-0.1-0.1-0.1,0
						c-0.1,1.1-0.4,2.2-0.3,3.3c0.1,1,0.4,2,1,2.8c1.2,1.7,3.4,2.4,5.4,2c2.2-0.4,3.8-2.1,5-3.9c1.3-2,2.4-4.1,3.9-6.1
						c0.8-1,1.5-2.1,2.3-3c0.9-1,1.9-1.9,2.7-3C210,488.7,209.9,488.6,209.8,488.6z"/>
					<path class="st6" d="M216,493.2c-1.7-0.1-5.5-0.8-8.5-1.8c-0.1,0-0.2,0.2-0.1,0.3c1.1,0.6,3.5,1.2,4.2,1.4
						c1.4,0.3,3,0.4,4.4,0.3C216.1,493.3,216.1,493.2,216,493.2z"/>
					<path class="st6" d="M311.6,475.3c-4.5-3.1-9.2-5.7-14.1-8.1c-4.8-2.4-9.9-4.2-15-5.8c-2.9-0.9-5.9-1.7-8.8-2.5
						c-0.1,0-0.1,0.1,0,0.1c5.1,1.5,10.2,3.5,15.1,5.7c4.9,2.1,9.8,4.3,14.6,6.6c2.7,1.3,5.4,2.7,8.1,4.1
						C311.6,475.6,311.7,475.4,311.6,475.3z"/>
				</g>
				<g>
					<path class="st5" d="M319.9,448.9l-43.5-1.4c0,0-8.1-21.5-11.2-40.6c-3.1-19.1,12.6-13.3,28.9,7.2
						C310.5,434.5,319.9,448.9,319.9,448.9z"/>
					<path class="st4" d="M281.3,431.5c-0.2,0.2-0.4,0.3-0.7,0.3c-0.5,0.1-1,0-1.3-0.4c-0.5-0.5-1.4-0.7-2-0.3
						c-0.3,0.1-0.6,0.4-0.7,0.6c-0.2,0.2-0.4,0.5-0.5,0.7c0.3-0.1,0.5-0.3,0.8-0.5c0.2-0.2,0.4-0.3,0.7-0.4c0.5-0.1,1,0,1.3,0.3
						c0.5,0.5,1.3,0.7,2,0.4c0.3-0.1,0.6-0.4,0.8-0.6c0.2-0.2,0.4-0.5,0.5-0.7C281.7,431.1,281.5,431.3,281.3,431.5z M295,423.5
						c-0.1-0.3-0.1-0.6-0.2-0.9c-0.1,0.3-0.1,0.6-0.2,0.9c0,0.3-0.1,0.5-0.2,0.7c-0.3,0.4-0.7,0.7-1.2,0.7c-0.7,0-1.4,0.4-1.7,1.1
						c-0.1,0.3-0.1,0.7-0.1,1c0.1,0.3,0.1,0.6,0.2,0.9c0.1-0.3,0.1-0.6,0.2-0.9c0-0.3,0.1-0.5,0.2-0.7c0.3-0.4,0.7-0.6,1.2-0.6
						c0.7,0,1.4-0.5,1.7-1.2C295,424.1,295,423.7,295,423.5z M279.7,399.6c0,0.1,0,0.2,0,0.3c0.1,0.3,0.1,0.6,0.2,0.9
						c0.1-0.3,0.1-0.6,0.2-0.9c0,0,0,0,0,0C280,399.7,279.8,399.7,279.7,399.6z M310.7,435.7c-0.3,0-0.6-0.1-0.9-0.4
						c-0.5-0.5-1.3-0.7-2-0.4c-0.3,0.1-0.6,0.4-0.8,0.6c-0.2,0.3-0.4,0.5-0.5,0.8c0.3-0.1,0.5-0.3,0.8-0.5c0.2-0.2,0.4-0.3,0.7-0.3
						c0.5-0.1,1,0,1.3,0.4c0.5,0.5,1.2,0.6,1.8,0.4C311,436.1,310.9,435.9,310.7,435.7z M280.6,414.1c-0.3,0-0.5-0.1-0.7-0.2
						c-0.4-0.3-0.6-0.7-0.6-1.2c0-0.7-0.5-1.4-1.2-1.7c-0.3-0.1-0.7-0.1-1-0.1c-0.3,0.1-0.6,0.1-0.9,0.2c0.3,0.1,0.6,0.1,0.9,0.2
						c0.3,0,0.5,0.1,0.7,0.2c0.4,0.3,0.7,0.7,0.7,1.2c0,0.7,0.4,1.4,1.1,1.7c0.3,0.1,0.7,0.1,1,0.1c0.3-0.1,0.6-0.1,0.9-0.2
						C281.2,414.2,280.9,414.1,280.6,414.1z M300.6,444.5c-0.3,0-0.5-0.1-0.7-0.2c-0.4-0.3-0.6-0.7-0.6-1.2c0-0.7-0.5-1.4-1.2-1.7
						c-0.3-0.1-0.7-0.1-1-0.1c-0.3,0.1-0.6,0.1-0.9,0.2c0.3,0.1,0.6,0.1,0.9,0.2c0.3,0,0.5,0.1,0.7,0.2c0.4,0.2,0.7,0.7,0.7,1.2
						c0,0.7,0.4,1.4,1.1,1.7c0.3,0.1,0.7,0.2,1,0.1c0.3-0.1,0.6-0.1,0.9-0.2C301.2,444.6,300.9,444.5,300.6,444.5z"/>
					<g>
						<path class="st6" d="M278.2,447.3c-0.2,0-1.8-0.3-1.8-0.3c-0.1-0.6-2.6-9.5-3.2-11.5c-1.3-4-2.9-7.9-4.4-11.8
							c0-0.1-0.2-0.1-0.2,0.1c1,3.4,1.9,6.8,2.9,10.1c-0.3-0.5-0.6-1-0.9-1.4c-0.6-1-1.1-2-1.7-3c0-0.1-0.2,0-0.2,0.1
							c0.4,1.4,1.1,2.8,1.9,4c0.3,0.5,0.7,1,1.1,1.5c0.1,0.3,0.2,0.6,0.3,0.8c0.6,2,3.8,11.7,4,11.7c0,0,1.6,0,2.1,0
							C278.3,447.6,278.3,447.3,278.2,447.3z"/>
						<path class="st6" d="M312.9,440.4c-9.4-0.7-18.8-0.7-28.2-0.6c-2.7,0-5.3,0.1-8,0.3c-0.1,0-0.1,0.1,0,0.1
							c4.7,0.3,9.4,0.3,14.1,0.4c4.7,0.1,9.4,0.1,14.1,0.1c2.7,0,5.3,0,8-0.1C313,440.6,313,440.4,312.9,440.4z"/>
					</g>
				</g>
			</g>
			<path class="st4" d="M242.7,394.8c-2.9,2.4-5.8,11.5-4.2,17.4c1.6,6,4.8,9.8,10.2,9.3c5.4-0.5,15.9-4.6,22.7-16.8
				C278.1,392.6,256.9,382.9,242.7,394.8z"/>
			<g>
				<g>
					<g>
						<path class="st9" d="M246.6,414.9c6.4,1.9,18.1-7.4,23-15.3c0.3-0.5-0.8-22.7-0.5-27.2c0.1-0.9-28.1,5.2-28.1,5.2
							s2.2,9.4,1.8,17.1C242.6,395.5,240.4,413.1,246.6,414.9z"/>
					</g>
					<path class="st6" d="M269.5,394c-14.8,2.2-22.8-2.2-27-6.5c-0.5-5.3-1.6-9.8-1.6-9.8s28.2-6.1,28.1-5.2
						C268.8,375.5,269.3,386.9,269.5,394z"/>
				</g>
				<g>
					<g>
						<path class="st9" d="M234,336.8c-4.1,9.4-2.2,38.3,4.1,45.4c9,10.3,25.5,13.1,34.6,1.8c8.9-10.9,5.7-48.5-1.4-55.1
							C260.8,319.2,240.1,322.9,234,336.8z"/>
					</g>
					<g>
						<g>
							<path class="st6" d="M260.1,357.1c0-0.1-0.1,0.1-0.1,0.2c0.2,1.9,0.1,4.2-1.7,4.9c-0.1,0,0,0.1,0,0.1
								C260.5,361.9,260.6,359,260.1,357.1z"/>
							<path class="st6" d="M258.3,355.2c-3.1,0-3,6.2-0.1,6.3C261,361.5,260.9,355.3,258.3,355.2z"/>
						</g>
						<g>
							<path class="st6" d="M270.9,357.2c0-0.1,0.2,0.1,0.2,0.2c0,1.9,0.3,4.2,2.1,4.8c0.1,0,0.1,0.1,0,0.1
								C270.9,362,270.6,359,270.9,357.2z"/>
							<path class="st6" d="M272.6,355.1c3.1-0.3,3.5,6,0.6,6.3C270.4,361.7,270,355.4,272.6,355.1z"/>
						</g>
						<path class="st6" d="M255.7,352.4c0.9-0.2,1.6-0.6,2.4-0.9c0.9-0.4,1.7-0.6,2.3-1.4c0.3-0.5,0.2-1.3-0.3-1.6
							c-1-0.8-2.2-0.7-3.3-0.3c-1.2,0.4-2.1,1.1-2.7,2.2C253.4,351.4,254.6,352.7,255.7,352.4z"/>
						<path class="st6" d="M275,351.9c-0.9-0.1-1.7-0.4-2.5-0.6c-1-0.2-1.8-0.3-2.4-1.1c-0.4-0.4-0.3-1.2,0-1.6
							c0.8-0.9,2.1-0.9,3.3-0.7c1.3,0.3,2.2,0.8,3,1.8C277.1,350.6,276.1,352.1,275,351.9z"/>
						<path class="st6" d="M258.2,375.3c0.5,0.4,1,1.1,1.7,1.1c0.7,0,1.5-0.3,2.1-0.5c0.1,0,0.1,0,0.1,0.1c-0.5,0.8-1.5,1.3-2.4,1.1
							c-0.9-0.1-1.3-0.9-1.6-1.7C258,375.2,258.2,375.2,258.2,375.3z"/>
						<g>
							<g>
								<path class="st6" d="M260.1,369.4c1.1,1.7,2.8,2.6,4.5,2.9c0.8,0.1,1.6,0.1,2.4,0.1c0.2,0,0.3,0,0.5-0.1
									c0.1,0,0.3,0,0.4-0.1c0.2,0,0.3-0.2,0.4-0.4l0,0c0-0.1,0-0.1,0-0.2c0,0,0,0,0,0l0-0.2c0-1.5-0.2-3.8-0.2-3.8
									c0.6,0.3,3.4,1.5,3.3,0.7c-0.5-6.5-1.1-13.7-3-20c-0.1-0.2-0.4-0.2-0.4,0.1c0.3,6.2,1.6,12.4,2,18.7
									c-0.9-0.3-2.4-0.9-3.2-0.9c-0.2,0.1,0.5,4.4,0.4,5.1c0,0,0,0,0,0.1c-2.5,0.4-4.4-0.3-6.9-2
									C260.2,369.1,260,369.2,260.1,369.4z"/>
							</g>
						</g>
						<g>
							<path class="st6" d="M266.1,371.5c0,0-1.3,1.8-3.1,2.5c-0.7,0.3-1.4,0.4-2.1,0.2c-1.6-0.4-1.6-1.8-1.4-3
								c0.2-1,0.7-1.9,0.7-1.9S262.5,371.4,266.1,371.5z"/>
							<path class="st10" d="M263,374.1c-0.7,0.3-1.4,0.4-2.1,0.2c-1.6-0.4-1.6-1.8-1.4-3C261.2,371.3,262.8,372.4,263,374.1z"/>
						</g>
					</g>
					<g>
						<path class="st6" d="M233.1,359.2c7.4,0.3,9.4-13,9.4-13s12.7-1.5,15-10.9c0,0,11.6,8.2,21.2,5.2c9.6-3,8.1-13.7,7.2-16
							c-0.9-2.3-6.4,1.7-6.4,1.7s-0.3-6.1-1.9-6.7c-1.6-0.7-3.5,2.9-3.5,2.9s-11.9-4.6-23-4.8c-11-0.2-17,10.6-17,10.6s-5.9,1-8,5
							C224,337.2,228.4,359,233.1,359.2z"/>
						<path class="st6" d="M257.4,333.5c-0.1,2-0.6,3.9-1.4,5.6c-0.9,1.7-2.1,3.2-3.7,4.2c-1.6,1-3.4,1.5-5.3,1.9
							c-0.9,0.1-1.9,0.2-2.9,0.3c-1,0-1.9,0-2.9,0c1,0.2,1.9,0.3,2.9,0.5c1,0,2,0,3,0c2-0.2,4-0.7,5.7-1.8c1.7-1.1,3.1-2.8,3.8-4.7
							C257.4,337.5,257.7,335.5,257.4,333.5z"/>
						<path class="st6" d="M234,329.6c0.9-3.1,2.5-5.9,4.7-8.1c2.2-2.2,5.2-3.5,8.2-3.9c0.8-0.1,1.5-0.3,2.3-0.2l2.3,0.1
							c1.6,0.1,3.1,0.5,4.7,0.7c1.5,0.4,3.1,0.8,4.6,1.3c1.5,0.5,3,1.1,4.5,1.7c-1.4-0.7-2.9-1.4-4.3-2.1c-1.5-0.6-3-1.1-4.6-1.6
							c-3.1-0.7-6.4-1.3-9.6-0.8c-3.2,0.5-6.4,2-8.6,4.4C236,323.4,234.5,326.5,234,329.6z"/>
					</g>
					<g>
						<path class="st3" d="M255.8,366.2c-3.7-0.4-6.8-3.2-7.4-7.1c-0.7-4.6,2.5-8.8,7-9.5c4.6-0.7,8.8,2.5,9.5,7l0,0
							c0.7,4.5-2.5,8.8-7,9.5C257.2,366.3,256.5,366.3,255.8,366.2z M257.4,350.8c-0.6-0.1-1.2,0-1.8,0c-3.9,0.6-6.7,4.3-6.1,8.2
							c0.6,3.9,4.3,6.7,8.2,6.1c3.9-0.6,6.7-4.3,6.1-8.2C263.3,353.6,260.6,351.1,257.4,350.8z"/>
						<path class="st3" d="M275,365.9c-3.2-0.3-5.7-3.9-5.8-8.2c0-2.2,0.6-4.3,1.7-5.9c1.2-1.6,2.7-2.5,4.4-2.6
							c1.7,0,3.3,0.8,4.5,2.4c1.2,1.5,1.8,3.6,1.8,5.8c0.1,4.6-2.7,8.4-6.1,8.4C275.3,365.9,275.1,365.9,275,365.9z M275.7,350.4
							c-0.1,0-0.3,0-0.4,0c-1.3,0-2.6,0.8-3.5,2.1c-1,1.4-1.5,3.2-1.5,5.2c0.1,4,2.4,7.2,5.2,7.2c2.8,0,5-3.3,5-7.3
							c0-2-0.6-3.8-1.6-5.2C278,351.2,276.9,350.5,275.7,350.4z"/>
						<path class="st3" d="M264.7,357.7l-0.7-0.8c1.2-1.1,4.2-2.5,6.2-0.4l-0.8,0.8C267.5,355.3,264.8,357.6,264.7,357.7z"/>
						<path class="st3" d="M227.5,360.4l-1-0.5c0.2-0.5,2.3-4.6,4.8-5c2.3-0.4,17.3,0.8,17.9,0.8l-0.1,1.1
							c-4.3-0.3-15.8-1.2-17.6-0.8C229.9,356.3,228.1,359.2,227.5,360.4z"/>
					</g>
					<g>
						<path class="st9" d="M237.4,360.5c0,0-5.5-9.8-9.9-7.9c-4.4,1.9-0.8,15.6,3.9,17.9c4.7,2.3,6.9-2,6.9-2L237.4,360.5z"/>
						<path class="st6" d="M228.6,356.6c-0.1,0-0.1,0.1,0,0.1c3.3,1.7,4.8,5.1,5.7,8.5c-0.9-1.4-2.2-2.2-4-1.1
							c-0.1,0.1,0,0.2,0.1,0.2c1.4-0.2,2.4,0.2,3.3,1.4c0.6,0.9,1,1.9,1.4,2.9c0.1,0.3,0.7,0.2,0.6-0.2c0,0,0-0.1,0-0.1
							C236.1,363.9,233.3,357.5,228.6,356.6z"/>
					</g>
				</g>
			</g>
		</g>
	</g>
	<polygon class="st6" points="20.9,520.8 100.7,520.6 180.5,520.5 340.1,520.3 499.7,520.5 579.5,520.6 659.3,520.8 579.5,521 
		499.7,521.1 340.1,521.3 180.5,521.1 100.7,521 	"/>
	<g>
		<g>
			<rect x="474.5" y="518.3" class="st7" width="111.2" height="5"/>
			<rect x="474.5" y="518.3" class="st6" width="56" height="5"/>
		</g>
		<g>
			<g>
				<polygon class="st2" points="529.2,523.3 637.5,523.3 652.9,449.7 544.5,449.7 				"/>
			</g>
			<path class="st1" d="M582.6,488.1c-0.4,4,2.5,7.2,6.5,7.2s7.6-3.2,8-7.2c0.4-4-2.5-7.2-6.5-7.2S583,484.1,582.6,488.1z"/>
		</g>
	</g>
	<g>
		<g>
			<g>
				<g>
					
						<rect x="188" y="516" transform="matrix(-1 -1.224647e-16 1.224647e-16 -1 382.1657 1035.9565)" class="st7" width="6.1" height="4"/>
				</g>
				<g>
					
						<rect x="180" y="515.7" transform="matrix(-1 -1.224647e-16 1.224647e-16 -1 366.2357 1035.4265)" class="st7" width="6.1" height="4"/>
				</g>
				<g>
					
						<rect x="172.1" y="515.4" transform="matrix(-1 -1.224647e-16 1.224647e-16 -1 350.3058 1034.8965)" class="st7" width="6.1" height="4"/>
				</g>
				<g>
					
						<rect x="164.1" y="515.2" transform="matrix(-1 -1.224647e-16 1.224647e-16 -1 334.3758 1034.3665)" class="st7" width="6.1" height="4"/>
				</g>
				<g>
					
						<rect x="156.2" y="514.9" transform="matrix(-1 -1.224647e-16 1.224647e-16 -1 318.4457 1033.8364)" class="st7" width="6.1" height="4"/>
				</g>
				<g>
					
						<rect x="148.2" y="514.6" transform="matrix(-1 -1.224647e-16 1.224647e-16 -1 302.5158 1033.3065)" class="st7" width="6.1" height="4"/>
				</g>
				<g>
					
						<rect x="140.2" y="514.4" transform="matrix(-1 -1.224647e-16 1.224647e-16 -1 286.5858 1032.7765)" class="st7" width="6.1" height="4"/>
				</g>
				<g>
					
						<rect x="132.3" y="514.1" transform="matrix(-1 -1.224647e-16 1.224647e-16 -1 270.6558 1032.2465)" class="st7" width="6.1" height="4"/>
				</g>
				<g>
					
						<rect x="124.3" y="513.9" transform="matrix(-1 -1.224647e-16 1.224647e-16 -1 254.7259 1031.7166)" class="st7" width="6.1" height="4"/>
				</g>
			</g>
			<polygon class="st2" points="122.8,522.3 195.7,522.3 195.7,517.4 122.8,515.4 			"/>
		</g>
		<g>
			<g>
				<polygon class="st7" points="51.7,503 172,503 152.8,413.5 32.5,413.5 				"/>
				<polygon class="st2" points="47.2,503 167.5,503 148.4,413.5 28.1,413.5 				"/>
				<path class="st6" d="M87.4,453.1c0.7,4.1,4.5,7.4,8.6,7.4c4.1,0,6.9-3.3,6.3-7.4c-0.7-4.1-4.5-7.4-8.6-7.4
					C89.6,445.6,86.8,449,87.4,453.1z"/>
			</g>
			<g>
				<polygon class="st7" points="81.2,526.4 140.4,526.4 140.4,521.8 81.2,519.9 				"/>
				<polygon class="st7" points="65.2,526.4 96.9,526.4 116,476.2 84.3,476.2 				"/>
				<polygon class="st6" points="59.9,526.4 91.7,526.4 110.8,476.2 79.1,476.2 				"/>
			</g>
		</g>
		<g>
			<path class="st2" d="M197.9,527.7c0,0,55.8,0,61,0c5.2,0-2.3-14.8-21.3-20.5C218.6,501.5,191.9,522.1,197.9,527.7z"/>
			<g>
				<path class="st6" d="M221.8,527.7c-0.4-1.6-0.9-3.2-1.5-4.7c-0.6-1.5-1.3-3-2.2-4.4c-0.8-1.4-1.8-2.7-2.9-3.9l-0.9-0.9l-0.9-0.8
					c-0.6-0.6-1.3-1-2-1.5c1.5,0.6,3.1,1.5,4.3,2.6c1.3,1.1,2.4,2.5,3.3,3.9C220.7,520.9,221.8,524.3,221.8,527.7z"/>
				<path class="st6" d="M214.6,513.6c-1.7,0.9-3.3,1.8-4.9,2.8c-1.6,1-3.2,1.9-4.7,3c-1.5,1.1-3,2.2-4.2,3.6
					c-1.2,1.3-2.4,2.8-2.8,4.7c0-1.9,1-3.7,2.3-5.2c1.2-1.5,2.7-2.8,4.3-3.9C207.5,516.4,211,514.7,214.6,513.6z"/>
			</g>
		</g>
	</g>
	<g>
		<polygon class="st3" points="311.1,491 306.8,546.3 276.4,546.3 272,491 		"/>
		<rect x="269.1" y="486.1" class="st7" width="44.7" height="8.1"/>
		<polygon class="st2" points="310.7,486.1 272.2,486.1 274.4,477 308.4,477 		"/>
		<path class="st1" d="M302.1,519.1c0,7.2-4.7,13-10.5,13s-10.5-5.8-10.5-13c0-7.2,4.7-13,10.5-13S302.1,512,302.1,519.1z"/>
	</g>
	<g>
		<g>
			<path class="st1" d="M296.9,351.2c-1.9-2.9-3-6.2-3-9.7c0-12.3,13.5-22.2,30-22.2c16.6,0,30,9.9,30,22.2s-13.4,22.2-30,22.2
				c-8,0-15.3-2.3-20.7-6.1l-10.3,2.6L296.9,351.2z"/>
			<path class="st6" d="M296.9,351.2c-1.8-2.7-3-5.9-3.1-9.1c-0.1-3.3,0.7-6.6,2.4-9.4c1.6-2.9,4-5.3,6.6-7.2
				c2.6-1.9,5.6-3.4,8.7-4.5c3.1-1,6.4-1.7,9.6-1.9c3.3-0.2,6.6,0,9.8,0.5c3.2,0.5,6.4,1.5,9.4,2.9c3,1.4,5.8,3.3,8.1,5.6
				c2.3,2.3,4.2,5.2,5.2,8.4c1,3.2,1.1,6.7,0.1,9.9c-0.9,3.2-2.8,6.1-5.1,8.5c-2.3,2.4-5.1,4.3-8,5.7c-5.9,2.9-12.6,3.9-19.2,3.5
				c-6.5-0.4-13-2.4-18.4-6.2l0.2,0l-10.4,2.5l-0.2,0.1l0.1-0.2L296.9,351.2z M296.9,351.2l-3.9,9.1l-0.1-0.2l10.3-2.7l0.1,0
				l0.1,0.1c5.3,3.7,11.7,5.6,18.2,5.9c3.2,0.2,6.4-0.1,9.6-0.7c3.2-0.6,6.3-1.5,9.1-3c2.9-1.4,5.5-3.3,7.8-5.5c2.2-2.3,4-5,4.8-8.1
				c0.9-3,0.8-6.3-0.1-9.3c-0.9-3-2.7-5.7-5-8c-2.2-2.3-4.9-4.1-7.8-5.4c-2.9-1.4-6-2.4-9.1-2.9c-3.2-0.5-6.4-0.7-9.6-0.5
				c-3.2,0.2-6.4,0.8-9.5,1.8c-3.1,1-6,2.4-8.6,4.3c-2.6,1.9-4.9,4.2-6.6,7c-1.7,2.7-2.5,6-2.5,9.2
				C294.1,345.3,295.2,348.5,296.9,351.2z"/>
		</g>
		<g>
			<path class="st6" d="M334.8,341.6c0,1.7,1.4,3.1,3.1,3.1c1.7,0,3.1-1.4,3.1-3.1c0-1.7-1.4-3.1-3.1-3.1
				C336.2,338.4,334.8,339.8,334.8,341.6z"/>
			<path class="st6" d="M320.9,341.6c0,1.7,1.4,3.1,3.1,3.1c1.7,0,3.1-1.4,3.1-3.1c0-1.7-1.4-3.1-3.1-3.1
				C322.3,338.4,320.9,339.8,320.9,341.6z"/>
			<path class="st6" d="M306.9,341.6c0,1.7,1.4,3.1,3.1,3.1c1.7,0,3.1-1.4,3.1-3.1c0-1.7-1.4-3.1-3.1-3.1
				C308.3,338.4,306.9,339.8,306.9,341.6z"/>
		</g>
	</g>
</g>
</svg>
