<?xml version="1.0" encoding="utf-8"?>
<!-- Generator: Adobe Illustrator 25.2.0, SVG Export Plug-In . SVG Version: 6.00 Build 0)  -->
<svg version="1.1" id="Layer_1" xmlns="http://www.w3.org/2000/svg" xmlns:xlink="http://www.w3.org/1999/xlink" x="0px" y="0px"
	 viewBox="0 0 680 512" style="enable-background:new 0 0 680 512;" xml:space="preserve">
<style type="text/css">
	.st0{fill:#ECECEC;}
	.st1{fill:#FFFFFF;}
	.st2{fill:#2B454E;}
	.st3{fill:#FFC800;}
	.st4{fill:#DCDCDC;}
	.st5{fill:#A8A8A8;}
	.st6{fill:#1A2E35;}
	.st7{fill:#375A64;}
	.st8{fill:#ED776A;}
	.st9{fill:#C36358;}
	.st10{fill:#FF99BC;}
</style>
<g>
	<g>
		<path class="st0" d="M657.5,319.3l-13.1,0.3l-6.7,0.1c-2.2,0-4.5,0-6.7,0.1h-0.4v-0.4l-0.1-11.2v-0.5h0.5l13.2,0.1
			c4.4,0,8.8,0.1,13.2,0.2h0.3v0.3c0,1.9-0.1,3.8-0.1,5.7L657.5,319.3z M657.5,319.3l-0.1-5.7c0-1.9-0.1-3.7-0.1-5.5l0.3,0.3
			c-4.4,0.1-8.8,0.2-13.2,0.2l-13.2,0.1l0.5-0.5l-0.1,11.2l-0.4-0.4c2.2,0,4.4,0,6.5,0.1l6.6,0.1L657.5,319.3z"/>
		<path class="st0" d="M642.7,333.4l-13.1,0.3l-6.7,0.1c-2.2,0-4.5,0-6.7,0.1h-0.4v-0.4l-0.1-11.2v-0.5h0.5l13.2,0.1
			c4.4,0,8.8,0.1,13.2,0.2h0.3v0.3c0,1.9-0.1,3.8-0.1,5.7L642.7,333.4z M642.7,333.4l-0.1-5.7c0-1.9-0.1-3.7-0.1-5.5l0.3,0.3
			c-4.4,0.1-8.8,0.2-13.2,0.2l-13.2,0.1l0.5-0.5l-0.1,11.2l-0.4-0.4c2.2,0,4.4,0,6.5,0.1l6.6,0.1L642.7,333.4z"/>
		<path class="st0" d="M672.3,333.4l-13.1,0.3l-6.7,0.1c-2.2,0-4.5,0-6.7,0.1h-0.4v-0.4l-0.1-11.2v-0.5h0.5l13.2,0.1
			c4.4,0,8.8,0.1,13.2,0.2h0.3v0.3c0,1.9-0.1,3.8-0.1,5.7L672.3,333.4z M672.3,333.4l-0.1-5.7c0-1.9-0.1-3.7-0.1-5.5l0.3,0.3
			c-4.4,0.1-8.8,0.2-13.2,0.2l-13.2,0.1l0.5-0.5l-0.1,11.2l-0.4-0.4c2.2,0,4.4,0,6.5,0.1l6.6,0.1L672.3,333.4z"/>
		<path class="st0" d="M279.9,186.1l-13.1,0.3l-6.7,0.1c-2.2,0-4.5,0-6.7,0.1H253v-0.4l-0.1-11.2v-0.5h0.5l13.2,0.1
			c4.4,0,8.8,0.1,13.2,0.2h0.3v0.3c0,1.9-0.1,3.8-0.1,5.7L279.9,186.1z M279.9,186.1l-0.1-5.7c0-1.9-0.1-3.7-0.1-5.5l0.3,0.3
			c-4.4,0.1-8.8,0.2-13.2,0.2l-13.2,0.1l0.5-0.5l-0.1,11.2l-0.4-0.4c2.2,0,4.4,0,6.5,0.1l6.6,0.1L279.9,186.1z"/>
		<path class="st0" d="M265.1,200.2l-13.1,0.3l-6.7,0.1c-2.2,0-4.5,0-6.7,0.1h-0.4v-0.4l-0.1-11.2v-0.5h0.5l13.2,0.1
			c4.4,0,8.8,0.1,13.2,0.2h0.3v0.3c0,1.9-0.1,3.8-0.1,5.7L265.1,200.2z M265.1,200.2l-0.1-5.7c0-1.9-0.1-3.7-0.1-5.5l0.3,0.3
			c-4.4,0.1-8.8,0.2-13.2,0.2l-13.2,0.1l0.5-0.5l-0.1,11.2l-0.4-0.4c2.2,0,4.4,0,6.5,0.1l6.6,0.1L265.1,200.2z"/>
		<path class="st0" d="M294.7,200.2l-13.1,0.3l-6.7,0.1c-2.2,0-4.5,0-6.7,0.1h-0.4v-0.4l-0.1-11.2v-0.5h0.5l13.2,0.1
			c4.4,0,8.8,0.1,13.2,0.2h0.3v0.3c0,1.9-0.1,3.8-0.1,5.7L294.7,200.2z M294.7,200.2l-0.1-5.7c0-1.9-0.1-3.7-0.1-5.5l0.3,0.3
			c-4.4,0.1-8.8,0.2-13.2,0.2l-13.2,0.1l0.5-0.5l-0.1,11.2l-0.4-0.4c2.2,0,4.4,0,6.5,0.1l6.6,0.1L294.7,200.2z"/>
		<path class="st0" d="M64,260.1l-13.1,0.3l-6.7,0.1c-2.2,0-4.5,0-6.7,0.1h-0.4v-0.4L37,249v-0.5h0.5l13.2,0.1
			c4.4,0,8.8,0.1,13.2,0.2h0.3v0.3c0,1.9-0.1,3.8-0.1,5.7L64,260.1z M64,260.1l-0.1-5.7c0-1.9-0.1-3.7-0.1-5.5l0.3,0.3
			c-4.4,0.1-8.8,0.2-13.2,0.2l-13.2,0.1L38,249v11.1l-0.4-0.4c2.2,0,4.4,0,6.5,0.1l6.6,0.1L64,260.1z"/>
		<path class="st0" d="M503,186.1l-13.1,0.3l-6.7,0.1c-2.2,0-4.5,0-6.7,0.1h-0.4v-0.4L476,175v-0.5h0.5l13.2,0.1
			c4.4,0,8.8,0.1,13.2,0.2h0.3v0.3c0,1.9-0.1,3.8-0.1,5.7L503,186.1z M503,186.1l-0.1-5.7c0-1.9-0.1-3.7-0.1-5.5l0.3,0.3
			c-4.4,0.1-8.8,0.2-13.2,0.2l-13.2,0.1l0.5-0.5l-0.1,11.2l-0.4-0.4c2.2,0,4.4,0,6.5,0.1l6.6,0.1L503,186.1z"/>
		<path class="st0" d="M656,77.4l-13.1,0.3l-6.7,0.1c-2.2,0-4.5,0-6.7,0.1h-0.4v-0.4L629,66.3v-0.5h0.5l13.2,0.1
			c4.4,0,8.8,0.1,13.2,0.2h0.3v0.3c0,1.9-0.1,3.8-0.1,5.7L656,77.4z M656,77.4l-0.1-5.7c0-1.9-0.1-3.7-0.1-5.5l0.3,0.3
			c-4.4,0.1-8.8,0.2-13.2,0.2l-13.2,0.1l0.5-0.5l-0.1,11.2l-0.4-0.4c2.2,0,4.4,0,6.5,0.1l6.6,0.1L656,77.4z"/>
		<path class="st0" d="M670.7,91.5l-13.1,0.3l-6.7,0.1c-2.2,0-4.5,0-6.7,0.1h-0.4v-0.4l-0.1-11.2v-0.5h0.5l13.2,0.1
			c4.4,0,8.8,0.1,13.2,0.2h0.3v0.3c0,1.9-0.1,3.8-0.1,5.7L670.7,91.5z M670.7,91.5l-0.1-5.7c0-1.9-0.1-3.7-0.1-5.5l0.3,0.3
			c-4.4,0.1-8.8,0.2-13.2,0.2l-13.2,0.1l0.5-0.5l-0.1,11.2l-0.4-0.4c2.2,0,4.4,0,6.5,0.1l6.6,0.1L670.7,91.5z"/>
		<path class="st0" d="M34.5,77.4l-13.1,0.3l-6.7,0.1c-2.2,0-4.5,0-6.7,0.1H7.6v-0.4L7.5,66.3v-0.5H8l13.2,0.1
			c4.4,0,8.8,0.1,13.2,0.2h0.3v0.3c0,1.9-0.1,3.8-0.1,5.7L34.5,77.4z M34.5,77.4l-0.1-5.7c0-1.9-0.1-3.7-0.1-5.5l0.3,0.3
			c-4.4,0.1-8.8,0.2-13.2,0.2H8l0.5-0.5L8.4,77.4L8,77c2.2,0,4.4,0,6.5,0.1l6.6,0.1L34.5,77.4z"/>
	</g>
	<g>
		<g>
			<g>
				<rect x="143.6" y="68.3" class="st1" width="118.5" height="79.9"/>
				<path class="st0" d="M262.6,148.6H143.1V67.7h119.5V148.6z M144.1,147.6h117.5V68.7H144.1V147.6z"/>
			</g>
		</g>
		<g>
			<path class="st2" d="M155,74.3c0,1.5-1.2,2.7-2.7,2.7s-2.7-1.2-2.7-2.7s1.2-2.7,2.7-2.7S155,72.8,155,74.3z"/>
			<path class="st0" d="M166.2,74.3c0,1.5-1.2,2.7-2.7,2.7s-2.7-1.2-2.7-2.7s1.2-2.7,2.7-2.7C164.9,71.6,166.2,72.8,166.2,74.3z"/>
			<path class="st3" d="M177.3,74.3c0,1.5-1.2,2.7-2.7,2.7s-2.7-1.2-2.7-2.7s1.2-2.7,2.7-2.7S177.3,72.8,177.3,74.3z"/>
		</g>
		<rect x="143.6" y="79.8" class="st0" width="118.5" height="1"/>
	</g>
	<g>
		<path class="st0" d="M165.1,173.6c0-1.2,0.2-4.6,0.2-6c0-6.1-2.2-8.8-7.8-9c-2.7-0.2-4.2-1.7-4.2-4c0-2.2,1.6-3.8,4.2-4
			c5.7-0.2,7.8-2.9,7.8-9.1c0-1.4-0.2-4.7-0.2-6c0-8.1,3.4-13.2,16.3-16.1c2.6-0.6,4.6,1,4.6,3.4c0,2-1.3,3.1-2.3,3.4
			c-8.1,2.5-9.2,5.1-9.2,10.7c0,1.7,0.2,4.4,0.2,6.2c0,6.5-3.2,9.7-8.7,11.4c5.6,1.8,8.7,4.9,8.7,11.4c0,1.7-0.2,4.5-0.2,6.2
			c0,5.7,1.2,8.2,9.2,10.7c1,0.3,2.3,1.4,2.3,3.4c0,2.4-2,4-4.6,3.4C168.5,186.9,165.1,181.8,165.1,173.6z"/>
		<path class="st0" d="M213.9,135.6c0,1.2-0.2,4.6-0.2,6c0,6.2,2.2,8.8,7.9,9.1c2.6,0.2,4.2,1.7,4.2,4c0,2.2-1.6,3.8-4.2,4
			c-5.7,0.2-7.9,2.9-7.9,9c0,1.4,0.2,4.7,0.2,6c0,8.2-3.4,13.3-16.3,16.2c-2.6,0.6-4.6-1-4.6-3.4c0-2,1.3-3.1,2.4-3.4
			c8-2.5,9.2-5.1,9.2-10.7c0-1.7-0.2-4.4-0.2-6.2c0-6.5,3.2-9.7,8.7-11.4c-5.6-1.8-8.7-4.9-8.7-11.4c0-1.7,0.2-4.5,0.2-6.2
			c0-5.7-1.2-8.2-9.2-10.7c-1.1-0.3-2.4-1.4-2.4-3.4c0-2.4,2-4,4.6-3.4C210.5,122.3,213.9,127.5,213.9,135.6z"/>
	</g>
	<g>
		<path class="st0" d="M579.7,225.8c1.3,1.4,1.3,3.5,0,4.8c-0.7,0.6-1.5,1-2.4,1s-1.8-0.3-2.5-1l-15.1-15.3
			c-0.2-0.1-0.2-0.2-0.3-0.3c-0.1-0.1-0.2-0.1-0.2-0.1c-0.1-0.2-0.1-0.3-0.2-0.4c-0.1-0.1-0.2-0.2-0.2-0.2c-0.1-0.1-0.1-0.3-0.1-0.3
			c0-0.2-0.1-0.2-0.1-0.3c0-0.2,0-0.3,0-0.4s-0.1-0.2-0.1-0.3c0-0.1,0.1-0.2,0.1-0.3c0-0.1,0-0.3,0-0.4s0.1-0.2,0.1-0.2
			c0.1-0.2,0.1-0.3,0.1-0.4s0.1-0.1,0.1-0.1c0.1-0.2,0.2-0.4,0.3-0.5c0,0,0-0.1,0.1-0.1c0.1-0.1,0.2-0.3,0.3-0.4l15.1-15.3
			c1.3-1.3,3.6-1.3,4.8,0c1.3,1.3,1.3,3.5,0,4.8L566.9,213L579.7,225.8z"/>
		<path class="st0" d="M593.4,227.6l13.2-31.4c0.6-1.5,2.4-2.2,3.9-1.6s2.2,2.4,1.5,3.8l-13.2,31.4c-0.5,1.1-1.6,1.8-2.7,1.8
			c-0.3,0-0.8-0.1-1.1-0.2C593.5,230.8,592.8,229.1,593.4,227.6z"/>
		<path class="st0" d="M638.1,214.9C638.1,214.9,638.1,215,638.1,214.9c-0.2,0.2-0.3,0.3-0.4,0.4l-15.1,15.3c-0.6,0.6-1.6,1-2.4,1
			c-0.9,0-1.7-0.3-2.4-1c-1.3-1.3-1.3-3.4,0-4.8l12.8-12.9L617.8,200c-1.3-1.3-1.3-3.5,0-4.8s3.5-1.3,4.8,0l15.1,15.3
			c0.2,0.1,0.3,0.3,0.4,0.4c0.1,0,0.1,0.1,0.1,0.1c0.1,0.2,0.2,0.3,0.3,0.5c0,0.1,0.1,0.1,0.1,0.1c0.1,0.2,0.1,0.3,0.2,0.5
			c0,0.1,0.1,0.1,0.1,0.2s0,0.3,0,0.4s0.1,0.2,0.1,0.3c0,0.1-0.1,0.2-0.1,0.3c0,0.2,0,0.3,0,0.4s-0.1,0.1-0.1,0.1
			c-0.1,0.2-0.1,0.4-0.2,0.5c0,0.1-0.1,0.1-0.1,0.2C638.3,214.5,638.2,214.7,638.1,214.9z"/>
	</g>
	<path class="st0" d="M551.6,148.4c0,6.8-5.3,12.4-11.9,12.9l0,0h-73.1c-8.4,0-15.2-6.8-15.2-15.2c0-7.9,6-14.4,13.8-15.1
		c0.4-13.7,11.7-24.7,25.5-24.7c11,0,20.4,7,24,16.7c2-1,4.3-1.6,6.8-1.6c8.1,0,14.7,6.3,15.1,14.2c0.7-0.1,1.4-0.2,2.1-0.2
		C545.8,135.5,551.6,141.2,551.6,148.4z"/>
	<g>
		<path class="st0" d="M623,324.1l8.3-13.4l-4.1-2.6c-1.2-0.7-1.8-2.1-1.7-3.5c0.1-0.8,0.1-1.5,0.1-2.3c0-1.4,0.7-2.8,2-3.4l4.2-2.3
			l-7.4-13.9l-4.2,2.3c-1.2,0.7-2.7,0.6-3.8-0.2c-0.7-0.5-1.4-0.9-2.1-1.3c-1.2-0.7-1.9-2-1.9-3.4l0.2-4.8l-15.7-0.5l-0.1,4.8
			c0,1.4-0.9,2.6-2.1,3.2c-0.4,0.2-0.7,0.4-1.1,0.5c-0.4,0.2-0.7,0.4-1.1,0.6c-1.2,0.7-2.7,0.7-3.9,0l-4.1-2.6l-8.3,13.4l4.1,2.6
			c1.2,0.7,1.8,2.1,1.7,3.5c-0.1,0.8-0.1,1.5-0.1,2.3c0,1.4-0.7,2.8-2,3.4l-4.2,2.3l7.4,13.9l4.2-2.3c1.3-0.7,2.8-0.5,3.9,0.3
			c0.6,0.4,1.3,0.8,1.9,1.2c1.2,0.7,2,2,2,3.4l-0.1,4.9l15.7,0.5l0.1-4.8c0-1.4,0.9-2.6,2.2-3.2c0.4-0.2,0.7-0.3,1-0.5
			s0.7-0.4,1-0.6c1.2-0.7,2.7-0.8,3.9,0L623,324.1z M611.1,313.3c-6.9,4.9-16.5,2-19.6-5.9c-2.1-5.4-0.2-11.7,4.5-15
			c6.9-4.9,16.5-2,19.6,5.9C617.7,303.7,615.8,309.9,611.1,313.3z"/>
		<path class="st0" d="M536.2,355.9l9.5-5.5l-1.7-2.9c-0.5-0.9-0.4-1.9,0.1-2.7c0.3-0.5,0.6-0.9,0.8-1.4c0.4-0.9,1.3-1.4,2.3-1.4
			h3.4v-11h-3.4c-1,0-1.9-0.6-2.3-1.4c-0.2-0.5-0.5-1-0.8-1.4c-0.5-0.8-0.6-1.9-0.1-2.7l1.7-2.9l-9.5-5.5l-1.7,2.9
			c-0.5,0.9-1.4,1.3-2.4,1.3c-0.3,0-0.5,0-0.8,0s-0.5,0-0.8,0c-1,0.1-1.9-0.4-2.4-1.3l-1.7-2.9l-9.5,5.5l1.7,2.9
			c0.5,0.9,0.4,1.9-0.1,2.7c-0.3,0.5-0.6,0.9-0.8,1.4c-0.4,0.9-1.3,1.4-2.3,1.4H512v11h3.4c1,0,1.9,0.6,2.3,1.4
			c0.2,0.5,0.5,1,0.8,1.4c0.5,0.8,0.6,1.9,0.1,2.7l-1.7,2.9l9.5,5.5l1.7-2.9c0.5-0.9,1.4-1.3,2.4-1.3c0.3,0,0.5,0,0.8,0s0.5,0,0.8,0
			c1-0.1,1.9,0.4,2.4,1.3L536.2,355.9z M531.2,345.3c-5,0-9-4-9-9s4-9,9-9s9,4,9,9C540.3,341.3,536.2,345.3,531.2,345.3z"/>
		<path class="st0" d="M51.4,117.9c0.9,0.5,1.3,1.4,1.3,2.4c0,0.3,0,0.5,0,0.8s0,0.5,0,0.8c0.1,1-0.4,1.9-1.3,2.4l-2.9,1.7l5.5,9.5
			l2.9-1.7c0.9-0.5,1.9-0.4,2.7,0.1c0.5,0.3,0.9,0.6,1.4,0.8c0.9,0.4,1.4,1.3,1.4,2.3v3.4h11V137c0-1,0.6-1.9,1.4-2.3
			c0.5-0.2,1-0.5,1.4-0.8c0.8-0.5,1.9-0.6,2.7-0.1l2.9,1.7l5.5-9.5l-2.9-1.7c-0.9-0.5-1.3-1.4-1.3-2.4c0-0.3,0-0.5,0-0.8
			s0-0.5,0-0.8c-0.1-1,0.4-1.9,1.3-2.4l2.9-1.7l-5.5-9.5l-2.9,1.7c-0.9,0.5-1.9,0.4-2.7-0.1c-0.5-0.3-0.9-0.6-1.4-0.8
			c-0.9-0.4-1.4-1.3-1.4-2.3v-3.4h-11v3.4c0,1-0.6,1.9-1.4,2.3c-0.5,0.2-1,0.5-1.4,0.8c-0.8,0.5-1.9,0.6-2.7,0.1l-2.9-1.7l-5.5,9.5
			L51.4,117.9z M68.1,112.1c5,0,9,4,9,9s-4,9-9,9s-9-4-9-9C59,116.1,63.1,112.1,68.1,112.1z"/>
	</g>
	<g>
		<polygon class="st4" points="347.4,433.8 459.3,433.8 437,303.9 353.3,303.9 		"/>
		<polygon class="st5" points="347.4,433.8 357.2,433.8 362.7,303.9 353.3,303.9 		"/>
	</g>
	<g>
		<polygon class="st4" points="335,433.8 223.1,433.8 245.4,303.9 329.1,303.9 		"/>
		<polygon class="st5" points="335,433.8 325.2,433.8 319.7,303.9 329.1,303.9 		"/>
	</g>
	<g>
		<g>
			<g>
				<rect x="496.2" y="230.5" class="st1" width="103.1" height="65.8"/>
				<path class="st0" d="M600,296.9H495.6v-67.1H600V296.9z M496.9,295.6h101.8v-64.5H496.9V295.6z"/>
			</g>
			<g>
				<rect x="496.2" y="230.5" class="st3" width="103.1" height="12.4"/>
				<path class="st0" d="M600,243.6H495.6v-13.7H600V243.6z M496.9,242.3h101.8v-11.1H496.9V242.3z"/>
			</g>
		</g>
		<g>
			<path class="st5" d="M507.9,236.8c0,1.7-1.4,3.1-3.1,3.1s-3.1-1.4-3.1-3.1s1.4-3.1,3.1-3.1C506.5,233.7,507.9,235.1,507.9,236.8z
				"/>
			<path class="st0" d="M520.7,236.8c0,1.7-1.4,3.1-3.1,3.1c-1.7,0-3.1-1.4-3.1-3.1s1.4-3.1,3.1-3.1
				C519.3,233.7,520.7,235.1,520.7,236.8z"/>
			<path class="st1" d="M533.5,236.8c0,1.7-1.4,3.1-3.1,3.1c-1.7,0-3.1-1.4-3.1-3.1s1.4-3.1,3.1-3.1
				C532.1,233.7,533.5,235.1,533.5,236.8z"/>
		</g>
		<g>
			<path class="st0" d="M514,267.5c0-6.9,5.8-12.4,12.7-12.5c3,0,5.8,1,8,2.7c0.8,0.7,1,1.9,0.3,2.8s-2,1-2.8,0.4
				c-1.5-1.2-3.4-1.9-5.6-1.9c-2.4,0-4.6,1-6.2,2.5c-1.6,1.6-2.5,3.7-2.5,6c0,2.4,1,4.5,2.5,6c1.6,1.5,3.8,2.5,6.2,2.5
				c2.1,0,4-0.7,5.6-1.9c0.8-0.6,2.1-0.5,2.8,0.4c0.6,0.9,0.5,2.1-0.3,2.8c-2.2,1.7-5,2.7-8,2.7C519.8,280,514.1,274.4,514,267.5z"
				/>
			<path class="st0" d="M541.1,273.9c0.6-0.8,1.8-0.9,2.5-0.2c1.5,1.2,4.2,2.7,6.6,2.7c1.7,0,3.3-0.5,4.3-1.3s1.5-1.6,1.5-2.5
				c0-0.5-0.1-0.8-0.3-1.1c-0.2-0.3-0.5-0.7-1-1c-1-0.7-2.7-1.2-4.7-1.6h-0.1c-1.6-0.3-3.2-0.7-4.5-1.4c-1.3-0.6-2.5-1.5-3.2-2.7
				c-0.5-0.8-0.8-1.8-0.8-2.8c0-2.1,1.2-3.9,2.8-5.1s3.7-1.8,6-1.8c3.3,0,5.8,1.6,7.6,2.8c0.8,0.6,1,1.7,0.5,2.5s-1.6,1.1-2.5,0.5
				c-1.8-1.2-3.5-2.2-5.6-2.2c-1.6,0-2.9,0.5-3.9,1.2c-0.9,0.7-1.3,1.5-1.3,2.2c0,0.4,0.1,0.7,0.2,1c0.2,0.3,0.5,0.6,0.9,0.9
				c0.9,0.6,2.5,1.2,4.3,1.5h0.1c1.8,0.3,3.4,0.8,4.8,1.5c1.4,0.7,2.7,1.6,3.5,2.9c0.5,0.8,0.8,1.9,0.8,2.9c0,2.2-1.2,4.1-3,5.4
				c-1.7,1.2-3.9,2-6.4,2c-3.7,0-6.9-1.9-8.9-3.5C540.6,275.8,540.5,274.7,541.1,273.9z"/>
			<path class="st0" d="M563.8,273.9c0.6-0.8,1.8-0.9,2.5-0.2c1.5,1.2,4.2,2.7,6.6,2.7c1.7,0,3.3-0.5,4.3-1.3s1.5-1.6,1.5-2.5
				c0-0.5-0.1-0.8-0.3-1.1c-0.2-0.3-0.5-0.7-1-1c-1-0.7-2.7-1.2-4.7-1.6h-0.1c-1.6-0.3-3.2-0.7-4.5-1.4c-1.3-0.6-2.5-1.5-3.2-2.7
				c-0.5-0.8-0.8-1.8-0.8-2.8c0-2.1,1.2-3.9,2.8-5.1s3.7-1.8,6-1.8c3.3,0,5.8,1.6,7.6,2.8c0.8,0.6,1,1.7,0.5,2.5s-1.6,1.1-2.5,0.5
				c-1.8-1.2-3.5-2.2-5.6-2.2c-1.6,0-2.9,0.5-3.9,1.2c-0.9,0.7-1.3,1.5-1.3,2.2c0,0.4,0.1,0.7,0.2,1c0.2,0.3,0.5,0.6,0.9,0.9
				c0.9,0.6,2.5,1.2,4.3,1.5h0.1c1.8,0.3,3.4,0.8,4.8,1.5c1.4,0.7,2.7,1.6,3.5,2.9c0.5,0.8,0.8,1.9,0.8,2.9c0,2.2-1.2,4.1-3,5.4
				c-1.7,1.2-3.9,2-6.4,2c-3.7,0-6.9-1.9-8.9-3.5C563.3,275.8,563.2,274.7,563.8,273.9z"/>
		</g>
	</g>
	<g>
		<g>
			<g>
				<rect x="62" y="237.1" class="st1" width="103.1" height="65.8"/>
				<path class="st0" d="M165.7,303.5H61.3v-67.1h104.4V303.5z M62.6,302.2h101.8v-64.5H62.6V302.2z"/>
			</g>
			<g>
				<rect x="62" y="237.1" class="st3" width="103.1" height="12.4"/>
				<path class="st0" d="M165.7,250.2H61.3v-13.7h104.4V250.2z M62.6,248.9h101.8v-11.1H62.6V248.9z"/>
			</g>
		</g>
		<g>
			<path class="st5" d="M73.6,243.4c0,1.7-1.4,3.1-3.1,3.1s-3.1-1.4-3.1-3.1s1.4-3.1,3.1-3.1S73.6,241.7,73.6,243.4z"/>
			<path class="st0" d="M86.4,243.4c0,1.7-1.4,3.1-3.1,3.1s-3.1-1.4-3.1-3.1s1.4-3.1,3.1-3.1S86.4,241.7,86.4,243.4z"/>
			<path class="st1" d="M99.2,243.4c0,1.7-1.4,3.1-3.1,3.1s-3.1-1.4-3.1-3.1s1.4-3.1,3.1-3.1C97.8,240.3,99.2,241.7,99.2,243.4z"/>
		</g>
		<g>
			<path class="st0" d="M81.2,274.1c0-6.9,5.8-12.4,12.7-12.5c3,0,5.8,1,8,2.7c0.8,0.7,1,1.9,0.3,2.8s-2,1-2.8,0.4
				c-1.5-1.2-3.4-1.9-5.6-1.9c-2.4,0-4.6,1-6.2,2.5c-1.6,1.6-2.5,3.7-2.5,6c0,2.4,1,4.5,2.5,6c1.6,1.5,3.8,2.5,6.2,2.5
				c2.1,0,4-0.7,5.6-1.9c0.8-0.6,2.1-0.5,2.8,0.4c0.6,0.9,0.5,2.1-0.3,2.8c-2.2,1.7-5,2.7-8,2.7C87,286.6,81.2,281,81.2,274.1z"/>
			<path class="st0" d="M114.4,276.3h-4.9c-1,0-1.9-0.8-1.9-1.9c0-1,0.9-1.9,1.9-1.9h4.9v-4.8c0-1.1,0.9-2,2-2s2,0.9,2,2v4.8h4.9
				c1,0,1.9,0.9,1.9,1.9c0,1.1-0.9,1.9-1.9,1.9h-4.9v4.8c0,1.1-0.9,2-2,2s-2-0.9-2-2V276.3z"/>
			<path class="st0" d="M135.9,276.3H131c-1,0-1.9-0.8-1.9-1.9c0-1,0.9-1.9,1.9-1.9h4.9v-4.8c0-1.1,0.9-2,2-2s2,0.9,2,2v4.8h4.9
				c1,0,1.9,0.9,1.9,1.9c0,1.1-0.9,1.9-1.9,1.9h-4.9v4.8c0,1.1-0.9,2-2,2s-2-0.9-2-2V276.3z"/>
		</g>
	</g>
	<g>
		<g>
			<g>
				<rect x="228.5" y="79" class="st6" width="223.8" height="141.2"/>
				<path class="st0" d="M452.9,220.9H227.8V78.4h225.1L452.9,220.9L452.9,220.9z M229.1,219.6h222.5V79.7H229.1V219.6z"/>
			</g>
			<g>
				<rect x="228.5" y="79" class="st3" width="223.8" height="12.4"/>
				<path class="st0" d="M452.9,92.1H227.8V78.4h225.1L452.9,92.1L452.9,92.1z M229.1,90.8h222.5V79.7H229.1V90.8z"/>
			</g>
		</g>
		<g>
			<path class="st5" d="M240.2,85.3c0,1.7-1.4,3.1-3.1,3.1c-1.7,0-3.1-1.4-3.1-3.1c0-1.7,1.4-3.1,3.1-3.1
				C238.7,82.2,240.2,83.6,240.2,85.3z"/>
			<path class="st0" d="M252.9,85.3c0,1.7-1.4,3.1-3.1,3.1c-1.7,0-3.1-1.4-3.1-3.1c0-1.7,1.4-3.1,3.1-3.1S252.9,83.6,252.9,85.3z"/>
			<path class="st1" d="M265.7,85.3c0,1.7-1.4,3.1-3.1,3.1s-3.1-1.4-3.1-3.1c0-1.7,1.4-3.1,3.1-3.1
				C264.3,82.2,265.7,83.6,265.7,85.3z"/>
		</g>
		<g>
			<rect x="241.8" y="116.2" class="st0" width="6.6" height="2.4"/>
			<rect x="253.3" y="116.2" class="st0" width="107.4" height="2.4"/>
			<rect x="364.8" y="116.2" class="st3" width="12.6" height="2.4"/>
			<rect x="385" y="148.7" class="st0" width="12.6" height="2.4"/>
			<rect x="380.2" y="116.2" class="st5" width="42.6" height="2.4"/>
			<rect x="248.5" y="122.7" class="st0" width="6.6" height="2.4"/>
			<rect x="259.8" y="122.7" class="st5" width="50.1" height="2.4"/>
			<rect x="363.1" y="148.7" class="st5" width="18.9" height="2.4"/>
			<rect x="253.3" y="142.2" class="st5" width="47.8" height="2.4"/>
			<rect x="259.8" y="129.2" class="st3" width="33.5" height="2.4"/>
			<rect x="373.2" y="135.7" class="st5" width="33.5" height="2.4"/>
			<rect x="297.1" y="129.2" class="st5" width="84.7" height="2.4"/>
			<rect x="253.3" y="148.7" class="st3" width="105.4" height="2.4"/>
			<rect x="378.8" y="122.7" class="st3" width="55.4" height="2.4"/>
			<rect x="313" y="122.7" class="st0" width="63" height="2.4"/>
			<rect x="405" y="129.2" class="st0" width="21.5" height="2.4"/>
			<rect x="248.5" y="129.2" class="st0" width="6.6" height="2.4"/>
			<rect x="241.8" y="135.7" class="st5" width="6.6" height="2.4"/>
			<rect x="253.3" y="135.7" class="st0" width="39.3" height="2.4"/>
			<rect x="259.8" y="155.2" class="st0" width="39.3" height="2.4"/>
			<rect x="364.2" y="161.7" class="st3" width="50.6" height="2.4"/>
			<rect x="302.3" y="155.2" class="st3" width="70.5" height="2.4"/>
			<rect x="295.3" y="161.7" class="st0" width="65.4" height="2.4"/>
			<rect x="259.8" y="161.7" class="st5" width="11.4" height="2.4"/>
			<rect x="303.8" y="142.2" class="st0" width="73.6" height="2.4"/>
			<rect x="380.2" y="142.2" class="st3" width="47.8" height="2.4"/>
			<rect x="296.6" y="135.7" class="st3" width="73.5" height="2.4"/>
			<rect x="241.8" y="142.2" class="st0" width="6.6" height="2.4"/>
			<rect x="241.8" y="148.7" class="st0" width="6.6" height="2.4"/>
			<rect x="248.5" y="155.2" class="st5" width="6.6" height="2.4"/>
			<rect x="248.5" y="161.7" class="st0" width="6.6" height="2.4"/>
			<rect x="241.8" y="167.2" class="st0" width="6.6" height="2.4"/>
			<rect x="253.3" y="167.2" class="st0" width="78" height="2.4"/>
			<rect x="248.5" y="173.7" class="st0" width="6.6" height="2.4"/>
			<rect x="259.8" y="173.7" class="st5" width="50.1" height="2.4"/>
			<rect x="253.3" y="193.2" class="st5" width="47.8" height="2.4"/>
			<rect x="259.8" y="180.2" class="st3" width="33.5" height="2.4"/>
			<rect x="297.1" y="180.2" class="st5" width="84.7" height="2.4"/>
			<rect x="253.3" y="199.7" class="st3" width="105.4" height="2.4"/>
			<rect x="378.8" y="173.7" class="st3" width="55.4" height="2.4"/>
			<rect x="313" y="173.7" class="st0" width="63" height="2.4"/>
			<rect x="405" y="180.2" class="st0" width="21.5" height="2.4"/>
			<rect x="248.5" y="180.2" class="st0" width="6.6" height="2.4"/>
			<rect x="241.8" y="186.7" class="st5" width="6.6" height="2.4"/>
			<rect x="253.3" y="186.7" class="st0" width="39.3" height="2.4"/>
			<rect x="303.8" y="193.2" class="st0" width="73.6" height="2.4"/>
			<rect x="296.6" y="186.7" class="st3" width="73.5" height="2.4"/>
			<rect x="241.8" y="193.2" class="st0" width="6.6" height="2.4"/>
			<g>
				<path class="st3" d="M245.9,109.8c0.2,0.2,0.2,0.6,0,0.8c-0.1,0.1-0.3,0.2-0.4,0.2c-0.2,0-0.3-0.1-0.4-0.2l-2.6-2.6
					c0,0,0,0,0-0.1l0,0c0,0,0,0,0-0.1l0,0c0,0,0,0,0-0.1l0,0c0,0,0,0,0-0.1c0,0,0,0,0-0.1l0,0c0,0,0,0,0-0.1l0,0c0,0,0,0,0-0.1l0,0
					v-0.1l0,0c0,0,0,0,0.1-0.1l2.6-2.6c0.2-0.2,0.6-0.2,0.8,0s0.2,0.6,0,0.8l-2.2,2.2L245.9,109.8z"/>
				<path class="st3" d="M248.3,110.1l2.2-5.3c0.1-0.3,0.4-0.4,0.7-0.3c0.2,0.1,0.4,0.4,0.3,0.6l-2.2,5.3c-0.1,0.2-0.3,0.3-0.5,0.3
					c-0.1,0-0.1,0-0.2,0C248.3,110.7,248.1,110.4,248.3,110.1z"/>
				<path class="st3" d="M255.8,108L255.8,108L255.8,108l-2.6,2.7c-0.1,0.1-0.3,0.2-0.4,0.2c-0.2,0-0.3-0.1-0.4-0.2
					c-0.2-0.2-0.2-0.6,0-0.8l2.2-2.2l-2.2-2.2c-0.2-0.2-0.2-0.6,0-0.8s0.6-0.2,0.8,0l2.6,2.6c0,0,0,0,0.1,0.1l0,0v0.1l0,0
					c0,0,0,0,0,0.1l0,0c0,0,0,0,0,0.1l0,0l0,0c0,0,0,0,0,0.1l0,0v0.1C255.9,107.9,255.9,107.9,255.8,108
					C255.9,107.9,255.8,107.9,255.8,108z"/>
			</g>
		</g>
	</g>
	<g>
		<rect x="441.6" y="184.6" class="st7" width="70.2" height="26"/>
		<g>
			<path class="st1" d="M451.8,203v-11.5c0-0.6,0.5-1.1,1.1-1.1s1.1,0.5,1.1,1.1v4.7h5.1v-4.7c0-0.6,0.5-1.1,1.1-1.1
				s1.1,0.5,1.1,1.1V203c0,0.6-0.5,1.1-1.1,1.1s-1.1-0.5-1.1-1.1v-4.7H454v4.7c0,0.6-0.5,1.1-1.1,1.1
				C452.3,204,451.8,203.6,451.8,203z"/>
			<path class="st1" d="M474,192.5h-3.1V203c0,0.6-0.5,1.1-1.1,1.1s-1.1-0.5-1.1-1.1v-10.4h-3.1c-0.6,0-1.1-0.5-1.1-1.1
				s0.5-1.1,1.1-1.1h8.3c0.6,0,1.1,0.5,1.1,1.1C475.1,192,474.6,192.5,474,192.5z"/>
			<path class="st1" d="M490.1,191.4V203c0,0.6-0.5,1.1-1.1,1.1s-1.1-0.5-1.1-1.1v-8.2l-2.8,3.9c-0.2,0.3-0.5,0.4-0.9,0.4l0,0l0,0
				c-0.4,0-0.7-0.2-0.9-0.4l-2.8-3.9v8.2c0,0.6-0.5,1.1-1.1,1.1s-1.1-0.5-1.1-1.1v-11.5c0-0.6,0.5-1.1,1.1-1.1c0,0,0,0,0.1,0
				c0.3,0,0.7,0.2,0.9,0.4l3.9,5.4l3.9-5.4c0.2-0.3,0.5-0.4,0.9-0.4l0,0C489.6,190.4,490.1,190.9,490.1,191.4z"/>
			<path class="st1" d="M494.8,203v-11.5c0-0.6,0.5-1.1,1.1-1.1s1.1,0.5,1.1,1.1v10.4h5.3c0.6,0,1.1,0.5,1.1,1.1s-0.5,1.1-1.1,1.1
				H496l0,0l0,0C495.3,204,494.8,203.6,494.8,203z"/>
		</g>
	</g>
	<g>
		<rect x="137.5" y="193.5" class="st7" width="57.9" height="26"/>
		<g>
			<path class="st1" d="M154.7,207.7h-2.4v4.2c0,0.6-0.5,1.1-1.1,1.1s-1.1-0.5-1.1-1.1v-11.5c0-0.6,0.5-1.1,1.1-1.1l0,0h3.5
				c2.3,0,4.2,1.9,4.2,4.2C158.9,205.8,157,207.7,154.7,207.7z M152.3,205.5h2.4c1.1,0,2-0.9,2-2s-0.9-2-2-2h-2.4V205.5z"/>
			<path class="st1" d="M161.5,211.9v-11.5c0-0.6,0.5-1.1,1.1-1.1s1.1,0.5,1.1,1.1v4.7h5.1v-4.7c0-0.6,0.5-1.1,1.1-1.1
				s1.1,0.5,1.1,1.1v11.5c0,0.6-0.5,1.1-1.1,1.1s-1.1-0.5-1.1-1.1v-4.7h-5.1v4.7c0,0.6-0.5,1.1-1.1,1.1S161.5,212.5,161.5,211.9z"/>
			<path class="st1" d="M180,207.7h-2.4v4.2c0,0.6-0.5,1.1-1.1,1.1s-1.1-0.5-1.1-1.1v-11.5c0-0.6,0.5-1.1,1.1-1.1l0,0h3.5
				c2.3,0,4.2,1.9,4.2,4.2C184.2,205.8,182.3,207.7,180,207.7z M177.6,205.5h2.4c1.1,0,2-0.9,2-2s-0.9-2-2-2h-2.4V205.5z"/>
		</g>
	</g>
	<g>
		<polygon class="st6" points="568,307.4 572.4,318 568,319.8 563.6,309.1 556.3,314.8 556.3,284.9 577.2,306 		"/>
		<g>
			<path class="st6" d="M556.3,281.6c-0.2-0.5-0.3-1-0.3-1.5s0.1-1,0.3-1.5c0.2,0.5,0.3,1,0.3,1.5S556.5,281.1,556.3,281.6z"/>
			<path class="st6" d="M553.7,282.7c-0.5-0.2-0.9-0.5-1.2-0.9s-0.7-0.7-0.9-1.2c0.5,0.2,0.9,0.5,1.2,0.9
				C553.2,281.8,553.5,282.2,553.7,282.7z"/>
			<path class="st6" d="M552.6,285.3c-0.5,0.2-1,0.3-1.5,0.3s-1-0.1-1.5-0.3c0.5-0.2,1-0.3,1.5-0.3S552.1,285.1,552.6,285.3z"/>
			<path class="st6" d="M553.7,287.9c-0.2,0.5-0.5,0.9-0.9,1.2c-0.4,0.3-0.7,0.7-1.2,0.9c0.2-0.5,0.5-0.9,0.9-1.2
				C552.8,288.4,553.2,288.1,553.7,287.9z"/>
			<path class="st6" d="M560,285.3c0.5-0.2,1-0.3,1.5-0.3s1,0.1,1.5,0.3c-0.5,0.2-1,0.3-1.5,0.3C561,285.5,560.5,285.5,560,285.3z"
				/>
			<path class="st6" d="M558.9,282.7c0.2-0.5,0.5-0.9,0.9-1.2c0.4-0.3,0.7-0.7,1.2-0.9c-0.2,0.5-0.5,0.9-0.9,1.2
				C559.8,282.2,559.4,282.5,558.9,282.7z"/>
		</g>
	</g>
	<g>
		<g>
			<path class="st6" d="M409.5,243.9c-13.8,11.8-9.9,29-15.7,38.4c-3.5,5.7-15,11.7-17.2,18.3c-3.7,10.8,5.4,14.7,3.4,20.6
				c-2.9,8.3-14,7.7-16.1,21.3c-2,13.6,13,28.1,48.5,32c35.6,3.9,55.1-9.1,56.4-20.6c1.3-11.6-10.6-15.4-11.4-24
				c-0.5-5.5,6.8-9.4,7.2-19.5c0.4-10.1-9.5-13.4-10.9-22.1s3.1-29.6-9.5-40.2C431.4,237.3,416.2,238.1,409.5,243.9z"/>
			<path class="st6" d="M411,244.2c-3.9,2.8-6.9,6.3-9.1,10.5c-2.3,4.4-3.8,9.2-5.1,14c-0.7,2.8-1.4,5.8-2.8,8.4
				c-1.2,2.3-2.9,4.2-4.8,5.9c-3.8,3.5-8.4,6.1-11.9,10c-3.3,3.7-5.8,8.7-4.5,13.7c0.7,2.7,2.5,5,3.6,7.5c1.1,2.4,1.5,5.4-0.6,7.5
				c-1.8,1.7-4.4,2.5-6.4,3.9s-3.8,3.1-5.2,5c-2.9,4-4.2,8.8-3.3,13.7c2.1,11.1,12.5,17.4,22.1,21.3c1.3,0.6,2.7,1.1,4,1.6
				c0.2,0.1,0.4-0.2,0.2-0.3c-9.6-4.3-20.8-9.4-24.5-20.1c-1.7-4.8-1.1-10,1.7-14.3c1.3-2.1,3.1-3.9,5.1-5.3
				c1.9-1.4,4.2-2.3,6.1-3.7c2-1.4,3.1-3.4,3-5.8c-0.1-2.6-1.4-4.9-2.6-7.1c-1.3-2.3-2.5-4.7-2.3-7.4c0.2-2.6,1.4-5,2.8-7.1
				c3-4.2,7.4-7,11.4-10.2s7.2-7,8.7-12c0.7-2.5,1.2-5.1,1.8-7.7c0.6-2.4,1.3-4.7,2.1-7c1.7-4.5,4.1-9,7.5-12.4
				c0.9-0.9,1.9-1.7,2.9-2.4C411.3,244.3,411.2,244.1,411,244.2z"/>
			<path class="st6" d="M470.3,345.3c-0.4-1.9-1.3-3.7-2.5-5.2c-1.2-1.6-2.7-2.9-4.1-4.3c-1.3-1.4-2.5-2.9-2.9-4.8
				c-0.5-2.3,0.5-4.5,1.6-6.4c1.1-2.1,2.4-4,3.2-6.2c0.8-2.1,1.2-4.4,1.4-6.6c0.3-4.7-1.1-9.2-3.6-13.2c-1.2-2-2.6-3.9-3.8-5.8
				c-1.4-2.2-2.4-4.5-3.2-6.9c-1.6-5.4-1.9-11-3.3-16.4c-1.3-5.6-3.3-11-5.8-16.1c-0.1-0.1-0.2,0-0.2,0.1c2.2,4.7,3.9,9.6,5,14.6
				c1.1,4.8,1.6,9.6,2.4,14.4c0.4,2.4,0.9,4.7,1.8,6.9c0.8,2.1,1.9,4,3.1,5.9c2.4,3.9,4.9,7.8,5.5,12.4c0.7,4.6-0.1,9.2-2.3,13.3
				c-1.9,3.5-4.5,7.4-2.9,11.6c1.4,3.5,4.7,5.6,6.9,8.5c2.4,3.2,3.2,7.3,2.4,11.2c-1.9,10-11.9,14.9-21.2,15.4c-0.3,0-0.3,0.5,0,0.5
				c8.1-0.1,17-3.7,20.8-11.3C470.6,353.3,471.2,349.2,470.3,345.3z"/>
		</g>
		<g>
			<g>
				<path class="st8" d="M421.8,333.7c9,35.8,17.9,63.1,28.1,69.8c8.2,5.4,19.8,9.2,31.7,11.9c13.9,3.1,28.4,4.7,38.5,5.5
					c4,0.3,7.3,0.5,9.7,0.7c5.8,0.4,15.4-38.1,11.2-42.8c-1-1.1-4.8-1.9-10.2-2.6c-18.1-2.3-53.8-2.8-56-4.8
					c-2.2-2.1-20.4-27.6-36-47.6C428,309.9,416.8,313.9,421.8,333.7z"/>
				<g>
					<path class="st8" d="M518,417.7c0.7,0.3,11,4.8,17.3,6.4c4.7,1.2,18.4,4.2,20.2-0.8c1.2-3.4-6.6-6.2-12.1-8.2
						c-2.9-1.1-6.5-3.9-5.7-5.8c1.3-3.3,8.8-0.3,13.7,2.3c9.5,5.1,22.3,14.4,27.8,9.4c2.1-1.9-0.5-5-4.3-8.1
						c6.1,3.5,12.5,6.3,14.9,4.3c1.4-1.1,1.4-2.6,0.5-4.3c1.9,0.5,3.5,0.4,4.6-0.9c1.9-2.1,0.8-5-1.4-8c0.7-0.1,1.3-0.5,1.7-1.2
						c3.9-6.4-17.2-23.5-24.4-24.9c-21-4.2-43-1.6-43-1.6C519.9,383.2,518,417.7,518,417.7z"/>
					<g>
						<path class="st6" d="M547.8,397.2c4.9,0.6,9.9,2.2,14.1,4.8c5,3.2,9,7.6,13.6,11.2c0.1,0.1,0,0.3-0.2,0.2
							c-2.2-1.9-4.6-3.5-6.8-5.3c-2.2-1.7-4.4-3.6-6.7-5.1C557.6,400.1,552.9,398.1,547.8,397.2
							C547.8,397.3,547.8,397.2,547.8,397.2z"/>
						<path class="st6" d="M551.4,388.3c5.5,1.3,11.2,2.6,16.3,5c5.7,2.6,10.2,7.1,14.6,11.4c2.7,2.6,5.3,5.2,7.8,7.9
							c0.1,0.1,0,0.3-0.2,0.2c-4.5-4.4-9.1-8.7-13.9-12.9c-4.5-3.9-9.4-6.8-15.1-8.7C557.9,390,554.6,389.2,551.4,388.3
							C551.3,388.3,551.3,388.3,551.4,388.3z"/>
						<path class="st6" d="M556.9,380.3c5.3,0.9,10,1.7,14.8,4.3c6.4,3.5,12.6,9.7,14.8,11.8c2.4,2.4,4.8,4.9,7.1,7.4
							c0.1,0.1-0.1,0.3-0.2,0.2c-5.2-5.5-10.9-10.7-16.8-15.4c-2.8-2.3-5.9-4.2-9.3-5.6C564,381.8,560.4,381.1,556.9,380.3
							C556.9,380.4,556.9,380.3,556.9,380.3z"/>
					</g>
				</g>
			</g>
			<g>
				<g>
					<path class="st3" d="M428.4,369.8l32.1-19c0,0-13.7-22.2-25.4-32.6c-11.7-10.5-16.5-2.3-14.7,12.9
						C422.2,346.3,428.4,369.8,428.4,369.8z"/>
				</g>
				<g>
					<g>
						<g>
							<g>
								<path class="st6" d="M455.4,346c-5.2,2.6-18.9,10.2-27.2,16.3c0,0,0.1,0.3,0.1,0.2c7.7-4,22.3-13.2,27.2-16.2
									C455.7,346.3,455.5,346,455.4,346z"/>
							</g>
						</g>
					</g>
				</g>
				<path class="st6" d="M457.9,352.4l-29.5,17.4c0,0-6.2-23.4-8-38.6c-1.1-9.8,0.4-16.7,4.8-17.6L457.9,352.4z"/>
			</g>
		</g>
		<g>
			<path class="st3" d="M459.4,433.7H353.1c0,0,23.1-89.1,44.4-114.2c0.5-0.6,1-1.1,1.5-1.6c0.1-0.1,0.2-0.2,0.3-0.3
				c1.8-1.9,3.8-3.4,5.7-4.4c0.4-0.2,0.7-0.4,1.1-0.6c8.2-3.8,16.9-0.6,23.2,4.7c2,1.7,24.5,31,26.5,42.2c1.7,9.9-4.9,20.5-4.9,20.5
				L459.4,433.7z"/>
			<g>
				<path class="st6" d="M435,376.1c-4.5,0.5-9,1.2-13.4,2.3c-2.2,0.6-4.3,1.3-6.5,2c-1.1,0.4-2.1,0.7-3.2,1s-2.3,0.6-3.5,0.7
					c-0.1,0-0.1,0.2,0,0.2c1.1,0,2.2,0,3.3-0.1c1.1-0.1,2.1-0.4,3.2-0.6c2.2-0.6,4.4-1.2,6.6-1.8c4.5-1.2,8.9-2.4,13.5-3.2
					C435.3,376.4,435.2,376.1,435,376.1z"/>
				<path class="st6" d="M446.2,380c-3.7-0.3-7.5-0.5-11.2-0.4c-1.9,0-3.7,0.2-5.6,0.4c-0.9,0.1-1.8,0.2-2.7,0.3
					c-1,0.1-1.9,0.4-2.9,0.5c-0.1,0-0.1,0.2,0,0.2c0.9-0.1,1.9,0,2.8,0s1.9-0.1,2.8-0.1c1.9-0.1,3.7-0.1,5.6-0.2
					c3.7-0.2,7.5-0.3,11.2-0.3C446.4,380.3,446.4,380,446.2,380z"/>
			</g>
		</g>
		<g>
			<g>
				<path class="st8" d="M391.5,324.6c-20,28.2-46,77-32.6,86c21.9,14.8,82.3,18.7,96.1,19.1c6,0.1,14.1-39.5,9.7-44.1
					s-67.6-2.1-68.4-6c-0.5-2.2,7.3-22.1,11.2-46.1C412,306,397.2,316.7,391.5,324.6z"/>
				<g>
					<path class="st8" d="M454.1,383.4c0,0,18-1.9,29.9-2.5c6.6-0.4,18,0,23,2c7.4,2.9,36.7,19.9,32.8,27.1
						c-3.6,6.5-26.9-11.3-26.9-11.3s25.1,15.9,19.3,22.9c-5.8,7-29.4-16.5-29.4-16.5s25.4,16.9,18.3,23.2c-5.4,4.8-28-15.4-28-15.4
						s21.8,14.6,16.5,19.8c-5.9,5.7-27.9-11.6-27.9-11.6c-15.7,10.8-27.6,9.6-35.9,7.7C443.8,428.3,454.1,383.4,454.1,383.4z"/>
					<g>
						<path class="st6" d="M504.5,392.6c3,1.8,6.1,3.5,8.9,5.5c2.9,2,5.6,4.1,8.3,6.4c6.5,5.6,9.7,10.1,9.5,9.8
							c-5.4-6.1-15.5-13.5-18.3-15.5S507.3,394.6,504.5,392.6C504.4,392.7,504.5,392.6,504.5,392.6z"/>
						<path class="st6" d="M497.1,402.8c3.8,2.4,7.6,4.7,11.2,7.2c3.6,2.6,8.6,6.3,12,9.1c0.3,0.2,0.1,0.7-0.2,0.5
							c-3.6-2.7-8.8-6.3-12.4-8.9C504.2,408.1,500.7,405.4,497.1,402.8C496.9,402.8,497,402.8,497.1,402.8z"/>
						<path class="st6" d="M489.1,410.4c5.9,3.4,11.2,7.9,16.3,12.4c0.3,0.2,0,0.3-0.3,0.1c-5.3-4.2-9.5-7.6-16.1-12.2
							C488.9,410.5,488.9,410.3,489.1,410.4z"/>
						<path class="st6" d="M451.5,383.1c8.2-0.8,32.4-3.2,40.7-3.4c7.3-0.1,13.5,0.9,19.9,4.3c13.9,7.4,23.3,16.8,25.7,19.6
							c1.4,1.7,3.6,4.5,2.1,6.6c-1.8,2.7-9.6,1-18.3-5.5c-0.3-0.2-0.1-0.4,0.2-0.2c12.1,8,16.5,6.6,17.5,4.9c0.7-1.1-0.2-2.8-1-4
							c-1.2-1.8-2.9-3.5-4.5-4.9c-5.5-5-12-9.5-18.4-13.3c-7.4-4.4-15-6.5-23.6-6.4c-8.5,0.1-31.7,2.5-40.2,2.5
							C451.3,383.4,451.4,383.1,451.5,383.1z"/>
						<path class="st6" d="M533.2,417.8c-0.7-2.2-2.5-4.1-3.9-5.8c-1.8-2.1-3.8-4.2-5.9-6c-0.1-0.1-0.2,0-0.1,0.1
							c1.9,1.9,3.7,3.7,5.3,5.8c0.9,1.1,1.7,2.3,2.4,3.5s1.5,2.5,1.4,3.9c-0.3,2.7-3.7,3-5.8,2.5c-1.4-0.3-2.7-0.9-3.9-1.5
							c-1.3-0.6-3.8-2.2-4.9-3c-0.1-0.1-0.5,0-0.3,0.1c3.3,2.6,9.5,8,13.9,5.3C533,421.8,533.8,419.8,533.2,417.8z"/>
					</g>
				</g>
			</g>
			<g>
				<g>
					<path class="st3" d="M366.6,353.9l35.1,12.6c0,0,8.3-24.7,8.9-40.4c0.6-15.7-8.8-14.1-19.3-3
						C380.7,334.2,366.6,353.9,366.6,353.9z"/>
				</g>
				<g>
					<g>
						<g>
							<g>
								<path class="st6" d="M402.2,359.6c-5.3-2.3-19.9-8-29.9-10.5c-0.1,0-0.1,0.2-0.1,0.2c8,3.3,24.4,8.8,29.9,10.6
									C402.1,360,402.3,359.7,402.2,359.6z"/>
							</g>
						</g>
					</g>
					<path class="st6" d="M408.9,346.3C409,346.3,408.9,346.2,408.9,346.3c-0.7,1.2-1.3,2.4-1.8,3.7c0.6-2.7,1.2-5.5,1.6-8.3
						c0-0.1-0.1-0.1-0.2,0c-2.4,8.1-4.9,16.1-7.1,24.3c-0.9,0-1.8-0.1-2.7-0.2c-0.2,0-0.2,0.2,0,0.2c1,0.2,1.9,0.5,2.9,0.9
						c0.2,0.1,0.5,0.1,0.6-0.2c1.7-4.6,3.1-9.4,4.3-14.2c0.4-0.7,0.7-1.5,1-2.2C408.1,349,408.6,347.7,408.9,346.3z"/>
				</g>
			</g>
		</g>
		<g>
			<path class="st1" d="M415.3,309.3c-8,1.5-8,10.3-5.8,16.7s7.3,14.1,11.5,14.3c4.2,0.2,6-10.2,6-10.2s5.3,7.1,8.6,5.1
				c3.3-2-1.7-14.5-5.8-18.6C423.9,310.6,419.6,308.5,415.3,309.3z"/>
			<g>
				<g>
					<path class="st8" d="M410.6,313.8c0.2,1.9,7.2,15.1,15.7,15.9c2.8,0.3,4.8-14.7,4.8-14.7l0.4-1.1l5.7-15l-16.5-14.3l-2.4-1.9
						c0,0-1.3,4.2-2.8,9.5c-0.1,0.2-0.1,0.5-0.2,0.7c-0.1,0.3-0.2,0.6-0.3,0.9c-0.2,0.8-0.5,1.6-0.7,2.4c-0.2,0.6-0.3,1.2-0.5,1.8
						c-0.2,0.6-0.3,1.3-0.5,1.9C411.6,306.3,410.5,313,410.6,313.8z"/>
					<path class="st6" d="M415.5,292.1c2.7,13,11.8,19.4,16.1,21.7l5.7-15l-16.5-14.3l-2.4-1.9C418.3,282.7,417,286.9,415.5,292.1z"
						/>
				</g>
				<g>
					<path class="st8" d="M461.8,277.2c-1.4,28.1-18.4,30.4-24.5,30.1c-5.5-0.3-24.2-2-25.6-30.1c-1.5-28.1,12.1-36.3,24.7-36.3
						C449,240.9,463.3,249.1,461.8,277.2z"/>
					<g>
						<path class="st6" d="M458.1,272.1c-0.7-0.1-1.2-0.3-1.9-0.5c-0.7-0.2-1.3-0.3-1.8-0.9c-0.3-0.3-0.2-0.9,0.1-1.2
							c0.7-0.7,1.6-0.6,2.5-0.4s1.6,0.7,2.2,1.5C459.8,271.3,459,272.3,458.1,272.1z"/>
						<path class="st6" d="M440.2,270.9c0.7,0,1.3-0.2,1.9-0.3c0.7-0.1,1.3-0.1,1.9-0.6c0.3-0.3,0.3-0.9,0.1-1.2
							c-0.6-0.8-1.5-0.9-2.4-0.8c-1,0.1-1.7,0.4-2.4,1.1C438.6,269.8,439.3,271,440.2,270.9z"/>
						<g>
							<g>
								<path class="st6" d="M443,277.9c0-0.1-0.2,0.1-0.2,0.2c0,1.9-0.4,4.1-2.2,4.7c-0.1,0-0.1,0.1,0,0.1
									C442.8,282.6,443.3,279.7,443,277.9z"/>
								<path class="st6" d="M441.4,275.8c-3.1-0.4-3.6,5.8-0.8,6.1C443.4,282.3,444,276.1,441.4,275.8z"/>
							</g>
							<path class="st6" d="M440.2,276c-0.6,0.3-1.2,0.9-1.8,0.9c-0.8,0-1.3-0.7-1.7-1.4c0-0.1-0.1,0-0.1,0.1
								c-0.1,1.2,0.2,2.4,1.5,2.7c1.1,0.3,2.1-0.7,2.5-1.9C440.6,276.2,440.4,275.9,440.2,276z"/>
						</g>
						<g>
							<g>
								<path class="st6" d="M453.5,278.4c0-0.1,0.1,0.1,0.1,0.2c-0.2,1.9-0.2,4.1,1.5,4.9c0.1,0,0,0.1,0,0.1
									C453,283.1,452.9,280.2,453.5,278.4z"/>
								<path class="st6" d="M455.4,276.6c3.1,0.1,2.7,6.2-0.1,6.2C452.4,282.7,452.8,276.5,455.4,276.6z"/>
							</g>
							<path class="st6" d="M456.6,277.1c0.5,0.4,0.9,1,1.5,1.1c0.7,0.1,1.2-0.6,1.7-1.2c0-0.1,0.1,0,0.1,0.1c0,1.2-0.5,2.4-1.6,2.5
								c-1,0.1-1.7-0.9-2-2.1C456.3,277.2,456.4,276.9,456.6,277.1z"/>
						</g>
						<path class="st6" d="M441.6,292.6c0.4,0.5,0.8,1.2,1.4,1.3c0.7,0.1,1.5,0,2.1-0.2c0.1,0,0.1,0.1,0.1,0.1
							c-0.6,0.7-1.7,1-2.5,0.7s-1.2-1.1-1.3-1.9C441.4,292.5,441.5,292.5,441.6,292.6z"/>
						<g>
							<path class="st6" d="M449.7,287.2c0,0,0.2,2.9,0.1,4.2c0,0.1-5,0.8-6.9-2.7c-0.1-0.1,0.1-0.3,0.2-0.2
								c1.7,1.4,3.6,1.9,5.7,2.1c0.1-0.4-0.5-4.9-0.2-4.9c0.7,0,2.2,0.6,3,0.9c-0.2-6-1.3-12-1.4-17.9c0-0.2,0.3-0.3,0.4-0.1
								c1.6,6.1,2,13.1,2.4,19.3C452.9,288.7,450.2,287.5,449.7,287.2z"/>
						</g>
					</g>
					<path class="st6" d="M413.7,278.3c6.9,0.7,11.6-20.1,12.2-22.7c-0.3,1.6-1.6,10.3-1,10.7c0.2,0.1,0.9,0,2.2-0.1l0,0
						c0.1-1,0.4-2,0.7-3.1c0.1-0.5,0,1.1,0.1,3c0.4-0.1,0.8-0.1,1.3-0.2c0.2-1.9,0.6-4.2,1.5-6.5c0.3-0.8,0,2.9,0.4,6.2
						c4.9-0.7,11.9-1.4,18.3-0.8c1.7,0.2,3.2,0.4,4.5,0.6c0.3-2.6,0.4-5.3,0.5-4.7c0.3,1.7,0.4,3.5,0.4,4.9c0.7,0.1,1.3,0.3,1.9,0.4
						c0.7-3.6-0.3-9.6,0.2-8.6c1.8,3.7,2.2,7.4,2.3,9.4c2.4,0.8,3,1.4,3.2,0.7c0.3-1.1,0.2-11.4-6.7-19.9
						c-7.5-9.2-24.3-13.5-35.5-2.3c0,0-8.6,4.1-11,12.3C406.8,265.8,409.7,277.9,413.7,278.3z"/>
					<g>
						<g>
							<path class="st8" d="M416.2,277.5c0,0-4.9-9.5-9.1-7.9s-1.4,14.9,3,17.2c4.4,2.4,6.7-1.7,6.7-1.7L416.2,277.5z"/>
							<path class="st6" d="M408,273.3c-0.1,0-0.1,0.1,0,0.1c3.1,1.8,4.4,5,5.1,8.3c-0.8-1.3-2-2.2-3.8-1.3c-0.1,0,0,0.2,0.1,0.2
								c1.4-0.1,2.3,0.3,3,1.5c0.5,0.8,0.8,1.9,1.2,2.8c0.1,0.3,0.7,0.2,0.6-0.1v-0.1C414.8,280.6,412.4,274.4,408,273.3z"/>
						</g>
					</g>
				</g>
			</g>
		</g>
	</g>
	<g>
		<g>
			<g>
				<g>
					<path class="st9" d="M254,321.9c-7.1,31-21.6,70.3-32.7,78.3c-9,6.4-56.2,17.7-58.8,17.9c-6.5,0.7-19.4-45.3-12.6-47.2
						c8.5-2.4,48.9-3.6,51.2-6c2.4-2.5,17.1-22.4,33.7-45.5C246.3,303.5,258.4,302.6,254,321.9z"/>
					<g>
						<path class="st9" d="M167.7,415.5c-0.8,0.4-11.8,5.9-18.6,7.9c-5.1,1.5-19.8,5.3-22-0.1c-1.5-3.7,6.9-7,12.8-9.4
							c3.1-1.3,6.9-4.5,6-6.5c-1.6-3.5-9.6,0-14.8,3.1c-10.2,5.9-23.7,16.5-29.9,11.4c-2.3-1.9,0.4-5.5,4.4-9
							c-6.5,4.1-13.4,7.4-16,5.3c-1.5-1.2-1.6-2.8-0.8-4.6c-2,0.6-3.8,0.5-5-0.8c-2.1-2.2-1.1-5.4,1.2-8.8c-0.7-0.1-1.4-0.5-1.9-1.3
							c-4.4-6.8,17.8-26.3,25.5-28.1c22.7-5.4,46.8-3.4,46.8-3.4C164.3,378.3,167.8,415.5,167.7,415.5z"/>
						<g>
							<path class="st6" d="M134.4,394.7c-5.3,0.8-10.6,2.8-15.1,5.8c-5.7,3.8-9.6,8.2-14.4,12.7c-0.1,0.1,0.1,0.3,0.2,0.2
								c2.3-2.1,11.8-10.1,14.3-11.9C123.9,398.1,128.9,395.8,134.4,394.7C134.5,394.8,134.5,394.7,134.4,394.7z"/>
							<path class="st6" d="M130.2,385.1c-6,1.6-12.1,3.3-17.6,6.1c-6,3.1-10.8,8.1-15.4,12.9c-2.8,2.9-5.5,5.9-8.2,8.9
								c-0.1,0.1,0.1,0.3,0.2,0.2c4.7-5,9.6-9.9,14.6-14.6c4.7-4.4,10-7.8,16-10.1C123.2,387.2,126.7,386.2,130.2,385.1
								C130.3,385.1,130.3,385,130.2,385.1z"/>
							<path class="st6" d="M123.8,376.7c-5.8,1.2-10.8,2.2-16,5.3c-6.8,4.1-13.3,11-15.6,13.5c-2.5,2.7-5,5.5-7.4,8.3
								c-0.1,0.1,0.1,0.3,0.2,0.2c5.5-6.2,11.4-12.1,17.7-17.5c3-2.6,6.2-4.8,9.9-6.4C116.2,378.5,120,377.6,123.8,376.7
								C123.9,376.7,123.9,376.6,123.8,376.7z"/>
						</g>
					</g>
				</g>
				<g>
					<path class="st5" d="M201.5,360.4l43.5-1.8c0,0,7.9-21.5,10.8-40.7c2.9-19.1-13.4-12.3-29.5,8.3
						C210.1,346.8,201.5,360.4,201.5,360.4z"/>
					<path class="st6" d="M246.4,349.1c-9.4-0.2-18.8,0.2-28.2,0.8c-2.7,0.2-5.3,0.4-8,0.7c-0.1,0-0.1,0.1,0,0.1
						c4.7,0,9.4-0.2,14.1-0.3c4.7-0.1,9.4-0.3,14.1-0.6c2.7-0.2,5.3-0.3,8-0.5C246.5,349.2,246.5,349.1,246.4,349.1z"/>
					<path class="st4" d="M232.7,321c-0.2,0.2-0.4,0.3-0.7,0.3c-0.5,0.1-1-0.1-1.3-0.4c0,0,0,0-0.1-0.1c-0.2,0.2-0.3,0.4-0.5,0.5
						l0,0c0.5,0.5,1.3,0.7,2,0.4c0.3-0.1,0.6-0.4,0.8-0.6s0.4-0.5,0.5-0.8C233.2,320.7,232.9,320.8,232.7,321z M242.2,354.9
						c-0.1-0.3-0.1-0.6-0.2-0.9c-0.1,0.3-0.1,0.6-0.2,0.9c0,0.3-0.1,0.5-0.2,0.7c-0.2,0.4-0.7,0.7-1.2,0.7c-0.7,0-1.4,0.4-1.7,1.1
						c-0.1,0.3-0.1,0.7-0.1,1c0,0.1,0,0.2,0.1,0.3h0.2c0-0.1,0-0.2,0.1-0.3c0-0.3,0.1-0.5,0.2-0.7c0.3-0.4,0.7-0.6,1.2-0.6
						c0.7,0,1.4-0.5,1.7-1.2C242.3,355.6,242.3,355.2,242.2,354.9z M230.5,337.5c-0.1-0.3-0.1-0.6-0.2-0.9c-0.1,0.3-0.1,0.6-0.2,0.9
						c0,0.3-0.1,0.5-0.2,0.7c-0.3,0.4-0.7,0.7-1.2,0.7c-0.7,0-1.4,0.4-1.7,1.1c-0.1,0.3-0.2,0.7-0.1,1c0.1,0.3,0.1,0.6,0.2,0.9
						c0.1-0.3,0.1-0.6,0.2-0.9c0-0.3,0.1-0.5,0.2-0.7c0.3-0.4,0.7-0.7,1.2-0.6c0.7,0,1.4-0.5,1.6-1.2
						C230.6,338.1,230.6,337.7,230.5,337.5z M222.7,355.1c-0.2,0.2-0.4,0.3-0.7,0.4c-0.5,0.1-1,0-1.3-0.3c-0.5-0.5-1.3-0.7-2-0.4
						c-0.3,0.1-0.6,0.4-0.8,0.6c-0.2,0.3-0.4,0.5-0.5,0.8c0.3-0.2,0.5-0.3,0.7-0.5s0.4-0.3,0.7-0.3c0.5-0.1,1,0,1.3,0.4
						c0.5,0.5,1.4,0.7,2,0.3c0.3-0.1,0.6-0.4,0.7-0.6c0.2-0.3,0.4-0.5,0.5-0.8C223.2,354.7,223,354.9,222.7,355.1z M246.2,341.9
						c-0.2,0.2-0.4,0.3-0.7,0.4c-0.5,0.1-1,0-1.3-0.3c-0.5-0.5-1.3-0.7-2-0.4c-0.3,0.1-0.6,0.4-0.8,0.6s-0.3,0.5-0.5,0.7
						c0.3-0.1,0.5-0.3,0.8-0.5c0.2-0.2,0.4-0.3,0.7-0.3c0.5-0.1,1,0,1.3,0.4c0.5,0.5,1.4,0.7,2,0.3c0.3-0.1,0.6-0.4,0.7-0.6
						c0.2-0.2,0.4-0.5,0.5-0.8C246.7,341.5,246.4,341.7,246.2,341.9z M248.6,327.7c-0.3,0-0.5-0.1-0.7-0.2c-0.4-0.3-0.7-0.7-0.6-1.2
						c0-0.7-0.5-1.4-1.2-1.7c-0.3-0.1-0.7-0.1-1-0.1c-0.3,0.1-0.6,0.1-0.9,0.2c0.3,0.1,0.6,0.1,0.9,0.2c0.3,0,0.5,0.1,0.7,0.2
						c0.4,0.2,0.7,0.7,0.7,1.2c0,0.7,0.4,1.4,1.1,1.7c0.3,0.1,0.7,0.1,1,0.1c0.3-0.1,0.6-0.1,0.9-0.2
						C249.2,327.8,248.9,327.8,248.6,327.7z M213.5,346.9c-0.3,0-0.5-0.1-0.7-0.2c-0.4-0.3-0.6-0.7-0.6-1.2c0-0.1,0-0.3-0.1-0.4
						c-0.2,0.3-0.4,0.6-0.6,0.9l0,0c0.1,0.6,0.5,1.1,1.1,1.3c0.3,0.1,0.7,0.2,1,0.1s0.6-0.1,0.9-0.2C214,347,213.8,347,213.5,346.9z
						 M246.7,307.7c0,0.1,0,0.3,0.1,0.4c0.1,0.3,0.1,0.7-0.1,1c-0.2,0.7-0.9,1.2-1.7,1.2c-0.5,0-0.9,0.2-1.2,0.6
						c-0.1,0.2-0.2,0.4-0.2,0.7c-0.1,0.3-0.1,0.6-0.2,0.9c-0.1-0.3-0.1-0.6-0.2-0.9c-0.1-0.3,0-0.7,0.1-1c0.2-0.7,1-1.1,1.7-1.1
						c0.5,0,0.9-0.3,1.2-0.7c0.1-0.2,0.2-0.4,0.2-0.7c0-0.1,0-0.2,0.1-0.3L246.7,307.7z"/>
				</g>
			</g>
			<g>
				<path class="st5" d="M212.5,433.8h111c1.2-2.2-17-99.4-54.4-126.8c-8.3-6.1-23-2.2-27.1,3.7
					C221.3,340.4,212.5,433.8,212.5,433.8z"/>
				<path class="st4" d="M259.5,351.3c0.3-0.1,0.6-0.1,0.9-0.2s0.7-0.1,1,0.1c0.7,0.2,1.2,0.9,1.2,1.7c0,0.5,0.2,0.9,0.6,1.2
					c0.2,0.1,0.4,0.2,0.7,0.2c0.3,0.1,0.6,0.1,0.9,0.2c-0.3,0.1-0.6,0.1-0.9,0.2s-0.7,0-1-0.1c-0.7-0.3-1.1-1-1.1-1.7
					c0-0.5-0.3-0.9-0.7-1.2c-0.2-0.1-0.4-0.2-0.7-0.2C260.1,351.4,259.8,351.4,259.5,351.3z M276.7,410c0.3,0,0.5,0.1,0.7,0.2
					c0.4,0.3,0.7,0.7,0.7,1.2c0,0.7,0.4,1.4,1.1,1.7c0.3,0.1,0.7,0.1,1,0.1c0.3-0.1,0.6-0.1,0.9-0.2c-0.3-0.1-0.6-0.1-0.9-0.2
					c-0.3,0-0.5-0.1-0.7-0.2c-0.4-0.3-0.6-0.7-0.6-1.2c0-0.7-0.5-1.4-1.2-1.7c-0.3-0.1-0.7-0.1-1-0.1c-0.3,0.1-0.6,0.1-0.9,0.2
					C276.2,409.9,276.4,409.9,276.7,410z M297.1,354.7c0.3,0,0.5,0.1,0.7,0.2c0.4,0.3,0.7,0.7,0.7,1.2c0,0.7,0.4,1.4,1.1,1.7
					c0.3,0.1,0.7,0.1,1,0.1c0.3-0.1,0.6-0.1,0.9-0.2c-0.3-0.1-0.6-0.1-0.9-0.2c-0.3,0-0.5-0.1-0.7-0.2c-0.4-0.3-0.6-0.7-0.6-1.2
					c0-0.7-0.5-1.4-1.2-1.7c-0.3-0.1-0.7-0.1-1-0.1c-0.3,0.1-0.6,0.1-0.9,0.2C296.5,354.6,296.8,354.6,297.1,354.7z M245.1,324.9
					c0.3,0,0.5,0.1,0.7,0.2c0.4,0.3,0.7,0.7,0.7,1.2c0,0.7,0.4,1.4,1.1,1.7c0.3,0.1,0.7,0.1,1,0.1c0.3-0.1,0.6-0.1,0.9-0.2
					c-0.3-0.1-0.6-0.1-0.9-0.2c-0.3,0-0.5-0.1-0.7-0.2c-0.4-0.3-0.6-0.7-0.6-1.2c0-0.7-0.5-1.4-1.2-1.7c-0.3-0.1-0.7-0.1-1-0.1
					c-0.3,0.1-0.6,0.1-0.9,0.2C244.5,324.8,244.8,324.9,245.1,324.9z M277.1,324.3c0.3,0,0.5,0.1,0.7,0.2c0.4,0.3,0.7,0.7,0.7,1.2
					c0,0.7,0.4,1.4,1.1,1.7c0.3,0.1,0.7,0.1,1,0.1c0.3-0.1,0.6-0.1,0.9-0.2c-0.3-0.1-0.6-0.1-0.9-0.2c-0.3,0-0.5-0.1-0.7-0.2
					c-0.4-0.3-0.6-0.7-0.6-1.2c0-0.7-0.5-1.4-1.2-1.7c-0.3-0.1-0.7-0.1-1-0.1c-0.3,0.1-0.6,0.1-0.9,0.2
					C276.5,324.2,276.8,324.2,277.1,324.3z M237.2,376c0.3,0,0.5,0.1,0.7,0.2c0.4,0.3,0.7,0.7,0.7,1.2c0,0.7,0.4,1.4,1.1,1.7
					c0.3,0.1,0.7,0.1,1,0.1c0.3-0.1,0.6-0.1,0.9-0.2c-0.3-0.1-0.6-0.1-0.9-0.2c-0.3,0-0.5-0.1-0.7-0.2c-0.4-0.3-0.6-0.7-0.6-1.2
					c0-0.7-0.5-1.4-1.2-1.7c-0.3-0.1-0.7-0.1-1-0.1c-0.3,0.1-0.6,0.1-0.9,0.2C236.6,375.9,236.9,375.9,237.2,376z M272.1,429.6
					c0.3,0,0.5,0.1,0.7,0.2c0.4,0.3,0.7,0.7,0.7,1.2c0,0.7,0.4,1.4,1.1,1.7c0.3,0.1,0.7,0.1,1,0.1c0.3-0.1,0.6-0.1,0.9-0.2
					c-0.3-0.1-0.6-0.1-0.9-0.2c-0.3,0-0.5-0.1-0.7-0.2c-0.4-0.3-0.6-0.7-0.6-1.2c0-0.7-0.5-1.4-1.2-1.7c-0.3-0.1-0.7-0.1-1-0.1
					c-0.3,0.1-0.6,0.1-0.9,0.2C271.5,429.5,271.8,429.5,272.1,429.6z M254.9,400.8c0.3,0,0.5,0.1,0.7,0.2c0.4,0.3,0.7,0.7,0.7,1.2
					c0,0.7,0.4,1.4,1.1,1.7c0.3,0.1,0.7,0.1,1,0.1c0.3-0.1,0.6-0.1,0.9-0.2c-0.3-0.1-0.6-0.1-0.9-0.2c-0.3,0-0.5-0.1-0.7-0.2
					c-0.4-0.3-0.6-0.7-0.6-1.2c0-0.7-0.5-1.4-1.2-1.7c-0.3-0.1-0.7-0.1-1-0.1c-0.3,0.1-0.6,0.1-0.9,0.2
					C254.3,400.7,254.6,400.7,254.9,400.8z M215.6,430.3c-0.3,0-0.5-0.1-0.7-0.2c-0.4-0.3-0.6-0.7-0.6-1.2c0-0.7-0.4-1.3-1.1-1.6
					c0,0.2-0.1,0.5-0.1,0.7c0.2,0.2,0.4,0.6,0.4,0.9c0,0.7,0.5,1.4,1.1,1.7c0.3,0.1,0.7,0.2,1,0.1c0.3-0.1,0.6-0.1,0.9-0.2
					C216.1,430.4,215.9,430.3,215.6,430.3z M223.1,406c0.3,0,0.5,0.1,0.7,0.2c0.4,0.3,0.7,0.7,0.7,1.2c0,0.7,0.4,1.4,1.1,1.7
					c0.3,0.1,0.7,0.1,1,0.1c0.3-0.1,0.6-0.1,0.9-0.2c-0.3-0.1-0.6-0.1-0.9-0.2c-0.3,0-0.5-0.1-0.7-0.2c-0.4-0.3-0.6-0.7-0.6-1.2
					c0-0.7-0.5-1.4-1.2-1.7c-0.3-0.1-0.7-0.1-1-0.1c-0.3,0.1-0.6,0.1-0.9,0.2C222.5,405.9,222.8,405.9,223.1,406z M269.6,376.7
					c0.3,0,0.5,0.1,0.7,0.2c0.4,0.3,0.7,0.7,0.7,1.2c0,0.7,0.4,1.4,1.1,1.7c0.3,0.1,0.7,0.1,1,0.1c0.3-0.1,0.6-0.1,0.9-0.2
					c-0.3-0.1-0.6-0.1-0.9-0.2c-0.3,0-0.5-0.1-0.7-0.2c-0.4-0.3-0.6-0.7-0.6-1.2c0-0.7-0.5-1.4-1.2-1.7c-0.3-0.1-0.7-0.1-1-0.1
					c-0.3,0.1-0.6,0.1-0.9,0.2C269,376.6,269.3,376.6,269.6,376.7z M310.3,416.1c0.3,0,0.5,0.1,0.7,0.2c0.4,0.3,0.7,0.7,0.7,1.2
					c0,0.7,0.4,1.4,1.1,1.7c0.3,0.1,0.7,0.1,1,0.1c0.3-0.1,0.6-0.1,0.9-0.2c-0.3-0.1-0.6-0.1-0.9-0.2c-0.3,0-0.5-0.1-0.7-0.2
					c-0.4-0.3-0.6-0.7-0.6-1.2c0-0.7-0.5-1.4-1.2-1.7c-0.3-0.1-0.7-0.1-1-0.1c-0.3,0.1-0.6,0.1-0.9,0.2
					C309.7,416,310,416.1,310.3,416.1z M294.1,392c0.3,0,0.5,0.1,0.7,0.2c0.4,0.3,0.7,0.7,0.7,1.2c0,0.7,0.4,1.4,1.1,1.7
					c0.3,0.1,0.7,0.1,1,0.1c0.3-0.1,0.6-0.1,0.9-0.2c-0.3-0.1-0.6-0.1-0.9-0.2c-0.3,0-0.5-0.1-0.7-0.2c-0.4-0.3-0.6-0.7-0.6-1.2
					c0-0.7-0.5-1.4-1.2-1.7c-0.3-0.1-0.7-0.1-1-0.1c-0.3,0.1-0.6,0.1-0.9,0.2C293.5,391.9,293.8,392,294.1,392z M246.2,341.9
					c-0.2,0.2-0.4,0.3-0.7,0.4c-0.5,0.1-1,0-1.3-0.3c-0.5-0.5-1.3-0.7-2-0.4c-0.3,0.1-0.6,0.4-0.8,0.6c-0.2,0.3-0.3,0.5-0.5,0.8
					c0.3-0.2,0.5-0.3,0.8-0.5c0.2-0.2,0.4-0.3,0.7-0.3c0.5-0.1,1,0,1.3,0.4c0.5,0.5,1.4,0.7,2,0.3c0.3-0.1,0.6-0.4,0.7-0.6
					c0.2-0.3,0.4-0.5,0.5-0.8C246.7,341.5,246.4,341.7,246.2,341.9z M294,376.3c-0.2,0.2-0.4,0.3-0.7,0.4c-0.5,0.1-1,0-1.3-0.3
					c-0.5-0.5-1.3-0.7-2-0.4c-0.3,0.1-0.6,0.4-0.8,0.6c-0.2,0.3-0.3,0.5-0.5,0.8c0.3-0.2,0.5-0.3,0.8-0.5c0.2-0.2,0.4-0.3,0.7-0.3
					c0.5-0.1,1,0,1.3,0.4c0.5,0.5,1.4,0.7,2,0.3c0.3-0.1,0.6-0.4,0.7-0.6c0.2-0.3,0.3-0.5,0.5-0.8
					C294.5,375.9,294.2,376.1,294,376.3z M264.1,312.2c-0.2,0.2-0.4,0.3-0.7,0.4c-0.5,0.1-1,0-1.3-0.3c-0.5-0.5-1.3-0.7-2-0.4
					c-0.3,0.1-0.6,0.4-0.8,0.6c-0.2,0.3-0.3,0.5-0.5,0.8c0.3-0.2,0.5-0.3,0.8-0.5c0.2-0.2,0.4-0.3,0.7-0.3c0.5-0.1,1,0,1.3,0.4
					c0.5,0.5,1.4,0.7,2,0.3c0.3-0.1,0.6-0.4,0.7-0.6c0.2-0.3,0.4-0.5,0.5-0.8C264.6,311.9,264.4,312,264.1,312.2z M263.6,331.2
					c0,0.3-0.1,0.5-0.2,0.7c-0.3,0.4-0.7,0.7-1.2,0.7c-0.7,0-1.4,0.4-1.7,1.1c-0.1,0.3-0.1,0.7-0.1,1c0.1,0.3,0.1,0.6,0.2,0.9
					c0.1-0.3,0.1-0.6,0.2-0.9c0-0.3,0.1-0.5,0.2-0.7c0.3-0.4,0.7-0.6,1.2-0.6c0.7,0,1.4-0.5,1.7-1.2c0.1-0.3,0.1-0.7,0.1-1
					c-0.1-0.3-0.1-0.6-0.2-0.9C263.6,330.6,263.6,330.9,263.6,331.2z M256.5,383.2c0,0.3-0.1,0.5-0.2,0.7c-0.3,0.4-0.7,0.7-1.2,0.7
					c-0.7,0-1.4,0.4-1.7,1.1c-0.1,0.3-0.1,0.7-0.1,1c0.1,0.3,0.1,0.6,0.2,0.9c0.1-0.3,0.1-0.6,0.2-0.9c0-0.3,0.1-0.5,0.2-0.7
					c0.3-0.4,0.7-0.6,1.2-0.6c0.7,0,1.4-0.5,1.7-1.2c0.1-0.3,0.1-0.7,0.1-1c-0.1-0.3-0.1-0.6-0.2-0.9
					C256.6,382.6,256.6,382.9,256.5,383.2z M293.4,337.9h-0.1c-0.7,0-1.4,0.4-1.7,1.1c-0.1,0.3-0.1,0.7-0.1,1
					c0.1,0.3,0.1,0.6,0.2,0.9c0.1-0.3,0.1-0.6,0.2-0.9c0-0.3,0.1-0.5,0.2-0.7c0.3-0.4,0.7-0.6,1.2-0.6c0.2,0,0.3,0,0.5-0.1
					C293.6,338.3,293.5,338.1,293.4,337.9z M293.1,421.8c0,0.3-0.1,0.5-0.2,0.7c-0.3,0.4-0.7,0.7-1.2,0.7c-0.7,0-1.4,0.4-1.7,1.1
					c-0.1,0.3-0.1,0.7-0.1,1c0.1,0.3,0.1,0.6,0.2,0.9c0.1-0.3,0.1-0.6,0.2-0.9c0-0.3,0.1-0.5,0.2-0.7c0.3-0.4,0.7-0.6,1.2-0.6
					c0.7,0,1.4-0.5,1.7-1.2c0.1-0.3,0.1-0.7,0.1-1c-0.1-0.3-0.1-0.6-0.2-0.9C293.2,421.2,293.2,421.5,293.1,421.8z M309,374.7
					C309,374.7,309,374.8,309,374.7c-0.3,0.5-0.7,0.8-1.2,0.7c-0.7,0-1.4,0.5-1.7,1.1c-0.1,0.3-0.2,0.7-0.1,1s0.1,0.6,0.2,0.9
					c0.1-0.3,0.1-0.6,0.2-0.9c0-0.3,0.1-0.5,0.2-0.7c0.3-0.4,0.7-0.6,1.2-0.6c0.6,0,1.1-0.3,1.4-0.7l0,0
					C309.2,375.2,309.1,375,309,374.7z M227.9,385c0,0.3-0.1,0.5-0.2,0.7c-0.3,0.4-0.7,0.7-1.2,0.7c-0.7,0-1.4,0.4-1.7,1.1
					c-0.1,0.3-0.1,0.7-0.1,1c0.1,0.3,0.1,0.6,0.2,0.9c0.1-0.3,0.1-0.6,0.2-0.9c0-0.3,0.1-0.5,0.2-0.7c0.3-0.4,0.7-0.6,1.2-0.6
					c0.7,0,1.4-0.5,1.7-1.2c0.1-0.3,0.1-0.7,0.1-1c-0.1-0.3-0.1-0.6-0.2-0.9C228,384.4,227.9,384.7,227.9,385z M229.8,338.4
					c-0.2,0.5-0.3,1-0.5,1.5c0.2-0.2,0.3-0.4,0.4-0.6C229.9,339.1,229.8,338.7,229.8,338.4z M246.5,308.1c0,0.3-0.1,0.5-0.2,0.7
					c-0.3,0.4-0.7,0.7-1.2,0.7c-0.7,0-1.4,0.4-1.7,1.1c-0.1,0.3-0.1,0.7-0.1,1c0.1,0.3,0.1,0.6,0.2,0.9c0.1-0.3,0.1-0.6,0.2-0.9
					c0-0.3,0.1-0.5,0.2-0.7c0.3-0.4,0.7-0.6,1.2-0.6c0.7,0,1.4-0.5,1.7-1.2c0.1-0.3,0.1-0.7,0.1-1c-0.1-0.3-0.1-0.6-0.2-0.9
					C246.5,307.5,246.5,307.8,246.5,308.1z M241.9,354.9c0,0.3-0.1,0.5-0.2,0.7c-0.3,0.4-0.7,0.7-1.2,0.7c-0.7,0-1.4,0.4-1.7,1.1
					c-0.1,0.3-0.1,0.7-0.1,1c0.1,0.3,0.1,0.6,0.2,0.9c0.1-0.3,0.1-0.6,0.2-0.9c0-0.3,0.1-0.5,0.2-0.7c0.3-0.4,0.7-0.6,1.2-0.6
					c0.7,0,1.4-0.5,1.7-1.2c0.1-0.3,0.1-0.7,0.1-1c-0.1-0.3-0.1-0.6-0.2-0.9C242,354.3,241.9,354.6,241.9,354.9z M282.9,361.2
					c0,0.3-0.1,0.5-0.2,0.7c-0.3,0.4-0.7,0.7-1.2,0.7c-0.7,0-1.4,0.4-1.7,1.1c-0.1,0.3-0.1,0.7-0.1,1c0.1,0.3,0.1,0.6,0.2,0.9
					c0.1-0.3,0.1-0.6,0.2-0.9c0-0.3,0.1-0.5,0.2-0.7c0.3-0.4,0.7-0.6,1.2-0.6c0.7,0,1.4-0.5,1.7-1.2c0.1-0.3,0.1-0.7,0.1-1
					c-0.1-0.3-0.1-0.6-0.2-0.9C283,360.6,283,360.9,282.9,361.2z M245,413.9c0,0.3-0.1,0.5-0.2,0.7c-0.3,0.4-0.7,0.7-1.2,0.7
					c-0.7,0-1.4,0.4-1.7,1.1c-0.1,0.3-0.1,0.7-0.1,1c0.1,0.3,0.1,0.6,0.2,0.9c0.1-0.3,0.1-0.6,0.2-0.9c0-0.3,0.1-0.5,0.2-0.7
					c0.3-0.4,0.7-0.6,1.2-0.6c0.7,0,1.4-0.5,1.7-1.2c0.1-0.3,0.1-0.7,0.1-1c-0.1-0.3-0.1-0.6-0.2-0.9
					C245.1,413.3,245.1,413.6,245,413.9z M276.8,345c0.2-0.2,0.4-0.3,0.7-0.4c0.5-0.1,1,0,1.3,0.3c0.5,0.5,1.3,0.7,2,0.4
					c0.3-0.1,0.6-0.4,0.8-0.6c0.2-0.3,0.3-0.5,0.5-0.8c-0.3,0.2-0.5,0.3-0.8,0.5c-0.2,0.2-0.4,0.3-0.7,0.3c-0.5,0.1-1,0-1.3-0.4
					c-0.5-0.5-1.4-0.7-2-0.3c-0.3,0.1-0.6,0.4-0.7,0.6c-0.2,0.3-0.3,0.5-0.5,0.8C276.3,345.3,276.5,345.1,276.8,345z M252.9,366.6
					c0.2-0.2,0.4-0.3,0.7-0.4c0.5-0.1,1,0,1.3,0.3c0.5,0.5,1.3,0.7,2,0.4c0.3-0.1,0.6-0.4,0.8-0.6c0.2-0.3,0.3-0.5,0.5-0.8
					c-0.3,0.2-0.5,0.3-0.8,0.5c-0.2,0.2-0.4,0.3-0.7,0.3c-0.5,0.1-1,0-1.3-0.4c-0.5-0.5-1.4-0.7-2-0.3c-0.3,0.1-0.6,0.4-0.7,0.6
					c-0.2,0.3-0.3,0.5-0.5,0.8C252.4,367,252.6,366.8,252.9,366.6z M236.7,398.6c0.2-0.2,0.4-0.3,0.7-0.4c0.5-0.1,1,0,1.3,0.3
					c0.5,0.5,1.3,0.7,2,0.4c0.3-0.1,0.6-0.4,0.8-0.6c0.2-0.3,0.3-0.5,0.5-0.8c-0.3,0.2-0.5,0.3-0.8,0.5c-0.2,0.2-0.4,0.3-0.7,0.3
					c-0.5,0.1-1,0-1.3-0.4c-0.5-0.5-1.4-0.7-2-0.3c-0.3,0.1-0.6,0.4-0.7,0.6c-0.2,0.3-0.3,0.5-0.5,0.8
					C236.2,398.9,236.4,398.7,236.7,398.6z M243.7,431.7c0.2-0.2,0.4-0.3,0.7-0.4c0.5-0.1,1,0,1.3,0.3c0.5,0.5,1.3,0.7,2,0.4
					c0.3-0.1,0.6-0.4,0.8-0.6c0.2-0.3,0.3-0.5,0.5-0.8c-0.3,0.2-0.5,0.3-0.8,0.5c-0.2,0.2-0.4,0.3-0.7,0.3c-0.5,0.1-1,0-1.3-0.4
					c-0.5-0.5-1.4-0.7-2-0.3c-0.3,0.1-0.6,0.4-0.7,0.6c-0.2,0.3-0.3,0.5-0.5,0.8C243.2,432.1,243.4,431.9,243.7,431.7z M275,395.3
					c0.2-0.2,0.4-0.3,0.7-0.4c0.5-0.1,1,0,1.3,0.3c0.5,0.5,1.3,0.7,2,0.4c0.3-0.1,0.6-0.4,0.8-0.6c0.2-0.3,0.3-0.5,0.5-0.8
					c-0.3,0.2-0.5,0.3-0.8,0.5c-0.2,0.2-0.4,0.3-0.7,0.3c-0.5,0.1-1,0-1.3-0.4c-0.5-0.5-1.4-0.7-2-0.3c-0.3,0.1-0.6,0.4-0.7,0.6
					c-0.2,0.3-0.4,0.5-0.5,0.8C274.5,395.6,274.8,395.4,275,395.3z M296.6,408.5c0.2-0.2,0.4-0.3,0.7-0.4c0.5-0.1,1,0,1.3,0.3
					c0.5,0.5,1.3,0.7,2,0.4c0.3-0.1,0.6-0.4,0.8-0.6c0.2-0.3,0.3-0.5,0.5-0.8c-0.3,0.2-0.5,0.3-0.8,0.5c-0.2,0.2-0.4,0.3-0.7,0.3
					c-0.5,0.1-1,0-1.3-0.4c-0.5-0.5-1.4-0.7-2-0.3c-0.3,0.1-0.6,0.4-0.7,0.6c-0.2,0.3-0.4,0.5-0.5,0.8
					C296.1,408.8,296.4,408.7,296.6,408.5z M260.3,418.5c0.2-0.2,0.4-0.3,0.7-0.4c0.5-0.1,1,0,1.3,0.3c0.5,0.5,1.3,0.7,2,0.4
					c0.3-0.1,0.6-0.4,0.8-0.6c0.2-0.3,0.3-0.5,0.5-0.8c-0.3,0.2-0.5,0.3-0.8,0.5c-0.2,0.2-0.4,0.3-0.7,0.3c-0.5,0.1-1,0-1.3-0.4
					c-0.5-0.5-1.4-0.7-2-0.3c-0.3,0.1-0.6,0.4-0.7,0.6c-0.2,0.3-0.3,0.5-0.5,0.8C259.8,418.9,260.1,418.7,260.3,418.5z M307.1,431.7
					c0.2-0.2,0.4-0.3,0.7-0.4c0.5-0.1,1,0,1.3,0.3c0.5,0.5,1.3,0.7,2,0.4c0.3-0.1,0.6-0.4,0.8-0.6c0.2-0.3,0.3-0.5,0.5-0.8
					c-0.3,0.2-0.5,0.3-0.8,0.5c-0.2,0.2-0.4,0.3-0.7,0.3c-0.5,0.1-1,0-1.3-0.4c-0.5-0.5-1.4-0.7-2-0.3c-0.3,0.1-0.6,0.4-0.7,0.6
					c-0.2,0.3-0.4,0.5-0.5,0.8C306.7,432.1,306.9,431.9,307.1,431.7z M315.5,395.8c-0.2-0.1-0.4-0.2-0.6-0.4c-0.5-0.5-1.4-0.7-2-0.3
					c-0.3,0.1-0.6,0.4-0.7,0.6c-0.2,0.2-0.4,0.5-0.5,0.7c0.3-0.1,0.5-0.3,0.7-0.5s0.4-0.3,0.7-0.4c0.5-0.1,1,0,1.3,0.3
					s0.8,0.5,1.3,0.5C315.6,396.3,315.6,396.1,315.5,395.8z M226.9,423.1c0.2-0.2,0.4-0.3,0.7-0.4c0.5-0.1,1,0,1.3,0.3
					c0.5,0.5,1.3,0.7,2,0.4c0.3-0.1,0.6-0.4,0.8-0.6c0.2-0.3,0.3-0.5,0.5-0.8c-0.3,0.2-0.5,0.3-0.8,0.5c-0.2,0.2-0.4,0.3-0.7,0.3
					c-0.5,0.1-1,0-1.3-0.4c-0.5-0.5-1.4-0.7-2-0.3c-0.3,0.1-0.6,0.4-0.7,0.6c-0.2,0.3-0.3,0.5-0.5,0.8
					C226.4,423.4,226.6,423.3,226.9,423.1z M224.2,367.4c0.2-0.2,0.4-0.3,0.7-0.4c0.5-0.1,1,0,1.3,0.3c0.5,0.5,1.3,0.7,2,0.4
					c0.3-0.1,0.6-0.4,0.8-0.6c0.2-0.3,0.3-0.5,0.5-0.8c-0.3,0.2-0.5,0.3-0.8,0.5c-0.2,0.2-0.4,0.3-0.7,0.3c-0.5,0.1-1,0-1.3-0.4
					c-0.5-0.5-1.4-0.7-2-0.3c-0.3,0.1-0.6,0.4-0.7,0.6c-0.2,0.3-0.4,0.5-0.5,0.8C223.7,367.7,224,367.6,224.2,367.4z"/>
				<path class="st6" d="M230.1,336.6c-1,3.7-2,7.4-3,11.1c0.1-1.6,0.3-3.2,0.5-4.8c0-0.1-0.1-0.1-0.2,0c-0.4,2-0.6,4-0.7,6.1
					c-1.1,4.5-2.2,8.9-3.2,13.4c-1.9,8.6-3.6,17.3-5,26c-0.8,4.9-1.4,9.9-2.2,14.8c0,0.1,0.1,0.1,0.1,0c0.8-4.4,1.8-8.7,2.7-13
					s1.9-8.6,2.7-12.9c1.8-8.7,3.7-17.3,5.5-25.9c1-4.9,1.9-9.8,2.9-14.6C230.5,336.5,230.1,336.4,230.1,336.6z"/>
			</g>
			<g>
				<g>
					<path class="st9" d="M283.2,316.6c17.9,19.2,60.5,91.2,46.7,104.5c-13.9,13.4-90.5-4.6-112-14.9c-6.4-3.1,17.9-43,25.5-43.9
						c6.3-0.8,38.3,13.9,39.2,12c1-2.1-6.2-15.5-13.9-43.3C259.8,298.9,275.3,308.1,283.2,316.6z"/>
					<g>
						<path class="st9" d="M211.5,349.4c-15.6-2.2-19.9-0.3-32.1-9.1c-8-5.8-15.1-3.2-10.5,6c7.5,15,27,22,34.4,22.5L211.5,349.4z"
							/>
						<g>
							<path class="st9" d="M252.9,364.4c0,0-17.5-9.7-33.9-13.7c-11.3-2.7-36.6-5.9-60.8,19c-5.7,5.9-9.7,18.4,3.2,12.2
								c9.2-4.4,13.6-10,19.4-11.6c0,0-3.2,16.5,3,22c2.7,2.5,10.4,9,17.1,13.3c0,0,1.3-1.2,2.8-3c0,0,6.2,4.6,18,3.5L252.9,364.4z"
								/>
						</g>
						<g>
							<path class="st9" d="M207.8,349.8c-5.4,2.8-16.8,9-24.3,17.3c-8.4,9.2-22,29.2-15.2,35.3c5,4.5,10.9-2.7,10.9-2.7
								s-3.9,9.4,1.5,12.5c4.9,2.8,9.2-3,9.2-3s-1.4,6.1,3.9,7.9c6.4,2.1,8.2-11.1,16.5-14.5C212.2,401.8,207.8,349.8,207.8,349.8z"
								/>
							<g>
								<g>
									<path class="st6" d="M194.7,374.3c-4.7,3.5-13.2,14.1-15.6,25.1c-0.1,0.2,0.1,0.4,0.2,0.2
										C184.5,388.1,191.6,378.4,194.7,374.3C194.8,374.4,194.8,374.3,194.7,374.3z"/>
								</g>
								<g>
									<path class="st6" d="M203.7,383.1c-3.7,3.4-12,14.8-14,26c0,0.3,0.1,0.4,0.2,0.2C194.8,397,200.8,387.3,203.7,383.1
										C203.9,383.1,203.8,383,203.7,383.1z"/>
								</g>
							</g>
						</g>
					</g>
					<path class="st6" d="M180.8,370.1c-5.1,1.5-8.4,4-12.7,7c-2.1,1.5-4.3,2.9-6.5,4.1c-2.1,1.1-5.1,2.8-7.3,1.1
						c-1.2-1-1.2-2.7-0.9-4.1c0.3-1.6,0.9-3.1,1.8-4.4c0-0.1-0.1-0.2-0.1-0.1c-0.9,1.2-1.6,2.4-2.1,3.8c-0.5,1.2-0.8,2.7-0.5,4
						c0.7,2.8,4,3.2,6.4,2.4c1.4-0.5,2.7-1.2,4-1.9c1.2-0.7,2.4-1.5,3.6-2.3c2.4-1.6,4.7-3.4,7.1-5.1c2.6-1.8,4.4-2.7,7.3-4.2
						C181,370.2,180.9,370.1,180.8,370.1z"/>
					<path class="st6" d="M170.2,388c1.3-2.9,8.4-14.9,10.7-17.7c0.1-0.1,0-0.2-0.1-0.1c-4,3.7-10.3,13.7-11.8,16.9
						c-1.5,3.2-3.2,7.2-3.2,10.7c0,5.3,3.5,6.3,4.8,6.6c1.6,0.3,3.1,0,4.5-0.7c1.6-0.8,3.1-2.5,4.1-3.8c0.1-0.1,0-0.2-0.1-0.1
						c-1.8,2.1-4.9,4.2-7.8,3.8c-1.3-0.2-2.5-0.7-3.3-1.8c-0.9-1.2-1-2.8-0.8-4.3C167.6,394.1,168.8,391,170.2,388z"/>
					<path class="st6" d="M189.7,409.1c-0.7,0.6-2.3,2.8-4.7,3.3c-1.8,0.3-3.6,0.2-5-1.1c-1.3-1.3-1.8-3-1.9-4.8
						c0-1,0.8-5.4,1.1-6.7c0-0.1-0.1-0.1-0.1-0.1c-0.8,2.3-1.6,4.9-1.6,7.2c0,1.9,0.6,4,2,5.3c1.5,1.4,3.6,1.9,5.5,1.2
						c0.9-0.4,3.9-2.3,4.8-4.2C189.9,409.1,189.7,409.1,189.7,409.1z"/>
					<path class="st6" d="M209.8,401.6c-0.8,0.5-1.6,1.2-2.2,1.9c-0.7,0.7-1.5,1.5-2.2,2.2c-1.4,1.5-2.6,3.3-3.7,5
						c-1.1,1.8-2.1,3.8-3.8,5.1c-1.7,1.2-4.1,1.4-5.8,0.1c-0.9-0.7-1.5-1.6-1.8-2.7s-0.5-2.5-0.3-3.6c0-0.1-0.1-0.1-0.1,0
						c-0.1,1.1-0.4,2.2-0.3,3.3c0.1,1,0.4,2,1,2.8c1.2,1.7,3.4,2.4,5.4,2c2.2-0.4,3.8-2.1,5-3.9c1.3-2,2.4-4.1,3.9-6.1
						c0.8-1,1.5-2.1,2.3-3C208.1,403.7,209.1,402.8,209.8,401.6C210,401.7,209.9,401.6,209.8,401.6z"/>
					<path class="st6" d="M216,406.2c-1.7-0.1-5.5-0.8-8.5-1.8c-0.1,0-0.2,0.2-0.1,0.3c1.1,0.6,3.5,1.2,4.2,1.4
						c1.4,0.3,3,0.4,4.4,0.3C216.1,406.3,216.1,406.2,216,406.2z"/>
					<path class="st6" d="M311.6,388.3c-4.5-3.1-9.2-5.7-14.1-8.1c-4.8-2.4-9.9-4.2-15-5.8c-2.9-0.9-5.9-1.7-8.8-2.5
						c-0.1,0-0.1,0.1,0,0.1c5.1,1.5,10.2,3.5,15.1,5.7c4.9,2.1,9.8,4.3,14.6,6.6c2.7,1.3,5.4,2.7,8.1,4.1
						C311.6,388.6,311.7,388.4,311.6,388.3z"/>
				</g>
				<g>
					<path class="st5" d="M319.9,361.9l-43.5-1.4c0,0-8.1-21.5-11.2-40.6s12.6-13.3,28.9,7.2C310.5,347.5,319.9,361.9,319.9,361.9z"
						/>
					<path class="st4" d="M281.3,344.5c-0.2,0.2-0.4,0.3-0.7,0.3c-0.5,0.1-1,0-1.3-0.4c-0.5-0.5-1.4-0.7-2-0.3
						c-0.3,0.1-0.6,0.4-0.7,0.6c-0.2,0.2-0.4,0.5-0.5,0.7c0.3-0.1,0.5-0.3,0.8-0.5c0.2-0.2,0.4-0.3,0.7-0.4c0.5-0.1,1,0,1.3,0.3
						c0.5,0.5,1.3,0.7,2,0.4c0.3-0.1,0.6-0.4,0.8-0.6c0.2-0.2,0.4-0.5,0.5-0.7C281.7,344.1,281.5,344.3,281.3,344.5z M295,336.5
						c-0.1-0.3-0.1-0.6-0.2-0.9c-0.1,0.3-0.1,0.6-0.2,0.9c0,0.3-0.1,0.5-0.2,0.7c-0.3,0.4-0.7,0.7-1.2,0.7c-0.7,0-1.4,0.4-1.7,1.1
						c-0.1,0.3-0.1,0.7-0.1,1c0.1,0.3,0.1,0.6,0.2,0.9c0.1-0.3,0.1-0.6,0.2-0.9c0-0.3,0.1-0.5,0.2-0.7c0.3-0.4,0.7-0.6,1.2-0.6
						c0.7,0,1.4-0.5,1.7-1.2C295,337.1,295,336.7,295,336.5z M279.7,312.6c0,0.1,0,0.2,0,0.3c0.1,0.3,0.1,0.6,0.2,0.9
						c0.1-0.3,0.1-0.6,0.2-0.9l0,0C280,312.7,279.8,312.7,279.7,312.6z M310.7,348.7c-0.3,0-0.6-0.1-0.9-0.4c-0.5-0.5-1.3-0.7-2-0.4
						c-0.3,0.1-0.6,0.4-0.8,0.6c-0.2,0.3-0.4,0.5-0.5,0.8c0.3-0.1,0.5-0.3,0.8-0.5c0.2-0.2,0.4-0.3,0.7-0.3c0.5-0.1,1,0,1.3,0.4
						c0.5,0.5,1.2,0.6,1.8,0.4C311,349.1,310.9,348.9,310.7,348.7z M280.6,327.1c-0.3,0-0.5-0.1-0.7-0.2c-0.4-0.3-0.6-0.7-0.6-1.2
						c0-0.7-0.5-1.4-1.2-1.7c-0.3-0.1-0.7-0.1-1-0.1c-0.3,0.1-0.6,0.1-0.9,0.2c0.3,0.1,0.6,0.1,0.9,0.2c0.3,0,0.5,0.1,0.7,0.2
						c0.4,0.3,0.7,0.7,0.7,1.2c0,0.7,0.4,1.4,1.1,1.7c0.3,0.1,0.7,0.1,1,0.1c0.3-0.1,0.6-0.1,0.9-0.2
						C281.2,327.2,280.9,327.1,280.6,327.1z M300.6,357.5c-0.3,0-0.5-0.1-0.7-0.2c-0.4-0.3-0.6-0.7-0.6-1.2c0-0.7-0.5-1.4-1.2-1.7
						c-0.3-0.1-0.7-0.1-1-0.1c-0.3,0.1-0.6,0.1-0.9,0.2c0.3,0.1,0.6,0.1,0.9,0.2c0.3,0,0.5,0.1,0.7,0.2c0.4,0.2,0.7,0.7,0.7,1.2
						c0,0.7,0.4,1.4,1.1,1.7c0.3,0.1,0.7,0.2,1,0.1s0.6-0.1,0.9-0.2C301.2,357.6,300.9,357.5,300.6,357.5z"/>
					<g>
						<path class="st6" d="M278.2,360.3c-0.2,0-1.8-0.3-1.8-0.3c-0.1-0.6-2.6-9.5-3.2-11.5c-1.3-4-2.9-7.9-4.4-11.8
							c0-0.1-0.2-0.1-0.2,0.1c1,3.4,1.9,6.8,2.9,10.1c-0.3-0.5-0.6-1-0.9-1.4c-0.6-1-1.1-2-1.7-3c0-0.1-0.2,0-0.2,0.1
							c0.4,1.4,1.1,2.8,1.9,4c0.3,0.5,0.7,1,1.1,1.5c0.1,0.3,0.2,0.6,0.3,0.8c0.6,2,3.8,11.7,4,11.7c0,0,1.6,0,2.1,0
							C278.3,360.6,278.3,360.3,278.2,360.3z"/>
						<path class="st6" d="M312.9,353.4c-9.4-0.7-18.8-0.7-28.2-0.6c-2.7,0-5.3,0.1-8,0.3c-0.1,0-0.1,0.1,0,0.1
							c4.7,0.3,9.4,0.3,14.1,0.4s9.4,0.1,14.1,0.1c2.7,0,5.3,0,8-0.1C313,353.6,313,353.4,312.9,353.4z"/>
					</g>
				</g>
			</g>
			<path class="st4" d="M242.7,307.8c-2.9,2.4-5.8,11.5-4.2,17.4c1.6,6,4.8,9.8,10.2,9.3s15.9-4.6,22.7-16.8
				C278.1,305.6,256.9,295.9,242.7,307.8z"/>
			<g>
				<g>
					<g>
						<path class="st9" d="M246.6,327.9c6.4,1.9,18.1-7.4,23-15.3c0.3-0.5-0.8-22.7-0.5-27.2c0.1-0.9-28.1,5.2-28.1,5.2
							s2.2,9.4,1.8,17.1C242.6,308.5,240.4,326.1,246.6,327.9z"/>
					</g>
					<path class="st6" d="M269.5,307c-14.8,2.2-22.8-2.2-27-6.5c-0.5-5.3-1.6-9.8-1.6-9.8s28.2-6.1,28.1-5.2
						C268.8,288.5,269.3,299.9,269.5,307z"/>
				</g>
				<g>
					<g>
						<path class="st9" d="M234,249.8c-4.1,9.4-2.2,38.3,4.1,45.4c9,10.3,25.5,13.1,34.6,1.8c8.9-10.9,5.7-48.5-1.4-55.1
							C260.8,232.2,240.1,235.9,234,249.8z"/>
					</g>
					<g>
						<g>
							<path class="st6" d="M260.1,270.1c0-0.1-0.1,0.1-0.1,0.2c0.2,1.9,0.1,4.2-1.7,4.9c-0.1,0,0,0.1,0,0.1
								C260.5,274.9,260.6,272,260.1,270.1z"/>
							<path class="st6" d="M258.3,268.2c-3.1,0-3,6.2-0.1,6.3C261,274.5,260.9,268.3,258.3,268.2z"/>
						</g>
						<g>
							<path class="st6" d="M270.9,270.2c0-0.1,0.2,0.1,0.2,0.2c0,1.9,0.3,4.2,2.1,4.8c0.1,0,0.1,0.1,0,0.1
								C270.9,275,270.6,272,270.9,270.2z"/>
							<path class="st6" d="M272.6,268.1c3.1-0.3,3.5,6,0.6,6.3C270.4,274.7,270,268.4,272.6,268.1z"/>
						</g>
						<path class="st6" d="M255.7,265.4c0.9-0.2,1.6-0.6,2.4-0.9c0.9-0.4,1.7-0.6,2.3-1.4c0.3-0.5,0.2-1.3-0.3-1.6
							c-1-0.8-2.2-0.7-3.3-0.3c-1.2,0.4-2.1,1.1-2.7,2.2C253.4,264.4,254.6,265.7,255.7,265.4z"/>
						<path class="st6" d="M275,264.9c-0.9-0.1-1.7-0.4-2.5-0.6c-1-0.2-1.8-0.3-2.4-1.1c-0.4-0.4-0.3-1.2,0-1.6
							c0.8-0.9,2.1-0.9,3.3-0.7c1.3,0.3,2.2,0.8,3,1.8C277.1,263.6,276.1,265.1,275,264.9z"/>
						<path class="st6" d="M258.2,288.3c0.5,0.4,1,1.1,1.7,1.1s1.5-0.3,2.1-0.5c0.1,0,0.1,0,0.1,0.1c-0.5,0.8-1.5,1.3-2.4,1.1
							c-0.9-0.1-1.3-0.9-1.6-1.7C258,288.2,258.2,288.2,258.2,288.3z"/>
						<g>
							<g>
								<path class="st6" d="M260.1,282.4c1.1,1.7,2.8,2.6,4.5,2.9c0.8,0.1,1.6,0.1,2.4,0.1c0.2,0,0.3,0,0.5-0.1
									c0.1,0,0.3,0,0.4-0.1c0.2,0,0.3-0.2,0.4-0.4l0,0c0-0.1,0-0.1,0-0.2l0,0v-0.2c0-1.5-0.2-3.8-0.2-3.8c0.6,0.3,3.4,1.5,3.3,0.7
									c-0.5-6.5-1.1-13.7-3-20c-0.1-0.2-0.4-0.2-0.4,0.1c0.3,6.2,1.6,12.4,2,18.7c-0.9-0.3-2.4-0.9-3.2-0.9
									c-0.2,0.1,0.5,4.4,0.4,5.1c0,0,0,0,0,0.1c-2.5,0.4-4.4-0.3-6.9-2C260.2,282.1,260,282.2,260.1,282.4z"/>
							</g>
						</g>
						<g>
							<path class="st6" d="M266.1,284.5c0,0-1.3,1.8-3.1,2.5c-0.7,0.3-1.4,0.4-2.1,0.2c-1.6-0.4-1.6-1.8-1.4-3
								c0.2-1,0.7-1.9,0.7-1.9S262.5,284.4,266.1,284.5z"/>
							<path class="st10" d="M263,287.1c-0.7,0.3-1.4,0.4-2.1,0.2c-1.6-0.4-1.6-1.8-1.4-3C261.2,284.3,262.8,285.4,263,287.1z"/>
						</g>
					</g>
					<g>
						<path class="st6" d="M233.1,272.2c7.4,0.3,9.4-13,9.4-13s12.7-1.5,15-10.9c0,0,11.6,8.2,21.2,5.2s8.1-13.7,7.2-16
							s-6.4,1.7-6.4,1.7s-0.3-6.1-1.9-6.7c-1.6-0.7-3.5,2.9-3.5,2.9s-11.9-4.6-23-4.8c-11-0.2-17,10.6-17,10.6s-5.9,1-8,5
							C224,250.2,228.4,272,233.1,272.2z"/>
						<path class="st6" d="M257.4,246.5c-0.1,2-0.6,3.9-1.4,5.6c-0.9,1.7-2.1,3.2-3.7,4.2c-1.6,1-3.4,1.5-5.3,1.9
							c-0.9,0.1-1.9,0.2-2.9,0.3c-1,0-1.9,0-2.9,0c1,0.2,1.9,0.3,2.9,0.5c1,0,2,0,3,0c2-0.2,4-0.7,5.7-1.8c1.7-1.1,3.1-2.8,3.8-4.7
							C257.4,250.5,257.7,248.5,257.4,246.5z"/>
						<path class="st6" d="M234,242.6c0.9-3.1,2.5-5.9,4.7-8.1s5.2-3.5,8.2-3.9c0.8-0.1,1.5-0.3,2.3-0.2l2.3,0.1
							c1.6,0.1,3.1,0.5,4.7,0.7c1.5,0.4,3.1,0.8,4.6,1.3s3,1.1,4.5,1.7c-1.4-0.7-2.9-1.4-4.3-2.1c-1.5-0.6-3-1.1-4.6-1.6
							c-3.1-0.7-6.4-1.3-9.6-0.8c-3.2,0.5-6.4,2-8.6,4.4C236,236.4,234.5,239.5,234,242.6z"/>
					</g>
					<g>
						<path class="st3" d="M255.8,279.2c-3.7-0.4-6.8-3.2-7.4-7.1c-0.7-4.6,2.5-8.8,7-9.5c4.6-0.7,8.8,2.5,9.5,7l0,0
							c0.7,4.5-2.5,8.8-7,9.5C257.2,279.3,256.5,279.3,255.8,279.2z M257.4,263.8c-0.6-0.1-1.2,0-1.8,0c-3.9,0.6-6.7,4.3-6.1,8.2
							c0.6,3.9,4.3,6.7,8.2,6.1s6.7-4.3,6.1-8.2C263.3,266.6,260.6,264.1,257.4,263.8z"/>
						<path class="st3" d="M275,278.9c-3.2-0.3-5.7-3.9-5.8-8.2c0-2.2,0.6-4.3,1.7-5.9c1.2-1.6,2.7-2.5,4.4-2.6
							c1.7,0,3.3,0.8,4.5,2.4c1.2,1.5,1.8,3.6,1.8,5.8c0.1,4.6-2.7,8.4-6.1,8.4C275.3,278.9,275.1,278.9,275,278.9z M275.7,263.4
							c-0.1,0-0.3,0-0.4,0c-1.3,0-2.6,0.8-3.5,2.1c-1,1.4-1.5,3.2-1.5,5.2c0.1,4,2.4,7.2,5.2,7.2c2.8,0,5-3.3,5-7.3
							c0-2-0.6-3.8-1.6-5.2C278,264.2,276.9,263.5,275.7,263.4z"/>
						<path class="st3" d="M264.7,270.7l-0.7-0.8c1.2-1.1,4.2-2.5,6.2-0.4l-0.8,0.8C267.5,268.3,264.8,270.6,264.7,270.7z"/>
						<path class="st3" d="M227.5,273.4l-1-0.5c0.2-0.5,2.3-4.6,4.8-5c2.3-0.4,17.3,0.8,17.9,0.8l-0.1,1.1
							c-4.3-0.3-15.8-1.2-17.6-0.8C229.9,269.3,228.1,272.2,227.5,273.4z"/>
					</g>
					<g>
						<path class="st9" d="M237.4,273.5c0,0-5.5-9.8-9.9-7.9s-0.8,15.6,3.9,17.9s6.9-2,6.9-2L237.4,273.5z"/>
						<path class="st6" d="M228.6,269.6c-0.1,0-0.1,0.1,0,0.1c3.3,1.7,4.8,5.1,5.7,8.5c-0.9-1.4-2.2-2.2-4-1.1
							c-0.1,0.1,0,0.2,0.1,0.2c1.4-0.2,2.4,0.2,3.3,1.4c0.6,0.9,1,1.9,1.4,2.9c0.1,0.3,0.7,0.2,0.6-0.2v-0.1
							C236.1,276.9,233.3,270.5,228.6,269.6z"/>
					</g>
				</g>
			</g>
		</g>
	</g>
	<polygon class="st6" points="20.9,433.8 100.7,433.6 180.5,433.5 340.1,433.3 499.7,433.5 579.5,433.6 659.3,433.8 579.5,434 
		499.7,434.1 340.1,434.3 180.5,434.1 100.7,434 	"/>
	<g>
		<g>
			<rect x="474.5" y="431.3" class="st7" width="111.2" height="5"/>
			<rect x="474.5" y="431.3" class="st6" width="56" height="5"/>
		</g>
		<g>
			<g>
				<polygon class="st2" points="529.2,436.3 637.5,436.3 652.9,362.7 544.5,362.7 				"/>
			</g>
			<path class="st1" d="M582.6,401.1c-0.4,4,2.5,7.2,6.5,7.2s7.6-3.2,8-7.2s-2.5-7.2-6.5-7.2S583,397.1,582.6,401.1z"/>
		</g>
	</g>
	<g>
		<g>
			<g>
				<g>
					<rect x="188.1" y="429" class="st7" width="6.1" height="4"/>
				</g>
				<g>
					<rect x="180.1" y="428.7" class="st7" width="6.1" height="4"/>
				</g>
				<g>
					<rect x="172.1" y="428.5" class="st7" width="6.1" height="4"/>
				</g>
				<g>
					<rect x="164.2" y="428.2" class="st7" width="6.1" height="4"/>
				</g>
				<g>
					<rect x="156.1" y="427.9" class="st7" width="6.1" height="4"/>
				</g>
				<g>
					<rect x="148.2" y="427.7" class="st7" width="6.1" height="4"/>
				</g>
				<g>
					<rect x="140.3" y="427.4" class="st7" width="6.1" height="4"/>
				</g>
				<g>
					<rect x="132.3" y="427.1" class="st7" width="6.1" height="4"/>
				</g>
				<g>
					<rect x="124.3" y="426.8" class="st7" width="6.1" height="4"/>
				</g>
			</g>
			<polygon class="st2" points="122.8,435.3 195.7,435.3 195.7,430.4 122.8,428.4 			"/>
		</g>
		<g>
			<g>
				<polygon class="st7" points="51.7,416 172,416 152.8,326.5 32.5,326.5 				"/>
				<polygon class="st2" points="47.2,416 167.5,416 148.4,326.5 28.1,326.5 				"/>
				<path class="st6" d="M87.4,366.1c0.7,4.1,4.5,7.4,8.6,7.4s6.9-3.3,6.3-7.4c-0.7-4.1-4.5-7.4-8.6-7.4
					C89.6,358.6,86.8,362,87.4,366.1z"/>
			</g>
			<g>
				<polygon class="st7" points="81.2,439.4 140.4,439.4 140.4,434.8 81.2,432.9 				"/>
				<polygon class="st7" points="65.2,439.4 96.9,439.4 116,389.2 84.3,389.2 				"/>
				<polygon class="st6" points="59.9,439.4 91.7,439.4 110.8,389.2 79.1,389.2 				"/>
			</g>
		</g>
		<g>
			<path class="st2" d="M197.9,440.7c0,0,55.8,0,61,0c5.2,0-2.3-14.8-21.3-20.5C218.6,414.5,191.9,435.1,197.9,440.7z"/>
			<g>
				<path class="st6" d="M221.8,440.7c-0.4-1.6-0.9-3.2-1.5-4.7s-1.3-3-2.2-4.4c-0.8-1.4-1.8-2.7-2.9-3.9l-0.9-0.9l-0.9-0.8
					c-0.6-0.6-1.3-1-2-1.5c1.5,0.6,3.1,1.5,4.3,2.6c1.3,1.1,2.4,2.5,3.3,3.9C220.7,433.9,221.8,437.3,221.8,440.7z"/>
				<path class="st6" d="M214.6,426.6c-1.7,0.9-3.3,1.8-4.9,2.8c-1.6,1-3.2,1.9-4.7,3s-3,2.2-4.2,3.6c-1.2,1.3-2.4,2.8-2.8,4.7
					c0-1.9,1-3.7,2.3-5.2c1.2-1.5,2.7-2.8,4.3-3.9C207.5,429.4,211,427.7,214.6,426.6z"/>
			</g>
		</g>
	</g>
	<g>
		<polygon class="st3" points="311.1,404 306.8,459.3 276.4,459.3 272,404 		"/>
		<rect x="269.1" y="399.1" class="st7" width="44.7" height="8.1"/>
		<polygon class="st2" points="310.7,399.1 272.2,399.1 274.4,390 308.4,390 		"/>
		<path class="st1" d="M302.1,432.1c0,7.2-4.7,13-10.5,13s-10.5-5.8-10.5-13s4.7-13,10.5-13S302.1,425,302.1,432.1z"/>
	</g>
	<g>
		<g>
			<path class="st1" d="M296.9,264.2c-1.9-2.9-3-6.2-3-9.7c0-12.3,13.5-22.2,30-22.2c16.6,0,30,9.9,30,22.2s-13.4,22.2-30,22.2
				c-8,0-15.3-2.3-20.7-6.1l-10.3,2.6L296.9,264.2z"/>
			<path class="st6" d="M296.9,264.2c-1.8-2.7-3-5.9-3.1-9.1c-0.1-3.3,0.7-6.6,2.4-9.4c1.6-2.9,4-5.3,6.6-7.2
				c2.6-1.9,5.6-3.4,8.7-4.5c3.1-1,6.4-1.7,9.6-1.9c3.3-0.2,6.6,0,9.8,0.5c3.2,0.5,6.4,1.5,9.4,2.9s5.8,3.3,8.1,5.6
				c2.3,2.3,4.2,5.2,5.2,8.4c1,3.2,1.1,6.7,0.1,9.9c-0.9,3.2-2.8,6.1-5.1,8.5c-2.3,2.4-5.1,4.3-8,5.7c-5.9,2.9-12.6,3.9-19.2,3.5
				c-6.5-0.4-13-2.4-18.4-6.2h0.2l-10.4,2.5l-0.2,0.1l0.1-0.2L296.9,264.2z M296.9,264.2l-3.9,9.1l-0.1-0.2l10.3-2.7h0.1l0.1,0.1
				c5.3,3.7,11.7,5.6,18.2,5.9c3.2,0.2,6.4-0.1,9.6-0.7s6.3-1.5,9.1-3c2.9-1.4,5.5-3.3,7.8-5.5c2.2-2.3,4-5,4.8-8.1
				c0.9-3,0.8-6.3-0.1-9.3s-2.7-5.7-5-8c-2.2-2.3-4.9-4.1-7.8-5.4c-2.9-1.4-6-2.4-9.1-2.9c-3.2-0.5-6.4-0.7-9.6-0.5
				s-6.4,0.8-9.5,1.8s-6,2.4-8.6,4.3s-4.9,4.2-6.6,7c-1.7,2.7-2.5,6-2.5,9.2C294.1,258.3,295.2,261.5,296.9,264.2z"/>
		</g>
		<g>
			<path class="st6" d="M334.8,254.6c0,1.7,1.4,3.1,3.1,3.1s3.1-1.4,3.1-3.1s-1.4-3.1-3.1-3.1C336.2,251.4,334.8,252.8,334.8,254.6z
				"/>
			<path class="st6" d="M320.9,254.6c0,1.7,1.4,3.1,3.1,3.1s3.1-1.4,3.1-3.1s-1.4-3.1-3.1-3.1C322.3,251.4,320.9,252.8,320.9,254.6z
				"/>
			<path class="st6" d="M306.9,254.6c0,1.7,1.4,3.1,3.1,3.1s3.1-1.4,3.1-3.1s-1.4-3.1-3.1-3.1C308.3,251.4,306.9,252.8,306.9,254.6z
				"/>
		</g>
	</g>
</g>
</svg>
