<?xml version="1.0" encoding="utf-8"?>
<!-- Generator: Adobe Illustrator 25.2.0, SVG Export Plug-In . SVG Version: 6.00 Build 0)  -->
<svg version="1.1" id="Layer_1" xmlns="http://www.w3.org/2000/svg" xmlns:xlink="http://www.w3.org/1999/xlink" x="0px" y="0px"
	 viewBox="0 0 477.1 482.2" style="enable-background:new 0 0 477.1 482.2;" xml:space="preserve">
<style type="text/css">
	.st0{fill:url(#SVGID_1_);}
	.st1{fill-rule:evenodd;clip-rule:evenodd;fill:#FFFFFF;}
</style>
<linearGradient id="SVGID_1_" gradientUnits="userSpaceOnUse" x1="87.8812" y1="2128.0903" x2="87.8812" y2="1587.7152" gradientTransform="matrix(0.8515 0 0 0.8553 163.837 -1349.7588)">
	<stop  offset="0" style="stop-color:#20B038"/>
	<stop  offset="1" style="stop-color:#60D66A"/>
</linearGradient>
<path class="st0" d="M10.5,237.3c0,40.4,10.5,79.8,30.6,114.5L8.6,470.5l121.5-31.8c33.5,18.2,71.1,27.9,109.5,27.9h0.1
	c126.3,0,229-102.7,229.1-229c0-61.2-23.8-118.7-67-162C358.4,32.2,300.9,8.3,239.6,8.3C113.3,8.3,10.6,111,10.5,237.3"/>
<path class="st1" d="M180.4,138.1c-4.4-9.9-9.1-10.1-13.3-10.2c-3.5-0.1-7.4-0.1-11.4-0.1c-4,0-10.4,1.5-15.8,7.4
	c-5.4,5.9-20.8,20.3-20.8,49.5c0,29.2,21.3,57.4,24.2,61.3c3,4,41,65.7,101.3,89.5c50.1,19.8,60.3,15.8,71.2,14.8
	c10.9-1,35.1-14.3,40-28.2c4.9-13.8,4.9-25.7,3.5-28.2c-1.5-2.5-5.4-4-11.4-6.9c-5.9-3-35.1-17.3-40.5-19.3c-5.4-2-9.4-3-13.3,3
	c-4,5.9-15.3,19.3-18.8,23.2c-3.5,4-6.9,4.5-12.8,1.5c-5.9-3-25-9.2-47.7-29.4c-17.6-15.7-29.5-35.1-33-41.1
	c-3.5-5.9-0.4-9.1,2.6-12.1c2.7-2.7,5.9-6.9,8.9-10.4c3-3.5,3.9-5.9,5.9-9.9c2-4,1-7.4-0.5-10.4
	C197.1,179.1,185.6,149.8,180.4,138.1"/>
</svg>
